G75*
%MOIN*%
%OFA0B0*%
%FSLAX25Y25*%
%IPPOS*%
%LPD*%
%AMOC8*
5,1,8,0,0,1.08239X$1,22.5*
%
%ADD10C,0.00000*%
%ADD11C,0.00800*%
%ADD12R,0.02677X0.05709*%
%ADD13R,0.02520X0.11063*%
%ADD14C,0.01600*%
%ADD15C,0.00400*%
%ADD16R,0.03000X0.03400*%
%ADD17C,0.00600*%
%ADD18R,0.02000X0.02000*%
%ADD19C,0.00039*%
%ADD20C,0.00500*%
%ADD21C,0.00295*%
%ADD22C,0.00891*%
%ADD23C,0.00300*%
%ADD24C,0.00276*%
%ADD25R,0.01575X0.00787*%
D10*
X0003081Y0002417D02*
X0160562Y0002417D01*
X0160837Y0001000D02*
X0160522Y0396000D01*
X0160562Y0396118D02*
X0003081Y0396118D01*
X0003081Y0002417D01*
D11*
X0075522Y0197378D02*
X0075522Y0202496D01*
X0065444Y0210409D02*
X0067944Y0212909D01*
X0067944Y0217909D01*
X0065444Y0220409D01*
X0050444Y0220409D01*
X0047944Y0217909D01*
X0047944Y0212909D01*
X0050444Y0210409D01*
X0065444Y0210409D01*
X0065444Y0220409D02*
X0067944Y0222909D01*
X0067944Y0227909D01*
X0065444Y0230409D01*
X0050444Y0230409D01*
X0047944Y0227909D01*
X0047944Y0222909D01*
X0050444Y0220409D01*
X0050444Y0230409D02*
X0047944Y0232909D01*
X0047944Y0237909D01*
X0050444Y0240409D01*
X0065444Y0240409D01*
X0067944Y0237909D01*
X0067944Y0232909D01*
X0065444Y0230409D01*
X0069263Y0232909D02*
X0069263Y0237909D01*
X0072310Y0278787D02*
X0072310Y0304591D01*
X0048710Y0304589D01*
X0048710Y0278789D02*
X0072310Y0278787D01*
X0094037Y0294383D02*
X0094037Y0300058D01*
X0094381Y0294752D02*
X0099893Y0294752D01*
X0100237Y0294383D02*
X0100237Y0300058D01*
X0105966Y0299586D02*
X0105966Y0293910D01*
X0106310Y0299217D02*
X0111822Y0299217D01*
X0112166Y0299586D02*
X0112166Y0293910D01*
X0120322Y0273234D02*
X0125998Y0273234D01*
X0125629Y0272890D02*
X0125629Y0267378D01*
X0125998Y0267034D02*
X0120322Y0267034D01*
X0112166Y0317335D02*
X0112166Y0323011D01*
X0111822Y0317705D02*
X0106310Y0317705D01*
X0105966Y0317335D02*
X0105966Y0323011D01*
X0100197Y0323247D02*
X0100197Y0317572D01*
X0099853Y0322878D02*
X0094341Y0322878D01*
X0093997Y0323247D02*
X0093997Y0317572D01*
X0064046Y0394720D02*
X0059046Y0394720D01*
X0057362Y0391863D02*
X0054160Y0391863D01*
X0052206Y0392664D02*
X0050604Y0394266D01*
X0050604Y0389461D01*
X0049003Y0389461D02*
X0052206Y0389461D01*
X0047049Y0389461D02*
X0043847Y0392664D01*
X0043847Y0393465D01*
X0044647Y0394266D01*
X0046249Y0394266D01*
X0047049Y0393465D01*
X0047049Y0389461D02*
X0043847Y0389461D01*
X0040292Y0389461D02*
X0041893Y0392664D01*
X0038690Y0392664D02*
X0040292Y0389461D01*
X0037645Y0273234D02*
X0043321Y0273234D01*
X0042952Y0272890D02*
X0042952Y0267378D01*
X0043321Y0267034D02*
X0037645Y0267034D01*
X0017730Y0267034D02*
X0012055Y0267034D01*
X0012055Y0273234D02*
X0017730Y0273234D01*
X0017361Y0272890D02*
X0017361Y0267378D01*
X0089696Y0202496D02*
X0089696Y0197378D01*
X0145913Y0267034D02*
X0151589Y0267034D01*
X0151219Y0267378D02*
X0151219Y0272890D01*
X0151589Y0273234D02*
X0145913Y0273234D01*
D12*
X0133908Y0388185D03*
X0023475Y0388303D03*
D13*
X0112767Y0162673D03*
D14*
X0114499Y0158323D02*
X0114501Y0158362D01*
X0114507Y0158401D01*
X0114517Y0158439D01*
X0114530Y0158476D01*
X0114547Y0158511D01*
X0114567Y0158545D01*
X0114591Y0158576D01*
X0114618Y0158605D01*
X0114647Y0158631D01*
X0114679Y0158654D01*
X0114713Y0158674D01*
X0114749Y0158690D01*
X0114786Y0158702D01*
X0114825Y0158711D01*
X0114864Y0158716D01*
X0114903Y0158717D01*
X0114942Y0158714D01*
X0114981Y0158707D01*
X0115018Y0158696D01*
X0115055Y0158682D01*
X0115090Y0158664D01*
X0115123Y0158643D01*
X0115154Y0158618D01*
X0115182Y0158591D01*
X0115207Y0158561D01*
X0115229Y0158528D01*
X0115248Y0158494D01*
X0115263Y0158458D01*
X0115275Y0158420D01*
X0115283Y0158382D01*
X0115287Y0158343D01*
X0115287Y0158303D01*
X0115283Y0158264D01*
X0115275Y0158226D01*
X0115263Y0158188D01*
X0115248Y0158152D01*
X0115229Y0158118D01*
X0115207Y0158085D01*
X0115182Y0158055D01*
X0115154Y0158028D01*
X0115123Y0158003D01*
X0115090Y0157982D01*
X0115055Y0157964D01*
X0115018Y0157950D01*
X0114981Y0157939D01*
X0114942Y0157932D01*
X0114903Y0157929D01*
X0114864Y0157930D01*
X0114825Y0157935D01*
X0114786Y0157944D01*
X0114749Y0157956D01*
X0114713Y0157972D01*
X0114679Y0157992D01*
X0114647Y0158015D01*
X0114618Y0158041D01*
X0114591Y0158070D01*
X0114567Y0158101D01*
X0114547Y0158135D01*
X0114530Y0158170D01*
X0114517Y0158207D01*
X0114507Y0158245D01*
X0114501Y0158284D01*
X0114499Y0158323D01*
X0067254Y0160685D02*
X0067256Y0160724D01*
X0067262Y0160763D01*
X0067272Y0160801D01*
X0067285Y0160838D01*
X0067302Y0160873D01*
X0067322Y0160907D01*
X0067346Y0160938D01*
X0067373Y0160967D01*
X0067402Y0160993D01*
X0067434Y0161016D01*
X0067468Y0161036D01*
X0067504Y0161052D01*
X0067541Y0161064D01*
X0067580Y0161073D01*
X0067619Y0161078D01*
X0067658Y0161079D01*
X0067697Y0161076D01*
X0067736Y0161069D01*
X0067773Y0161058D01*
X0067810Y0161044D01*
X0067845Y0161026D01*
X0067878Y0161005D01*
X0067909Y0160980D01*
X0067937Y0160953D01*
X0067962Y0160923D01*
X0067984Y0160890D01*
X0068003Y0160856D01*
X0068018Y0160820D01*
X0068030Y0160782D01*
X0068038Y0160744D01*
X0068042Y0160705D01*
X0068042Y0160665D01*
X0068038Y0160626D01*
X0068030Y0160588D01*
X0068018Y0160550D01*
X0068003Y0160514D01*
X0067984Y0160480D01*
X0067962Y0160447D01*
X0067937Y0160417D01*
X0067909Y0160390D01*
X0067878Y0160365D01*
X0067845Y0160344D01*
X0067810Y0160326D01*
X0067773Y0160312D01*
X0067736Y0160301D01*
X0067697Y0160294D01*
X0067658Y0160291D01*
X0067619Y0160292D01*
X0067580Y0160297D01*
X0067541Y0160306D01*
X0067504Y0160318D01*
X0067468Y0160334D01*
X0067434Y0160354D01*
X0067402Y0160377D01*
X0067373Y0160403D01*
X0067346Y0160432D01*
X0067322Y0160463D01*
X0067302Y0160497D01*
X0067285Y0160532D01*
X0067272Y0160569D01*
X0067262Y0160607D01*
X0067256Y0160646D01*
X0067254Y0160685D01*
D15*
X0069719Y0156645D02*
X0070386Y0155645D01*
X0071053Y0156645D01*
X0071720Y0155645D02*
X0069719Y0155645D01*
X0070052Y0154769D02*
X0069719Y0154436D01*
X0069719Y0153768D01*
X0070052Y0153435D01*
X0070719Y0153768D02*
X0070719Y0154769D01*
X0070052Y0154769D02*
X0071387Y0154769D01*
X0071720Y0154436D01*
X0071720Y0153768D01*
X0071387Y0153435D01*
X0071053Y0153435D01*
X0070719Y0153768D01*
X0070719Y0152559D02*
X0070719Y0151225D01*
X0071720Y0152226D01*
X0069719Y0152226D01*
X0069719Y0150349D02*
X0069719Y0149015D01*
X0071053Y0150349D01*
X0071387Y0150349D01*
X0071720Y0150016D01*
X0071720Y0149349D01*
X0071387Y0149015D01*
X0069719Y0147063D02*
X0069385Y0147396D01*
X0068718Y0147396D01*
X0068384Y0147063D01*
X0068384Y0146729D01*
X0068718Y0146395D01*
X0068384Y0146062D01*
X0068384Y0145728D01*
X0068718Y0145394D01*
X0069385Y0145394D01*
X0069719Y0145728D01*
X0069052Y0146395D02*
X0068718Y0146395D01*
X0067509Y0145728D02*
X0066175Y0147063D01*
X0066175Y0145728D01*
X0066508Y0145394D01*
X0067175Y0145394D01*
X0067509Y0145728D01*
X0067509Y0147063D01*
X0067175Y0147396D01*
X0066508Y0147396D01*
X0066175Y0147063D01*
X0065299Y0147063D02*
X0065299Y0146729D01*
X0064966Y0146395D01*
X0063965Y0146395D01*
X0063965Y0145728D02*
X0063965Y0147063D01*
X0064298Y0147396D01*
X0064966Y0147396D01*
X0065299Y0147063D01*
X0065299Y0145728D02*
X0064966Y0145394D01*
X0064298Y0145394D01*
X0063965Y0145728D01*
X0063089Y0145394D02*
X0063089Y0147396D01*
X0062088Y0146729D02*
X0063089Y0146062D01*
X0062088Y0145394D01*
X0062850Y0139758D02*
X0063518Y0139758D01*
X0063851Y0139425D01*
X0063851Y0139091D01*
X0063518Y0138758D01*
X0062517Y0138758D01*
X0062517Y0139425D02*
X0062517Y0138090D01*
X0062850Y0137757D01*
X0063518Y0137757D01*
X0063851Y0138090D01*
X0064727Y0137757D02*
X0066061Y0137757D01*
X0065394Y0137757D02*
X0065394Y0139758D01*
X0066061Y0139091D01*
X0066937Y0139425D02*
X0066937Y0138758D01*
X0067270Y0138424D01*
X0068271Y0138424D01*
X0067604Y0138424D02*
X0066937Y0137757D01*
X0068271Y0137757D02*
X0068271Y0139758D01*
X0067270Y0139758D01*
X0066937Y0139425D01*
X0062850Y0139758D02*
X0062517Y0139425D01*
X0052662Y0126058D02*
X0052995Y0125724D01*
X0052662Y0126058D02*
X0051995Y0126058D01*
X0051661Y0125724D01*
X0051661Y0125390D01*
X0052995Y0124056D01*
X0051661Y0124056D01*
X0050786Y0124056D02*
X0049451Y0125390D01*
X0049451Y0125724D01*
X0049785Y0126058D01*
X0050452Y0126058D01*
X0050786Y0125724D01*
X0050786Y0124056D02*
X0049451Y0124056D01*
X0048576Y0124390D02*
X0047241Y0125724D01*
X0047241Y0124390D01*
X0047575Y0124056D01*
X0048242Y0124056D01*
X0048576Y0124390D01*
X0048576Y0125724D01*
X0048242Y0126058D01*
X0047575Y0126058D01*
X0047241Y0125724D01*
X0051294Y0117436D02*
X0051294Y0115434D01*
X0051961Y0115434D02*
X0050627Y0115434D01*
X0051961Y0116768D02*
X0051294Y0117436D01*
X0052837Y0117102D02*
X0052837Y0116435D01*
X0053170Y0116101D01*
X0054171Y0116101D01*
X0053504Y0116101D02*
X0052837Y0115434D01*
X0054171Y0115434D02*
X0054171Y0117436D01*
X0053170Y0117436D01*
X0052837Y0117102D01*
X0049772Y0137125D02*
X0050106Y0137459D01*
X0049772Y0137125D02*
X0049105Y0137125D01*
X0048771Y0137459D01*
X0048771Y0137792D01*
X0049105Y0138126D01*
X0049439Y0138126D01*
X0049105Y0138126D02*
X0048771Y0138460D01*
X0048771Y0138793D01*
X0049105Y0139127D01*
X0049772Y0139127D01*
X0050106Y0138793D01*
X0047896Y0138793D02*
X0047896Y0138460D01*
X0047562Y0138126D01*
X0046562Y0138126D01*
X0046562Y0137459D02*
X0046562Y0138793D01*
X0046895Y0139127D01*
X0047562Y0139127D01*
X0047896Y0138793D01*
X0047896Y0137459D02*
X0047562Y0137125D01*
X0046895Y0137125D01*
X0046562Y0137459D01*
X0045686Y0137792D02*
X0044685Y0138460D01*
X0045686Y0139127D02*
X0045686Y0137125D01*
X0045686Y0137792D02*
X0044685Y0137125D01*
X0041100Y0131942D02*
X0041100Y0129940D01*
X0039766Y0129940D01*
X0038890Y0129940D02*
X0037556Y0129940D01*
X0038223Y0129940D02*
X0038223Y0131942D01*
X0038890Y0131275D01*
X0046080Y0146278D02*
X0044745Y0147612D01*
X0044745Y0147946D01*
X0046080Y0147946D01*
X0047622Y0147946D02*
X0047622Y0145944D01*
X0046955Y0145944D02*
X0048290Y0145944D01*
X0049165Y0145944D02*
X0049832Y0146611D01*
X0049499Y0146611D02*
X0050500Y0146611D01*
X0050500Y0145944D02*
X0050500Y0147946D01*
X0049499Y0147946D01*
X0049165Y0147612D01*
X0049165Y0146945D01*
X0049499Y0146611D01*
X0048290Y0147279D02*
X0047622Y0147946D01*
X0046080Y0146278D02*
X0046080Y0145944D01*
X0046855Y0158621D02*
X0046522Y0158955D01*
X0046522Y0159622D01*
X0046855Y0159956D01*
X0048190Y0159956D01*
X0048523Y0159622D01*
X0048523Y0158955D01*
X0048190Y0158621D01*
X0046855Y0158621D01*
X0046522Y0160831D02*
X0048523Y0160831D01*
X0048523Y0161832D01*
X0048190Y0162166D01*
X0047523Y0162166D01*
X0047189Y0161832D01*
X0047189Y0160831D01*
X0047523Y0163041D02*
X0047523Y0164375D01*
X0047856Y0164375D02*
X0046522Y0164375D01*
X0046522Y0165251D02*
X0047856Y0166585D01*
X0048190Y0166585D01*
X0048523Y0166252D01*
X0048523Y0165585D01*
X0048190Y0165251D01*
X0047856Y0164375D02*
X0048523Y0163708D01*
X0047856Y0163041D01*
X0046522Y0163041D01*
X0046522Y0165251D02*
X0046522Y0166585D01*
X0046522Y0167461D02*
X0046522Y0168795D01*
X0046522Y0168128D02*
X0048523Y0168128D01*
X0047856Y0167461D01*
X0048523Y0169671D02*
X0048523Y0171005D01*
X0048190Y0171005D01*
X0046855Y0169671D01*
X0046522Y0169671D01*
X0046522Y0171881D02*
X0046522Y0173215D01*
X0046522Y0172548D02*
X0048523Y0172548D01*
X0047856Y0171881D01*
X0042783Y0168536D02*
X0042783Y0166535D01*
X0042783Y0167202D02*
X0041782Y0167202D01*
X0041449Y0167535D01*
X0041449Y0168203D01*
X0041782Y0168536D01*
X0042783Y0168536D01*
X0042116Y0167202D02*
X0041449Y0166535D01*
X0040573Y0166535D02*
X0039239Y0167869D01*
X0039239Y0168203D01*
X0039572Y0168536D01*
X0040240Y0168536D01*
X0040573Y0168203D01*
X0040573Y0166535D02*
X0039239Y0166535D01*
X0038363Y0166535D02*
X0037029Y0167869D01*
X0037029Y0168203D01*
X0037362Y0168536D01*
X0038030Y0168536D01*
X0038363Y0168203D01*
X0038363Y0166535D02*
X0037029Y0166535D01*
X0035209Y0169726D02*
X0035209Y0171727D01*
X0034208Y0171727D01*
X0033874Y0171394D01*
X0033874Y0170727D01*
X0034208Y0170393D01*
X0035209Y0170393D01*
X0036084Y0170727D02*
X0036084Y0172061D01*
X0037418Y0170727D01*
X0037085Y0170393D01*
X0036418Y0170393D01*
X0036084Y0170727D01*
X0036084Y0172061D02*
X0036418Y0172395D01*
X0037085Y0172395D01*
X0037418Y0172061D01*
X0037418Y0170727D01*
X0038294Y0170393D02*
X0039628Y0170393D01*
X0038294Y0171727D01*
X0038294Y0172061D01*
X0038627Y0172395D01*
X0039295Y0172395D01*
X0039628Y0172061D01*
X0040504Y0172061D02*
X0040837Y0172395D01*
X0041505Y0172395D01*
X0041838Y0172061D01*
X0040504Y0172061D02*
X0040504Y0171727D01*
X0041838Y0170393D01*
X0040504Y0170393D01*
X0040717Y0177637D02*
X0040050Y0177637D01*
X0039716Y0177971D01*
X0038841Y0177637D02*
X0037506Y0177637D01*
X0038174Y0177637D02*
X0038174Y0179639D01*
X0038841Y0178971D01*
X0039716Y0179305D02*
X0040050Y0179639D01*
X0040717Y0179639D01*
X0041051Y0179305D01*
X0041051Y0177971D01*
X0040717Y0177637D01*
X0036631Y0177971D02*
X0036297Y0177637D01*
X0035630Y0177637D01*
X0035297Y0177971D01*
X0035297Y0178638D01*
X0035630Y0178971D01*
X0035964Y0178971D01*
X0036631Y0178638D01*
X0036631Y0179639D01*
X0035297Y0179639D01*
X0031386Y0187716D02*
X0031720Y0188049D01*
X0031386Y0187716D02*
X0030719Y0187716D01*
X0030386Y0188049D01*
X0030386Y0188383D01*
X0030719Y0188717D01*
X0031053Y0188717D01*
X0030719Y0188717D02*
X0030386Y0189050D01*
X0030386Y0189384D01*
X0030719Y0189717D01*
X0031386Y0189717D01*
X0031720Y0189384D01*
X0029510Y0189384D02*
X0029510Y0189050D01*
X0029177Y0188717D01*
X0028176Y0188717D01*
X0028176Y0189384D02*
X0028509Y0189717D01*
X0029177Y0189717D01*
X0029510Y0189384D01*
X0028176Y0189384D02*
X0028176Y0188049D01*
X0028509Y0187716D01*
X0029177Y0187716D01*
X0029510Y0188049D01*
X0027300Y0187716D02*
X0027300Y0189717D01*
X0026299Y0189050D02*
X0027300Y0188383D01*
X0026299Y0187716D01*
X0026693Y0196535D02*
X0026693Y0198536D01*
X0027694Y0197535D01*
X0026360Y0197535D01*
X0028569Y0196535D02*
X0029904Y0196535D01*
X0029237Y0196535D02*
X0029237Y0198536D01*
X0029904Y0197869D01*
X0030779Y0197535D02*
X0031113Y0197202D01*
X0032114Y0197202D01*
X0032114Y0196535D02*
X0032114Y0198536D01*
X0031113Y0198536D01*
X0030779Y0198203D01*
X0030779Y0197535D01*
X0031447Y0197202D02*
X0030779Y0196535D01*
X0019310Y0169680D02*
X0019310Y0167678D01*
X0017976Y0167678D01*
X0017100Y0167678D02*
X0017100Y0169680D01*
X0016433Y0169012D01*
X0015766Y0169680D01*
X0015766Y0167678D01*
X0014890Y0168679D02*
X0013556Y0168679D01*
X0013890Y0169680D02*
X0014890Y0168679D01*
X0013890Y0167678D02*
X0013890Y0169680D01*
X0012680Y0169346D02*
X0012347Y0169680D01*
X0011680Y0169680D01*
X0011346Y0169346D01*
X0012680Y0168012D01*
X0012347Y0167678D01*
X0011680Y0167678D01*
X0011346Y0168012D01*
X0011346Y0169346D01*
X0010471Y0168679D02*
X0009136Y0168679D01*
X0009470Y0169680D02*
X0010471Y0168679D01*
X0009470Y0167678D02*
X0009470Y0169680D01*
X0008261Y0169346D02*
X0007927Y0169680D01*
X0007260Y0169680D01*
X0006926Y0169346D01*
X0008261Y0168012D01*
X0007927Y0167678D01*
X0007260Y0167678D01*
X0006926Y0168012D01*
X0006926Y0169346D01*
X0008261Y0169346D02*
X0008261Y0168012D01*
X0012680Y0168012D02*
X0012680Y0169346D01*
X0008906Y0160061D02*
X0009240Y0159728D01*
X0009240Y0159060D01*
X0008906Y0158727D01*
X0008906Y0160061D02*
X0008573Y0160061D01*
X0007238Y0158727D01*
X0007238Y0160061D01*
X0007238Y0157851D02*
X0007238Y0156517D01*
X0007238Y0157184D02*
X0009240Y0157184D01*
X0008573Y0156517D01*
X0008906Y0155642D02*
X0009240Y0155308D01*
X0009240Y0154641D01*
X0008906Y0154307D01*
X0007572Y0154307D01*
X0007238Y0154641D01*
X0007238Y0155308D01*
X0007572Y0155642D01*
X0007238Y0153501D02*
X0007238Y0152834D01*
X0007238Y0153167D02*
X0009240Y0153167D01*
X0009240Y0152834D02*
X0009240Y0153501D01*
X0012414Y0145000D02*
X0013749Y0145000D01*
X0014082Y0144667D01*
X0014082Y0143999D01*
X0013749Y0143666D01*
X0013415Y0143666D01*
X0013082Y0143999D01*
X0013082Y0145000D01*
X0012414Y0145000D02*
X0012081Y0144667D01*
X0012081Y0143999D01*
X0012414Y0143666D01*
X0012081Y0142790D02*
X0012748Y0142123D01*
X0012748Y0142457D02*
X0012748Y0141456D01*
X0012081Y0141456D02*
X0014082Y0141456D01*
X0014082Y0142457D01*
X0013749Y0142790D01*
X0013082Y0142790D01*
X0012748Y0142457D01*
X0016453Y0157086D02*
X0017454Y0157086D01*
X0017788Y0157419D01*
X0017788Y0158754D01*
X0017454Y0159087D01*
X0016453Y0159087D01*
X0016453Y0157086D01*
X0018663Y0157753D02*
X0018663Y0159087D01*
X0018663Y0158087D02*
X0019998Y0158087D01*
X0019998Y0157753D02*
X0019998Y0159087D01*
X0020873Y0158754D02*
X0021207Y0159087D01*
X0021874Y0159087D01*
X0022207Y0158754D01*
X0023083Y0158754D02*
X0023416Y0159087D01*
X0024084Y0159087D01*
X0024417Y0158754D01*
X0024417Y0158420D01*
X0024084Y0158087D01*
X0023416Y0158087D01*
X0023083Y0157753D01*
X0023083Y0157419D01*
X0023416Y0157086D01*
X0024084Y0157086D01*
X0024417Y0157419D01*
X0024417Y0157753D01*
X0024084Y0158087D01*
X0023416Y0158087D02*
X0023083Y0158420D01*
X0023083Y0158754D01*
X0022207Y0157419D02*
X0021874Y0157086D01*
X0021207Y0157086D01*
X0020873Y0157419D01*
X0020873Y0158754D01*
X0019998Y0157753D02*
X0019330Y0157086D01*
X0018663Y0157753D01*
X0025293Y0158087D02*
X0025960Y0157753D01*
X0026294Y0157753D01*
X0026627Y0158087D01*
X0026627Y0158754D01*
X0026294Y0159087D01*
X0025626Y0159087D01*
X0025293Y0158754D01*
X0025293Y0158087D02*
X0025293Y0157086D01*
X0026627Y0157086D01*
X0027503Y0157086D02*
X0027503Y0158087D01*
X0028170Y0157753D01*
X0028503Y0157753D01*
X0028837Y0158087D01*
X0028837Y0158754D01*
X0028503Y0159087D01*
X0027836Y0159087D01*
X0027503Y0158754D01*
X0027503Y0157086D02*
X0028837Y0157086D01*
X0029712Y0157419D02*
X0030046Y0157086D01*
X0030713Y0157086D01*
X0031047Y0157419D01*
X0031047Y0157753D01*
X0029712Y0159087D01*
X0031047Y0159087D01*
X0035394Y0158897D02*
X0036395Y0159564D01*
X0035394Y0160231D01*
X0036395Y0160899D02*
X0036395Y0158897D01*
X0037270Y0159230D02*
X0037270Y0160565D01*
X0037604Y0160899D01*
X0038271Y0160899D01*
X0038605Y0160565D01*
X0038605Y0160231D01*
X0038271Y0159898D01*
X0037270Y0159898D01*
X0037270Y0159230D02*
X0037604Y0158897D01*
X0038271Y0158897D01*
X0038605Y0159230D01*
X0039480Y0159230D02*
X0039814Y0158897D01*
X0040481Y0158897D01*
X0040815Y0159230D01*
X0040147Y0159898D02*
X0039814Y0159898D01*
X0039480Y0159564D01*
X0039480Y0159230D01*
X0039814Y0159898D02*
X0039480Y0160231D01*
X0039480Y0160565D01*
X0039814Y0160899D01*
X0040481Y0160899D01*
X0040815Y0160565D01*
X0049169Y0188251D02*
X0051171Y0188251D01*
X0051171Y0189252D01*
X0050837Y0189586D01*
X0050170Y0189586D01*
X0049836Y0189252D01*
X0049836Y0188251D01*
X0049836Y0188919D02*
X0049169Y0189586D01*
X0049169Y0190461D02*
X0049169Y0191796D01*
X0049169Y0191129D02*
X0051171Y0191129D01*
X0050503Y0190461D01*
X0050837Y0192671D02*
X0051171Y0193005D01*
X0051171Y0193672D01*
X0050837Y0194006D01*
X0050503Y0194006D01*
X0049169Y0192671D01*
X0049169Y0194006D01*
X0052870Y0198008D02*
X0053203Y0197675D01*
X0052870Y0198008D02*
X0052870Y0198676D01*
X0053203Y0199009D01*
X0053537Y0199009D01*
X0053871Y0198676D01*
X0053871Y0198342D01*
X0053871Y0198676D02*
X0054204Y0199009D01*
X0054538Y0199009D01*
X0054871Y0198676D01*
X0054871Y0198008D01*
X0054538Y0197675D01*
X0054538Y0199885D02*
X0054204Y0199885D01*
X0053871Y0200218D01*
X0053871Y0201219D01*
X0054538Y0201219D02*
X0054871Y0200886D01*
X0054871Y0200218D01*
X0054538Y0199885D01*
X0054538Y0201219D02*
X0053203Y0201219D01*
X0052870Y0200886D01*
X0052870Y0200218D01*
X0053203Y0199885D01*
X0052870Y0202095D02*
X0054871Y0202095D01*
X0054204Y0203095D02*
X0053537Y0202095D01*
X0052870Y0203095D01*
X0060076Y0204089D02*
X0062078Y0204089D01*
X0062078Y0205089D01*
X0061745Y0205423D01*
X0061077Y0205423D01*
X0060744Y0205089D01*
X0060744Y0204089D01*
X0061077Y0203213D02*
X0060744Y0202879D01*
X0060744Y0202212D01*
X0061077Y0201879D01*
X0062412Y0203213D01*
X0061077Y0203213D01*
X0061077Y0201879D02*
X0062412Y0201879D01*
X0062745Y0202212D01*
X0062745Y0202879D01*
X0062412Y0203213D01*
X0062412Y0201003D02*
X0062745Y0200670D01*
X0062745Y0200002D01*
X0062412Y0199669D01*
X0062412Y0198793D02*
X0062745Y0198460D01*
X0062745Y0197792D01*
X0062412Y0197459D01*
X0062412Y0198793D02*
X0062078Y0198793D01*
X0060744Y0197459D01*
X0060744Y0198793D01*
X0060744Y0199669D02*
X0062078Y0201003D01*
X0062412Y0201003D01*
X0060744Y0201003D02*
X0060744Y0199669D01*
X0061981Y0184557D02*
X0061981Y0183222D01*
X0062982Y0184223D01*
X0060980Y0184223D01*
X0060980Y0182347D02*
X0060980Y0181012D01*
X0060980Y0181680D02*
X0062982Y0181680D01*
X0062314Y0181012D01*
X0062648Y0180137D02*
X0062982Y0179803D01*
X0062982Y0179136D01*
X0062648Y0178803D01*
X0061314Y0178803D01*
X0060980Y0179136D01*
X0060980Y0179803D01*
X0061314Y0180137D01*
X0057201Y0167696D02*
X0056533Y0167029D01*
X0056867Y0166153D02*
X0057201Y0165820D01*
X0057201Y0165153D01*
X0056867Y0164819D01*
X0055532Y0164819D01*
X0055199Y0165153D01*
X0055199Y0165820D01*
X0055532Y0166153D01*
X0055199Y0167029D02*
X0055199Y0168363D01*
X0055199Y0167696D02*
X0057201Y0167696D01*
X0057201Y0164013D02*
X0057201Y0163346D01*
X0057201Y0163679D02*
X0055199Y0163679D01*
X0055199Y0163346D02*
X0055199Y0164013D01*
X0067949Y0176904D02*
X0069951Y0176904D01*
X0069951Y0177905D01*
X0069617Y0178239D01*
X0068950Y0178239D01*
X0068616Y0177905D01*
X0068616Y0176904D01*
X0068950Y0176029D02*
X0068616Y0175695D01*
X0068616Y0175028D01*
X0068950Y0174695D01*
X0070284Y0176029D01*
X0068950Y0176029D01*
X0070284Y0176029D02*
X0070618Y0175695D01*
X0070618Y0175028D01*
X0070284Y0174695D01*
X0068950Y0174695D01*
X0068616Y0173819D02*
X0068616Y0172485D01*
X0069951Y0173819D01*
X0070284Y0173819D01*
X0070618Y0173486D01*
X0070618Y0172818D01*
X0070284Y0172485D01*
X0070284Y0171609D02*
X0070618Y0171276D01*
X0070618Y0170608D01*
X0070284Y0170275D01*
X0070284Y0171609D02*
X0069951Y0171609D01*
X0068616Y0170275D01*
X0068616Y0171609D01*
X0076254Y0171669D02*
X0076588Y0172003D01*
X0076254Y0171669D02*
X0076254Y0171002D01*
X0076588Y0170669D01*
X0077922Y0170669D01*
X0078256Y0171002D01*
X0078256Y0171669D01*
X0077922Y0172003D01*
X0077588Y0172878D02*
X0078256Y0173546D01*
X0076254Y0173546D01*
X0076254Y0174213D02*
X0076254Y0172878D01*
X0076588Y0175088D02*
X0076254Y0175422D01*
X0076254Y0176089D01*
X0076588Y0176423D01*
X0077922Y0176423D01*
X0078256Y0176089D01*
X0078256Y0175422D01*
X0077922Y0175088D01*
X0077588Y0175088D01*
X0077255Y0175422D01*
X0077255Y0176423D01*
X0078898Y0180826D02*
X0079899Y0181493D01*
X0078898Y0182160D01*
X0079899Y0182828D02*
X0079899Y0180826D01*
X0080774Y0181160D02*
X0080774Y0182494D01*
X0081108Y0182828D01*
X0081775Y0182828D01*
X0082109Y0182494D01*
X0082109Y0182160D01*
X0081775Y0181827D01*
X0080774Y0181827D01*
X0080774Y0181160D02*
X0081108Y0180826D01*
X0081775Y0180826D01*
X0082109Y0181160D01*
X0082984Y0181160D02*
X0083318Y0180826D01*
X0083985Y0180826D01*
X0084319Y0181160D01*
X0083651Y0181827D02*
X0083318Y0181827D01*
X0082984Y0181493D01*
X0082984Y0181160D01*
X0083318Y0181827D02*
X0082984Y0182160D01*
X0082984Y0182494D01*
X0083318Y0182828D01*
X0083985Y0182828D01*
X0084319Y0182494D01*
X0086045Y0182591D02*
X0086712Y0182258D01*
X0087379Y0181591D01*
X0086378Y0181591D01*
X0086045Y0181257D01*
X0086045Y0180923D01*
X0086378Y0180590D01*
X0087045Y0180590D01*
X0087379Y0180923D01*
X0087379Y0181591D01*
X0088254Y0181924D02*
X0088254Y0182258D01*
X0088588Y0182591D01*
X0089255Y0182591D01*
X0089589Y0182258D01*
X0090464Y0182258D02*
X0090464Y0181591D01*
X0090798Y0181257D01*
X0091799Y0181257D01*
X0091799Y0180590D02*
X0091799Y0182591D01*
X0090798Y0182591D01*
X0090464Y0182258D01*
X0091132Y0181257D02*
X0090464Y0180590D01*
X0089589Y0180590D02*
X0088254Y0181924D01*
X0088254Y0180590D02*
X0089589Y0180590D01*
X0091063Y0174127D02*
X0090730Y0173793D01*
X0092064Y0172459D01*
X0091730Y0172125D01*
X0091063Y0172125D01*
X0090730Y0172459D01*
X0090730Y0173793D01*
X0091063Y0174127D02*
X0091730Y0174127D01*
X0092064Y0173793D01*
X0092064Y0172459D01*
X0092940Y0172125D02*
X0094274Y0172125D01*
X0092940Y0173460D01*
X0092940Y0173793D01*
X0093273Y0174127D01*
X0093940Y0174127D01*
X0094274Y0173793D01*
X0095149Y0173793D02*
X0095483Y0174127D01*
X0096150Y0174127D01*
X0096484Y0173793D01*
X0096484Y0172459D01*
X0096150Y0172125D01*
X0095483Y0172125D01*
X0095149Y0172459D01*
X0094922Y0163694D02*
X0095922Y0162693D01*
X0094588Y0162693D01*
X0094922Y0161692D02*
X0094922Y0163694D01*
X0096798Y0163360D02*
X0096798Y0163027D01*
X0098132Y0161692D01*
X0096798Y0161692D01*
X0096798Y0163360D02*
X0097131Y0163694D01*
X0097799Y0163694D01*
X0098132Y0163360D01*
X0099008Y0163360D02*
X0099008Y0162693D01*
X0099341Y0162359D01*
X0100342Y0162359D01*
X0100342Y0161692D02*
X0100342Y0163694D01*
X0099341Y0163694D01*
X0099008Y0163360D01*
X0099675Y0162359D02*
X0099008Y0161692D01*
X0105238Y0161883D02*
X0105572Y0162216D01*
X0105238Y0161883D02*
X0105238Y0161216D01*
X0105572Y0160882D01*
X0106906Y0160882D01*
X0107240Y0161216D01*
X0107240Y0161883D01*
X0106906Y0162216D01*
X0106906Y0163092D02*
X0107240Y0163425D01*
X0107240Y0164093D01*
X0106906Y0164426D01*
X0106573Y0164426D01*
X0106239Y0164093D01*
X0105905Y0164426D01*
X0105572Y0164426D01*
X0105238Y0164093D01*
X0105238Y0163425D01*
X0105572Y0163092D01*
X0106239Y0163759D02*
X0106239Y0164093D01*
X0105238Y0160076D02*
X0105238Y0159409D01*
X0105238Y0159742D02*
X0107240Y0159742D01*
X0107240Y0159409D02*
X0107240Y0160076D01*
X0116640Y0167223D02*
X0116640Y0167890D01*
X0116973Y0168223D01*
X0118308Y0168223D01*
X0118641Y0167890D01*
X0118641Y0167223D01*
X0118308Y0166889D01*
X0116973Y0166889D01*
X0116640Y0167223D01*
X0116640Y0169099D02*
X0118641Y0169099D01*
X0118641Y0170100D01*
X0118308Y0170433D01*
X0117641Y0170433D01*
X0117307Y0170100D01*
X0117307Y0169099D01*
X0117641Y0171309D02*
X0117641Y0172643D01*
X0117974Y0172643D02*
X0116640Y0172643D01*
X0116640Y0173519D02*
X0117974Y0174853D01*
X0118308Y0174853D01*
X0118641Y0174519D01*
X0118641Y0173852D01*
X0118308Y0173519D01*
X0117974Y0172643D02*
X0118641Y0171976D01*
X0117974Y0171309D01*
X0116640Y0171309D01*
X0116640Y0173519D02*
X0116640Y0174853D01*
X0116640Y0175728D02*
X0116640Y0177063D01*
X0116640Y0176396D02*
X0118641Y0176396D01*
X0117974Y0175728D01*
X0118641Y0177938D02*
X0118641Y0179273D01*
X0118308Y0179273D01*
X0116973Y0177938D01*
X0116640Y0177938D01*
X0116640Y0180148D02*
X0116640Y0181483D01*
X0116640Y0180815D02*
X0118641Y0180815D01*
X0117974Y0180148D01*
X0113886Y0181926D02*
X0111884Y0181926D01*
X0111884Y0181259D02*
X0111884Y0182594D01*
X0112217Y0183469D02*
X0111884Y0183803D01*
X0111884Y0184470D01*
X0112217Y0184803D01*
X0113552Y0184803D01*
X0112217Y0183469D01*
X0113552Y0183469D01*
X0113886Y0183803D01*
X0113886Y0184470D01*
X0113552Y0184803D01*
X0113552Y0185679D02*
X0113886Y0186012D01*
X0113886Y0186680D01*
X0113552Y0187013D01*
X0112217Y0185679D01*
X0111884Y0186012D01*
X0111884Y0186680D01*
X0112217Y0187013D01*
X0113552Y0187013D01*
X0113218Y0187889D02*
X0113218Y0188890D01*
X0112885Y0189223D01*
X0111884Y0189223D01*
X0111884Y0187889D02*
X0113218Y0187889D01*
X0113552Y0185679D02*
X0112217Y0185679D01*
X0113886Y0181926D02*
X0113218Y0181259D01*
X0105988Y0184114D02*
X0105654Y0183780D01*
X0104987Y0183780D01*
X0104653Y0184114D01*
X0103778Y0183780D02*
X0102443Y0185115D01*
X0102443Y0185448D01*
X0102777Y0185782D01*
X0103444Y0185782D01*
X0103778Y0185448D01*
X0104653Y0185448D02*
X0104987Y0185782D01*
X0105654Y0185782D01*
X0105988Y0185448D01*
X0105988Y0184114D01*
X0103778Y0183780D02*
X0102443Y0183780D01*
X0101568Y0184114D02*
X0101568Y0184448D01*
X0101234Y0184781D01*
X0100567Y0184781D01*
X0100233Y0184448D01*
X0100233Y0184114D01*
X0100567Y0183780D01*
X0101234Y0183780D01*
X0101568Y0184114D01*
X0101234Y0184781D02*
X0101568Y0185115D01*
X0101568Y0185448D01*
X0101234Y0185782D01*
X0100567Y0185782D01*
X0100233Y0185448D01*
X0100233Y0185115D01*
X0100567Y0184781D01*
X0103568Y0202913D02*
X0104236Y0202913D01*
X0104569Y0203246D01*
X0105445Y0203246D02*
X0105778Y0202913D01*
X0106446Y0202913D01*
X0106779Y0203246D01*
X0106779Y0204581D01*
X0106446Y0204914D01*
X0105778Y0204914D01*
X0105445Y0204581D01*
X0104569Y0204581D02*
X0104236Y0204914D01*
X0103568Y0204914D01*
X0103235Y0204581D01*
X0103235Y0204247D01*
X0103568Y0203913D01*
X0103235Y0203580D01*
X0103235Y0203246D01*
X0103568Y0202913D01*
X0103568Y0203913D02*
X0103902Y0203913D01*
X0110921Y0203691D02*
X0111922Y0203691D01*
X0112255Y0203357D01*
X0112255Y0202356D01*
X0110921Y0202356D01*
X0111254Y0201481D02*
X0110921Y0201147D01*
X0110921Y0200480D01*
X0111254Y0200146D01*
X0112589Y0201481D01*
X0111254Y0201481D01*
X0111254Y0200146D02*
X0112589Y0200146D01*
X0112923Y0200480D01*
X0112923Y0201147D01*
X0112589Y0201481D01*
X0112589Y0199271D02*
X0111254Y0197936D01*
X0110921Y0198270D01*
X0110921Y0198937D01*
X0111254Y0199271D01*
X0112589Y0199271D01*
X0112923Y0198937D01*
X0112923Y0198270D01*
X0112589Y0197936D01*
X0111254Y0197936D01*
X0110921Y0197061D02*
X0110921Y0195727D01*
X0110921Y0196394D02*
X0112923Y0196394D01*
X0112255Y0195727D01*
X0129268Y0155272D02*
X0128934Y0154939D01*
X0128934Y0153938D01*
X0130269Y0153938D02*
X0130269Y0155272D01*
X0129268Y0155272D01*
X0131144Y0155606D02*
X0131144Y0154271D01*
X0131478Y0153938D01*
X0132145Y0153938D01*
X0132478Y0154271D01*
X0131144Y0155606D01*
X0131478Y0155940D01*
X0132145Y0155940D01*
X0132478Y0155606D01*
X0132478Y0154271D01*
X0133354Y0155606D02*
X0134688Y0154271D01*
X0134688Y0153938D01*
X0135897Y0153938D02*
X0135897Y0155940D01*
X0136898Y0154939D01*
X0135564Y0154939D01*
X0134688Y0155940D02*
X0133354Y0155940D01*
X0133354Y0155606D01*
X0133687Y0146727D02*
X0134355Y0146727D01*
X0134688Y0146393D01*
X0134688Y0145059D01*
X0134355Y0144725D01*
X0133687Y0144725D01*
X0133354Y0145059D01*
X0132478Y0144725D02*
X0131144Y0144725D01*
X0131811Y0144725D02*
X0131811Y0146727D01*
X0132478Y0146060D01*
X0133354Y0146393D02*
X0133687Y0146727D01*
X0130269Y0146060D02*
X0129601Y0146727D01*
X0129601Y0144725D01*
X0128934Y0144725D02*
X0130269Y0144725D01*
X0128961Y0124719D02*
X0128294Y0124719D01*
X0127960Y0124385D01*
X0127960Y0124052D01*
X0129295Y0122717D01*
X0127960Y0122717D01*
X0127085Y0122717D02*
X0125750Y0124052D01*
X0125750Y0124385D01*
X0126084Y0124719D01*
X0126751Y0124719D01*
X0127085Y0124385D01*
X0127085Y0122717D02*
X0125750Y0122717D01*
X0124875Y0123051D02*
X0123540Y0124385D01*
X0123540Y0123051D01*
X0123874Y0122717D01*
X0124541Y0122717D01*
X0124875Y0123051D01*
X0124875Y0124385D01*
X0124541Y0124719D01*
X0123874Y0124719D01*
X0123540Y0124385D01*
X0121184Y0131851D02*
X0121184Y0133853D01*
X0120184Y0133853D01*
X0119850Y0133519D01*
X0119850Y0132852D01*
X0120184Y0132518D01*
X0121184Y0132518D01*
X0120517Y0132518D02*
X0119850Y0131851D01*
X0118975Y0131851D02*
X0117640Y0133186D01*
X0117640Y0133519D01*
X0117974Y0133853D01*
X0118641Y0133853D01*
X0118975Y0133519D01*
X0118975Y0131851D02*
X0117640Y0131851D01*
X0116765Y0132185D02*
X0116431Y0131851D01*
X0115764Y0131851D01*
X0115430Y0132185D01*
X0115430Y0133519D01*
X0115764Y0133853D01*
X0116431Y0133853D01*
X0116765Y0133519D01*
X0116765Y0133186D01*
X0116431Y0132852D01*
X0115430Y0132852D01*
X0115215Y0141064D02*
X0115215Y0143065D01*
X0116091Y0142732D02*
X0116424Y0143065D01*
X0117091Y0143065D01*
X0117425Y0142732D01*
X0117425Y0142398D01*
X0117091Y0142065D01*
X0116091Y0142065D01*
X0116091Y0142732D02*
X0116091Y0141397D01*
X0116424Y0141064D01*
X0117091Y0141064D01*
X0117425Y0141397D01*
X0118301Y0142065D02*
X0119635Y0142065D01*
X0118634Y0143065D01*
X0118634Y0141064D01*
X0120510Y0141064D02*
X0121845Y0141064D01*
X0120510Y0142398D01*
X0120510Y0142732D01*
X0120844Y0143065D01*
X0121511Y0143065D01*
X0121845Y0142732D01*
X0115215Y0141731D02*
X0114214Y0142398D01*
X0115215Y0141731D02*
X0114214Y0141064D01*
X0106342Y0140867D02*
X0105007Y0140867D01*
X0105675Y0140867D02*
X0105675Y0142869D01*
X0106342Y0142201D01*
X0104132Y0142201D02*
X0104132Y0142535D01*
X0103798Y0142869D01*
X0103131Y0142869D01*
X0102798Y0142535D01*
X0102798Y0142201D01*
X0103131Y0141868D01*
X0103798Y0141868D01*
X0104132Y0142201D01*
X0103798Y0141868D02*
X0104132Y0141534D01*
X0104132Y0141201D01*
X0103798Y0140867D01*
X0103131Y0140867D01*
X0102798Y0141201D01*
X0102798Y0141534D01*
X0103131Y0141868D01*
X0101922Y0142201D02*
X0100921Y0142201D01*
X0100588Y0141868D01*
X0100588Y0141201D01*
X0100921Y0140867D01*
X0101922Y0140867D01*
X0101922Y0140200D02*
X0101922Y0142201D01*
X0101588Y0134050D02*
X0100921Y0134050D01*
X0100588Y0133716D01*
X0100588Y0133383D01*
X0100921Y0133049D01*
X0100588Y0132715D01*
X0100588Y0132382D01*
X0100921Y0132048D01*
X0101588Y0132048D01*
X0101922Y0132382D01*
X0102798Y0132048D02*
X0104132Y0132048D01*
X0102798Y0133383D01*
X0102798Y0133716D01*
X0103131Y0134050D01*
X0103798Y0134050D01*
X0104132Y0133716D01*
X0105007Y0133716D02*
X0105341Y0134050D01*
X0106008Y0134050D01*
X0106342Y0133716D01*
X0106342Y0132382D01*
X0106008Y0132048D01*
X0105341Y0132048D01*
X0105007Y0132382D01*
X0101922Y0133716D02*
X0101588Y0134050D01*
X0101255Y0133049D02*
X0100921Y0133049D01*
X0095181Y0123380D02*
X0095515Y0123047D01*
X0095181Y0123380D02*
X0094514Y0123380D01*
X0094181Y0123047D01*
X0094181Y0122713D01*
X0095515Y0121379D01*
X0094181Y0121379D01*
X0093305Y0121379D02*
X0091971Y0122713D01*
X0091971Y0123047D01*
X0092304Y0123380D01*
X0092972Y0123380D01*
X0093305Y0123047D01*
X0093305Y0121379D02*
X0091971Y0121379D01*
X0091095Y0121712D02*
X0089761Y0123047D01*
X0089761Y0121712D01*
X0090094Y0121379D01*
X0090762Y0121379D01*
X0091095Y0121712D01*
X0091095Y0123047D01*
X0090762Y0123380D01*
X0090094Y0123380D01*
X0089761Y0123047D01*
X0087489Y0130826D02*
X0087822Y0131160D01*
X0087489Y0130826D02*
X0086822Y0130826D01*
X0086488Y0131160D01*
X0086488Y0131493D01*
X0086822Y0131827D01*
X0087155Y0131827D01*
X0086822Y0131827D02*
X0086488Y0132160D01*
X0086488Y0132494D01*
X0086822Y0132828D01*
X0087489Y0132828D01*
X0087822Y0132494D01*
X0085613Y0132494D02*
X0085613Y0131160D01*
X0084278Y0132494D01*
X0084278Y0131160D01*
X0084612Y0130826D01*
X0085279Y0130826D01*
X0085613Y0131160D01*
X0085613Y0132494D02*
X0085279Y0132828D01*
X0084612Y0132828D01*
X0084278Y0132494D01*
X0083403Y0132494D02*
X0083403Y0132160D01*
X0083069Y0131827D01*
X0082068Y0131827D01*
X0082068Y0132494D02*
X0082402Y0132828D01*
X0083069Y0132828D01*
X0083403Y0132494D01*
X0083403Y0131160D02*
X0083069Y0130826D01*
X0082402Y0130826D01*
X0082068Y0131160D01*
X0082068Y0132494D01*
X0081193Y0132828D02*
X0081193Y0130826D01*
X0081193Y0131493D02*
X0080192Y0130826D01*
X0081193Y0131493D02*
X0080192Y0132160D01*
X0077997Y0124758D02*
X0077997Y0122757D01*
X0077330Y0122757D02*
X0078665Y0122757D01*
X0078665Y0124091D02*
X0077997Y0124758D01*
X0076455Y0124425D02*
X0076455Y0124091D01*
X0076121Y0123758D01*
X0075454Y0123758D01*
X0075120Y0123424D01*
X0075120Y0123090D01*
X0075454Y0122757D01*
X0076121Y0122757D01*
X0076455Y0123090D01*
X0076455Y0123424D01*
X0076121Y0123758D01*
X0075454Y0123758D02*
X0075120Y0124091D01*
X0075120Y0124425D01*
X0075454Y0124758D01*
X0076121Y0124758D01*
X0076455Y0124425D01*
X0074245Y0124091D02*
X0074245Y0122089D01*
X0074245Y0122757D02*
X0073244Y0122757D01*
X0072910Y0123090D01*
X0072910Y0123758D01*
X0073244Y0124091D01*
X0074245Y0124091D01*
X0074639Y0115152D02*
X0073304Y0115152D01*
X0073304Y0114818D01*
X0074639Y0113484D01*
X0074639Y0113150D01*
X0075514Y0113150D02*
X0076849Y0113150D01*
X0076181Y0113150D02*
X0076181Y0115152D01*
X0076849Y0114485D01*
X0077724Y0114818D02*
X0078058Y0115152D01*
X0078725Y0115152D01*
X0079058Y0114818D01*
X0079058Y0113484D01*
X0078725Y0113150D01*
X0078058Y0113150D01*
X0077724Y0113484D01*
X0084131Y0113776D02*
X0084131Y0114110D01*
X0084465Y0114443D01*
X0085132Y0114443D01*
X0085465Y0114110D01*
X0086341Y0114110D02*
X0086341Y0113443D01*
X0086674Y0113109D01*
X0087675Y0113109D01*
X0087008Y0113109D02*
X0086341Y0112442D01*
X0085465Y0112442D02*
X0084131Y0113776D01*
X0084131Y0112442D02*
X0085465Y0112442D01*
X0086341Y0114110D02*
X0086674Y0114443D01*
X0087675Y0114443D01*
X0087675Y0112442D01*
X0086248Y0140039D02*
X0086248Y0142040D01*
X0085247Y0142040D01*
X0084913Y0141707D01*
X0084913Y0141039D01*
X0085247Y0140706D01*
X0086248Y0140706D01*
X0085580Y0140706D02*
X0084913Y0140039D01*
X0084038Y0140372D02*
X0083704Y0140039D01*
X0083037Y0140039D01*
X0082703Y0140372D01*
X0082703Y0140706D01*
X0083037Y0141039D01*
X0083371Y0141039D01*
X0083037Y0141039D02*
X0082703Y0141373D01*
X0082703Y0141707D01*
X0083037Y0142040D01*
X0083704Y0142040D01*
X0084038Y0141707D01*
X0081828Y0141707D02*
X0081494Y0142040D01*
X0080827Y0142040D01*
X0080493Y0141707D01*
X0081828Y0140372D01*
X0081494Y0140039D01*
X0080827Y0140039D01*
X0080493Y0140372D01*
X0080493Y0141707D01*
X0081828Y0141707D02*
X0081828Y0140372D01*
X0078809Y0143818D02*
X0079476Y0144485D01*
X0077474Y0144485D01*
X0077474Y0143818D02*
X0077474Y0145153D01*
X0077808Y0146028D02*
X0079142Y0147362D01*
X0077808Y0147362D01*
X0077474Y0147029D01*
X0077474Y0146362D01*
X0077808Y0146028D01*
X0079142Y0146028D01*
X0079476Y0146362D01*
X0079476Y0147029D01*
X0079142Y0147362D01*
X0079142Y0148238D02*
X0079476Y0148571D01*
X0079476Y0149239D01*
X0079142Y0149572D01*
X0077808Y0148238D01*
X0077474Y0148571D01*
X0077474Y0149239D01*
X0077808Y0149572D01*
X0079142Y0149572D01*
X0078809Y0150448D02*
X0078809Y0151449D01*
X0078475Y0151782D01*
X0077474Y0151782D01*
X0077474Y0150448D02*
X0078809Y0150448D01*
X0079142Y0148238D02*
X0077808Y0148238D01*
X0077630Y0154527D02*
X0077630Y0155528D01*
X0077963Y0155861D01*
X0078631Y0155861D01*
X0078964Y0155528D01*
X0078964Y0154527D01*
X0076963Y0154527D01*
X0077630Y0155194D02*
X0076963Y0155861D01*
X0076963Y0156737D02*
X0076963Y0158071D01*
X0076963Y0157404D02*
X0078964Y0157404D01*
X0078297Y0156737D01*
X0078297Y0158947D02*
X0078631Y0158947D01*
X0078964Y0159280D01*
X0078964Y0159947D01*
X0078631Y0160281D01*
X0078297Y0160281D01*
X0077963Y0159947D01*
X0077963Y0159280D01*
X0078297Y0158947D01*
X0077963Y0159280D02*
X0077630Y0158947D01*
X0077296Y0158947D01*
X0076963Y0159280D01*
X0076963Y0159947D01*
X0077296Y0160281D01*
X0077630Y0160281D01*
X0077963Y0159947D01*
X0081980Y0171300D02*
X0081980Y0173302D01*
X0080979Y0173302D01*
X0080646Y0172969D01*
X0080646Y0172301D01*
X0080979Y0171968D01*
X0081980Y0171968D01*
X0082856Y0172301D02*
X0083189Y0171968D01*
X0083856Y0171968D01*
X0084190Y0172301D01*
X0082856Y0173636D01*
X0082856Y0172301D01*
X0084190Y0172301D02*
X0084190Y0173636D01*
X0083856Y0173969D01*
X0083189Y0173969D01*
X0082856Y0173636D01*
X0085065Y0173636D02*
X0085399Y0173969D01*
X0086066Y0173969D01*
X0086400Y0173636D01*
X0087275Y0173636D02*
X0087609Y0173969D01*
X0088276Y0173969D01*
X0088610Y0173636D01*
X0087275Y0173636D02*
X0087275Y0173302D01*
X0088610Y0171968D01*
X0087275Y0171968D01*
X0086400Y0171968D02*
X0085065Y0173302D01*
X0085065Y0173636D01*
X0085065Y0171968D02*
X0086400Y0171968D01*
X0086867Y0159599D02*
X0086867Y0157598D01*
X0086867Y0158265D02*
X0085866Y0158932D01*
X0086867Y0158265D02*
X0085866Y0157598D01*
X0086474Y0152395D02*
X0085139Y0152395D01*
X0085139Y0152061D01*
X0086474Y0150727D01*
X0086474Y0150393D01*
X0087349Y0150393D02*
X0088683Y0150393D01*
X0087349Y0151727D01*
X0087349Y0152061D01*
X0087683Y0152395D01*
X0088350Y0152395D01*
X0088683Y0152061D01*
X0089559Y0152061D02*
X0089892Y0152395D01*
X0090560Y0152395D01*
X0090893Y0152061D01*
X0090893Y0150727D01*
X0090560Y0150393D01*
X0089892Y0150393D01*
X0089559Y0150727D01*
X0090286Y0157598D02*
X0090953Y0157598D01*
X0091287Y0157931D01*
X0090620Y0158598D02*
X0090286Y0158598D01*
X0089953Y0158265D01*
X0089953Y0157931D01*
X0090286Y0157598D01*
X0090286Y0158598D02*
X0089953Y0158932D01*
X0089953Y0159266D01*
X0090286Y0159599D01*
X0090953Y0159599D01*
X0091287Y0159266D01*
X0089077Y0159266D02*
X0089077Y0158932D01*
X0088744Y0158598D01*
X0087743Y0158598D01*
X0087743Y0157931D02*
X0087743Y0159266D01*
X0088076Y0159599D01*
X0088744Y0159599D01*
X0089077Y0159266D01*
X0089077Y0157931D02*
X0088744Y0157598D01*
X0088076Y0157598D01*
X0087743Y0157931D01*
X0083157Y0185669D02*
X0081823Y0185669D01*
X0082490Y0185669D02*
X0082490Y0187670D01*
X0083157Y0187003D01*
X0085951Y0189566D02*
X0087286Y0189566D01*
X0085951Y0190901D01*
X0085951Y0191234D01*
X0086285Y0191568D01*
X0086952Y0191568D01*
X0087286Y0191234D01*
X0088161Y0191234D02*
X0088495Y0191568D01*
X0089162Y0191568D01*
X0089496Y0191234D01*
X0089496Y0189900D01*
X0089162Y0189566D01*
X0088495Y0189566D01*
X0088161Y0189900D01*
X0080947Y0187337D02*
X0080947Y0186002D01*
X0079613Y0187337D01*
X0079613Y0186002D01*
X0079946Y0185669D01*
X0080614Y0185669D01*
X0080947Y0186002D01*
X0080947Y0187337D02*
X0080614Y0187670D01*
X0079946Y0187670D01*
X0079613Y0187337D01*
X0078737Y0187337D02*
X0078737Y0186002D01*
X0077403Y0187337D01*
X0077403Y0186002D01*
X0077736Y0185669D01*
X0078404Y0185669D01*
X0078737Y0186002D01*
X0078737Y0187337D02*
X0078404Y0187670D01*
X0077736Y0187670D01*
X0077403Y0187337D01*
X0076527Y0187003D02*
X0075527Y0187003D01*
X0075193Y0186669D01*
X0075193Y0185669D01*
X0076527Y0185669D02*
X0076527Y0187003D01*
X0083203Y0263267D02*
X0083203Y0264601D01*
X0083203Y0263934D02*
X0085204Y0263934D01*
X0084537Y0263267D01*
X0084871Y0265477D02*
X0085204Y0265810D01*
X0085204Y0266478D01*
X0084871Y0266811D01*
X0083536Y0265477D01*
X0083203Y0265810D01*
X0083203Y0266478D01*
X0083536Y0266811D01*
X0084871Y0266811D01*
X0085204Y0267687D02*
X0083203Y0267687D01*
X0083870Y0267687D02*
X0084537Y0268688D01*
X0083870Y0267687D02*
X0083203Y0268688D01*
X0083536Y0265477D02*
X0084871Y0265477D01*
X0089308Y0269942D02*
X0090643Y0269942D01*
X0089975Y0269942D02*
X0089975Y0271943D01*
X0090643Y0271276D01*
X0091518Y0271610D02*
X0091852Y0271943D01*
X0092519Y0271943D01*
X0092852Y0271610D01*
X0092852Y0270275D01*
X0092519Y0269942D01*
X0091852Y0269942D01*
X0091518Y0270275D01*
X0096707Y0282578D02*
X0096707Y0283579D01*
X0097040Y0283912D01*
X0098375Y0283912D01*
X0098708Y0283579D01*
X0098708Y0282578D01*
X0096707Y0282578D01*
X0097708Y0284788D02*
X0097708Y0286122D01*
X0098708Y0285789D02*
X0097708Y0284788D01*
X0098708Y0285789D02*
X0096707Y0285789D01*
X0099307Y0274655D02*
X0100308Y0274655D01*
X0100641Y0274322D01*
X0100641Y0273321D01*
X0099307Y0273321D01*
X0099640Y0272445D02*
X0099307Y0272112D01*
X0099307Y0271445D01*
X0099640Y0271111D01*
X0100975Y0272445D01*
X0099640Y0272445D01*
X0099640Y0271111D02*
X0100975Y0271111D01*
X0101308Y0271445D01*
X0101308Y0272112D01*
X0100975Y0272445D01*
X0100975Y0270236D02*
X0099640Y0268901D01*
X0099307Y0269235D01*
X0099307Y0269902D01*
X0099640Y0270236D01*
X0100975Y0270236D01*
X0101308Y0269902D01*
X0101308Y0269235D01*
X0100975Y0268901D01*
X0099640Y0268901D01*
X0099307Y0268026D02*
X0099307Y0266691D01*
X0099307Y0267358D02*
X0101308Y0267358D01*
X0100641Y0266691D01*
X0108943Y0268896D02*
X0108943Y0269229D01*
X0109277Y0269563D01*
X0110278Y0269563D01*
X0110278Y0268896D01*
X0109944Y0268562D01*
X0109277Y0268562D01*
X0108943Y0268896D01*
X0109611Y0270230D02*
X0110278Y0269563D01*
X0109611Y0270230D02*
X0108943Y0270564D01*
X0111153Y0270230D02*
X0111487Y0270564D01*
X0112488Y0270564D01*
X0112488Y0268562D01*
X0111487Y0268562D01*
X0111153Y0268896D01*
X0111153Y0270230D01*
X0110993Y0281544D02*
X0108992Y0281544D01*
X0108992Y0282545D01*
X0109325Y0282878D01*
X0110660Y0282878D01*
X0110993Y0282545D01*
X0110993Y0281544D01*
X0110660Y0283754D02*
X0110993Y0284088D01*
X0110993Y0284755D01*
X0110660Y0285088D01*
X0110326Y0285088D01*
X0109993Y0284755D01*
X0109659Y0285088D01*
X0109325Y0285088D01*
X0108992Y0284755D01*
X0108992Y0284088D01*
X0109325Y0283754D01*
X0109993Y0284421D02*
X0109993Y0284755D01*
X0114463Y0321318D02*
X0114463Y0322319D01*
X0114796Y0322653D01*
X0116131Y0322653D01*
X0116464Y0322319D01*
X0116464Y0321318D01*
X0114463Y0321318D01*
X0114796Y0323528D02*
X0114463Y0323862D01*
X0114463Y0324529D01*
X0114796Y0324862D01*
X0116131Y0324862D01*
X0116464Y0324529D01*
X0116464Y0323862D01*
X0116131Y0323528D01*
X0115797Y0323528D01*
X0115463Y0323862D01*
X0115463Y0324862D01*
X0103790Y0339661D02*
X0110483Y0346354D01*
X0110483Y0365252D01*
X0101428Y0365252D01*
X0101428Y0364072D02*
X0101711Y0363977D01*
X0101992Y0363875D01*
X0102269Y0363766D01*
X0102545Y0363651D01*
X0102817Y0363529D01*
X0103086Y0363400D01*
X0103352Y0363265D01*
X0103614Y0363123D01*
X0103873Y0362975D01*
X0104129Y0362821D01*
X0104380Y0362660D01*
X0104628Y0362493D01*
X0104871Y0362321D01*
X0105110Y0362142D01*
X0105345Y0361958D01*
X0105575Y0361768D01*
X0105800Y0361572D01*
X0106020Y0361371D01*
X0106236Y0361165D01*
X0106446Y0360953D01*
X0106651Y0360737D01*
X0106851Y0360515D01*
X0107045Y0360288D01*
X0107234Y0360057D01*
X0107417Y0359822D01*
X0107594Y0359582D01*
X0107765Y0359337D01*
X0107930Y0359089D01*
X0108089Y0358836D01*
X0108242Y0358580D01*
X0108389Y0358320D01*
X0108529Y0358057D01*
X0108663Y0357790D01*
X0108790Y0357520D01*
X0108910Y0357247D01*
X0109024Y0356972D01*
X0109131Y0356693D01*
X0109231Y0356412D01*
X0109324Y0356129D01*
X0109411Y0355843D01*
X0109490Y0355555D01*
X0109562Y0355266D01*
X0109627Y0354975D01*
X0109685Y0354682D01*
X0109736Y0354388D01*
X0109780Y0354093D01*
X0109816Y0353797D01*
X0109845Y0353500D01*
X0109867Y0353202D01*
X0109882Y0352904D01*
X0109889Y0352606D01*
X0109889Y0352308D01*
X0109882Y0352010D01*
X0109867Y0351712D01*
X0109845Y0351414D01*
X0109816Y0351117D01*
X0109780Y0350821D01*
X0109736Y0350526D01*
X0109685Y0350232D01*
X0109627Y0349939D01*
X0109562Y0349648D01*
X0109490Y0349359D01*
X0109411Y0349071D01*
X0109324Y0348785D01*
X0109231Y0348502D01*
X0109131Y0348221D01*
X0109024Y0347942D01*
X0108910Y0347667D01*
X0108790Y0347394D01*
X0108663Y0347124D01*
X0108529Y0346857D01*
X0108389Y0346594D01*
X0108242Y0346334D01*
X0108089Y0346078D01*
X0107930Y0345825D01*
X0107765Y0345577D01*
X0107594Y0345332D01*
X0107417Y0345092D01*
X0107234Y0344857D01*
X0107045Y0344626D01*
X0106851Y0344399D01*
X0106651Y0344177D01*
X0106446Y0343961D01*
X0106236Y0343749D01*
X0106020Y0343543D01*
X0105800Y0343342D01*
X0105575Y0343146D01*
X0105345Y0342956D01*
X0105110Y0342772D01*
X0104871Y0342593D01*
X0104628Y0342421D01*
X0104380Y0342254D01*
X0104129Y0342093D01*
X0103873Y0341939D01*
X0103614Y0341791D01*
X0103352Y0341649D01*
X0103086Y0341514D01*
X0102817Y0341385D01*
X0102545Y0341263D01*
X0102269Y0341148D01*
X0101992Y0341039D01*
X0101711Y0340937D01*
X0101428Y0340842D01*
X0101428Y0339661D02*
X0103790Y0339661D01*
X0093948Y0340842D02*
X0093665Y0340937D01*
X0093384Y0341039D01*
X0093107Y0341148D01*
X0092831Y0341263D01*
X0092559Y0341385D01*
X0092290Y0341514D01*
X0092024Y0341649D01*
X0091762Y0341791D01*
X0091503Y0341939D01*
X0091247Y0342093D01*
X0090996Y0342254D01*
X0090748Y0342421D01*
X0090505Y0342593D01*
X0090266Y0342772D01*
X0090031Y0342956D01*
X0089801Y0343146D01*
X0089576Y0343342D01*
X0089356Y0343543D01*
X0089140Y0343749D01*
X0088930Y0343961D01*
X0088725Y0344177D01*
X0088525Y0344399D01*
X0088331Y0344626D01*
X0088142Y0344857D01*
X0087959Y0345092D01*
X0087782Y0345332D01*
X0087611Y0345577D01*
X0087446Y0345825D01*
X0087287Y0346078D01*
X0087134Y0346334D01*
X0086987Y0346594D01*
X0086847Y0346857D01*
X0086713Y0347124D01*
X0086586Y0347394D01*
X0086466Y0347667D01*
X0086352Y0347942D01*
X0086245Y0348221D01*
X0086145Y0348502D01*
X0086052Y0348785D01*
X0085965Y0349071D01*
X0085886Y0349359D01*
X0085814Y0349648D01*
X0085749Y0349939D01*
X0085691Y0350232D01*
X0085640Y0350526D01*
X0085596Y0350821D01*
X0085560Y0351117D01*
X0085531Y0351414D01*
X0085509Y0351712D01*
X0085494Y0352010D01*
X0085487Y0352308D01*
X0085487Y0352606D01*
X0085494Y0352904D01*
X0085509Y0353202D01*
X0085531Y0353500D01*
X0085560Y0353797D01*
X0085596Y0354093D01*
X0085640Y0354388D01*
X0085691Y0354682D01*
X0085749Y0354975D01*
X0085814Y0355266D01*
X0085886Y0355555D01*
X0085965Y0355843D01*
X0086052Y0356129D01*
X0086145Y0356412D01*
X0086245Y0356693D01*
X0086352Y0356972D01*
X0086466Y0357247D01*
X0086586Y0357520D01*
X0086713Y0357790D01*
X0086847Y0358057D01*
X0086987Y0358320D01*
X0087134Y0358580D01*
X0087287Y0358836D01*
X0087446Y0359089D01*
X0087611Y0359337D01*
X0087782Y0359582D01*
X0087959Y0359822D01*
X0088142Y0360057D01*
X0088331Y0360288D01*
X0088525Y0360515D01*
X0088725Y0360737D01*
X0088930Y0360953D01*
X0089140Y0361165D01*
X0089356Y0361371D01*
X0089576Y0361572D01*
X0089801Y0361768D01*
X0090031Y0361958D01*
X0090266Y0362142D01*
X0090505Y0362321D01*
X0090748Y0362493D01*
X0090996Y0362660D01*
X0091247Y0362821D01*
X0091503Y0362975D01*
X0091762Y0363123D01*
X0092024Y0363265D01*
X0092290Y0363400D01*
X0092559Y0363529D01*
X0092831Y0363651D01*
X0093107Y0363766D01*
X0093384Y0363875D01*
X0093665Y0363977D01*
X0093948Y0364072D01*
X0093948Y0365252D02*
X0084893Y0365252D01*
X0084893Y0346354D01*
X0091585Y0339661D01*
X0093948Y0339661D01*
X0091998Y0321112D02*
X0090664Y0319777D01*
X0090330Y0320111D01*
X0090330Y0320778D01*
X0090664Y0321112D01*
X0091998Y0321112D01*
X0092332Y0320778D01*
X0092332Y0320111D01*
X0091998Y0319777D01*
X0090664Y0319777D01*
X0090330Y0318902D02*
X0090330Y0317568D01*
X0090330Y0318235D02*
X0092332Y0318235D01*
X0091665Y0317568D01*
X0091998Y0316692D02*
X0092332Y0316359D01*
X0092332Y0315358D01*
X0090330Y0315358D01*
X0090330Y0316359D01*
X0090664Y0316692D01*
X0091998Y0316692D01*
X0085606Y0311977D02*
X0084938Y0312644D01*
X0084938Y0310643D01*
X0084271Y0310643D02*
X0085606Y0310643D01*
X0083396Y0310976D02*
X0082061Y0312311D01*
X0082061Y0310976D01*
X0082395Y0310643D01*
X0083062Y0310643D01*
X0083396Y0310976D01*
X0083396Y0312311D01*
X0083062Y0312644D01*
X0082395Y0312644D01*
X0082061Y0312311D01*
X0081186Y0311977D02*
X0081186Y0310976D01*
X0080852Y0310643D01*
X0079851Y0310643D01*
X0079851Y0311977D01*
X0076663Y0312063D02*
X0076663Y0310728D01*
X0076330Y0310394D01*
X0075663Y0310394D01*
X0075329Y0310728D01*
X0074454Y0310728D02*
X0074120Y0310394D01*
X0073453Y0310394D01*
X0073119Y0310728D01*
X0073119Y0311062D01*
X0073453Y0311395D01*
X0074454Y0311395D01*
X0074454Y0310728D01*
X0074454Y0311395D02*
X0073786Y0312063D01*
X0073119Y0312396D01*
X0075329Y0312063D02*
X0075663Y0312396D01*
X0076330Y0312396D01*
X0076663Y0312063D01*
X0082590Y0295805D02*
X0082590Y0294470D01*
X0083925Y0295805D01*
X0084258Y0295805D01*
X0084592Y0295471D01*
X0084592Y0294804D01*
X0084258Y0294470D01*
X0084258Y0293595D02*
X0084592Y0293261D01*
X0084592Y0292594D01*
X0084258Y0292261D01*
X0082924Y0292261D01*
X0082590Y0292594D01*
X0082590Y0293261D01*
X0082924Y0293595D01*
X0082590Y0291455D02*
X0082590Y0290787D01*
X0082590Y0291121D02*
X0084592Y0291121D01*
X0084592Y0290787D02*
X0084592Y0291455D01*
X0081425Y0273654D02*
X0080424Y0273654D01*
X0080090Y0273321D01*
X0080090Y0272654D01*
X0080424Y0272320D01*
X0081425Y0272320D01*
X0081425Y0271653D02*
X0081425Y0273654D01*
X0080758Y0272320D02*
X0080090Y0271653D01*
X0079215Y0271986D02*
X0078881Y0271653D01*
X0078214Y0271653D01*
X0077880Y0271986D01*
X0077880Y0272320D01*
X0078214Y0272654D01*
X0078548Y0272654D01*
X0078214Y0272654D02*
X0077880Y0272987D01*
X0077880Y0273321D01*
X0078214Y0273654D01*
X0078881Y0273654D01*
X0079215Y0273321D01*
X0070224Y0269810D02*
X0069891Y0270143D01*
X0068556Y0268809D01*
X0068222Y0269142D01*
X0068222Y0269810D01*
X0068556Y0270143D01*
X0069891Y0270143D01*
X0070224Y0269810D02*
X0070224Y0269142D01*
X0069891Y0268809D01*
X0068556Y0268809D01*
X0068556Y0267933D02*
X0068222Y0267600D01*
X0068222Y0266932D01*
X0068556Y0266599D01*
X0069891Y0267933D01*
X0068556Y0267933D01*
X0068556Y0266599D02*
X0069891Y0266599D01*
X0070224Y0266932D01*
X0070224Y0267600D01*
X0069891Y0267933D01*
X0070224Y0265056D02*
X0069557Y0264389D01*
X0070224Y0265056D02*
X0068222Y0265056D01*
X0068222Y0264389D02*
X0068222Y0265723D01*
X0068222Y0271019D02*
X0069557Y0271019D01*
X0069557Y0272019D01*
X0069223Y0272353D01*
X0068222Y0272353D01*
X0064271Y0277028D02*
X0063604Y0277028D01*
X0063270Y0277362D01*
X0062395Y0277362D02*
X0062395Y0277028D01*
X0062395Y0277362D02*
X0061060Y0278696D01*
X0061060Y0279030D01*
X0062395Y0279030D01*
X0063270Y0278696D02*
X0063604Y0279030D01*
X0064271Y0279030D01*
X0064604Y0278696D01*
X0064604Y0277362D01*
X0064271Y0277028D01*
X0044425Y0322566D02*
X0043090Y0322566D01*
X0043758Y0322566D02*
X0043758Y0324568D01*
X0044425Y0323901D01*
X0044327Y0328365D02*
X0043660Y0328365D01*
X0043327Y0328699D01*
X0042451Y0328699D02*
X0042118Y0328365D01*
X0041450Y0328365D01*
X0041117Y0328699D01*
X0041117Y0329366D01*
X0041450Y0329700D01*
X0041784Y0329700D01*
X0042451Y0329366D01*
X0042451Y0330367D01*
X0041117Y0330367D01*
X0043327Y0330033D02*
X0043660Y0330367D01*
X0044327Y0330367D01*
X0044661Y0330033D01*
X0044661Y0328699D01*
X0044327Y0328365D01*
X0041881Y0324568D02*
X0041214Y0324568D01*
X0040880Y0324234D01*
X0042215Y0322900D01*
X0041881Y0322566D01*
X0041214Y0322566D01*
X0040880Y0322900D01*
X0040880Y0324234D01*
X0040005Y0323901D02*
X0040005Y0322900D01*
X0039671Y0322566D01*
X0038671Y0322566D01*
X0038671Y0323901D01*
X0041881Y0324568D02*
X0042215Y0324234D01*
X0042215Y0322900D01*
X0038612Y0303451D02*
X0038612Y0302116D01*
X0038612Y0302783D02*
X0036610Y0302783D01*
X0036943Y0301241D02*
X0038278Y0301241D01*
X0038612Y0300907D01*
X0038612Y0299906D01*
X0036610Y0299906D01*
X0036610Y0300907D01*
X0036943Y0301241D01*
X0036943Y0299031D02*
X0036610Y0298697D01*
X0036610Y0298030D01*
X0036943Y0297696D01*
X0037611Y0297696D02*
X0037944Y0298364D01*
X0037944Y0298697D01*
X0037611Y0299031D01*
X0036943Y0299031D01*
X0037611Y0297696D02*
X0038612Y0297696D01*
X0038612Y0299031D01*
X0038278Y0296821D02*
X0036943Y0295486D01*
X0036610Y0295820D01*
X0036610Y0296487D01*
X0036943Y0296821D01*
X0038278Y0296821D01*
X0038612Y0296487D01*
X0038612Y0295820D01*
X0038278Y0295486D01*
X0036943Y0295486D01*
X0036943Y0294611D02*
X0036610Y0294277D01*
X0036610Y0293610D01*
X0036943Y0293277D01*
X0037277Y0293277D01*
X0037611Y0293610D01*
X0037611Y0294277D01*
X0037277Y0294611D01*
X0036943Y0294611D01*
X0037611Y0294277D02*
X0037944Y0294611D01*
X0038278Y0294611D01*
X0038612Y0294277D01*
X0038612Y0293610D01*
X0038278Y0293277D01*
X0037944Y0293277D01*
X0037611Y0293610D01*
X0038278Y0292401D02*
X0036943Y0291067D01*
X0036610Y0291067D01*
X0038612Y0291067D02*
X0038612Y0292401D01*
X0038278Y0292401D01*
X0038432Y0277414D02*
X0038432Y0277081D01*
X0039766Y0275746D01*
X0039766Y0275413D01*
X0040642Y0275746D02*
X0040642Y0277081D01*
X0040975Y0277414D01*
X0041976Y0277414D01*
X0041976Y0275413D01*
X0040975Y0275413D01*
X0040642Y0275746D01*
X0039766Y0277414D02*
X0038432Y0277414D01*
X0024557Y0247237D02*
X0024557Y0245235D01*
X0025224Y0245235D02*
X0023890Y0245235D01*
X0023014Y0245235D02*
X0023014Y0247237D01*
X0022681Y0246236D02*
X0021680Y0245235D01*
X0023014Y0245903D02*
X0021680Y0247237D01*
X0024557Y0247237D02*
X0025224Y0246570D01*
X0017173Y0276239D02*
X0016172Y0276239D01*
X0015838Y0276573D01*
X0015838Y0277907D01*
X0016172Y0278241D01*
X0017173Y0278241D01*
X0017173Y0276239D01*
X0014963Y0276573D02*
X0014963Y0276907D01*
X0014629Y0277240D01*
X0013962Y0277240D01*
X0013628Y0276907D01*
X0013628Y0276573D01*
X0013962Y0276239D01*
X0014629Y0276239D01*
X0014963Y0276573D01*
X0014629Y0277240D02*
X0014963Y0277574D01*
X0014963Y0277907D01*
X0014629Y0278241D01*
X0013962Y0278241D01*
X0013628Y0277907D01*
X0013628Y0277574D01*
X0013962Y0277240D01*
X0028462Y0362993D02*
X0029462Y0363994D01*
X0029796Y0363660D02*
X0028462Y0364995D01*
X0029796Y0364995D02*
X0029796Y0362993D01*
X0030672Y0362993D02*
X0032006Y0362993D01*
X0031339Y0362993D02*
X0031339Y0364995D01*
X0032006Y0364327D01*
X0037172Y0379783D02*
X0038506Y0379783D01*
X0037172Y0381117D01*
X0037172Y0381451D01*
X0037505Y0381784D01*
X0038173Y0381784D01*
X0038506Y0381451D01*
X0039382Y0381451D02*
X0039715Y0381784D01*
X0040716Y0381784D01*
X0040716Y0379783D01*
X0039715Y0379783D01*
X0039382Y0380116D01*
X0039382Y0381451D01*
X0061270Y0364110D02*
X0054578Y0357417D01*
X0054578Y0338520D01*
X0063633Y0338520D01*
X0060798Y0344625D02*
X0061799Y0345626D01*
X0059797Y0345626D01*
X0060798Y0345960D02*
X0060798Y0344625D01*
X0060131Y0346835D02*
X0059797Y0346835D01*
X0060131Y0346835D02*
X0061465Y0348170D01*
X0061799Y0348170D01*
X0061799Y0346835D01*
X0061132Y0349045D02*
X0060131Y0349045D01*
X0059797Y0349379D01*
X0059797Y0350379D01*
X0061132Y0350379D01*
X0061270Y0364110D02*
X0063633Y0364110D01*
X0063633Y0362930D02*
X0063350Y0362835D01*
X0063069Y0362733D01*
X0062792Y0362624D01*
X0062516Y0362509D01*
X0062244Y0362387D01*
X0061975Y0362258D01*
X0061709Y0362123D01*
X0061447Y0361981D01*
X0061188Y0361833D01*
X0060932Y0361679D01*
X0060681Y0361518D01*
X0060433Y0361351D01*
X0060190Y0361179D01*
X0059951Y0361000D01*
X0059716Y0360816D01*
X0059486Y0360626D01*
X0059261Y0360430D01*
X0059041Y0360229D01*
X0058825Y0360023D01*
X0058615Y0359811D01*
X0058410Y0359595D01*
X0058210Y0359373D01*
X0058016Y0359146D01*
X0057827Y0358915D01*
X0057644Y0358680D01*
X0057467Y0358440D01*
X0057296Y0358195D01*
X0057131Y0357947D01*
X0056972Y0357694D01*
X0056819Y0357438D01*
X0056672Y0357178D01*
X0056532Y0356915D01*
X0056398Y0356648D01*
X0056271Y0356378D01*
X0056151Y0356105D01*
X0056037Y0355830D01*
X0055930Y0355551D01*
X0055830Y0355270D01*
X0055737Y0354987D01*
X0055650Y0354701D01*
X0055571Y0354413D01*
X0055499Y0354124D01*
X0055434Y0353833D01*
X0055376Y0353540D01*
X0055325Y0353246D01*
X0055281Y0352951D01*
X0055245Y0352655D01*
X0055216Y0352358D01*
X0055194Y0352060D01*
X0055179Y0351762D01*
X0055172Y0351464D01*
X0055172Y0351166D01*
X0055179Y0350868D01*
X0055194Y0350570D01*
X0055216Y0350272D01*
X0055245Y0349975D01*
X0055281Y0349679D01*
X0055325Y0349384D01*
X0055376Y0349090D01*
X0055434Y0348797D01*
X0055499Y0348506D01*
X0055571Y0348217D01*
X0055650Y0347929D01*
X0055737Y0347643D01*
X0055830Y0347360D01*
X0055930Y0347079D01*
X0056037Y0346800D01*
X0056151Y0346525D01*
X0056271Y0346252D01*
X0056398Y0345982D01*
X0056532Y0345715D01*
X0056672Y0345452D01*
X0056819Y0345192D01*
X0056972Y0344936D01*
X0057131Y0344683D01*
X0057296Y0344435D01*
X0057467Y0344190D01*
X0057644Y0343950D01*
X0057827Y0343715D01*
X0058016Y0343484D01*
X0058210Y0343257D01*
X0058410Y0343035D01*
X0058615Y0342819D01*
X0058825Y0342607D01*
X0059041Y0342401D01*
X0059261Y0342200D01*
X0059486Y0342004D01*
X0059716Y0341814D01*
X0059951Y0341630D01*
X0060190Y0341451D01*
X0060433Y0341279D01*
X0060681Y0341112D01*
X0060932Y0340951D01*
X0061188Y0340797D01*
X0061447Y0340649D01*
X0061709Y0340507D01*
X0061975Y0340372D01*
X0062244Y0340243D01*
X0062516Y0340121D01*
X0062792Y0340006D01*
X0063069Y0339897D01*
X0063350Y0339795D01*
X0063633Y0339700D01*
X0071113Y0339700D02*
X0071396Y0339795D01*
X0071677Y0339897D01*
X0071954Y0340006D01*
X0072230Y0340121D01*
X0072502Y0340243D01*
X0072771Y0340372D01*
X0073037Y0340507D01*
X0073299Y0340649D01*
X0073558Y0340797D01*
X0073814Y0340951D01*
X0074065Y0341112D01*
X0074313Y0341279D01*
X0074556Y0341451D01*
X0074795Y0341630D01*
X0075030Y0341814D01*
X0075260Y0342004D01*
X0075485Y0342200D01*
X0075705Y0342401D01*
X0075921Y0342607D01*
X0076131Y0342819D01*
X0076336Y0343035D01*
X0076536Y0343257D01*
X0076730Y0343484D01*
X0076919Y0343715D01*
X0077102Y0343950D01*
X0077279Y0344190D01*
X0077450Y0344435D01*
X0077615Y0344683D01*
X0077774Y0344936D01*
X0077927Y0345192D01*
X0078074Y0345452D01*
X0078214Y0345715D01*
X0078348Y0345982D01*
X0078475Y0346252D01*
X0078595Y0346525D01*
X0078709Y0346800D01*
X0078816Y0347079D01*
X0078916Y0347360D01*
X0079009Y0347643D01*
X0079096Y0347929D01*
X0079175Y0348217D01*
X0079247Y0348506D01*
X0079312Y0348797D01*
X0079370Y0349090D01*
X0079421Y0349384D01*
X0079465Y0349679D01*
X0079501Y0349975D01*
X0079530Y0350272D01*
X0079552Y0350570D01*
X0079567Y0350868D01*
X0079574Y0351166D01*
X0079574Y0351464D01*
X0079567Y0351762D01*
X0079552Y0352060D01*
X0079530Y0352358D01*
X0079501Y0352655D01*
X0079465Y0352951D01*
X0079421Y0353246D01*
X0079370Y0353540D01*
X0079312Y0353833D01*
X0079247Y0354124D01*
X0079175Y0354413D01*
X0079096Y0354701D01*
X0079009Y0354987D01*
X0078916Y0355270D01*
X0078816Y0355551D01*
X0078709Y0355830D01*
X0078595Y0356105D01*
X0078475Y0356378D01*
X0078348Y0356648D01*
X0078214Y0356915D01*
X0078074Y0357178D01*
X0077927Y0357438D01*
X0077774Y0357694D01*
X0077615Y0357947D01*
X0077450Y0358195D01*
X0077279Y0358440D01*
X0077102Y0358680D01*
X0076919Y0358915D01*
X0076730Y0359146D01*
X0076536Y0359373D01*
X0076336Y0359595D01*
X0076131Y0359811D01*
X0075921Y0360023D01*
X0075705Y0360229D01*
X0075485Y0360430D01*
X0075260Y0360626D01*
X0075030Y0360816D01*
X0074795Y0361000D01*
X0074556Y0361179D01*
X0074313Y0361351D01*
X0074065Y0361518D01*
X0073814Y0361679D01*
X0073558Y0361833D01*
X0073299Y0361981D01*
X0073037Y0362123D01*
X0072771Y0362258D01*
X0072502Y0362387D01*
X0072230Y0362509D01*
X0071954Y0362624D01*
X0071677Y0362733D01*
X0071396Y0362835D01*
X0071113Y0362930D01*
X0071113Y0364110D02*
X0073475Y0364110D01*
X0080168Y0357417D01*
X0080168Y0338520D01*
X0071113Y0338520D01*
X0071843Y0344625D02*
X0071510Y0344959D01*
X0071510Y0345626D01*
X0071843Y0345960D01*
X0071843Y0346835D02*
X0071510Y0347169D01*
X0071510Y0347836D01*
X0071843Y0348170D01*
X0072177Y0348170D01*
X0072511Y0347836D01*
X0072511Y0347502D01*
X0072511Y0347836D02*
X0072844Y0348170D01*
X0073178Y0348170D01*
X0073512Y0347836D01*
X0073512Y0347169D01*
X0073178Y0346835D01*
X0073178Y0345960D02*
X0073512Y0345626D01*
X0073512Y0344959D01*
X0073178Y0344625D01*
X0071843Y0344625D01*
X0071843Y0349045D02*
X0073178Y0350379D01*
X0071843Y0350379D01*
X0071510Y0350046D01*
X0071510Y0349379D01*
X0071843Y0349045D01*
X0073178Y0349045D01*
X0073512Y0349379D01*
X0073512Y0350046D01*
X0073178Y0350379D01*
X0112417Y0350796D02*
X0113751Y0352130D01*
X0114085Y0352130D01*
X0114419Y0351797D01*
X0114419Y0351130D01*
X0114085Y0350796D01*
X0114085Y0349921D02*
X0114419Y0349587D01*
X0114419Y0348920D01*
X0114085Y0348586D01*
X0112751Y0348586D01*
X0112417Y0348920D01*
X0112417Y0349587D01*
X0112751Y0349921D01*
X0112417Y0350796D02*
X0112417Y0352130D01*
X0112751Y0353006D02*
X0112417Y0353339D01*
X0112417Y0354007D01*
X0112751Y0354340D01*
X0113418Y0354340D01*
X0113751Y0354007D01*
X0113751Y0353673D01*
X0113418Y0353006D01*
X0114419Y0353006D01*
X0114419Y0354340D01*
X0113713Y0358035D02*
X0113713Y0359369D01*
X0112712Y0359036D02*
X0114714Y0359036D01*
X0113713Y0358035D01*
X0113046Y0360245D02*
X0112712Y0360245D01*
X0113046Y0360245D02*
X0114380Y0361579D01*
X0114714Y0361579D01*
X0114714Y0360245D01*
X0114047Y0362455D02*
X0113046Y0362455D01*
X0112712Y0362788D01*
X0112712Y0363789D01*
X0114047Y0363789D01*
X0133018Y0337788D02*
X0134353Y0336454D01*
X0134019Y0336787D02*
X0133018Y0335787D01*
X0134353Y0335787D02*
X0134353Y0337788D01*
X0135895Y0337788D02*
X0135895Y0335787D01*
X0135228Y0335787D02*
X0136563Y0335787D01*
X0136563Y0337121D02*
X0135895Y0337788D01*
X0148195Y0388129D02*
X0149530Y0388129D01*
X0148863Y0388129D02*
X0148863Y0390131D01*
X0149530Y0389464D01*
X0150405Y0389797D02*
X0150405Y0388463D01*
X0150739Y0388129D01*
X0151740Y0388129D01*
X0151740Y0390131D01*
X0150739Y0390131D01*
X0150405Y0389797D01*
X0150007Y0277021D02*
X0149007Y0277021D01*
X0148673Y0276687D01*
X0148673Y0275353D01*
X0149007Y0275019D01*
X0150007Y0275019D01*
X0150007Y0277021D01*
X0147798Y0277021D02*
X0147798Y0276020D01*
X0147130Y0276353D01*
X0146797Y0276353D01*
X0146463Y0276020D01*
X0146463Y0275353D01*
X0146797Y0275019D01*
X0147464Y0275019D01*
X0147798Y0275353D01*
X0147798Y0277021D02*
X0146463Y0277021D01*
X0135738Y0242001D02*
X0135738Y0239999D01*
X0136405Y0239999D02*
X0135071Y0239999D01*
X0134195Y0239999D02*
X0134195Y0242001D01*
X0133862Y0241000D02*
X0132861Y0239999D01*
X0134195Y0240666D02*
X0132861Y0242001D01*
X0135738Y0242001D02*
X0136405Y0241334D01*
X0145906Y0176568D02*
X0146573Y0176568D01*
X0146907Y0176234D01*
X0147782Y0176234D02*
X0148116Y0176568D01*
X0148783Y0176568D01*
X0149116Y0176234D01*
X0149992Y0176234D02*
X0150326Y0176568D01*
X0150993Y0176568D01*
X0151326Y0176234D01*
X0151326Y0174900D01*
X0150993Y0174566D01*
X0150326Y0174566D01*
X0149992Y0174900D01*
X0149116Y0174566D02*
X0147782Y0175901D01*
X0147782Y0176234D01*
X0147782Y0174566D02*
X0149116Y0174566D01*
X0146907Y0174566D02*
X0145572Y0175901D01*
X0145572Y0176234D01*
X0145906Y0176568D01*
X0145572Y0174566D02*
X0146907Y0174566D01*
X0147087Y0168536D02*
X0146753Y0168203D01*
X0148088Y0166868D01*
X0147754Y0166535D01*
X0147087Y0166535D01*
X0146753Y0166868D01*
X0146753Y0168203D01*
X0147087Y0168536D02*
X0147754Y0168536D01*
X0148088Y0168203D01*
X0148088Y0166868D01*
X0148963Y0168203D02*
X0150298Y0166868D01*
X0150298Y0166535D01*
X0151507Y0166535D02*
X0151507Y0168536D01*
X0152507Y0167535D01*
X0151173Y0167535D01*
X0150298Y0168536D02*
X0148963Y0168536D01*
X0148963Y0168203D01*
X0145878Y0167869D02*
X0145878Y0166535D01*
X0145878Y0167869D02*
X0144877Y0167869D01*
X0144543Y0167535D01*
X0144543Y0166535D01*
X0148676Y0156958D02*
X0148342Y0156625D01*
X0148342Y0155958D01*
X0148676Y0155624D01*
X0149343Y0155624D02*
X0149677Y0156291D01*
X0149677Y0156625D01*
X0149343Y0156958D01*
X0148676Y0156958D01*
X0149343Y0155624D02*
X0150344Y0155624D01*
X0150344Y0156958D01*
X0150010Y0154749D02*
X0150344Y0154415D01*
X0150344Y0153748D01*
X0150010Y0153414D01*
X0150010Y0152539D02*
X0149343Y0152539D01*
X0149009Y0152205D01*
X0149009Y0151204D01*
X0148342Y0151204D02*
X0150344Y0151204D01*
X0150344Y0152205D01*
X0150010Y0152539D01*
X0149009Y0151871D02*
X0148342Y0152539D01*
X0148342Y0153414D02*
X0149677Y0154749D01*
X0150010Y0154749D01*
X0148342Y0154749D02*
X0148342Y0153414D01*
X0150288Y0147816D02*
X0149955Y0147483D01*
X0149955Y0146815D01*
X0150288Y0146482D01*
X0151623Y0147816D01*
X0150288Y0147816D01*
X0150288Y0146482D02*
X0151623Y0146482D01*
X0151956Y0146815D01*
X0151956Y0147483D01*
X0151623Y0147816D01*
X0150956Y0145606D02*
X0150956Y0144272D01*
X0151956Y0145273D01*
X0149955Y0145273D01*
X0150288Y0143396D02*
X0149955Y0143063D01*
X0149955Y0142396D01*
X0150288Y0142062D01*
X0151623Y0143396D01*
X0150288Y0143396D01*
X0150288Y0142062D02*
X0151623Y0142062D01*
X0151956Y0142396D01*
X0151956Y0143063D01*
X0151623Y0143396D01*
X0150956Y0141187D02*
X0150956Y0139852D01*
X0151956Y0140853D01*
X0149955Y0140853D01*
X0149955Y0138977D02*
X0151956Y0138977D01*
X0151289Y0138309D01*
X0151956Y0137642D01*
X0149955Y0137642D01*
X0149955Y0136767D02*
X0149955Y0135432D01*
X0151956Y0135432D01*
X0147574Y0140198D02*
X0146907Y0140198D01*
X0147240Y0140198D02*
X0147240Y0142199D01*
X0146907Y0142199D02*
X0147574Y0142199D01*
X0146100Y0141866D02*
X0146100Y0140531D01*
X0145767Y0140198D01*
X0145100Y0140198D01*
X0144766Y0140531D01*
X0143891Y0140531D02*
X0143557Y0140198D01*
X0142890Y0140198D01*
X0142556Y0140531D01*
X0142556Y0141866D01*
X0142890Y0142199D01*
X0143557Y0142199D01*
X0143891Y0141866D01*
X0143891Y0141532D01*
X0143557Y0141198D01*
X0142556Y0141198D01*
X0144766Y0141866D02*
X0145100Y0142199D01*
X0145767Y0142199D01*
X0146100Y0141866D01*
X0156767Y0151589D02*
X0157101Y0151255D01*
X0156767Y0151589D02*
X0156767Y0152256D01*
X0157101Y0152589D01*
X0157435Y0152589D01*
X0157768Y0152256D01*
X0157768Y0151922D01*
X0157768Y0152256D02*
X0158102Y0152589D01*
X0158435Y0152589D01*
X0158769Y0152256D01*
X0158769Y0151589D01*
X0158435Y0151255D01*
X0157101Y0153465D02*
X0157101Y0153798D01*
X0156767Y0153798D01*
X0156767Y0153465D01*
X0157101Y0153465D01*
X0157101Y0154570D02*
X0156767Y0154903D01*
X0156767Y0155571D01*
X0157101Y0155904D01*
X0157435Y0155904D01*
X0157768Y0155571D01*
X0157768Y0155237D01*
X0157768Y0155571D02*
X0158102Y0155904D01*
X0158435Y0155904D01*
X0158769Y0155571D01*
X0158769Y0154903D01*
X0158435Y0154570D01*
X0158769Y0156780D02*
X0156767Y0156780D01*
X0157435Y0156780D02*
X0158102Y0157781D01*
X0157435Y0156780D02*
X0156767Y0157781D01*
X0128961Y0124719D02*
X0129295Y0124385D01*
X0129723Y0116491D02*
X0128722Y0116491D01*
X0128388Y0116157D01*
X0128388Y0115490D01*
X0128722Y0115156D01*
X0129723Y0115156D01*
X0129723Y0114489D02*
X0129723Y0116491D01*
X0129055Y0115156D02*
X0128388Y0114489D01*
X0127513Y0114823D02*
X0127179Y0114489D01*
X0126512Y0114489D01*
X0126178Y0114823D01*
X0126178Y0115490D01*
X0126512Y0115823D01*
X0126845Y0115823D01*
X0127513Y0115490D01*
X0127513Y0116491D01*
X0126178Y0116491D01*
X0128696Y0080576D02*
X0129364Y0079575D01*
X0130031Y0080576D01*
X0130698Y0079575D02*
X0128696Y0079575D01*
X0129030Y0078700D02*
X0128696Y0078366D01*
X0128696Y0077699D01*
X0129030Y0077365D01*
X0130365Y0078700D01*
X0129030Y0078700D01*
X0130365Y0078700D02*
X0130698Y0078366D01*
X0130698Y0077699D01*
X0130365Y0077365D01*
X0129030Y0077365D01*
X0129030Y0076594D02*
X0128696Y0076594D01*
X0128696Y0076260D01*
X0129030Y0076260D01*
X0129030Y0076594D01*
X0128696Y0075385D02*
X0128696Y0074050D01*
X0128696Y0074717D02*
X0130698Y0074717D01*
X0130031Y0074050D01*
X0118866Y0055249D02*
X0118199Y0055249D01*
X0118532Y0055249D02*
X0118532Y0053247D01*
X0118199Y0053247D02*
X0118866Y0053247D01*
X0117392Y0053581D02*
X0117059Y0053247D01*
X0116392Y0053247D01*
X0116058Y0053581D01*
X0115183Y0053247D02*
X0113848Y0053247D01*
X0114515Y0053247D02*
X0114515Y0055249D01*
X0115183Y0054582D01*
X0116058Y0054915D02*
X0116392Y0055249D01*
X0117059Y0055249D01*
X0117392Y0054915D01*
X0117392Y0053581D01*
X0112973Y0053247D02*
X0111638Y0053247D01*
X0112305Y0053247D02*
X0112305Y0055249D01*
X0112973Y0054582D01*
X0116295Y0073842D02*
X0118297Y0073842D01*
X0118297Y0074843D01*
X0117963Y0075176D01*
X0117296Y0075176D01*
X0116962Y0074843D01*
X0116962Y0073842D01*
X0116962Y0074509D02*
X0116295Y0075176D01*
X0117296Y0076052D02*
X0117296Y0077386D01*
X0118297Y0077053D02*
X0117296Y0076052D01*
X0116295Y0077053D02*
X0118297Y0077053D01*
X0117963Y0078262D02*
X0118297Y0078595D01*
X0118297Y0079263D01*
X0117963Y0079596D01*
X0117629Y0079596D01*
X0117296Y0079263D01*
X0116962Y0079596D01*
X0116628Y0079596D01*
X0116295Y0079263D01*
X0116295Y0078595D01*
X0116628Y0078262D01*
X0117296Y0078929D02*
X0117296Y0079263D01*
X0096346Y0056745D02*
X0095679Y0056745D01*
X0096012Y0056745D02*
X0096012Y0054743D01*
X0095679Y0054743D02*
X0096346Y0054743D01*
X0094873Y0055077D02*
X0094873Y0056411D01*
X0094539Y0056745D01*
X0093872Y0056745D01*
X0093538Y0056411D01*
X0092663Y0056745D02*
X0092663Y0055744D01*
X0091996Y0056078D01*
X0091662Y0056078D01*
X0091328Y0055744D01*
X0091328Y0055077D01*
X0091662Y0054743D01*
X0092329Y0054743D01*
X0092663Y0055077D01*
X0093538Y0055077D02*
X0093872Y0054743D01*
X0094539Y0054743D01*
X0094873Y0055077D01*
X0092663Y0056745D02*
X0091328Y0056745D01*
X0086015Y0045979D02*
X0086682Y0045312D01*
X0086015Y0045979D02*
X0086015Y0043977D01*
X0086682Y0043977D02*
X0085348Y0043977D01*
X0084472Y0044311D02*
X0083138Y0045645D01*
X0083138Y0044311D01*
X0083471Y0043977D01*
X0084139Y0043977D01*
X0084472Y0044311D01*
X0084472Y0045645D01*
X0084139Y0045979D01*
X0083471Y0045979D01*
X0083138Y0045645D01*
X0082262Y0045979D02*
X0082262Y0043977D01*
X0082262Y0044644D02*
X0081262Y0045312D01*
X0082262Y0044644D02*
X0081262Y0043977D01*
X0075628Y0044371D02*
X0075628Y0046373D01*
X0074627Y0046373D01*
X0074294Y0046039D01*
X0074294Y0045372D01*
X0074627Y0045038D01*
X0075628Y0045038D01*
X0074961Y0045038D02*
X0074294Y0044371D01*
X0073418Y0044704D02*
X0073085Y0044371D01*
X0072417Y0044371D01*
X0072084Y0044704D01*
X0072084Y0045038D01*
X0072417Y0045372D01*
X0073418Y0045372D01*
X0073418Y0044704D01*
X0073418Y0045372D02*
X0072751Y0046039D01*
X0072084Y0046373D01*
X0075704Y0072622D02*
X0077706Y0072622D01*
X0077706Y0073622D01*
X0077372Y0073956D01*
X0076705Y0073956D01*
X0076372Y0073622D01*
X0076372Y0072622D01*
X0076372Y0073289D02*
X0075704Y0073956D01*
X0076038Y0074831D02*
X0075704Y0075165D01*
X0075704Y0075832D01*
X0076038Y0076166D01*
X0076372Y0076166D01*
X0076705Y0075832D01*
X0076705Y0075499D01*
X0076705Y0075832D02*
X0077039Y0076166D01*
X0077372Y0076166D01*
X0077706Y0075832D01*
X0077706Y0075165D01*
X0077372Y0074831D01*
X0077372Y0077041D02*
X0077039Y0077041D01*
X0076705Y0077375D01*
X0076705Y0078042D01*
X0076372Y0078376D01*
X0076038Y0078376D01*
X0075704Y0078042D01*
X0075704Y0077375D01*
X0076038Y0077041D01*
X0076372Y0077041D01*
X0076705Y0077375D01*
X0076705Y0078042D02*
X0077039Y0078376D01*
X0077372Y0078376D01*
X0077706Y0078042D01*
X0077706Y0077375D01*
X0077372Y0077041D01*
X0087437Y0076870D02*
X0087437Y0076203D01*
X0087770Y0075869D01*
X0089105Y0077203D01*
X0087770Y0077203D01*
X0087437Y0076870D01*
X0087770Y0075869D02*
X0089105Y0075869D01*
X0089438Y0076203D01*
X0089438Y0076870D01*
X0089105Y0077203D01*
X0089438Y0078079D02*
X0087437Y0078079D01*
X0088104Y0078079D02*
X0087437Y0079080D01*
X0088104Y0078079D02*
X0088771Y0079080D01*
X0087770Y0075098D02*
X0087437Y0075098D01*
X0087437Y0074764D01*
X0087770Y0074764D01*
X0087770Y0075098D01*
X0087437Y0073889D02*
X0087437Y0072554D01*
X0087437Y0073221D02*
X0089438Y0073221D01*
X0088771Y0072554D01*
X0096018Y0023651D02*
X0096685Y0022650D01*
X0097352Y0023651D01*
X0098019Y0022650D02*
X0096018Y0022650D01*
X0096351Y0021774D02*
X0096018Y0021441D01*
X0096018Y0020774D01*
X0096351Y0020440D01*
X0097686Y0021774D01*
X0096351Y0021774D01*
X0096351Y0020440D02*
X0097686Y0020440D01*
X0098019Y0020774D01*
X0098019Y0021441D01*
X0097686Y0021774D01*
X0096351Y0019669D02*
X0096018Y0019669D01*
X0096018Y0019335D01*
X0096351Y0019335D01*
X0096351Y0019669D01*
X0096018Y0018460D02*
X0096018Y0017125D01*
X0096018Y0017792D02*
X0098019Y0017792D01*
X0097352Y0017125D01*
X0106411Y0017519D02*
X0108413Y0017519D01*
X0108413Y0018520D01*
X0108080Y0018853D01*
X0107412Y0018853D01*
X0107079Y0018520D01*
X0107079Y0017519D01*
X0107079Y0018186D02*
X0106411Y0018853D01*
X0106745Y0019729D02*
X0106411Y0020062D01*
X0106411Y0020730D01*
X0106745Y0021063D01*
X0107079Y0021063D01*
X0107412Y0020730D01*
X0107412Y0020396D01*
X0107412Y0020730D02*
X0107746Y0021063D01*
X0108080Y0021063D01*
X0108413Y0020730D01*
X0108413Y0020062D01*
X0108080Y0019729D01*
X0107746Y0021939D02*
X0108413Y0022606D01*
X0106411Y0022606D01*
X0106411Y0021939D02*
X0106411Y0023273D01*
X0081486Y0011740D02*
X0079484Y0011740D01*
X0080151Y0011740D02*
X0079484Y0012741D01*
X0080151Y0011740D02*
X0080818Y0012741D01*
X0081152Y0010865D02*
X0079817Y0009530D01*
X0079484Y0009864D01*
X0079484Y0010531D01*
X0079817Y0010865D01*
X0081152Y0010865D01*
X0081486Y0010531D01*
X0081486Y0009864D01*
X0081152Y0009530D01*
X0079817Y0009530D01*
X0079817Y0008655D02*
X0079484Y0008321D01*
X0079484Y0007654D01*
X0079817Y0007321D01*
X0081152Y0008655D01*
X0079817Y0008655D01*
X0079817Y0007321D02*
X0081152Y0007321D01*
X0081486Y0007654D01*
X0081486Y0008321D01*
X0081152Y0008655D01*
X0079484Y0006445D02*
X0079484Y0005111D01*
X0079484Y0005778D02*
X0081486Y0005778D01*
X0080818Y0005111D01*
X0070816Y0007942D02*
X0070816Y0008942D01*
X0070483Y0009276D01*
X0069815Y0009276D01*
X0069482Y0008942D01*
X0069482Y0007942D01*
X0069482Y0008609D02*
X0068815Y0009276D01*
X0069815Y0010152D02*
X0069815Y0011486D01*
X0068815Y0011152D02*
X0070816Y0011152D01*
X0069815Y0010152D01*
X0068815Y0007942D02*
X0070816Y0007942D01*
X0058798Y0031694D02*
X0059132Y0032027D01*
X0059132Y0033362D01*
X0058798Y0033695D01*
X0058131Y0033695D01*
X0057798Y0033362D01*
X0057798Y0032027D01*
X0058131Y0031694D01*
X0058798Y0031694D01*
X0058465Y0032361D02*
X0057798Y0031694D01*
X0056922Y0031694D02*
X0055588Y0031694D01*
X0056255Y0031694D02*
X0056255Y0033695D01*
X0056922Y0033028D01*
X0056092Y0041024D02*
X0054757Y0041024D01*
X0055424Y0041024D02*
X0055424Y0043026D01*
X0056092Y0042359D01*
X0053882Y0042692D02*
X0053548Y0043026D01*
X0052881Y0043026D01*
X0052547Y0042692D01*
X0053882Y0041358D01*
X0053548Y0041024D01*
X0052881Y0041024D01*
X0052547Y0041358D01*
X0052547Y0042692D01*
X0051672Y0043026D02*
X0051672Y0041024D01*
X0051672Y0041692D02*
X0050671Y0042359D01*
X0051672Y0041692D02*
X0050671Y0041024D01*
X0053882Y0041358D02*
X0053882Y0042692D01*
X0042370Y0055964D02*
X0041702Y0055964D01*
X0042036Y0055964D02*
X0042036Y0057965D01*
X0042370Y0057965D02*
X0041702Y0057965D01*
X0040896Y0057632D02*
X0040896Y0056297D01*
X0040563Y0055964D01*
X0039896Y0055964D01*
X0039562Y0056297D01*
X0038687Y0056297D02*
X0038687Y0056631D01*
X0038353Y0056965D01*
X0037686Y0056965D01*
X0037352Y0056631D01*
X0037352Y0056297D01*
X0037686Y0055964D01*
X0038353Y0055964D01*
X0038687Y0056297D01*
X0038353Y0056965D02*
X0038687Y0057298D01*
X0038687Y0057632D01*
X0038353Y0057965D01*
X0037686Y0057965D01*
X0037352Y0057632D01*
X0037352Y0057298D01*
X0037686Y0056965D01*
X0039562Y0057632D02*
X0039896Y0057965D01*
X0040563Y0057965D01*
X0040896Y0057632D01*
X0036337Y0045349D02*
X0035336Y0045349D01*
X0035002Y0045015D01*
X0035002Y0044348D01*
X0035336Y0044014D01*
X0036337Y0044014D01*
X0036337Y0043347D02*
X0036337Y0045349D01*
X0035669Y0044014D02*
X0035002Y0043347D01*
X0034127Y0043347D02*
X0034127Y0043681D01*
X0032792Y0045015D01*
X0032792Y0045349D01*
X0034127Y0045349D01*
X0029673Y0031772D02*
X0029673Y0030437D01*
X0028672Y0030437D01*
X0029006Y0031105D01*
X0029006Y0031438D01*
X0028672Y0031772D01*
X0028005Y0031772D01*
X0027671Y0031438D01*
X0027671Y0030771D01*
X0028005Y0030437D01*
X0028005Y0029562D02*
X0027671Y0029228D01*
X0027671Y0028561D01*
X0028005Y0028228D01*
X0029339Y0028228D01*
X0029673Y0028561D01*
X0029673Y0029228D01*
X0029339Y0029562D01*
X0028005Y0029562D01*
X0027671Y0029562D02*
X0028338Y0028895D01*
X0030803Y0013302D02*
X0030470Y0012968D01*
X0030470Y0012634D01*
X0030803Y0012301D01*
X0030470Y0011967D01*
X0030470Y0011634D01*
X0030803Y0011300D01*
X0031470Y0011300D01*
X0031804Y0011634D01*
X0032679Y0011300D02*
X0034014Y0011300D01*
X0033347Y0011300D02*
X0033347Y0013302D01*
X0034014Y0012634D01*
X0034889Y0012301D02*
X0035223Y0011967D01*
X0036224Y0011967D01*
X0036224Y0011300D02*
X0036224Y0013302D01*
X0035223Y0013302D01*
X0034889Y0012968D01*
X0034889Y0012301D01*
X0035557Y0011967D02*
X0034889Y0011300D01*
X0031804Y0012968D02*
X0031470Y0013302D01*
X0030803Y0013302D01*
X0030803Y0012301D02*
X0031137Y0012301D01*
X0043185Y0012539D02*
X0043185Y0011872D01*
X0043518Y0011538D01*
X0044853Y0012873D01*
X0043518Y0012873D01*
X0043185Y0012539D01*
X0043518Y0011538D02*
X0044853Y0011538D01*
X0045186Y0011872D01*
X0045186Y0012539D01*
X0044853Y0012873D01*
X0045186Y0013748D02*
X0043185Y0013748D01*
X0043852Y0013748D02*
X0044519Y0014749D01*
X0043852Y0013748D02*
X0043185Y0014749D01*
X0043518Y0010663D02*
X0043185Y0010329D01*
X0043185Y0009662D01*
X0043518Y0009328D01*
X0044853Y0010663D01*
X0043518Y0010663D01*
X0043518Y0009328D02*
X0044853Y0009328D01*
X0045186Y0009662D01*
X0045186Y0010329D01*
X0044853Y0010663D01*
X0043185Y0008453D02*
X0043185Y0007119D01*
X0043185Y0007786D02*
X0045186Y0007786D01*
X0044519Y0007119D01*
X0041643Y0071440D02*
X0039641Y0071440D01*
X0040309Y0071440D02*
X0040309Y0072441D01*
X0040642Y0072775D01*
X0041309Y0072775D01*
X0041643Y0072441D01*
X0041643Y0071440D01*
X0040309Y0072108D02*
X0039641Y0072775D01*
X0039975Y0073650D02*
X0039641Y0073984D01*
X0039641Y0074651D01*
X0039975Y0074985D01*
X0040309Y0074985D01*
X0040642Y0074651D01*
X0040642Y0074318D01*
X0040642Y0074651D02*
X0040976Y0074985D01*
X0041309Y0074985D01*
X0041643Y0074651D01*
X0041643Y0073984D01*
X0041309Y0073650D01*
X0040642Y0075860D02*
X0040642Y0077195D01*
X0039641Y0076861D02*
X0041643Y0076861D01*
X0040642Y0075860D01*
X0051846Y0076163D02*
X0052180Y0075830D01*
X0053514Y0077164D01*
X0052180Y0077164D01*
X0051846Y0076830D01*
X0051846Y0076163D01*
X0052180Y0075830D02*
X0053514Y0075830D01*
X0053848Y0076163D01*
X0053848Y0076830D01*
X0053514Y0077164D01*
X0053848Y0078040D02*
X0051846Y0078040D01*
X0052513Y0078040D02*
X0051846Y0079040D01*
X0052513Y0078040D02*
X0053181Y0079040D01*
X0052180Y0075058D02*
X0051846Y0075058D01*
X0051846Y0074725D01*
X0052180Y0074725D01*
X0052180Y0075058D01*
X0051846Y0073849D02*
X0051846Y0072515D01*
X0051846Y0073182D02*
X0053848Y0073182D01*
X0053181Y0072515D01*
X0028719Y0139822D02*
X0028052Y0139822D01*
X0027718Y0140156D01*
X0026843Y0139822D02*
X0026843Y0141490D01*
X0026509Y0141824D01*
X0025842Y0141824D01*
X0025508Y0141490D01*
X0025508Y0139822D01*
X0027718Y0141824D02*
X0029053Y0140489D01*
X0029053Y0140156D01*
X0028719Y0139822D01*
X0029053Y0141824D02*
X0027718Y0141824D01*
X0015240Y0116609D02*
X0015240Y0114607D01*
X0015240Y0115274D02*
X0014239Y0115274D01*
X0013905Y0115608D01*
X0013905Y0116275D01*
X0014239Y0116609D01*
X0015240Y0116609D01*
X0014572Y0115274D02*
X0013905Y0114607D01*
X0013030Y0114941D02*
X0012696Y0114607D01*
X0012029Y0114607D01*
X0011695Y0114941D01*
X0011695Y0115274D01*
X0012029Y0115608D01*
X0012362Y0115608D01*
X0012029Y0115608D02*
X0011695Y0115942D01*
X0011695Y0116275D01*
X0012029Y0116609D01*
X0012696Y0116609D01*
X0013030Y0116275D01*
X0010820Y0116275D02*
X0010486Y0116609D01*
X0009819Y0116609D01*
X0009485Y0116275D01*
X0009485Y0115942D01*
X0009819Y0115608D01*
X0009485Y0115274D01*
X0009485Y0114941D01*
X0009819Y0114607D01*
X0010486Y0114607D01*
X0010820Y0114941D01*
X0010153Y0115608D02*
X0009819Y0115608D01*
X0009569Y0123859D02*
X0010904Y0123859D01*
X0009569Y0125194D01*
X0009569Y0125527D01*
X0009903Y0125861D01*
X0010570Y0125861D01*
X0010904Y0125527D01*
X0011779Y0125527D02*
X0012113Y0125861D01*
X0012780Y0125861D01*
X0013114Y0125527D01*
X0011779Y0125527D02*
X0011779Y0125194D01*
X0013114Y0123859D01*
X0011779Y0123859D01*
X0008694Y0124193D02*
X0007359Y0125527D01*
X0007359Y0124193D01*
X0007693Y0123859D01*
X0008360Y0123859D01*
X0008694Y0124193D01*
X0008694Y0125527D01*
X0008360Y0125861D01*
X0007693Y0125861D01*
X0007359Y0125527D01*
X0007004Y0086801D02*
X0007004Y0085466D01*
X0008338Y0086801D01*
X0008672Y0086801D01*
X0009005Y0086467D01*
X0009005Y0085800D01*
X0008672Y0085466D01*
X0008672Y0084591D02*
X0008338Y0084591D01*
X0008004Y0084257D01*
X0007671Y0084591D01*
X0007337Y0084591D01*
X0007004Y0084257D01*
X0007004Y0083590D01*
X0007337Y0083257D01*
X0007004Y0082381D02*
X0007671Y0081714D01*
X0007671Y0082048D02*
X0007671Y0081047D01*
X0007004Y0081047D02*
X0009005Y0081047D01*
X0009005Y0082048D01*
X0008672Y0082381D01*
X0008004Y0082381D01*
X0007671Y0082048D01*
X0008672Y0083257D02*
X0009005Y0083590D01*
X0009005Y0084257D01*
X0008672Y0084591D01*
X0008004Y0084257D02*
X0008004Y0083924D01*
X0011531Y0077899D02*
X0012198Y0076898D01*
X0012866Y0077899D01*
X0013533Y0076898D02*
X0011531Y0076898D01*
X0011865Y0076022D02*
X0011531Y0075689D01*
X0011531Y0075022D01*
X0011865Y0074688D01*
X0013199Y0076022D01*
X0011865Y0076022D01*
X0011865Y0074688D02*
X0013199Y0074688D01*
X0013533Y0075022D01*
X0013533Y0075689D01*
X0013199Y0076022D01*
X0011865Y0073917D02*
X0011531Y0073917D01*
X0011531Y0073583D01*
X0011865Y0073583D01*
X0011865Y0073917D01*
X0011531Y0072708D02*
X0011531Y0071373D01*
X0011531Y0072040D02*
X0013533Y0072040D01*
X0012866Y0071373D01*
X0012212Y0041154D02*
X0011545Y0041154D01*
X0011879Y0041154D02*
X0011879Y0039153D01*
X0012212Y0039153D02*
X0011545Y0039153D01*
X0010739Y0039486D02*
X0010739Y0040821D01*
X0010405Y0041154D01*
X0009738Y0041154D01*
X0009404Y0040821D01*
X0008529Y0041154D02*
X0007195Y0041154D01*
X0007195Y0040821D01*
X0008529Y0039486D01*
X0008529Y0039153D01*
X0009404Y0039486D02*
X0009738Y0039153D01*
X0010405Y0039153D01*
X0010739Y0039486D01*
X0137041Y0024241D02*
X0137709Y0023240D01*
X0138376Y0024241D01*
X0139043Y0023240D02*
X0137041Y0023240D01*
X0137375Y0022365D02*
X0137041Y0022031D01*
X0137041Y0021364D01*
X0137375Y0021031D01*
X0138709Y0022365D01*
X0137375Y0022365D01*
X0138709Y0022365D02*
X0139043Y0022031D01*
X0139043Y0021364D01*
X0138709Y0021031D01*
X0137375Y0021031D01*
X0137375Y0020259D02*
X0137041Y0020259D01*
X0137041Y0019926D01*
X0137375Y0019926D01*
X0137375Y0020259D01*
X0137041Y0019050D02*
X0137041Y0017716D01*
X0137041Y0018383D02*
X0139043Y0018383D01*
X0138376Y0017716D01*
X0146254Y0018109D02*
X0148256Y0018109D01*
X0148256Y0019110D01*
X0147922Y0019444D01*
X0147255Y0019444D01*
X0146921Y0019110D01*
X0146921Y0018109D01*
X0146921Y0018777D02*
X0146254Y0019444D01*
X0146254Y0020319D02*
X0147588Y0021654D01*
X0147922Y0021654D01*
X0148256Y0021320D01*
X0148256Y0020653D01*
X0147922Y0020319D01*
X0146254Y0020319D02*
X0146254Y0021654D01*
X0146588Y0022529D02*
X0147922Y0023864D01*
X0146588Y0023864D01*
X0146254Y0023530D01*
X0146254Y0022863D01*
X0146588Y0022529D01*
X0147922Y0022529D01*
X0148256Y0022863D01*
X0148256Y0023530D01*
X0147922Y0023864D01*
D16*
X0074210Y0291689D03*
D17*
X0073507Y0318366D02*
X0073507Y0319366D01*
X0074507Y0319366D01*
X0073507Y0319366D02*
X0073507Y0320366D01*
X0073507Y0319366D02*
X0072507Y0319366D01*
X0069007Y0324366D02*
X0069010Y0324611D01*
X0069019Y0324857D01*
X0069034Y0325102D01*
X0069055Y0325346D01*
X0069082Y0325590D01*
X0069115Y0325833D01*
X0069154Y0326076D01*
X0069199Y0326317D01*
X0069250Y0326557D01*
X0069307Y0326796D01*
X0069369Y0327033D01*
X0069438Y0327269D01*
X0069512Y0327503D01*
X0069592Y0327735D01*
X0069677Y0327965D01*
X0069768Y0328193D01*
X0069865Y0328418D01*
X0069967Y0328642D01*
X0070075Y0328862D01*
X0070188Y0329080D01*
X0070306Y0329295D01*
X0070430Y0329507D01*
X0070558Y0329716D01*
X0070692Y0329922D01*
X0070831Y0330124D01*
X0070975Y0330323D01*
X0071124Y0330518D01*
X0071277Y0330710D01*
X0071435Y0330898D01*
X0071597Y0331082D01*
X0071765Y0331261D01*
X0071936Y0331437D01*
X0072112Y0331608D01*
X0072291Y0331776D01*
X0072475Y0331938D01*
X0072663Y0332096D01*
X0072855Y0332249D01*
X0073050Y0332398D01*
X0073249Y0332542D01*
X0073451Y0332681D01*
X0073657Y0332815D01*
X0073866Y0332943D01*
X0074078Y0333067D01*
X0074293Y0333185D01*
X0074511Y0333298D01*
X0074731Y0333406D01*
X0074955Y0333508D01*
X0075180Y0333605D01*
X0075408Y0333696D01*
X0075638Y0333781D01*
X0075870Y0333861D01*
X0076104Y0333935D01*
X0076340Y0334004D01*
X0076577Y0334066D01*
X0076816Y0334123D01*
X0077056Y0334174D01*
X0077297Y0334219D01*
X0077540Y0334258D01*
X0077783Y0334291D01*
X0078027Y0334318D01*
X0078271Y0334339D01*
X0078516Y0334354D01*
X0078762Y0334363D01*
X0079007Y0334366D01*
X0079252Y0334363D01*
X0079498Y0334354D01*
X0079743Y0334339D01*
X0079987Y0334318D01*
X0080231Y0334291D01*
X0080474Y0334258D01*
X0080717Y0334219D01*
X0080958Y0334174D01*
X0081198Y0334123D01*
X0081437Y0334066D01*
X0081674Y0334004D01*
X0081910Y0333935D01*
X0082144Y0333861D01*
X0082376Y0333781D01*
X0082606Y0333696D01*
X0082834Y0333605D01*
X0083059Y0333508D01*
X0083283Y0333406D01*
X0083503Y0333298D01*
X0083721Y0333185D01*
X0083936Y0333067D01*
X0084148Y0332943D01*
X0084357Y0332815D01*
X0084563Y0332681D01*
X0084765Y0332542D01*
X0084964Y0332398D01*
X0085159Y0332249D01*
X0085351Y0332096D01*
X0085539Y0331938D01*
X0085723Y0331776D01*
X0085902Y0331608D01*
X0086078Y0331437D01*
X0086249Y0331261D01*
X0086417Y0331082D01*
X0086579Y0330898D01*
X0086737Y0330710D01*
X0086890Y0330518D01*
X0087039Y0330323D01*
X0087183Y0330124D01*
X0087322Y0329922D01*
X0087456Y0329716D01*
X0087584Y0329507D01*
X0087708Y0329295D01*
X0087826Y0329080D01*
X0087939Y0328862D01*
X0088047Y0328642D01*
X0088149Y0328418D01*
X0088246Y0328193D01*
X0088337Y0327965D01*
X0088422Y0327735D01*
X0088502Y0327503D01*
X0088576Y0327269D01*
X0088645Y0327033D01*
X0088707Y0326796D01*
X0088764Y0326557D01*
X0088815Y0326317D01*
X0088860Y0326076D01*
X0088899Y0325833D01*
X0088932Y0325590D01*
X0088959Y0325346D01*
X0088980Y0325102D01*
X0088995Y0324857D01*
X0089004Y0324611D01*
X0089007Y0324366D01*
X0089004Y0324121D01*
X0088995Y0323875D01*
X0088980Y0323630D01*
X0088959Y0323386D01*
X0088932Y0323142D01*
X0088899Y0322899D01*
X0088860Y0322656D01*
X0088815Y0322415D01*
X0088764Y0322175D01*
X0088707Y0321936D01*
X0088645Y0321699D01*
X0088576Y0321463D01*
X0088502Y0321229D01*
X0088422Y0320997D01*
X0088337Y0320767D01*
X0088246Y0320539D01*
X0088149Y0320314D01*
X0088047Y0320090D01*
X0087939Y0319870D01*
X0087826Y0319652D01*
X0087708Y0319437D01*
X0087584Y0319225D01*
X0087456Y0319016D01*
X0087322Y0318810D01*
X0087183Y0318608D01*
X0087039Y0318409D01*
X0086890Y0318214D01*
X0086737Y0318022D01*
X0086579Y0317834D01*
X0086417Y0317650D01*
X0086249Y0317471D01*
X0086078Y0317295D01*
X0085902Y0317124D01*
X0085723Y0316956D01*
X0085539Y0316794D01*
X0085351Y0316636D01*
X0085159Y0316483D01*
X0084964Y0316334D01*
X0084765Y0316190D01*
X0084563Y0316051D01*
X0084357Y0315917D01*
X0084148Y0315789D01*
X0083936Y0315665D01*
X0083721Y0315547D01*
X0083503Y0315434D01*
X0083283Y0315326D01*
X0083059Y0315224D01*
X0082834Y0315127D01*
X0082606Y0315036D01*
X0082376Y0314951D01*
X0082144Y0314871D01*
X0081910Y0314797D01*
X0081674Y0314728D01*
X0081437Y0314666D01*
X0081198Y0314609D01*
X0080958Y0314558D01*
X0080717Y0314513D01*
X0080474Y0314474D01*
X0080231Y0314441D01*
X0079987Y0314414D01*
X0079743Y0314393D01*
X0079498Y0314378D01*
X0079252Y0314369D01*
X0079007Y0314366D01*
X0078762Y0314369D01*
X0078516Y0314378D01*
X0078271Y0314393D01*
X0078027Y0314414D01*
X0077783Y0314441D01*
X0077540Y0314474D01*
X0077297Y0314513D01*
X0077056Y0314558D01*
X0076816Y0314609D01*
X0076577Y0314666D01*
X0076340Y0314728D01*
X0076104Y0314797D01*
X0075870Y0314871D01*
X0075638Y0314951D01*
X0075408Y0315036D01*
X0075180Y0315127D01*
X0074955Y0315224D01*
X0074731Y0315326D01*
X0074511Y0315434D01*
X0074293Y0315547D01*
X0074078Y0315665D01*
X0073866Y0315789D01*
X0073657Y0315917D01*
X0073451Y0316051D01*
X0073249Y0316190D01*
X0073050Y0316334D01*
X0072855Y0316483D01*
X0072663Y0316636D01*
X0072475Y0316794D01*
X0072291Y0316956D01*
X0072112Y0317124D01*
X0071936Y0317295D01*
X0071765Y0317471D01*
X0071597Y0317650D01*
X0071435Y0317834D01*
X0071277Y0318022D01*
X0071124Y0318214D01*
X0070975Y0318409D01*
X0070831Y0318608D01*
X0070692Y0318810D01*
X0070558Y0319016D01*
X0070430Y0319225D01*
X0070306Y0319437D01*
X0070188Y0319652D01*
X0070075Y0319870D01*
X0069967Y0320090D01*
X0069865Y0320314D01*
X0069768Y0320539D01*
X0069677Y0320767D01*
X0069592Y0320997D01*
X0069512Y0321229D01*
X0069438Y0321463D01*
X0069369Y0321699D01*
X0069307Y0321936D01*
X0069250Y0322175D01*
X0069199Y0322415D01*
X0069154Y0322656D01*
X0069115Y0322899D01*
X0069082Y0323142D01*
X0069055Y0323386D01*
X0069034Y0323630D01*
X0069019Y0323875D01*
X0069010Y0324121D01*
X0069007Y0324366D01*
X0062633Y0328992D02*
X0061633Y0328992D01*
X0061633Y0329992D01*
X0061633Y0328992D02*
X0060633Y0328992D01*
X0061633Y0328992D02*
X0061633Y0327992D01*
X0046133Y0323992D02*
X0046136Y0324237D01*
X0046145Y0324483D01*
X0046160Y0324728D01*
X0046181Y0324972D01*
X0046208Y0325216D01*
X0046241Y0325459D01*
X0046280Y0325702D01*
X0046325Y0325943D01*
X0046376Y0326183D01*
X0046433Y0326422D01*
X0046495Y0326659D01*
X0046564Y0326895D01*
X0046638Y0327129D01*
X0046718Y0327361D01*
X0046803Y0327591D01*
X0046894Y0327819D01*
X0046991Y0328044D01*
X0047093Y0328268D01*
X0047201Y0328488D01*
X0047314Y0328706D01*
X0047432Y0328921D01*
X0047556Y0329133D01*
X0047684Y0329342D01*
X0047818Y0329548D01*
X0047957Y0329750D01*
X0048101Y0329949D01*
X0048250Y0330144D01*
X0048403Y0330336D01*
X0048561Y0330524D01*
X0048723Y0330708D01*
X0048891Y0330887D01*
X0049062Y0331063D01*
X0049238Y0331234D01*
X0049417Y0331402D01*
X0049601Y0331564D01*
X0049789Y0331722D01*
X0049981Y0331875D01*
X0050176Y0332024D01*
X0050375Y0332168D01*
X0050577Y0332307D01*
X0050783Y0332441D01*
X0050992Y0332569D01*
X0051204Y0332693D01*
X0051419Y0332811D01*
X0051637Y0332924D01*
X0051857Y0333032D01*
X0052081Y0333134D01*
X0052306Y0333231D01*
X0052534Y0333322D01*
X0052764Y0333407D01*
X0052996Y0333487D01*
X0053230Y0333561D01*
X0053466Y0333630D01*
X0053703Y0333692D01*
X0053942Y0333749D01*
X0054182Y0333800D01*
X0054423Y0333845D01*
X0054666Y0333884D01*
X0054909Y0333917D01*
X0055153Y0333944D01*
X0055397Y0333965D01*
X0055642Y0333980D01*
X0055888Y0333989D01*
X0056133Y0333992D01*
X0056378Y0333989D01*
X0056624Y0333980D01*
X0056869Y0333965D01*
X0057113Y0333944D01*
X0057357Y0333917D01*
X0057600Y0333884D01*
X0057843Y0333845D01*
X0058084Y0333800D01*
X0058324Y0333749D01*
X0058563Y0333692D01*
X0058800Y0333630D01*
X0059036Y0333561D01*
X0059270Y0333487D01*
X0059502Y0333407D01*
X0059732Y0333322D01*
X0059960Y0333231D01*
X0060185Y0333134D01*
X0060409Y0333032D01*
X0060629Y0332924D01*
X0060847Y0332811D01*
X0061062Y0332693D01*
X0061274Y0332569D01*
X0061483Y0332441D01*
X0061689Y0332307D01*
X0061891Y0332168D01*
X0062090Y0332024D01*
X0062285Y0331875D01*
X0062477Y0331722D01*
X0062665Y0331564D01*
X0062849Y0331402D01*
X0063028Y0331234D01*
X0063204Y0331063D01*
X0063375Y0330887D01*
X0063543Y0330708D01*
X0063705Y0330524D01*
X0063863Y0330336D01*
X0064016Y0330144D01*
X0064165Y0329949D01*
X0064309Y0329750D01*
X0064448Y0329548D01*
X0064582Y0329342D01*
X0064710Y0329133D01*
X0064834Y0328921D01*
X0064952Y0328706D01*
X0065065Y0328488D01*
X0065173Y0328268D01*
X0065275Y0328044D01*
X0065372Y0327819D01*
X0065463Y0327591D01*
X0065548Y0327361D01*
X0065628Y0327129D01*
X0065702Y0326895D01*
X0065771Y0326659D01*
X0065833Y0326422D01*
X0065890Y0326183D01*
X0065941Y0325943D01*
X0065986Y0325702D01*
X0066025Y0325459D01*
X0066058Y0325216D01*
X0066085Y0324972D01*
X0066106Y0324728D01*
X0066121Y0324483D01*
X0066130Y0324237D01*
X0066133Y0323992D01*
X0066130Y0323747D01*
X0066121Y0323501D01*
X0066106Y0323256D01*
X0066085Y0323012D01*
X0066058Y0322768D01*
X0066025Y0322525D01*
X0065986Y0322282D01*
X0065941Y0322041D01*
X0065890Y0321801D01*
X0065833Y0321562D01*
X0065771Y0321325D01*
X0065702Y0321089D01*
X0065628Y0320855D01*
X0065548Y0320623D01*
X0065463Y0320393D01*
X0065372Y0320165D01*
X0065275Y0319940D01*
X0065173Y0319716D01*
X0065065Y0319496D01*
X0064952Y0319278D01*
X0064834Y0319063D01*
X0064710Y0318851D01*
X0064582Y0318642D01*
X0064448Y0318436D01*
X0064309Y0318234D01*
X0064165Y0318035D01*
X0064016Y0317840D01*
X0063863Y0317648D01*
X0063705Y0317460D01*
X0063543Y0317276D01*
X0063375Y0317097D01*
X0063204Y0316921D01*
X0063028Y0316750D01*
X0062849Y0316582D01*
X0062665Y0316420D01*
X0062477Y0316262D01*
X0062285Y0316109D01*
X0062090Y0315960D01*
X0061891Y0315816D01*
X0061689Y0315677D01*
X0061483Y0315543D01*
X0061274Y0315415D01*
X0061062Y0315291D01*
X0060847Y0315173D01*
X0060629Y0315060D01*
X0060409Y0314952D01*
X0060185Y0314850D01*
X0059960Y0314753D01*
X0059732Y0314662D01*
X0059502Y0314577D01*
X0059270Y0314497D01*
X0059036Y0314423D01*
X0058800Y0314354D01*
X0058563Y0314292D01*
X0058324Y0314235D01*
X0058084Y0314184D01*
X0057843Y0314139D01*
X0057600Y0314100D01*
X0057357Y0314067D01*
X0057113Y0314040D01*
X0056869Y0314019D01*
X0056624Y0314004D01*
X0056378Y0313995D01*
X0056133Y0313992D01*
X0055888Y0313995D01*
X0055642Y0314004D01*
X0055397Y0314019D01*
X0055153Y0314040D01*
X0054909Y0314067D01*
X0054666Y0314100D01*
X0054423Y0314139D01*
X0054182Y0314184D01*
X0053942Y0314235D01*
X0053703Y0314292D01*
X0053466Y0314354D01*
X0053230Y0314423D01*
X0052996Y0314497D01*
X0052764Y0314577D01*
X0052534Y0314662D01*
X0052306Y0314753D01*
X0052081Y0314850D01*
X0051857Y0314952D01*
X0051637Y0315060D01*
X0051419Y0315173D01*
X0051204Y0315291D01*
X0050992Y0315415D01*
X0050783Y0315543D01*
X0050577Y0315677D01*
X0050375Y0315816D01*
X0050176Y0315960D01*
X0049981Y0316109D01*
X0049789Y0316262D01*
X0049601Y0316420D01*
X0049417Y0316582D01*
X0049238Y0316750D01*
X0049062Y0316921D01*
X0048891Y0317097D01*
X0048723Y0317276D01*
X0048561Y0317460D01*
X0048403Y0317648D01*
X0048250Y0317840D01*
X0048101Y0318035D01*
X0047957Y0318234D01*
X0047818Y0318436D01*
X0047684Y0318642D01*
X0047556Y0318851D01*
X0047432Y0319063D01*
X0047314Y0319278D01*
X0047201Y0319496D01*
X0047093Y0319716D01*
X0046991Y0319940D01*
X0046894Y0320165D01*
X0046803Y0320393D01*
X0046718Y0320623D01*
X0046638Y0320855D01*
X0046564Y0321089D01*
X0046495Y0321325D01*
X0046433Y0321562D01*
X0046376Y0321801D01*
X0046325Y0322041D01*
X0046280Y0322282D01*
X0046241Y0322525D01*
X0046208Y0322768D01*
X0046181Y0323012D01*
X0046160Y0323256D01*
X0046145Y0323501D01*
X0046136Y0323747D01*
X0046133Y0323992D01*
X0059046Y0372220D02*
X0064046Y0372220D01*
X0066546Y0374720D01*
X0066546Y0389720D01*
X0069046Y0392220D01*
X0074046Y0392220D01*
X0076546Y0389720D01*
X0076546Y0374720D01*
X0079046Y0372220D01*
X0084046Y0372220D01*
X0086546Y0374720D01*
X0086546Y0389720D01*
X0089046Y0392220D01*
X0094046Y0392220D01*
X0096546Y0389720D01*
X0099046Y0392220D01*
X0104046Y0392220D01*
X0106546Y0389720D01*
X0106546Y0374720D01*
X0104046Y0372220D01*
X0099046Y0372220D01*
X0096546Y0374720D01*
X0096546Y0389720D01*
X0096546Y0374720D02*
X0094046Y0372220D01*
X0089046Y0372220D01*
X0086546Y0374720D01*
X0086546Y0389720D02*
X0084046Y0392220D01*
X0079046Y0392220D01*
X0076546Y0389720D01*
X0076546Y0374720D02*
X0074046Y0372220D01*
X0069046Y0372220D01*
X0066546Y0374720D01*
X0059046Y0372220D02*
X0056546Y0374720D01*
X0056546Y0389720D01*
X0059046Y0392220D01*
X0064046Y0392220D01*
X0066546Y0389720D01*
X0079007Y0243028D02*
X0079007Y0215429D01*
X0105207Y0215429D01*
X0106605Y0216827D01*
X0106605Y0243028D01*
X0079007Y0243028D01*
X0102192Y0218428D02*
X0102194Y0218503D01*
X0102200Y0218577D01*
X0102210Y0218651D01*
X0102223Y0218724D01*
X0102241Y0218797D01*
X0102262Y0218868D01*
X0102287Y0218939D01*
X0102316Y0219008D01*
X0102349Y0219075D01*
X0102385Y0219140D01*
X0102424Y0219204D01*
X0102466Y0219265D01*
X0102512Y0219324D01*
X0102561Y0219381D01*
X0102613Y0219434D01*
X0102667Y0219485D01*
X0102724Y0219534D01*
X0102784Y0219578D01*
X0102846Y0219620D01*
X0102910Y0219659D01*
X0102976Y0219694D01*
X0103043Y0219725D01*
X0103113Y0219753D01*
X0103183Y0219777D01*
X0103255Y0219798D01*
X0103328Y0219814D01*
X0103401Y0219827D01*
X0103476Y0219836D01*
X0103550Y0219841D01*
X0103625Y0219842D01*
X0103699Y0219839D01*
X0103774Y0219832D01*
X0103847Y0219821D01*
X0103921Y0219807D01*
X0103993Y0219788D01*
X0104064Y0219766D01*
X0104134Y0219740D01*
X0104203Y0219710D01*
X0104269Y0219677D01*
X0104334Y0219640D01*
X0104397Y0219600D01*
X0104458Y0219556D01*
X0104516Y0219510D01*
X0104572Y0219460D01*
X0104625Y0219408D01*
X0104676Y0219353D01*
X0104723Y0219295D01*
X0104767Y0219235D01*
X0104808Y0219172D01*
X0104846Y0219108D01*
X0104880Y0219042D01*
X0104911Y0218973D01*
X0104938Y0218904D01*
X0104961Y0218833D01*
X0104980Y0218761D01*
X0104996Y0218688D01*
X0105008Y0218614D01*
X0105016Y0218540D01*
X0105020Y0218465D01*
X0105020Y0218391D01*
X0105016Y0218316D01*
X0105008Y0218242D01*
X0104996Y0218168D01*
X0104980Y0218095D01*
X0104961Y0218023D01*
X0104938Y0217952D01*
X0104911Y0217883D01*
X0104880Y0217814D01*
X0104846Y0217748D01*
X0104808Y0217684D01*
X0104767Y0217621D01*
X0104723Y0217561D01*
X0104676Y0217503D01*
X0104625Y0217448D01*
X0104572Y0217396D01*
X0104516Y0217346D01*
X0104458Y0217300D01*
X0104397Y0217256D01*
X0104334Y0217216D01*
X0104269Y0217179D01*
X0104203Y0217146D01*
X0104134Y0217116D01*
X0104064Y0217090D01*
X0103993Y0217068D01*
X0103921Y0217049D01*
X0103847Y0217035D01*
X0103774Y0217024D01*
X0103699Y0217017D01*
X0103625Y0217014D01*
X0103550Y0217015D01*
X0103476Y0217020D01*
X0103401Y0217029D01*
X0103328Y0217042D01*
X0103255Y0217058D01*
X0103183Y0217079D01*
X0103113Y0217103D01*
X0103043Y0217131D01*
X0102976Y0217162D01*
X0102910Y0217197D01*
X0102846Y0217236D01*
X0102784Y0217278D01*
X0102724Y0217322D01*
X0102667Y0217371D01*
X0102613Y0217422D01*
X0102561Y0217475D01*
X0102512Y0217532D01*
X0102466Y0217591D01*
X0102424Y0217652D01*
X0102385Y0217716D01*
X0102349Y0217781D01*
X0102316Y0217848D01*
X0102287Y0217917D01*
X0102262Y0217988D01*
X0102241Y0218059D01*
X0102223Y0218132D01*
X0102210Y0218205D01*
X0102200Y0218279D01*
X0102194Y0218353D01*
X0102192Y0218428D01*
X0032804Y0156155D02*
X0020604Y0156155D01*
X0020604Y0143955D02*
X0025504Y0143955D01*
X0027904Y0143955D01*
X0032804Y0143955D01*
X0027904Y0143955D02*
X0027902Y0144024D01*
X0027896Y0144092D01*
X0027886Y0144160D01*
X0027873Y0144227D01*
X0027855Y0144293D01*
X0027834Y0144358D01*
X0027809Y0144422D01*
X0027781Y0144484D01*
X0027749Y0144545D01*
X0027714Y0144604D01*
X0027675Y0144660D01*
X0027633Y0144715D01*
X0027588Y0144766D01*
X0027540Y0144816D01*
X0027490Y0144862D01*
X0027437Y0144905D01*
X0027381Y0144946D01*
X0027324Y0144983D01*
X0027264Y0145016D01*
X0027202Y0145047D01*
X0027139Y0145073D01*
X0027075Y0145096D01*
X0027009Y0145116D01*
X0026942Y0145131D01*
X0026875Y0145143D01*
X0026807Y0145151D01*
X0026738Y0145155D01*
X0026670Y0145155D01*
X0026601Y0145151D01*
X0026533Y0145143D01*
X0026466Y0145131D01*
X0026399Y0145116D01*
X0026333Y0145096D01*
X0026269Y0145073D01*
X0026206Y0145047D01*
X0026144Y0145016D01*
X0026084Y0144983D01*
X0026027Y0144946D01*
X0025971Y0144905D01*
X0025918Y0144862D01*
X0025868Y0144816D01*
X0025820Y0144766D01*
X0025775Y0144715D01*
X0025733Y0144660D01*
X0025694Y0144604D01*
X0025659Y0144545D01*
X0025627Y0144484D01*
X0025599Y0144422D01*
X0025574Y0144358D01*
X0025553Y0144293D01*
X0025535Y0144227D01*
X0025522Y0144160D01*
X0025512Y0144092D01*
X0025506Y0144024D01*
X0025504Y0143955D01*
D18*
X0081546Y0387220D03*
D19*
X0085011Y0050803D02*
X0085011Y0050764D01*
X0049814Y0050843D02*
X0049814Y0050803D01*
X0009853Y0049898D02*
X0009853Y0049858D01*
X0126349Y0048756D02*
X0126349Y0048717D01*
D20*
X0120759Y0050685D02*
X0120759Y0056984D01*
X0131940Y0056984D02*
X0131940Y0050685D01*
X0090601Y0052732D02*
X0090601Y0059031D01*
X0079420Y0059031D02*
X0079420Y0052732D01*
X0055404Y0052772D02*
X0055404Y0059071D01*
X0044223Y0059071D02*
X0044223Y0052772D01*
X0015444Y0051827D02*
X0015444Y0058126D01*
X0004263Y0058126D02*
X0004263Y0051827D01*
D21*
X0004814Y0052378D02*
X0014853Y0052378D01*
X0014853Y0057535D01*
X0004814Y0057535D01*
X0004814Y0052378D01*
X0044774Y0053323D02*
X0054814Y0053323D01*
X0054814Y0058480D01*
X0044774Y0058480D01*
X0044774Y0053323D01*
X0079971Y0053283D02*
X0090011Y0053283D01*
X0090011Y0058441D01*
X0079971Y0058441D01*
X0079971Y0053283D01*
X0121310Y0051236D02*
X0131349Y0051236D01*
X0131349Y0056394D01*
X0121310Y0056394D01*
X0121310Y0051236D01*
D22*
X0125949Y0274342D03*
X0113274Y0317384D03*
X0104858Y0299537D03*
X0101344Y0294431D03*
X0092889Y0323198D03*
X0043272Y0274342D03*
X0017681Y0274342D03*
X0151540Y0274342D03*
D23*
X0018190Y0144121D02*
X0015054Y0140985D01*
X0016622Y0140985D02*
X0016622Y0144121D01*
X0015054Y0144121D02*
X0018190Y0140985D01*
X0018190Y0142553D02*
X0015054Y0142553D01*
D24*
X0031900Y0136315D02*
X0038200Y0136315D01*
X0038200Y0133165D02*
X0031900Y0133165D01*
D25*
X0035444Y0134740D03*
M02*
