G75*
%MOIN*%
%OFA0B0*%
%FSLAX25Y25*%
%IPPOS*%
%LPD*%
%AMOC8*
5,1,8,0,0,1.08239X$1,22.5*
%
%ADD10C,0.00000*%
D10*
X0065737Y0002417D02*
X0223217Y0002417D01*
X0223493Y0001000D02*
X0223178Y0396000D01*
X0223217Y0396118D02*
X0065737Y0396118D01*
X0065737Y0002417D01*
X0001150Y0123520D02*
X0001152Y0123678D01*
X0001158Y0123836D01*
X0001168Y0123994D01*
X0001182Y0124152D01*
X0001200Y0124309D01*
X0001221Y0124466D01*
X0001247Y0124622D01*
X0001277Y0124778D01*
X0001310Y0124933D01*
X0001348Y0125086D01*
X0001389Y0125239D01*
X0001434Y0125391D01*
X0001483Y0125542D01*
X0001536Y0125691D01*
X0001592Y0125839D01*
X0001652Y0125985D01*
X0001716Y0126130D01*
X0001784Y0126273D01*
X0001855Y0126415D01*
X0001929Y0126555D01*
X0002007Y0126692D01*
X0002089Y0126828D01*
X0002173Y0126962D01*
X0002262Y0127093D01*
X0002353Y0127222D01*
X0002448Y0127349D01*
X0002545Y0127474D01*
X0002646Y0127596D01*
X0002750Y0127715D01*
X0002857Y0127832D01*
X0002967Y0127946D01*
X0003080Y0128057D01*
X0003195Y0128166D01*
X0003313Y0128271D01*
X0003434Y0128373D01*
X0003557Y0128473D01*
X0003683Y0128569D01*
X0003811Y0128662D01*
X0003941Y0128752D01*
X0004074Y0128838D01*
X0004209Y0128922D01*
X0004345Y0129001D01*
X0004484Y0129078D01*
X0004625Y0129150D01*
X0004767Y0129220D01*
X0004911Y0129285D01*
X0005057Y0129347D01*
X0005204Y0129405D01*
X0005353Y0129460D01*
X0005503Y0129511D01*
X0005654Y0129558D01*
X0005806Y0129601D01*
X0005959Y0129640D01*
X0006114Y0129676D01*
X0006269Y0129707D01*
X0006425Y0129735D01*
X0006581Y0129759D01*
X0006738Y0129779D01*
X0006896Y0129795D01*
X0007053Y0129807D01*
X0007212Y0129815D01*
X0007370Y0129819D01*
X0007528Y0129819D01*
X0007686Y0129815D01*
X0007845Y0129807D01*
X0008002Y0129795D01*
X0008160Y0129779D01*
X0008317Y0129759D01*
X0008473Y0129735D01*
X0008629Y0129707D01*
X0008784Y0129676D01*
X0008939Y0129640D01*
X0009092Y0129601D01*
X0009244Y0129558D01*
X0009395Y0129511D01*
X0009545Y0129460D01*
X0009694Y0129405D01*
X0009841Y0129347D01*
X0009987Y0129285D01*
X0010131Y0129220D01*
X0010273Y0129150D01*
X0010414Y0129078D01*
X0010553Y0129001D01*
X0010689Y0128922D01*
X0010824Y0128838D01*
X0010957Y0128752D01*
X0011087Y0128662D01*
X0011215Y0128569D01*
X0011341Y0128473D01*
X0011464Y0128373D01*
X0011585Y0128271D01*
X0011703Y0128166D01*
X0011818Y0128057D01*
X0011931Y0127946D01*
X0012041Y0127832D01*
X0012148Y0127715D01*
X0012252Y0127596D01*
X0012353Y0127474D01*
X0012450Y0127349D01*
X0012545Y0127222D01*
X0012636Y0127093D01*
X0012725Y0126962D01*
X0012809Y0126828D01*
X0012891Y0126692D01*
X0012969Y0126555D01*
X0013043Y0126415D01*
X0013114Y0126273D01*
X0013182Y0126130D01*
X0013246Y0125985D01*
X0013306Y0125839D01*
X0013362Y0125691D01*
X0013415Y0125542D01*
X0013464Y0125391D01*
X0013509Y0125239D01*
X0013550Y0125086D01*
X0013588Y0124933D01*
X0013621Y0124778D01*
X0013651Y0124622D01*
X0013677Y0124466D01*
X0013698Y0124309D01*
X0013716Y0124152D01*
X0013730Y0123994D01*
X0013740Y0123836D01*
X0013746Y0123678D01*
X0013748Y0123520D01*
X0013746Y0123362D01*
X0013740Y0123204D01*
X0013730Y0123046D01*
X0013716Y0122888D01*
X0013698Y0122731D01*
X0013677Y0122574D01*
X0013651Y0122418D01*
X0013621Y0122262D01*
X0013588Y0122107D01*
X0013550Y0121954D01*
X0013509Y0121801D01*
X0013464Y0121649D01*
X0013415Y0121498D01*
X0013362Y0121349D01*
X0013306Y0121201D01*
X0013246Y0121055D01*
X0013182Y0120910D01*
X0013114Y0120767D01*
X0013043Y0120625D01*
X0012969Y0120485D01*
X0012891Y0120348D01*
X0012809Y0120212D01*
X0012725Y0120078D01*
X0012636Y0119947D01*
X0012545Y0119818D01*
X0012450Y0119691D01*
X0012353Y0119566D01*
X0012252Y0119444D01*
X0012148Y0119325D01*
X0012041Y0119208D01*
X0011931Y0119094D01*
X0011818Y0118983D01*
X0011703Y0118874D01*
X0011585Y0118769D01*
X0011464Y0118667D01*
X0011341Y0118567D01*
X0011215Y0118471D01*
X0011087Y0118378D01*
X0010957Y0118288D01*
X0010824Y0118202D01*
X0010689Y0118118D01*
X0010553Y0118039D01*
X0010414Y0117962D01*
X0010273Y0117890D01*
X0010131Y0117820D01*
X0009987Y0117755D01*
X0009841Y0117693D01*
X0009694Y0117635D01*
X0009545Y0117580D01*
X0009395Y0117529D01*
X0009244Y0117482D01*
X0009092Y0117439D01*
X0008939Y0117400D01*
X0008784Y0117364D01*
X0008629Y0117333D01*
X0008473Y0117305D01*
X0008317Y0117281D01*
X0008160Y0117261D01*
X0008002Y0117245D01*
X0007845Y0117233D01*
X0007686Y0117225D01*
X0007528Y0117221D01*
X0007370Y0117221D01*
X0007212Y0117225D01*
X0007053Y0117233D01*
X0006896Y0117245D01*
X0006738Y0117261D01*
X0006581Y0117281D01*
X0006425Y0117305D01*
X0006269Y0117333D01*
X0006114Y0117364D01*
X0005959Y0117400D01*
X0005806Y0117439D01*
X0005654Y0117482D01*
X0005503Y0117529D01*
X0005353Y0117580D01*
X0005204Y0117635D01*
X0005057Y0117693D01*
X0004911Y0117755D01*
X0004767Y0117820D01*
X0004625Y0117890D01*
X0004484Y0117962D01*
X0004345Y0118039D01*
X0004209Y0118118D01*
X0004074Y0118202D01*
X0003941Y0118288D01*
X0003811Y0118378D01*
X0003683Y0118471D01*
X0003557Y0118567D01*
X0003434Y0118667D01*
X0003313Y0118769D01*
X0003195Y0118874D01*
X0003080Y0118983D01*
X0002967Y0119094D01*
X0002857Y0119208D01*
X0002750Y0119325D01*
X0002646Y0119444D01*
X0002545Y0119566D01*
X0002448Y0119691D01*
X0002353Y0119818D01*
X0002262Y0119947D01*
X0002173Y0120078D01*
X0002089Y0120212D01*
X0002007Y0120348D01*
X0001929Y0120485D01*
X0001855Y0120625D01*
X0001784Y0120767D01*
X0001716Y0120910D01*
X0001652Y0121055D01*
X0001592Y0121201D01*
X0001536Y0121349D01*
X0001483Y0121498D01*
X0001434Y0121649D01*
X0001389Y0121801D01*
X0001348Y0121954D01*
X0001310Y0122107D01*
X0001277Y0122262D01*
X0001247Y0122418D01*
X0001221Y0122574D01*
X0001200Y0122731D01*
X0001182Y0122888D01*
X0001168Y0123046D01*
X0001158Y0123204D01*
X0001152Y0123362D01*
X0001150Y0123520D01*
M02*
