G75*
%MOIN*%
%OFA0B0*%
%FSLAX25Y25*%
%IPPOS*%
%LPD*%
%AMOC8*
5,1,8,0,0,1.08239X$1,22.5*
%
%ADD10C,0.00000*%
%ADD11C,0.00800*%
%ADD12R,0.02677X0.05709*%
%ADD13R,0.02520X0.11063*%
%ADD14C,0.01600*%
%ADD15C,0.00400*%
%ADD16R,0.03000X0.03400*%
%ADD17C,0.00600*%
%ADD18R,0.02000X0.02000*%
%ADD19C,0.00039*%
%ADD20C,0.00500*%
%ADD21C,0.00295*%
%ADD22C,0.00891*%
%ADD23C,0.00300*%
%ADD24C,0.00276*%
%ADD25R,0.01575X0.00787*%
D10*
X0065737Y0002417D02*
X0223217Y0002417D01*
X0223493Y0001000D02*
X0223178Y0396000D01*
X0223217Y0396118D02*
X0065737Y0396118D01*
X0065737Y0002417D01*
X0001150Y0123520D02*
X0001152Y0123678D01*
X0001158Y0123836D01*
X0001168Y0123994D01*
X0001182Y0124152D01*
X0001200Y0124309D01*
X0001221Y0124466D01*
X0001247Y0124622D01*
X0001277Y0124778D01*
X0001310Y0124933D01*
X0001348Y0125086D01*
X0001389Y0125239D01*
X0001434Y0125391D01*
X0001483Y0125542D01*
X0001536Y0125691D01*
X0001592Y0125839D01*
X0001652Y0125985D01*
X0001716Y0126130D01*
X0001784Y0126273D01*
X0001855Y0126415D01*
X0001929Y0126555D01*
X0002007Y0126692D01*
X0002089Y0126828D01*
X0002173Y0126962D01*
X0002262Y0127093D01*
X0002353Y0127222D01*
X0002448Y0127349D01*
X0002545Y0127474D01*
X0002646Y0127596D01*
X0002750Y0127715D01*
X0002857Y0127832D01*
X0002967Y0127946D01*
X0003080Y0128057D01*
X0003195Y0128166D01*
X0003313Y0128271D01*
X0003434Y0128373D01*
X0003557Y0128473D01*
X0003683Y0128569D01*
X0003811Y0128662D01*
X0003941Y0128752D01*
X0004074Y0128838D01*
X0004209Y0128922D01*
X0004345Y0129001D01*
X0004484Y0129078D01*
X0004625Y0129150D01*
X0004767Y0129220D01*
X0004911Y0129285D01*
X0005057Y0129347D01*
X0005204Y0129405D01*
X0005353Y0129460D01*
X0005503Y0129511D01*
X0005654Y0129558D01*
X0005806Y0129601D01*
X0005959Y0129640D01*
X0006114Y0129676D01*
X0006269Y0129707D01*
X0006425Y0129735D01*
X0006581Y0129759D01*
X0006738Y0129779D01*
X0006896Y0129795D01*
X0007053Y0129807D01*
X0007212Y0129815D01*
X0007370Y0129819D01*
X0007528Y0129819D01*
X0007686Y0129815D01*
X0007845Y0129807D01*
X0008002Y0129795D01*
X0008160Y0129779D01*
X0008317Y0129759D01*
X0008473Y0129735D01*
X0008629Y0129707D01*
X0008784Y0129676D01*
X0008939Y0129640D01*
X0009092Y0129601D01*
X0009244Y0129558D01*
X0009395Y0129511D01*
X0009545Y0129460D01*
X0009694Y0129405D01*
X0009841Y0129347D01*
X0009987Y0129285D01*
X0010131Y0129220D01*
X0010273Y0129150D01*
X0010414Y0129078D01*
X0010553Y0129001D01*
X0010689Y0128922D01*
X0010824Y0128838D01*
X0010957Y0128752D01*
X0011087Y0128662D01*
X0011215Y0128569D01*
X0011341Y0128473D01*
X0011464Y0128373D01*
X0011585Y0128271D01*
X0011703Y0128166D01*
X0011818Y0128057D01*
X0011931Y0127946D01*
X0012041Y0127832D01*
X0012148Y0127715D01*
X0012252Y0127596D01*
X0012353Y0127474D01*
X0012450Y0127349D01*
X0012545Y0127222D01*
X0012636Y0127093D01*
X0012725Y0126962D01*
X0012809Y0126828D01*
X0012891Y0126692D01*
X0012969Y0126555D01*
X0013043Y0126415D01*
X0013114Y0126273D01*
X0013182Y0126130D01*
X0013246Y0125985D01*
X0013306Y0125839D01*
X0013362Y0125691D01*
X0013415Y0125542D01*
X0013464Y0125391D01*
X0013509Y0125239D01*
X0013550Y0125086D01*
X0013588Y0124933D01*
X0013621Y0124778D01*
X0013651Y0124622D01*
X0013677Y0124466D01*
X0013698Y0124309D01*
X0013716Y0124152D01*
X0013730Y0123994D01*
X0013740Y0123836D01*
X0013746Y0123678D01*
X0013748Y0123520D01*
X0013746Y0123362D01*
X0013740Y0123204D01*
X0013730Y0123046D01*
X0013716Y0122888D01*
X0013698Y0122731D01*
X0013677Y0122574D01*
X0013651Y0122418D01*
X0013621Y0122262D01*
X0013588Y0122107D01*
X0013550Y0121954D01*
X0013509Y0121801D01*
X0013464Y0121649D01*
X0013415Y0121498D01*
X0013362Y0121349D01*
X0013306Y0121201D01*
X0013246Y0121055D01*
X0013182Y0120910D01*
X0013114Y0120767D01*
X0013043Y0120625D01*
X0012969Y0120485D01*
X0012891Y0120348D01*
X0012809Y0120212D01*
X0012725Y0120078D01*
X0012636Y0119947D01*
X0012545Y0119818D01*
X0012450Y0119691D01*
X0012353Y0119566D01*
X0012252Y0119444D01*
X0012148Y0119325D01*
X0012041Y0119208D01*
X0011931Y0119094D01*
X0011818Y0118983D01*
X0011703Y0118874D01*
X0011585Y0118769D01*
X0011464Y0118667D01*
X0011341Y0118567D01*
X0011215Y0118471D01*
X0011087Y0118378D01*
X0010957Y0118288D01*
X0010824Y0118202D01*
X0010689Y0118118D01*
X0010553Y0118039D01*
X0010414Y0117962D01*
X0010273Y0117890D01*
X0010131Y0117820D01*
X0009987Y0117755D01*
X0009841Y0117693D01*
X0009694Y0117635D01*
X0009545Y0117580D01*
X0009395Y0117529D01*
X0009244Y0117482D01*
X0009092Y0117439D01*
X0008939Y0117400D01*
X0008784Y0117364D01*
X0008629Y0117333D01*
X0008473Y0117305D01*
X0008317Y0117281D01*
X0008160Y0117261D01*
X0008002Y0117245D01*
X0007845Y0117233D01*
X0007686Y0117225D01*
X0007528Y0117221D01*
X0007370Y0117221D01*
X0007212Y0117225D01*
X0007053Y0117233D01*
X0006896Y0117245D01*
X0006738Y0117261D01*
X0006581Y0117281D01*
X0006425Y0117305D01*
X0006269Y0117333D01*
X0006114Y0117364D01*
X0005959Y0117400D01*
X0005806Y0117439D01*
X0005654Y0117482D01*
X0005503Y0117529D01*
X0005353Y0117580D01*
X0005204Y0117635D01*
X0005057Y0117693D01*
X0004911Y0117755D01*
X0004767Y0117820D01*
X0004625Y0117890D01*
X0004484Y0117962D01*
X0004345Y0118039D01*
X0004209Y0118118D01*
X0004074Y0118202D01*
X0003941Y0118288D01*
X0003811Y0118378D01*
X0003683Y0118471D01*
X0003557Y0118567D01*
X0003434Y0118667D01*
X0003313Y0118769D01*
X0003195Y0118874D01*
X0003080Y0118983D01*
X0002967Y0119094D01*
X0002857Y0119208D01*
X0002750Y0119325D01*
X0002646Y0119444D01*
X0002545Y0119566D01*
X0002448Y0119691D01*
X0002353Y0119818D01*
X0002262Y0119947D01*
X0002173Y0120078D01*
X0002089Y0120212D01*
X0002007Y0120348D01*
X0001929Y0120485D01*
X0001855Y0120625D01*
X0001784Y0120767D01*
X0001716Y0120910D01*
X0001652Y0121055D01*
X0001592Y0121201D01*
X0001536Y0121349D01*
X0001483Y0121498D01*
X0001434Y0121649D01*
X0001389Y0121801D01*
X0001348Y0121954D01*
X0001310Y0122107D01*
X0001277Y0122262D01*
X0001247Y0122418D01*
X0001221Y0122574D01*
X0001200Y0122731D01*
X0001182Y0122888D01*
X0001168Y0123046D01*
X0001158Y0123204D01*
X0001152Y0123362D01*
X0001150Y0123520D01*
D11*
X0074710Y0267034D02*
X0080385Y0267034D01*
X0080016Y0267378D02*
X0080016Y0272890D01*
X0080385Y0273234D02*
X0074710Y0273234D01*
X0100300Y0273234D02*
X0105976Y0273234D01*
X0105607Y0272890D02*
X0105607Y0267378D01*
X0105976Y0267034D02*
X0100300Y0267034D01*
X0111365Y0278789D02*
X0134965Y0278787D01*
X0134965Y0304591D01*
X0111365Y0304589D01*
X0113099Y0240409D02*
X0110599Y0237909D01*
X0110599Y0232909D01*
X0113099Y0230409D01*
X0128099Y0230409D01*
X0130599Y0227909D01*
X0130599Y0222909D01*
X0128099Y0220409D01*
X0113099Y0220409D01*
X0110599Y0217909D01*
X0110599Y0212909D01*
X0113099Y0210409D01*
X0128099Y0210409D01*
X0130599Y0212909D01*
X0130599Y0217909D01*
X0128099Y0220409D01*
X0128099Y0230409D02*
X0130599Y0232909D01*
X0130599Y0237909D01*
X0128099Y0240409D01*
X0113099Y0240409D01*
X0113099Y0230409D02*
X0110599Y0227909D01*
X0110599Y0222909D01*
X0113099Y0220409D01*
X0131918Y0232909D02*
X0131918Y0237909D01*
X0138178Y0202496D02*
X0138178Y0197378D01*
X0152351Y0197378D02*
X0152351Y0202496D01*
X0182978Y0267034D02*
X0188653Y0267034D01*
X0188284Y0267378D02*
X0188284Y0272890D01*
X0188653Y0273234D02*
X0182978Y0273234D01*
X0174821Y0293910D02*
X0174821Y0299586D01*
X0174477Y0299217D02*
X0168965Y0299217D01*
X0168621Y0299586D02*
X0168621Y0293910D01*
X0162892Y0294383D02*
X0162892Y0300058D01*
X0162548Y0294752D02*
X0157036Y0294752D01*
X0156692Y0294383D02*
X0156692Y0300058D01*
X0156652Y0317572D02*
X0156652Y0323247D01*
X0156996Y0322878D02*
X0162508Y0322878D01*
X0162852Y0323247D02*
X0162852Y0317572D01*
X0168621Y0317335D02*
X0168621Y0323011D01*
X0168965Y0317705D02*
X0174477Y0317705D01*
X0174821Y0317335D02*
X0174821Y0323011D01*
X0208568Y0273234D02*
X0214244Y0273234D01*
X0213874Y0272890D02*
X0213874Y0267378D01*
X0214244Y0267034D02*
X0208568Y0267034D01*
X0126701Y0394720D02*
X0121701Y0394720D01*
X0120017Y0391863D02*
X0116815Y0391863D01*
X0114861Y0392664D02*
X0113260Y0394266D01*
X0113260Y0389461D01*
X0114861Y0389461D02*
X0111658Y0389461D01*
X0109705Y0389461D02*
X0106502Y0392664D01*
X0106502Y0393465D01*
X0107303Y0394266D01*
X0108904Y0394266D01*
X0109705Y0393465D01*
X0109705Y0389461D02*
X0106502Y0389461D01*
X0102947Y0389461D02*
X0104548Y0392664D01*
X0101345Y0392664D02*
X0102947Y0389461D01*
D12*
X0086130Y0388303D03*
X0196563Y0388185D03*
D13*
X0175422Y0162673D03*
D14*
X0177154Y0158323D02*
X0177156Y0158362D01*
X0177162Y0158401D01*
X0177172Y0158439D01*
X0177185Y0158476D01*
X0177202Y0158511D01*
X0177222Y0158545D01*
X0177246Y0158576D01*
X0177273Y0158605D01*
X0177302Y0158631D01*
X0177334Y0158654D01*
X0177368Y0158674D01*
X0177404Y0158690D01*
X0177441Y0158702D01*
X0177480Y0158711D01*
X0177519Y0158716D01*
X0177558Y0158717D01*
X0177597Y0158714D01*
X0177636Y0158707D01*
X0177673Y0158696D01*
X0177710Y0158682D01*
X0177745Y0158664D01*
X0177778Y0158643D01*
X0177809Y0158618D01*
X0177837Y0158591D01*
X0177862Y0158561D01*
X0177884Y0158528D01*
X0177903Y0158494D01*
X0177918Y0158458D01*
X0177930Y0158420D01*
X0177938Y0158382D01*
X0177942Y0158343D01*
X0177942Y0158303D01*
X0177938Y0158264D01*
X0177930Y0158226D01*
X0177918Y0158188D01*
X0177903Y0158152D01*
X0177884Y0158118D01*
X0177862Y0158085D01*
X0177837Y0158055D01*
X0177809Y0158028D01*
X0177778Y0158003D01*
X0177745Y0157982D01*
X0177710Y0157964D01*
X0177673Y0157950D01*
X0177636Y0157939D01*
X0177597Y0157932D01*
X0177558Y0157929D01*
X0177519Y0157930D01*
X0177480Y0157935D01*
X0177441Y0157944D01*
X0177404Y0157956D01*
X0177368Y0157972D01*
X0177334Y0157992D01*
X0177302Y0158015D01*
X0177273Y0158041D01*
X0177246Y0158070D01*
X0177222Y0158101D01*
X0177202Y0158135D01*
X0177185Y0158170D01*
X0177172Y0158207D01*
X0177162Y0158245D01*
X0177156Y0158284D01*
X0177154Y0158323D01*
X0129910Y0160685D02*
X0129912Y0160724D01*
X0129918Y0160763D01*
X0129928Y0160801D01*
X0129941Y0160838D01*
X0129958Y0160873D01*
X0129978Y0160907D01*
X0130002Y0160938D01*
X0130029Y0160967D01*
X0130058Y0160993D01*
X0130090Y0161016D01*
X0130124Y0161036D01*
X0130160Y0161052D01*
X0130197Y0161064D01*
X0130236Y0161073D01*
X0130275Y0161078D01*
X0130314Y0161079D01*
X0130353Y0161076D01*
X0130392Y0161069D01*
X0130429Y0161058D01*
X0130466Y0161044D01*
X0130501Y0161026D01*
X0130534Y0161005D01*
X0130565Y0160980D01*
X0130593Y0160953D01*
X0130618Y0160923D01*
X0130640Y0160890D01*
X0130659Y0160856D01*
X0130674Y0160820D01*
X0130686Y0160782D01*
X0130694Y0160744D01*
X0130698Y0160705D01*
X0130698Y0160665D01*
X0130694Y0160626D01*
X0130686Y0160588D01*
X0130674Y0160550D01*
X0130659Y0160514D01*
X0130640Y0160480D01*
X0130618Y0160447D01*
X0130593Y0160417D01*
X0130565Y0160390D01*
X0130534Y0160365D01*
X0130501Y0160344D01*
X0130466Y0160326D01*
X0130429Y0160312D01*
X0130392Y0160301D01*
X0130353Y0160294D01*
X0130314Y0160291D01*
X0130275Y0160292D01*
X0130236Y0160297D01*
X0130197Y0160306D01*
X0130160Y0160318D01*
X0130124Y0160334D01*
X0130090Y0160354D01*
X0130058Y0160377D01*
X0130029Y0160403D01*
X0130002Y0160432D01*
X0129978Y0160463D01*
X0129958Y0160497D01*
X0129941Y0160532D01*
X0129928Y0160569D01*
X0129918Y0160607D01*
X0129912Y0160646D01*
X0129910Y0160685D01*
D15*
X0119856Y0163346D02*
X0119856Y0164013D01*
X0119856Y0163679D02*
X0117854Y0163679D01*
X0117854Y0163346D02*
X0117854Y0164013D01*
X0118188Y0164819D02*
X0117854Y0165153D01*
X0117854Y0165820D01*
X0118188Y0166153D01*
X0117854Y0167029D02*
X0117854Y0168363D01*
X0117854Y0167696D02*
X0119856Y0167696D01*
X0119188Y0167029D01*
X0119522Y0166153D02*
X0119856Y0165820D01*
X0119856Y0165153D01*
X0119522Y0164819D01*
X0118188Y0164819D01*
X0123969Y0178803D02*
X0123635Y0179136D01*
X0123635Y0179803D01*
X0123969Y0180137D01*
X0123635Y0181012D02*
X0123635Y0182347D01*
X0123635Y0181680D02*
X0125637Y0181680D01*
X0124970Y0181012D01*
X0125303Y0180137D02*
X0125637Y0179803D01*
X0125637Y0179136D01*
X0125303Y0178803D01*
X0123969Y0178803D01*
X0124636Y0183222D02*
X0124636Y0184557D01*
X0125637Y0184223D02*
X0124636Y0183222D01*
X0123635Y0184223D02*
X0125637Y0184223D01*
X0113826Y0188251D02*
X0113826Y0189252D01*
X0113492Y0189586D01*
X0112825Y0189586D01*
X0112491Y0189252D01*
X0112491Y0188251D01*
X0111824Y0188251D02*
X0113826Y0188251D01*
X0112491Y0188919D02*
X0111824Y0189586D01*
X0111824Y0190461D02*
X0111824Y0191796D01*
X0111824Y0191129D02*
X0113826Y0191129D01*
X0113158Y0190461D01*
X0113492Y0192671D02*
X0113826Y0193005D01*
X0113826Y0193672D01*
X0113492Y0194006D01*
X0113158Y0194006D01*
X0111824Y0192671D01*
X0111824Y0194006D01*
X0103372Y0179639D02*
X0103706Y0179305D01*
X0103706Y0177971D01*
X0103372Y0177637D01*
X0102705Y0177637D01*
X0102371Y0177971D01*
X0101496Y0177637D02*
X0100162Y0177637D01*
X0100829Y0177637D02*
X0100829Y0179639D01*
X0101496Y0178971D01*
X0102371Y0179305D02*
X0102705Y0179639D01*
X0103372Y0179639D01*
X0099286Y0179639D02*
X0099286Y0178638D01*
X0098619Y0178971D01*
X0098285Y0178971D01*
X0097952Y0178638D01*
X0097952Y0177971D01*
X0098285Y0177637D01*
X0098953Y0177637D01*
X0099286Y0177971D01*
X0099286Y0179639D02*
X0097952Y0179639D01*
X0100018Y0168536D02*
X0100685Y0168536D01*
X0101018Y0168203D01*
X0101894Y0168203D02*
X0102227Y0168536D01*
X0102895Y0168536D01*
X0103228Y0168203D01*
X0104104Y0168203D02*
X0104104Y0167535D01*
X0104437Y0167202D01*
X0105438Y0167202D01*
X0104771Y0167202D02*
X0104104Y0166535D01*
X0103228Y0166535D02*
X0101894Y0167869D01*
X0101894Y0168203D01*
X0101894Y0166535D02*
X0103228Y0166535D01*
X0104104Y0168203D02*
X0104437Y0168536D01*
X0105438Y0168536D01*
X0105438Y0166535D01*
X0101018Y0166535D02*
X0099684Y0167869D01*
X0099684Y0168203D01*
X0100018Y0168536D01*
X0099684Y0166535D02*
X0101018Y0166535D01*
X0107400Y0147946D02*
X0107400Y0147612D01*
X0108735Y0146278D01*
X0108735Y0145944D01*
X0109610Y0145944D02*
X0110945Y0145944D01*
X0110278Y0145944D02*
X0110278Y0147946D01*
X0110945Y0147279D01*
X0111820Y0147612D02*
X0111820Y0146945D01*
X0112154Y0146611D01*
X0113155Y0146611D01*
X0113155Y0145944D02*
X0113155Y0147946D01*
X0112154Y0147946D01*
X0111820Y0147612D01*
X0112487Y0146611D02*
X0111820Y0145944D01*
X0108735Y0147946D02*
X0107400Y0147946D01*
X0103755Y0131942D02*
X0103755Y0129940D01*
X0102421Y0129940D01*
X0101545Y0129940D02*
X0100211Y0129940D01*
X0100878Y0129940D02*
X0100878Y0131942D01*
X0101545Y0131275D01*
X0091708Y0140156D02*
X0091374Y0139822D01*
X0090707Y0139822D01*
X0090373Y0140156D01*
X0089498Y0139822D02*
X0089498Y0141490D01*
X0089164Y0141824D01*
X0088497Y0141824D01*
X0088163Y0141490D01*
X0088163Y0139822D01*
X0090373Y0141824D02*
X0091708Y0140489D01*
X0091708Y0140156D01*
X0091708Y0141824D02*
X0090373Y0141824D01*
X0076738Y0141456D02*
X0076738Y0142457D01*
X0076404Y0142790D01*
X0075737Y0142790D01*
X0075403Y0142457D01*
X0075403Y0141456D01*
X0075403Y0142123D02*
X0074736Y0142790D01*
X0075069Y0143666D02*
X0074736Y0143999D01*
X0074736Y0144667D01*
X0075069Y0145000D01*
X0076404Y0145000D01*
X0076738Y0144667D01*
X0076738Y0143999D01*
X0076404Y0143666D01*
X0076070Y0143666D01*
X0075737Y0143999D01*
X0075737Y0145000D01*
X0074736Y0141456D02*
X0076738Y0141456D01*
X0071895Y0152834D02*
X0071895Y0153501D01*
X0071895Y0153167D02*
X0069893Y0153167D01*
X0069893Y0152834D02*
X0069893Y0153501D01*
X0070227Y0154307D02*
X0069893Y0154641D01*
X0069893Y0155308D01*
X0070227Y0155642D01*
X0069893Y0156517D02*
X0069893Y0157851D01*
X0069893Y0157184D02*
X0071895Y0157184D01*
X0071228Y0156517D01*
X0071561Y0155642D02*
X0071895Y0155308D01*
X0071895Y0154641D01*
X0071561Y0154307D01*
X0070227Y0154307D01*
X0069893Y0158727D02*
X0071228Y0160061D01*
X0071561Y0160061D01*
X0071895Y0159728D01*
X0071895Y0159060D01*
X0071561Y0158727D01*
X0069893Y0158727D02*
X0069893Y0160061D01*
X0089348Y0196535D02*
X0089348Y0198536D01*
X0090349Y0197535D01*
X0089015Y0197535D01*
X0091225Y0196535D02*
X0092559Y0196535D01*
X0091892Y0196535D02*
X0091892Y0198536D01*
X0092559Y0197869D01*
X0093434Y0197535D02*
X0093768Y0197202D01*
X0094769Y0197202D01*
X0094102Y0197202D02*
X0093434Y0196535D01*
X0093434Y0197535D02*
X0093434Y0198203D01*
X0093768Y0198536D01*
X0094769Y0198536D01*
X0094769Y0196535D01*
X0125506Y0139758D02*
X0126173Y0139758D01*
X0126506Y0139425D01*
X0126506Y0139091D01*
X0126173Y0138758D01*
X0125172Y0138758D01*
X0125172Y0139425D02*
X0125172Y0138090D01*
X0125506Y0137757D01*
X0126173Y0137757D01*
X0126506Y0138090D01*
X0127382Y0137757D02*
X0128716Y0137757D01*
X0128049Y0137757D02*
X0128049Y0139758D01*
X0128716Y0139091D01*
X0129592Y0138758D02*
X0129925Y0138424D01*
X0130926Y0138424D01*
X0130259Y0138424D02*
X0129592Y0137757D01*
X0129592Y0138758D02*
X0129592Y0139425D01*
X0129925Y0139758D01*
X0130926Y0139758D01*
X0130926Y0137757D01*
X0125506Y0139758D02*
X0125172Y0139425D01*
X0116826Y0117436D02*
X0115826Y0117436D01*
X0115492Y0117102D01*
X0115492Y0116435D01*
X0115826Y0116101D01*
X0116826Y0116101D01*
X0116159Y0116101D02*
X0115492Y0115434D01*
X0114617Y0115434D02*
X0113282Y0115434D01*
X0113949Y0115434D02*
X0113949Y0117436D01*
X0114617Y0116768D01*
X0116826Y0117436D02*
X0116826Y0115434D01*
X0135959Y0115152D02*
X0135959Y0114818D01*
X0137294Y0113484D01*
X0137294Y0113150D01*
X0138169Y0113150D02*
X0139504Y0113150D01*
X0138836Y0113150D02*
X0138836Y0115152D01*
X0139504Y0114485D01*
X0140379Y0114818D02*
X0140713Y0115152D01*
X0141380Y0115152D01*
X0141714Y0114818D01*
X0141714Y0113484D01*
X0141380Y0113150D01*
X0140713Y0113150D01*
X0140379Y0113484D01*
X0137294Y0115152D02*
X0135959Y0115152D01*
X0146786Y0114110D02*
X0147120Y0114443D01*
X0147787Y0114443D01*
X0148121Y0114110D01*
X0148996Y0114110D02*
X0148996Y0113443D01*
X0149330Y0113109D01*
X0150330Y0113109D01*
X0149663Y0113109D02*
X0148996Y0112442D01*
X0148121Y0112442D02*
X0146786Y0113776D01*
X0146786Y0114110D01*
X0146786Y0112442D02*
X0148121Y0112442D01*
X0148996Y0114110D02*
X0149330Y0114443D01*
X0150330Y0114443D01*
X0150330Y0112442D01*
X0163576Y0132048D02*
X0164244Y0132048D01*
X0164577Y0132382D01*
X0165453Y0132048D02*
X0166787Y0132048D01*
X0165453Y0133383D01*
X0165453Y0133716D01*
X0165786Y0134050D01*
X0166453Y0134050D01*
X0166787Y0133716D01*
X0167663Y0133716D02*
X0167996Y0134050D01*
X0168663Y0134050D01*
X0168997Y0133716D01*
X0168997Y0132382D01*
X0168663Y0132048D01*
X0167996Y0132048D01*
X0167663Y0132382D01*
X0164577Y0133716D02*
X0164244Y0134050D01*
X0163576Y0134050D01*
X0163243Y0133716D01*
X0163243Y0133383D01*
X0163576Y0133049D01*
X0163243Y0132715D01*
X0163243Y0132382D01*
X0163576Y0132048D01*
X0163576Y0133049D02*
X0163910Y0133049D01*
X0153215Y0150393D02*
X0152548Y0150393D01*
X0152214Y0150727D01*
X0151339Y0150393D02*
X0150004Y0151727D01*
X0150004Y0152061D01*
X0150338Y0152395D01*
X0151005Y0152395D01*
X0151339Y0152061D01*
X0152214Y0152061D02*
X0152548Y0152395D01*
X0153215Y0152395D01*
X0153548Y0152061D01*
X0153548Y0150727D01*
X0153215Y0150393D01*
X0151339Y0150393D02*
X0150004Y0150393D01*
X0149129Y0150393D02*
X0149129Y0150727D01*
X0147794Y0152061D01*
X0147794Y0152395D01*
X0149129Y0152395D01*
X0148903Y0142040D02*
X0147902Y0142040D01*
X0147568Y0141707D01*
X0147568Y0141039D01*
X0147902Y0140706D01*
X0148903Y0140706D01*
X0148903Y0140039D02*
X0148903Y0142040D01*
X0148236Y0140706D02*
X0147568Y0140039D01*
X0146693Y0140372D02*
X0146359Y0140039D01*
X0145692Y0140039D01*
X0145358Y0140372D01*
X0145358Y0140706D01*
X0145692Y0141039D01*
X0146026Y0141039D01*
X0145692Y0141039D02*
X0145358Y0141373D01*
X0145358Y0141707D01*
X0145692Y0142040D01*
X0146359Y0142040D01*
X0146693Y0141707D01*
X0144483Y0141707D02*
X0144149Y0142040D01*
X0143482Y0142040D01*
X0143149Y0141707D01*
X0144483Y0140372D01*
X0144149Y0140039D01*
X0143482Y0140039D01*
X0143149Y0140372D01*
X0143149Y0141707D01*
X0144483Y0141707D02*
X0144483Y0140372D01*
X0141619Y0154527D02*
X0141619Y0155528D01*
X0141286Y0155861D01*
X0140619Y0155861D01*
X0140285Y0155528D01*
X0140285Y0154527D01*
X0140285Y0155194D02*
X0139618Y0155861D01*
X0139618Y0156737D02*
X0139618Y0158071D01*
X0139618Y0157404D02*
X0141619Y0157404D01*
X0140952Y0156737D01*
X0140952Y0158947D02*
X0141286Y0158947D01*
X0141619Y0159280D01*
X0141619Y0159947D01*
X0141286Y0160281D01*
X0140952Y0160281D01*
X0140619Y0159947D01*
X0140619Y0159280D01*
X0140952Y0158947D01*
X0140619Y0159280D02*
X0140285Y0158947D01*
X0139951Y0158947D01*
X0139618Y0159280D01*
X0139618Y0159947D01*
X0139951Y0160281D01*
X0140285Y0160281D01*
X0140619Y0159947D01*
X0139618Y0154527D02*
X0141619Y0154527D01*
X0140577Y0170669D02*
X0139243Y0170669D01*
X0138909Y0171002D01*
X0138909Y0171669D01*
X0139243Y0172003D01*
X0138909Y0172878D02*
X0138909Y0174213D01*
X0138909Y0173546D02*
X0140911Y0173546D01*
X0140244Y0172878D01*
X0140577Y0172003D02*
X0140911Y0171669D01*
X0140911Y0171002D01*
X0140577Y0170669D01*
X0140577Y0175088D02*
X0140244Y0175088D01*
X0139910Y0175422D01*
X0139910Y0176423D01*
X0140577Y0176423D02*
X0140911Y0176089D01*
X0140911Y0175422D01*
X0140577Y0175088D01*
X0139243Y0175088D02*
X0138909Y0175422D01*
X0138909Y0176089D01*
X0139243Y0176423D01*
X0140577Y0176423D01*
X0148700Y0180923D02*
X0148700Y0181257D01*
X0149033Y0181591D01*
X0150034Y0181591D01*
X0150034Y0180923D01*
X0149701Y0180590D01*
X0149033Y0180590D01*
X0148700Y0180923D01*
X0150034Y0181591D02*
X0149367Y0182258D01*
X0148700Y0182591D01*
X0150910Y0182258D02*
X0151243Y0182591D01*
X0151910Y0182591D01*
X0152244Y0182258D01*
X0153119Y0182258D02*
X0153119Y0181591D01*
X0153453Y0181257D01*
X0154454Y0181257D01*
X0154454Y0180590D02*
X0154454Y0182591D01*
X0153453Y0182591D01*
X0153119Y0182258D01*
X0153787Y0181257D02*
X0153119Y0180590D01*
X0152244Y0180590D02*
X0150910Y0181924D01*
X0150910Y0182258D01*
X0150910Y0180590D02*
X0152244Y0180590D01*
X0153718Y0174127D02*
X0153385Y0173793D01*
X0154719Y0172459D01*
X0154386Y0172125D01*
X0153718Y0172125D01*
X0153385Y0172459D01*
X0153385Y0173793D01*
X0153718Y0174127D02*
X0154386Y0174127D01*
X0154719Y0173793D01*
X0154719Y0172459D01*
X0155595Y0172125D02*
X0156929Y0172125D01*
X0155595Y0173460D01*
X0155595Y0173793D01*
X0155928Y0174127D01*
X0156595Y0174127D01*
X0156929Y0173793D01*
X0157805Y0173793D02*
X0158138Y0174127D01*
X0158805Y0174127D01*
X0159139Y0173793D01*
X0159139Y0172459D01*
X0158805Y0172125D01*
X0158138Y0172125D01*
X0157805Y0172459D01*
X0157577Y0163694D02*
X0158577Y0162693D01*
X0157243Y0162693D01*
X0157577Y0161692D02*
X0157577Y0163694D01*
X0159453Y0163360D02*
X0159453Y0163027D01*
X0160787Y0161692D01*
X0159453Y0161692D01*
X0159453Y0163360D02*
X0159787Y0163694D01*
X0160454Y0163694D01*
X0160787Y0163360D01*
X0161663Y0163360D02*
X0161663Y0162693D01*
X0161996Y0162359D01*
X0162997Y0162359D01*
X0162997Y0161692D02*
X0162997Y0163694D01*
X0161996Y0163694D01*
X0161663Y0163360D01*
X0162330Y0162359D02*
X0161663Y0161692D01*
X0167893Y0161883D02*
X0168227Y0162216D01*
X0167893Y0161883D02*
X0167893Y0161216D01*
X0168227Y0160882D01*
X0169561Y0160882D01*
X0169895Y0161216D01*
X0169895Y0161883D01*
X0169561Y0162216D01*
X0169561Y0163092D02*
X0169895Y0163425D01*
X0169895Y0164093D01*
X0169561Y0164426D01*
X0169228Y0164426D01*
X0168894Y0164093D01*
X0168561Y0164426D01*
X0168227Y0164426D01*
X0167893Y0164093D01*
X0167893Y0163425D01*
X0168227Y0163092D01*
X0168894Y0163759D02*
X0168894Y0164093D01*
X0167893Y0160076D02*
X0167893Y0159409D01*
X0167893Y0159742D02*
X0169895Y0159742D01*
X0169895Y0159409D02*
X0169895Y0160076D01*
X0168309Y0183780D02*
X0167642Y0183780D01*
X0167308Y0184114D01*
X0166433Y0183780D02*
X0165098Y0185115D01*
X0165098Y0185448D01*
X0165432Y0185782D01*
X0166099Y0185782D01*
X0166433Y0185448D01*
X0167308Y0185448D02*
X0167642Y0185782D01*
X0168309Y0185782D01*
X0168643Y0185448D01*
X0168643Y0184114D01*
X0168309Y0183780D01*
X0166433Y0183780D02*
X0165098Y0183780D01*
X0164223Y0184114D02*
X0164223Y0184448D01*
X0163889Y0184781D01*
X0163222Y0184781D01*
X0162888Y0184448D01*
X0162888Y0184114D01*
X0163222Y0183780D01*
X0163889Y0183780D01*
X0164223Y0184114D01*
X0163889Y0184781D02*
X0164223Y0185115D01*
X0164223Y0185448D01*
X0163889Y0185782D01*
X0163222Y0185782D01*
X0162888Y0185448D01*
X0162888Y0185115D01*
X0163222Y0184781D01*
X0152151Y0189900D02*
X0151817Y0189566D01*
X0151150Y0189566D01*
X0150816Y0189900D01*
X0149941Y0189566D02*
X0148606Y0190901D01*
X0148606Y0191234D01*
X0148940Y0191568D01*
X0149607Y0191568D01*
X0149941Y0191234D01*
X0150816Y0191234D02*
X0151150Y0191568D01*
X0151817Y0191568D01*
X0152151Y0191234D01*
X0152151Y0189900D01*
X0149941Y0189566D02*
X0148606Y0189566D01*
X0165890Y0203246D02*
X0166224Y0202913D01*
X0166891Y0202913D01*
X0167224Y0203246D01*
X0168100Y0203246D02*
X0168433Y0202913D01*
X0169101Y0202913D01*
X0169434Y0203246D01*
X0169434Y0204581D01*
X0169101Y0204914D01*
X0168433Y0204914D01*
X0168100Y0204581D01*
X0167224Y0204581D02*
X0166891Y0204914D01*
X0166224Y0204914D01*
X0165890Y0204581D01*
X0165890Y0204247D01*
X0166224Y0203913D01*
X0165890Y0203580D01*
X0165890Y0203246D01*
X0166224Y0203913D02*
X0166557Y0203913D01*
X0192256Y0146727D02*
X0192256Y0144725D01*
X0191589Y0144725D02*
X0192924Y0144725D01*
X0193799Y0144725D02*
X0195134Y0144725D01*
X0194466Y0144725D02*
X0194466Y0146727D01*
X0195134Y0146060D01*
X0196009Y0146393D02*
X0196343Y0146727D01*
X0197010Y0146727D01*
X0197343Y0146393D01*
X0197343Y0145059D01*
X0197010Y0144725D01*
X0196343Y0144725D01*
X0196009Y0145059D01*
X0192924Y0146060D02*
X0192256Y0146727D01*
X0183840Y0133853D02*
X0182839Y0133853D01*
X0182505Y0133519D01*
X0182505Y0132852D01*
X0182839Y0132518D01*
X0183840Y0132518D01*
X0183840Y0131851D02*
X0183840Y0133853D01*
X0183172Y0132518D02*
X0182505Y0131851D01*
X0181630Y0131851D02*
X0180295Y0133186D01*
X0180295Y0133519D01*
X0180629Y0133853D01*
X0181296Y0133853D01*
X0181630Y0133519D01*
X0181630Y0131851D02*
X0180295Y0131851D01*
X0179420Y0132185D02*
X0179086Y0131851D01*
X0178419Y0131851D01*
X0178085Y0132185D01*
X0178085Y0133519D01*
X0178419Y0133853D01*
X0179086Y0133853D01*
X0179420Y0133519D01*
X0179420Y0133186D01*
X0179086Y0132852D01*
X0178085Y0132852D01*
X0188833Y0116491D02*
X0190168Y0116491D01*
X0190168Y0115490D01*
X0189501Y0115823D01*
X0189167Y0115823D01*
X0188833Y0115490D01*
X0188833Y0114823D01*
X0189167Y0114489D01*
X0189834Y0114489D01*
X0190168Y0114823D01*
X0191043Y0114489D02*
X0191710Y0115156D01*
X0191377Y0115156D02*
X0192378Y0115156D01*
X0192378Y0114489D02*
X0192378Y0116491D01*
X0191377Y0116491D01*
X0191043Y0116157D01*
X0191043Y0115490D01*
X0191377Y0115156D01*
X0205545Y0140198D02*
X0205211Y0140531D01*
X0205211Y0141866D01*
X0205545Y0142199D01*
X0206212Y0142199D01*
X0206546Y0141866D01*
X0206546Y0141532D01*
X0206212Y0141198D01*
X0205211Y0141198D01*
X0205545Y0140198D02*
X0206212Y0140198D01*
X0206546Y0140531D01*
X0207421Y0140531D02*
X0207755Y0140198D01*
X0208422Y0140198D01*
X0208756Y0140531D01*
X0208756Y0141866D01*
X0208422Y0142199D01*
X0207755Y0142199D01*
X0207421Y0141866D01*
X0209562Y0142199D02*
X0210229Y0142199D01*
X0209895Y0142199D02*
X0209895Y0140198D01*
X0209562Y0140198D02*
X0210229Y0140198D01*
X0210997Y0151204D02*
X0212999Y0151204D01*
X0212999Y0152205D01*
X0212665Y0152539D01*
X0211998Y0152539D01*
X0211664Y0152205D01*
X0211664Y0151204D01*
X0211664Y0151871D02*
X0210997Y0152539D01*
X0210997Y0153414D02*
X0212332Y0154749D01*
X0212665Y0154749D01*
X0212999Y0154415D01*
X0212999Y0153748D01*
X0212665Y0153414D01*
X0210997Y0153414D02*
X0210997Y0154749D01*
X0211331Y0155624D02*
X0210997Y0155958D01*
X0210997Y0156625D01*
X0211331Y0156958D01*
X0211998Y0156958D01*
X0212332Y0156625D01*
X0212332Y0156291D01*
X0211998Y0155624D01*
X0212999Y0155624D01*
X0212999Y0156958D01*
X0212981Y0174566D02*
X0212647Y0174900D01*
X0212981Y0174566D02*
X0213648Y0174566D01*
X0213981Y0174900D01*
X0213981Y0176234D01*
X0213648Y0176568D01*
X0212981Y0176568D01*
X0212647Y0176234D01*
X0211772Y0176234D02*
X0211438Y0176568D01*
X0210771Y0176568D01*
X0210437Y0176234D01*
X0210437Y0175901D01*
X0211772Y0174566D01*
X0210437Y0174566D01*
X0209562Y0174566D02*
X0208227Y0175901D01*
X0208227Y0176234D01*
X0208561Y0176568D01*
X0209228Y0176568D01*
X0209562Y0176234D01*
X0209562Y0174566D02*
X0208227Y0174566D01*
X0180618Y0079596D02*
X0180284Y0079596D01*
X0179951Y0079263D01*
X0179617Y0079596D01*
X0179284Y0079596D01*
X0178950Y0079263D01*
X0178950Y0078595D01*
X0179284Y0078262D01*
X0179951Y0078929D02*
X0179951Y0079263D01*
X0180618Y0079596D02*
X0180952Y0079263D01*
X0180952Y0078595D01*
X0180618Y0078262D01*
X0179951Y0077386D02*
X0179951Y0076052D01*
X0180952Y0077053D01*
X0178950Y0077053D01*
X0178950Y0075176D02*
X0179617Y0074509D01*
X0179617Y0074843D02*
X0179617Y0073842D01*
X0178950Y0073842D02*
X0180952Y0073842D01*
X0180952Y0074843D01*
X0180618Y0075176D01*
X0179951Y0075176D01*
X0179617Y0074843D01*
X0179714Y0055249D02*
X0180048Y0054915D01*
X0180048Y0053581D01*
X0179714Y0053247D01*
X0179047Y0053247D01*
X0178713Y0053581D01*
X0177838Y0053247D02*
X0176503Y0053247D01*
X0177170Y0053247D02*
X0177170Y0055249D01*
X0177838Y0054582D01*
X0178713Y0054915D02*
X0179047Y0055249D01*
X0179714Y0055249D01*
X0180854Y0055249D02*
X0181521Y0055249D01*
X0181187Y0055249D02*
X0181187Y0053247D01*
X0180854Y0053247D02*
X0181521Y0053247D01*
X0175628Y0053247D02*
X0174293Y0053247D01*
X0174961Y0053247D02*
X0174961Y0055249D01*
X0175628Y0054582D01*
X0159001Y0054743D02*
X0158334Y0054743D01*
X0158668Y0054743D02*
X0158668Y0056745D01*
X0159001Y0056745D02*
X0158334Y0056745D01*
X0157528Y0056411D02*
X0157528Y0055077D01*
X0157194Y0054743D01*
X0156527Y0054743D01*
X0156193Y0055077D01*
X0155318Y0055077D02*
X0154984Y0054743D01*
X0154317Y0054743D01*
X0153984Y0055077D01*
X0153984Y0055744D01*
X0154317Y0056078D01*
X0154651Y0056078D01*
X0155318Y0055744D01*
X0155318Y0056745D01*
X0153984Y0056745D01*
X0156193Y0056411D02*
X0156527Y0056745D01*
X0157194Y0056745D01*
X0157528Y0056411D01*
X0140361Y0072622D02*
X0140361Y0073622D01*
X0140028Y0073956D01*
X0139360Y0073956D01*
X0139027Y0073622D01*
X0139027Y0072622D01*
X0139027Y0073289D02*
X0138359Y0073956D01*
X0138693Y0074831D02*
X0138359Y0075165D01*
X0138359Y0075832D01*
X0138693Y0076166D01*
X0139027Y0076166D01*
X0139360Y0075832D01*
X0139360Y0075499D01*
X0139360Y0075832D02*
X0139694Y0076166D01*
X0140028Y0076166D01*
X0140361Y0075832D01*
X0140361Y0075165D01*
X0140028Y0074831D01*
X0140028Y0077041D02*
X0139694Y0077041D01*
X0139360Y0077375D01*
X0139360Y0078042D01*
X0139027Y0078376D01*
X0138693Y0078376D01*
X0138359Y0078042D01*
X0138359Y0077375D01*
X0138693Y0077041D01*
X0139027Y0077041D01*
X0139360Y0077375D01*
X0139360Y0078042D02*
X0139694Y0078376D01*
X0140028Y0078376D01*
X0140361Y0078042D01*
X0140361Y0077375D01*
X0140028Y0077041D01*
X0140361Y0072622D02*
X0138359Y0072622D01*
X0138283Y0046373D02*
X0137282Y0046373D01*
X0136949Y0046039D01*
X0136949Y0045372D01*
X0137282Y0045038D01*
X0138283Y0045038D01*
X0137616Y0045038D02*
X0136949Y0044371D01*
X0136073Y0044704D02*
X0135740Y0044371D01*
X0135072Y0044371D01*
X0134739Y0044704D01*
X0134739Y0045038D01*
X0135072Y0045372D01*
X0136073Y0045372D01*
X0136073Y0044704D01*
X0136073Y0045372D02*
X0135406Y0046039D01*
X0134739Y0046373D01*
X0138283Y0046373D02*
X0138283Y0044371D01*
X0121787Y0033362D02*
X0121453Y0033695D01*
X0120786Y0033695D01*
X0120453Y0033362D01*
X0120453Y0032027D01*
X0120786Y0031694D01*
X0121453Y0031694D01*
X0121787Y0032027D01*
X0121787Y0033362D01*
X0121120Y0032361D02*
X0120453Y0031694D01*
X0119577Y0031694D02*
X0118243Y0031694D01*
X0118910Y0031694D02*
X0118910Y0033695D01*
X0119577Y0033028D01*
X0131470Y0011152D02*
X0133471Y0011152D01*
X0132471Y0010152D01*
X0132471Y0011486D01*
X0132471Y0009276D02*
X0132137Y0008942D01*
X0132137Y0007942D01*
X0132137Y0008609D02*
X0131470Y0009276D01*
X0132471Y0009276D02*
X0133138Y0009276D01*
X0133471Y0008942D01*
X0133471Y0007942D01*
X0131470Y0007942D01*
X0105025Y0055964D02*
X0104358Y0055964D01*
X0104691Y0055964D02*
X0104691Y0057965D01*
X0104358Y0057965D02*
X0105025Y0057965D01*
X0103552Y0057632D02*
X0103552Y0056297D01*
X0103218Y0055964D01*
X0102551Y0055964D01*
X0102217Y0056297D01*
X0101342Y0056297D02*
X0101342Y0056631D01*
X0101008Y0056965D01*
X0100341Y0056965D01*
X0100007Y0056631D01*
X0100007Y0056297D01*
X0100341Y0055964D01*
X0101008Y0055964D01*
X0101342Y0056297D01*
X0101008Y0056965D02*
X0101342Y0057298D01*
X0101342Y0057632D01*
X0101008Y0057965D01*
X0100341Y0057965D01*
X0100007Y0057632D01*
X0100007Y0057298D01*
X0100341Y0056965D01*
X0102217Y0057632D02*
X0102551Y0057965D01*
X0103218Y0057965D01*
X0103552Y0057632D01*
X0098992Y0045349D02*
X0097991Y0045349D01*
X0097657Y0045015D01*
X0097657Y0044348D01*
X0097991Y0044014D01*
X0098992Y0044014D01*
X0098992Y0043347D02*
X0098992Y0045349D01*
X0098325Y0044014D02*
X0097657Y0043347D01*
X0096782Y0043347D02*
X0096782Y0043681D01*
X0095447Y0045015D01*
X0095447Y0045349D01*
X0096782Y0045349D01*
X0092328Y0031772D02*
X0092328Y0030437D01*
X0091327Y0030437D01*
X0091661Y0031105D01*
X0091661Y0031438D01*
X0091327Y0031772D01*
X0090660Y0031772D01*
X0090326Y0031438D01*
X0090326Y0030771D01*
X0090660Y0030437D01*
X0090660Y0029562D02*
X0090326Y0029228D01*
X0090326Y0028561D01*
X0090660Y0028228D01*
X0091994Y0028228D01*
X0092328Y0028561D01*
X0092328Y0029228D01*
X0091994Y0029562D01*
X0090660Y0029562D01*
X0090326Y0029562D02*
X0090994Y0028895D01*
X0093458Y0013302D02*
X0093125Y0012968D01*
X0093125Y0012634D01*
X0093458Y0012301D01*
X0093125Y0011967D01*
X0093125Y0011634D01*
X0093458Y0011300D01*
X0094126Y0011300D01*
X0094459Y0011634D01*
X0095335Y0011300D02*
X0096669Y0011300D01*
X0096002Y0011300D02*
X0096002Y0013302D01*
X0096669Y0012634D01*
X0097544Y0012301D02*
X0097878Y0011967D01*
X0098879Y0011967D01*
X0098879Y0011300D02*
X0098879Y0013302D01*
X0097878Y0013302D01*
X0097544Y0012968D01*
X0097544Y0012301D01*
X0098212Y0011967D02*
X0097544Y0011300D01*
X0094459Y0012968D02*
X0094126Y0013302D01*
X0093458Y0013302D01*
X0093458Y0012301D02*
X0093792Y0012301D01*
X0074867Y0039153D02*
X0074200Y0039153D01*
X0074534Y0039153D02*
X0074534Y0041154D01*
X0074867Y0041154D02*
X0074200Y0041154D01*
X0073394Y0040821D02*
X0073394Y0039486D01*
X0073060Y0039153D01*
X0072393Y0039153D01*
X0072060Y0039486D01*
X0071184Y0039486D02*
X0069850Y0040821D01*
X0069850Y0041154D01*
X0071184Y0041154D01*
X0072060Y0040821D02*
X0072393Y0041154D01*
X0073060Y0041154D01*
X0073394Y0040821D01*
X0071184Y0039486D02*
X0071184Y0039153D01*
X0071660Y0081047D02*
X0069659Y0081047D01*
X0070326Y0081047D02*
X0070326Y0082048D01*
X0070660Y0082381D01*
X0071327Y0082381D01*
X0071660Y0082048D01*
X0071660Y0081047D01*
X0070326Y0081714D02*
X0069659Y0082381D01*
X0069992Y0083257D02*
X0069659Y0083590D01*
X0069659Y0084257D01*
X0069992Y0084591D01*
X0070326Y0084591D01*
X0070660Y0084257D01*
X0070660Y0083924D01*
X0070660Y0084257D02*
X0070993Y0084591D01*
X0071327Y0084591D01*
X0071660Y0084257D01*
X0071660Y0083590D01*
X0071327Y0083257D01*
X0071327Y0085466D02*
X0071660Y0085800D01*
X0071660Y0086467D01*
X0071327Y0086801D01*
X0070993Y0086801D01*
X0069659Y0085466D01*
X0069659Y0086801D01*
X0072474Y0114607D02*
X0073141Y0114607D01*
X0073475Y0114941D01*
X0074350Y0114941D02*
X0074684Y0114607D01*
X0075351Y0114607D01*
X0075685Y0114941D01*
X0076560Y0114607D02*
X0077227Y0115274D01*
X0076894Y0115274D02*
X0077895Y0115274D01*
X0077895Y0114607D02*
X0077895Y0116609D01*
X0076894Y0116609D01*
X0076560Y0116275D01*
X0076560Y0115608D01*
X0076894Y0115274D01*
X0075685Y0116275D02*
X0075351Y0116609D01*
X0074684Y0116609D01*
X0074350Y0116275D01*
X0074350Y0115942D01*
X0074684Y0115608D01*
X0074350Y0115274D01*
X0074350Y0114941D01*
X0074684Y0115608D02*
X0075018Y0115608D01*
X0073475Y0116275D02*
X0073141Y0116609D01*
X0072474Y0116609D01*
X0072140Y0116275D01*
X0072140Y0115942D01*
X0072474Y0115608D01*
X0072140Y0115274D01*
X0072140Y0114941D01*
X0072474Y0114607D01*
X0072474Y0115608D02*
X0072808Y0115608D01*
X0102296Y0076861D02*
X0104298Y0076861D01*
X0103297Y0075860D01*
X0103297Y0077195D01*
X0102964Y0074985D02*
X0102630Y0074985D01*
X0102296Y0074651D01*
X0102296Y0073984D01*
X0102630Y0073650D01*
X0102296Y0072775D02*
X0102964Y0072108D01*
X0102964Y0072441D02*
X0102964Y0071440D01*
X0102296Y0071440D02*
X0104298Y0071440D01*
X0104298Y0072441D01*
X0103965Y0072775D01*
X0103297Y0072775D01*
X0102964Y0072441D01*
X0103965Y0073650D02*
X0104298Y0073984D01*
X0104298Y0074651D01*
X0103965Y0074985D01*
X0103631Y0074985D01*
X0103297Y0074651D01*
X0102964Y0074985D01*
X0103297Y0074651D02*
X0103297Y0074318D01*
X0169067Y0023273D02*
X0169067Y0021939D01*
X0169067Y0022606D02*
X0171068Y0022606D01*
X0170401Y0021939D01*
X0170401Y0021063D02*
X0170067Y0020730D01*
X0169734Y0021063D01*
X0169400Y0021063D01*
X0169067Y0020730D01*
X0169067Y0020062D01*
X0169400Y0019729D01*
X0169067Y0018853D02*
X0169734Y0018186D01*
X0169734Y0018520D02*
X0169734Y0017519D01*
X0169067Y0017519D02*
X0171068Y0017519D01*
X0171068Y0018520D01*
X0170735Y0018853D01*
X0170067Y0018853D01*
X0169734Y0018520D01*
X0170735Y0019729D02*
X0171068Y0020062D01*
X0171068Y0020730D01*
X0170735Y0021063D01*
X0170401Y0021063D01*
X0170067Y0020730D02*
X0170067Y0020396D01*
X0208909Y0020319D02*
X0210244Y0021654D01*
X0210577Y0021654D01*
X0210911Y0021320D01*
X0210911Y0020653D01*
X0210577Y0020319D01*
X0210577Y0019444D02*
X0209910Y0019444D01*
X0209576Y0019110D01*
X0209576Y0018109D01*
X0208909Y0018109D02*
X0210911Y0018109D01*
X0210911Y0019110D01*
X0210577Y0019444D01*
X0209576Y0018777D02*
X0208909Y0019444D01*
X0208909Y0020319D02*
X0208909Y0021654D01*
X0209243Y0022529D02*
X0210577Y0023864D01*
X0209243Y0023864D01*
X0208909Y0023530D01*
X0208909Y0022863D01*
X0209243Y0022529D01*
X0210577Y0022529D01*
X0210911Y0022863D01*
X0210911Y0023530D01*
X0210577Y0023864D01*
X0175143Y0268562D02*
X0174142Y0268562D01*
X0173808Y0268896D01*
X0173808Y0270230D01*
X0174142Y0270564D01*
X0175143Y0270564D01*
X0175143Y0268562D01*
X0172933Y0268896D02*
X0172599Y0268562D01*
X0171932Y0268562D01*
X0171599Y0268896D01*
X0171599Y0269229D01*
X0171932Y0269563D01*
X0172933Y0269563D01*
X0172933Y0268896D01*
X0172933Y0269563D02*
X0172266Y0270230D01*
X0171599Y0270564D01*
X0171647Y0281544D02*
X0171647Y0282545D01*
X0171980Y0282878D01*
X0173315Y0282878D01*
X0173649Y0282545D01*
X0173649Y0281544D01*
X0171647Y0281544D01*
X0171980Y0283754D02*
X0171647Y0284088D01*
X0171647Y0284755D01*
X0171980Y0285088D01*
X0172314Y0285088D01*
X0172648Y0284755D01*
X0172648Y0284421D01*
X0172648Y0284755D02*
X0172981Y0285088D01*
X0173315Y0285088D01*
X0173649Y0284755D01*
X0173649Y0284088D01*
X0173315Y0283754D01*
X0161364Y0283579D02*
X0161364Y0282578D01*
X0159362Y0282578D01*
X0159362Y0283579D01*
X0159695Y0283912D01*
X0161030Y0283912D01*
X0161364Y0283579D01*
X0160363Y0284788D02*
X0160363Y0286122D01*
X0161364Y0285789D02*
X0160363Y0284788D01*
X0159362Y0285789D02*
X0161364Y0285789D01*
X0155174Y0271943D02*
X0155508Y0271610D01*
X0155508Y0270275D01*
X0155174Y0269942D01*
X0154507Y0269942D01*
X0154173Y0270275D01*
X0153298Y0269942D02*
X0151963Y0269942D01*
X0152630Y0269942D02*
X0152630Y0271943D01*
X0153298Y0271276D01*
X0154173Y0271610D02*
X0154507Y0271943D01*
X0155174Y0271943D01*
X0144080Y0271653D02*
X0144080Y0273654D01*
X0143079Y0273654D01*
X0142745Y0273321D01*
X0142745Y0272654D01*
X0143079Y0272320D01*
X0144080Y0272320D01*
X0143413Y0272320D02*
X0142745Y0271653D01*
X0141870Y0271986D02*
X0141536Y0271653D01*
X0140869Y0271653D01*
X0140536Y0271986D01*
X0140536Y0272320D01*
X0140869Y0272654D01*
X0141203Y0272654D01*
X0140869Y0272654D02*
X0140536Y0272987D01*
X0140536Y0273321D01*
X0140869Y0273654D01*
X0141536Y0273654D01*
X0141870Y0273321D01*
X0145245Y0290787D02*
X0145245Y0291455D01*
X0145245Y0291121D02*
X0147247Y0291121D01*
X0147247Y0290787D02*
X0147247Y0291455D01*
X0146913Y0292261D02*
X0145579Y0292261D01*
X0145245Y0292594D01*
X0145245Y0293261D01*
X0145579Y0293595D01*
X0145245Y0294470D02*
X0146580Y0295805D01*
X0146913Y0295805D01*
X0147247Y0295471D01*
X0147247Y0294804D01*
X0146913Y0294470D01*
X0146913Y0293595D02*
X0147247Y0293261D01*
X0147247Y0292594D01*
X0146913Y0292261D01*
X0145245Y0294470D02*
X0145245Y0295805D01*
X0138985Y0310394D02*
X0138318Y0310394D01*
X0137984Y0310728D01*
X0137109Y0310728D02*
X0136775Y0310394D01*
X0136108Y0310394D01*
X0135774Y0310728D01*
X0135774Y0311062D01*
X0136108Y0311395D01*
X0137109Y0311395D01*
X0137109Y0310728D01*
X0137109Y0311395D02*
X0136441Y0312063D01*
X0135774Y0312396D01*
X0137984Y0312063D02*
X0138318Y0312396D01*
X0138985Y0312396D01*
X0139319Y0312063D01*
X0139319Y0310728D01*
X0138985Y0310394D01*
X0152985Y0315358D02*
X0152985Y0316359D01*
X0153319Y0316692D01*
X0154654Y0316692D01*
X0154987Y0316359D01*
X0154987Y0315358D01*
X0152985Y0315358D01*
X0152985Y0317568D02*
X0152985Y0318902D01*
X0152985Y0318235D02*
X0154987Y0318235D01*
X0154320Y0317568D01*
X0154654Y0319777D02*
X0154987Y0320111D01*
X0154987Y0320778D01*
X0154654Y0321112D01*
X0153319Y0319777D01*
X0152985Y0320111D01*
X0152985Y0320778D01*
X0153319Y0321112D01*
X0154654Y0321112D01*
X0154654Y0319777D02*
X0153319Y0319777D01*
X0154241Y0339661D02*
X0156603Y0339661D01*
X0154241Y0339661D02*
X0147548Y0346354D01*
X0147548Y0365252D01*
X0156603Y0365252D01*
X0164083Y0365252D02*
X0173138Y0365252D01*
X0173138Y0346354D01*
X0166445Y0339661D01*
X0164083Y0339661D01*
X0164083Y0340842D02*
X0164366Y0340937D01*
X0164647Y0341039D01*
X0164924Y0341148D01*
X0165200Y0341263D01*
X0165472Y0341385D01*
X0165741Y0341514D01*
X0166007Y0341649D01*
X0166269Y0341791D01*
X0166528Y0341939D01*
X0166784Y0342093D01*
X0167035Y0342254D01*
X0167283Y0342421D01*
X0167526Y0342593D01*
X0167765Y0342772D01*
X0168000Y0342956D01*
X0168230Y0343146D01*
X0168455Y0343342D01*
X0168675Y0343543D01*
X0168891Y0343749D01*
X0169101Y0343961D01*
X0169306Y0344177D01*
X0169506Y0344399D01*
X0169700Y0344626D01*
X0169889Y0344857D01*
X0170072Y0345092D01*
X0170249Y0345332D01*
X0170420Y0345577D01*
X0170585Y0345825D01*
X0170744Y0346078D01*
X0170897Y0346334D01*
X0171044Y0346594D01*
X0171184Y0346857D01*
X0171318Y0347124D01*
X0171445Y0347394D01*
X0171565Y0347667D01*
X0171679Y0347942D01*
X0171786Y0348221D01*
X0171886Y0348502D01*
X0171979Y0348785D01*
X0172066Y0349071D01*
X0172145Y0349359D01*
X0172217Y0349648D01*
X0172282Y0349939D01*
X0172340Y0350232D01*
X0172391Y0350526D01*
X0172435Y0350821D01*
X0172471Y0351117D01*
X0172500Y0351414D01*
X0172522Y0351712D01*
X0172537Y0352010D01*
X0172544Y0352308D01*
X0172544Y0352606D01*
X0172537Y0352904D01*
X0172522Y0353202D01*
X0172500Y0353500D01*
X0172471Y0353797D01*
X0172435Y0354093D01*
X0172391Y0354388D01*
X0172340Y0354682D01*
X0172282Y0354975D01*
X0172217Y0355266D01*
X0172145Y0355555D01*
X0172066Y0355843D01*
X0171979Y0356129D01*
X0171886Y0356412D01*
X0171786Y0356693D01*
X0171679Y0356972D01*
X0171565Y0357247D01*
X0171445Y0357520D01*
X0171318Y0357790D01*
X0171184Y0358057D01*
X0171044Y0358320D01*
X0170897Y0358580D01*
X0170744Y0358836D01*
X0170585Y0359089D01*
X0170420Y0359337D01*
X0170249Y0359582D01*
X0170072Y0359822D01*
X0169889Y0360057D01*
X0169700Y0360288D01*
X0169506Y0360515D01*
X0169306Y0360737D01*
X0169101Y0360953D01*
X0168891Y0361165D01*
X0168675Y0361371D01*
X0168455Y0361572D01*
X0168230Y0361768D01*
X0168000Y0361958D01*
X0167765Y0362142D01*
X0167526Y0362321D01*
X0167283Y0362493D01*
X0167035Y0362660D01*
X0166784Y0362821D01*
X0166528Y0362975D01*
X0166269Y0363123D01*
X0166007Y0363265D01*
X0165741Y0363400D01*
X0165472Y0363529D01*
X0165200Y0363651D01*
X0164924Y0363766D01*
X0164647Y0363875D01*
X0164366Y0363977D01*
X0164083Y0364072D01*
X0156603Y0364072D02*
X0156320Y0363977D01*
X0156039Y0363875D01*
X0155762Y0363766D01*
X0155486Y0363651D01*
X0155214Y0363529D01*
X0154945Y0363400D01*
X0154679Y0363265D01*
X0154417Y0363123D01*
X0154158Y0362975D01*
X0153902Y0362821D01*
X0153651Y0362660D01*
X0153403Y0362493D01*
X0153160Y0362321D01*
X0152921Y0362142D01*
X0152686Y0361958D01*
X0152456Y0361768D01*
X0152231Y0361572D01*
X0152011Y0361371D01*
X0151795Y0361165D01*
X0151585Y0360953D01*
X0151380Y0360737D01*
X0151180Y0360515D01*
X0150986Y0360288D01*
X0150797Y0360057D01*
X0150614Y0359822D01*
X0150437Y0359582D01*
X0150266Y0359337D01*
X0150101Y0359089D01*
X0149942Y0358836D01*
X0149789Y0358580D01*
X0149642Y0358320D01*
X0149502Y0358057D01*
X0149368Y0357790D01*
X0149241Y0357520D01*
X0149121Y0357247D01*
X0149007Y0356972D01*
X0148900Y0356693D01*
X0148800Y0356412D01*
X0148707Y0356129D01*
X0148620Y0355843D01*
X0148541Y0355555D01*
X0148469Y0355266D01*
X0148404Y0354975D01*
X0148346Y0354682D01*
X0148295Y0354388D01*
X0148251Y0354093D01*
X0148215Y0353797D01*
X0148186Y0353500D01*
X0148164Y0353202D01*
X0148149Y0352904D01*
X0148142Y0352606D01*
X0148142Y0352308D01*
X0148149Y0352010D01*
X0148164Y0351712D01*
X0148186Y0351414D01*
X0148215Y0351117D01*
X0148251Y0350821D01*
X0148295Y0350526D01*
X0148346Y0350232D01*
X0148404Y0349939D01*
X0148469Y0349648D01*
X0148541Y0349359D01*
X0148620Y0349071D01*
X0148707Y0348785D01*
X0148800Y0348502D01*
X0148900Y0348221D01*
X0149007Y0347942D01*
X0149121Y0347667D01*
X0149241Y0347394D01*
X0149368Y0347124D01*
X0149502Y0346857D01*
X0149642Y0346594D01*
X0149789Y0346334D01*
X0149942Y0346078D01*
X0150101Y0345825D01*
X0150266Y0345577D01*
X0150437Y0345332D01*
X0150614Y0345092D01*
X0150797Y0344857D01*
X0150986Y0344626D01*
X0151180Y0344399D01*
X0151380Y0344177D01*
X0151585Y0343961D01*
X0151795Y0343749D01*
X0152011Y0343543D01*
X0152231Y0343342D01*
X0152456Y0343146D01*
X0152686Y0342956D01*
X0152921Y0342772D01*
X0153160Y0342593D01*
X0153403Y0342421D01*
X0153651Y0342254D01*
X0153902Y0342093D01*
X0154158Y0341939D01*
X0154417Y0341791D01*
X0154679Y0341649D01*
X0154945Y0341514D01*
X0155214Y0341385D01*
X0155486Y0341263D01*
X0155762Y0341148D01*
X0156039Y0341039D01*
X0156320Y0340937D01*
X0156603Y0340842D01*
X0142823Y0338520D02*
X0142823Y0357417D01*
X0136130Y0364110D01*
X0133768Y0364110D01*
X0126288Y0364110D02*
X0123926Y0364110D01*
X0117233Y0357417D01*
X0117233Y0338520D01*
X0126288Y0338520D01*
X0133768Y0338520D02*
X0142823Y0338520D01*
X0136167Y0344959D02*
X0135833Y0344625D01*
X0134499Y0344625D01*
X0134165Y0344959D01*
X0134165Y0345626D01*
X0134499Y0345960D01*
X0134499Y0346835D02*
X0134165Y0347169D01*
X0134165Y0347836D01*
X0134499Y0348170D01*
X0134832Y0348170D01*
X0135166Y0347836D01*
X0135166Y0347502D01*
X0135166Y0347836D02*
X0135499Y0348170D01*
X0135833Y0348170D01*
X0136167Y0347836D01*
X0136167Y0347169D01*
X0135833Y0346835D01*
X0135833Y0345960D02*
X0136167Y0345626D01*
X0136167Y0344959D01*
X0135833Y0349045D02*
X0134499Y0349045D01*
X0135833Y0350379D01*
X0134499Y0350379D01*
X0134165Y0350046D01*
X0134165Y0349379D01*
X0134499Y0349045D01*
X0135833Y0349045D02*
X0136167Y0349379D01*
X0136167Y0350046D01*
X0135833Y0350379D01*
X0126288Y0339700D02*
X0126005Y0339795D01*
X0125724Y0339897D01*
X0125447Y0340006D01*
X0125171Y0340121D01*
X0124899Y0340243D01*
X0124630Y0340372D01*
X0124364Y0340507D01*
X0124102Y0340649D01*
X0123843Y0340797D01*
X0123587Y0340951D01*
X0123336Y0341112D01*
X0123088Y0341279D01*
X0122845Y0341451D01*
X0122606Y0341630D01*
X0122371Y0341814D01*
X0122141Y0342004D01*
X0121916Y0342200D01*
X0121696Y0342401D01*
X0121480Y0342607D01*
X0121270Y0342819D01*
X0121065Y0343035D01*
X0120865Y0343257D01*
X0120671Y0343484D01*
X0120482Y0343715D01*
X0120299Y0343950D01*
X0120122Y0344190D01*
X0119951Y0344435D01*
X0119786Y0344683D01*
X0119627Y0344936D01*
X0119474Y0345192D01*
X0119327Y0345452D01*
X0119187Y0345715D01*
X0119053Y0345982D01*
X0118926Y0346252D01*
X0118806Y0346525D01*
X0118692Y0346800D01*
X0118585Y0347079D01*
X0118485Y0347360D01*
X0118392Y0347643D01*
X0118305Y0347929D01*
X0118226Y0348217D01*
X0118154Y0348506D01*
X0118089Y0348797D01*
X0118031Y0349090D01*
X0117980Y0349384D01*
X0117936Y0349679D01*
X0117900Y0349975D01*
X0117871Y0350272D01*
X0117849Y0350570D01*
X0117834Y0350868D01*
X0117827Y0351166D01*
X0117827Y0351464D01*
X0117834Y0351762D01*
X0117849Y0352060D01*
X0117871Y0352358D01*
X0117900Y0352655D01*
X0117936Y0352951D01*
X0117980Y0353246D01*
X0118031Y0353540D01*
X0118089Y0353833D01*
X0118154Y0354124D01*
X0118226Y0354413D01*
X0118305Y0354701D01*
X0118392Y0354987D01*
X0118485Y0355270D01*
X0118585Y0355551D01*
X0118692Y0355830D01*
X0118806Y0356105D01*
X0118926Y0356378D01*
X0119053Y0356648D01*
X0119187Y0356915D01*
X0119327Y0357178D01*
X0119474Y0357438D01*
X0119627Y0357694D01*
X0119786Y0357947D01*
X0119951Y0358195D01*
X0120122Y0358440D01*
X0120299Y0358680D01*
X0120482Y0358915D01*
X0120671Y0359146D01*
X0120865Y0359373D01*
X0121065Y0359595D01*
X0121270Y0359811D01*
X0121480Y0360023D01*
X0121696Y0360229D01*
X0121916Y0360430D01*
X0122141Y0360626D01*
X0122371Y0360816D01*
X0122606Y0361000D01*
X0122845Y0361179D01*
X0123088Y0361351D01*
X0123336Y0361518D01*
X0123587Y0361679D01*
X0123843Y0361833D01*
X0124102Y0361981D01*
X0124364Y0362123D01*
X0124630Y0362258D01*
X0124899Y0362387D01*
X0125171Y0362509D01*
X0125447Y0362624D01*
X0125724Y0362733D01*
X0126005Y0362835D01*
X0126288Y0362930D01*
X0133768Y0362930D02*
X0134051Y0362835D01*
X0134332Y0362733D01*
X0134609Y0362624D01*
X0134885Y0362509D01*
X0135157Y0362387D01*
X0135426Y0362258D01*
X0135692Y0362123D01*
X0135954Y0361981D01*
X0136213Y0361833D01*
X0136469Y0361679D01*
X0136720Y0361518D01*
X0136968Y0361351D01*
X0137211Y0361179D01*
X0137450Y0361000D01*
X0137685Y0360816D01*
X0137915Y0360626D01*
X0138140Y0360430D01*
X0138360Y0360229D01*
X0138576Y0360023D01*
X0138786Y0359811D01*
X0138991Y0359595D01*
X0139191Y0359373D01*
X0139385Y0359146D01*
X0139574Y0358915D01*
X0139757Y0358680D01*
X0139934Y0358440D01*
X0140105Y0358195D01*
X0140270Y0357947D01*
X0140429Y0357694D01*
X0140582Y0357438D01*
X0140729Y0357178D01*
X0140869Y0356915D01*
X0141003Y0356648D01*
X0141130Y0356378D01*
X0141250Y0356105D01*
X0141364Y0355830D01*
X0141471Y0355551D01*
X0141571Y0355270D01*
X0141664Y0354987D01*
X0141751Y0354701D01*
X0141830Y0354413D01*
X0141902Y0354124D01*
X0141967Y0353833D01*
X0142025Y0353540D01*
X0142076Y0353246D01*
X0142120Y0352951D01*
X0142156Y0352655D01*
X0142185Y0352358D01*
X0142207Y0352060D01*
X0142222Y0351762D01*
X0142229Y0351464D01*
X0142229Y0351166D01*
X0142222Y0350868D01*
X0142207Y0350570D01*
X0142185Y0350272D01*
X0142156Y0349975D01*
X0142120Y0349679D01*
X0142076Y0349384D01*
X0142025Y0349090D01*
X0141967Y0348797D01*
X0141902Y0348506D01*
X0141830Y0348217D01*
X0141751Y0347929D01*
X0141664Y0347643D01*
X0141571Y0347360D01*
X0141471Y0347079D01*
X0141364Y0346800D01*
X0141250Y0346525D01*
X0141130Y0346252D01*
X0141003Y0345982D01*
X0140869Y0345715D01*
X0140729Y0345452D01*
X0140582Y0345192D01*
X0140429Y0344936D01*
X0140270Y0344683D01*
X0140105Y0344435D01*
X0139934Y0344190D01*
X0139757Y0343950D01*
X0139574Y0343715D01*
X0139385Y0343484D01*
X0139191Y0343257D01*
X0138991Y0343035D01*
X0138786Y0342819D01*
X0138576Y0342607D01*
X0138360Y0342401D01*
X0138140Y0342200D01*
X0137915Y0342004D01*
X0137685Y0341814D01*
X0137450Y0341630D01*
X0137211Y0341451D01*
X0136968Y0341279D01*
X0136720Y0341112D01*
X0136469Y0340951D01*
X0136213Y0340797D01*
X0135954Y0340649D01*
X0135692Y0340507D01*
X0135426Y0340372D01*
X0135157Y0340243D01*
X0134885Y0340121D01*
X0134609Y0340006D01*
X0134332Y0339897D01*
X0134051Y0339795D01*
X0133768Y0339700D01*
X0107316Y0330033D02*
X0107316Y0328699D01*
X0106983Y0328365D01*
X0106315Y0328365D01*
X0105982Y0328699D01*
X0105106Y0328699D02*
X0104773Y0328365D01*
X0104105Y0328365D01*
X0103772Y0328699D01*
X0103772Y0329366D01*
X0104105Y0329700D01*
X0104439Y0329700D01*
X0105106Y0329366D01*
X0105106Y0330367D01*
X0103772Y0330367D01*
X0105982Y0330033D02*
X0106315Y0330367D01*
X0106983Y0330367D01*
X0107316Y0330033D01*
X0123715Y0279030D02*
X0123715Y0278696D01*
X0125050Y0277362D01*
X0125050Y0277028D01*
X0125925Y0277362D02*
X0126259Y0277028D01*
X0126926Y0277028D01*
X0127260Y0277362D01*
X0127260Y0278696D01*
X0126926Y0279030D01*
X0126259Y0279030D01*
X0125925Y0278696D01*
X0125050Y0279030D02*
X0123715Y0279030D01*
X0104631Y0277414D02*
X0103630Y0277414D01*
X0103297Y0277081D01*
X0103297Y0275746D01*
X0103630Y0275413D01*
X0104631Y0275413D01*
X0104631Y0277414D01*
X0102421Y0277414D02*
X0101087Y0277414D01*
X0101087Y0277081D01*
X0102421Y0275746D01*
X0102421Y0275413D01*
X0079828Y0276239D02*
X0078827Y0276239D01*
X0078493Y0276573D01*
X0078493Y0277907D01*
X0078827Y0278241D01*
X0079828Y0278241D01*
X0079828Y0276239D01*
X0077618Y0276573D02*
X0077618Y0276907D01*
X0077284Y0277240D01*
X0076617Y0277240D01*
X0076284Y0276907D01*
X0076284Y0276573D01*
X0076617Y0276239D01*
X0077284Y0276239D01*
X0077618Y0276573D01*
X0077284Y0277240D02*
X0077618Y0277574D01*
X0077618Y0277907D01*
X0077284Y0278241D01*
X0076617Y0278241D01*
X0076284Y0277907D01*
X0076284Y0277574D01*
X0076617Y0277240D01*
X0099827Y0379783D02*
X0101161Y0379783D01*
X0099827Y0381117D01*
X0099827Y0381451D01*
X0100161Y0381784D01*
X0100828Y0381784D01*
X0101161Y0381451D01*
X0102037Y0381451D02*
X0102370Y0381784D01*
X0103371Y0381784D01*
X0103371Y0379783D01*
X0102370Y0379783D01*
X0102037Y0380116D01*
X0102037Y0381451D01*
X0175072Y0354007D02*
X0175072Y0353339D01*
X0175406Y0353006D01*
X0176073Y0353006D02*
X0176407Y0353673D01*
X0176407Y0354007D01*
X0176073Y0354340D01*
X0175406Y0354340D01*
X0175072Y0354007D01*
X0176073Y0353006D02*
X0177074Y0353006D01*
X0177074Y0354340D01*
X0176740Y0352130D02*
X0177074Y0351797D01*
X0177074Y0351130D01*
X0176740Y0350796D01*
X0176740Y0349921D02*
X0177074Y0349587D01*
X0177074Y0348920D01*
X0176740Y0348586D01*
X0175406Y0348586D01*
X0175072Y0348920D01*
X0175072Y0349587D01*
X0175406Y0349921D01*
X0175072Y0350796D02*
X0176407Y0352130D01*
X0176740Y0352130D01*
X0175072Y0352130D02*
X0175072Y0350796D01*
X0177451Y0324862D02*
X0178786Y0324862D01*
X0179119Y0324529D01*
X0179119Y0323862D01*
X0178786Y0323528D01*
X0178452Y0323528D01*
X0178119Y0323862D01*
X0178119Y0324862D01*
X0177451Y0324862D02*
X0177118Y0324529D01*
X0177118Y0323862D01*
X0177451Y0323528D01*
X0177451Y0322653D02*
X0178786Y0322653D01*
X0179119Y0322319D01*
X0179119Y0321318D01*
X0177118Y0321318D01*
X0177118Y0322319D01*
X0177451Y0322653D01*
X0209118Y0277021D02*
X0210453Y0277021D01*
X0210453Y0276020D01*
X0209785Y0276353D01*
X0209452Y0276353D01*
X0209118Y0276020D01*
X0209118Y0275353D01*
X0209452Y0275019D01*
X0210119Y0275019D01*
X0210453Y0275353D01*
X0211328Y0275353D02*
X0211328Y0276687D01*
X0211662Y0277021D01*
X0212663Y0277021D01*
X0212663Y0275019D01*
X0211662Y0275019D01*
X0211328Y0275353D01*
X0211518Y0388129D02*
X0211518Y0390131D01*
X0212185Y0389464D01*
X0213060Y0389797D02*
X0213060Y0388463D01*
X0213394Y0388129D01*
X0214395Y0388129D01*
X0214395Y0390131D01*
X0213394Y0390131D01*
X0213060Y0389797D01*
X0212185Y0388129D02*
X0210851Y0388129D01*
D16*
X0136865Y0291689D03*
D17*
X0136162Y0318366D02*
X0136162Y0319366D01*
X0137162Y0319366D01*
X0136162Y0319366D02*
X0136162Y0320366D01*
X0136162Y0319366D02*
X0135162Y0319366D01*
X0131662Y0324366D02*
X0131665Y0324611D01*
X0131674Y0324857D01*
X0131689Y0325102D01*
X0131710Y0325346D01*
X0131737Y0325590D01*
X0131770Y0325833D01*
X0131809Y0326076D01*
X0131854Y0326317D01*
X0131905Y0326557D01*
X0131962Y0326796D01*
X0132024Y0327033D01*
X0132093Y0327269D01*
X0132167Y0327503D01*
X0132247Y0327735D01*
X0132332Y0327965D01*
X0132423Y0328193D01*
X0132520Y0328418D01*
X0132622Y0328642D01*
X0132730Y0328862D01*
X0132843Y0329080D01*
X0132961Y0329295D01*
X0133085Y0329507D01*
X0133213Y0329716D01*
X0133347Y0329922D01*
X0133486Y0330124D01*
X0133630Y0330323D01*
X0133779Y0330518D01*
X0133932Y0330710D01*
X0134090Y0330898D01*
X0134252Y0331082D01*
X0134420Y0331261D01*
X0134591Y0331437D01*
X0134767Y0331608D01*
X0134946Y0331776D01*
X0135130Y0331938D01*
X0135318Y0332096D01*
X0135510Y0332249D01*
X0135705Y0332398D01*
X0135904Y0332542D01*
X0136106Y0332681D01*
X0136312Y0332815D01*
X0136521Y0332943D01*
X0136733Y0333067D01*
X0136948Y0333185D01*
X0137166Y0333298D01*
X0137386Y0333406D01*
X0137610Y0333508D01*
X0137835Y0333605D01*
X0138063Y0333696D01*
X0138293Y0333781D01*
X0138525Y0333861D01*
X0138759Y0333935D01*
X0138995Y0334004D01*
X0139232Y0334066D01*
X0139471Y0334123D01*
X0139711Y0334174D01*
X0139952Y0334219D01*
X0140195Y0334258D01*
X0140438Y0334291D01*
X0140682Y0334318D01*
X0140926Y0334339D01*
X0141171Y0334354D01*
X0141417Y0334363D01*
X0141662Y0334366D01*
X0141907Y0334363D01*
X0142153Y0334354D01*
X0142398Y0334339D01*
X0142642Y0334318D01*
X0142886Y0334291D01*
X0143129Y0334258D01*
X0143372Y0334219D01*
X0143613Y0334174D01*
X0143853Y0334123D01*
X0144092Y0334066D01*
X0144329Y0334004D01*
X0144565Y0333935D01*
X0144799Y0333861D01*
X0145031Y0333781D01*
X0145261Y0333696D01*
X0145489Y0333605D01*
X0145714Y0333508D01*
X0145938Y0333406D01*
X0146158Y0333298D01*
X0146376Y0333185D01*
X0146591Y0333067D01*
X0146803Y0332943D01*
X0147012Y0332815D01*
X0147218Y0332681D01*
X0147420Y0332542D01*
X0147619Y0332398D01*
X0147814Y0332249D01*
X0148006Y0332096D01*
X0148194Y0331938D01*
X0148378Y0331776D01*
X0148557Y0331608D01*
X0148733Y0331437D01*
X0148904Y0331261D01*
X0149072Y0331082D01*
X0149234Y0330898D01*
X0149392Y0330710D01*
X0149545Y0330518D01*
X0149694Y0330323D01*
X0149838Y0330124D01*
X0149977Y0329922D01*
X0150111Y0329716D01*
X0150239Y0329507D01*
X0150363Y0329295D01*
X0150481Y0329080D01*
X0150594Y0328862D01*
X0150702Y0328642D01*
X0150804Y0328418D01*
X0150901Y0328193D01*
X0150992Y0327965D01*
X0151077Y0327735D01*
X0151157Y0327503D01*
X0151231Y0327269D01*
X0151300Y0327033D01*
X0151362Y0326796D01*
X0151419Y0326557D01*
X0151470Y0326317D01*
X0151515Y0326076D01*
X0151554Y0325833D01*
X0151587Y0325590D01*
X0151614Y0325346D01*
X0151635Y0325102D01*
X0151650Y0324857D01*
X0151659Y0324611D01*
X0151662Y0324366D01*
X0151659Y0324121D01*
X0151650Y0323875D01*
X0151635Y0323630D01*
X0151614Y0323386D01*
X0151587Y0323142D01*
X0151554Y0322899D01*
X0151515Y0322656D01*
X0151470Y0322415D01*
X0151419Y0322175D01*
X0151362Y0321936D01*
X0151300Y0321699D01*
X0151231Y0321463D01*
X0151157Y0321229D01*
X0151077Y0320997D01*
X0150992Y0320767D01*
X0150901Y0320539D01*
X0150804Y0320314D01*
X0150702Y0320090D01*
X0150594Y0319870D01*
X0150481Y0319652D01*
X0150363Y0319437D01*
X0150239Y0319225D01*
X0150111Y0319016D01*
X0149977Y0318810D01*
X0149838Y0318608D01*
X0149694Y0318409D01*
X0149545Y0318214D01*
X0149392Y0318022D01*
X0149234Y0317834D01*
X0149072Y0317650D01*
X0148904Y0317471D01*
X0148733Y0317295D01*
X0148557Y0317124D01*
X0148378Y0316956D01*
X0148194Y0316794D01*
X0148006Y0316636D01*
X0147814Y0316483D01*
X0147619Y0316334D01*
X0147420Y0316190D01*
X0147218Y0316051D01*
X0147012Y0315917D01*
X0146803Y0315789D01*
X0146591Y0315665D01*
X0146376Y0315547D01*
X0146158Y0315434D01*
X0145938Y0315326D01*
X0145714Y0315224D01*
X0145489Y0315127D01*
X0145261Y0315036D01*
X0145031Y0314951D01*
X0144799Y0314871D01*
X0144565Y0314797D01*
X0144329Y0314728D01*
X0144092Y0314666D01*
X0143853Y0314609D01*
X0143613Y0314558D01*
X0143372Y0314513D01*
X0143129Y0314474D01*
X0142886Y0314441D01*
X0142642Y0314414D01*
X0142398Y0314393D01*
X0142153Y0314378D01*
X0141907Y0314369D01*
X0141662Y0314366D01*
X0141417Y0314369D01*
X0141171Y0314378D01*
X0140926Y0314393D01*
X0140682Y0314414D01*
X0140438Y0314441D01*
X0140195Y0314474D01*
X0139952Y0314513D01*
X0139711Y0314558D01*
X0139471Y0314609D01*
X0139232Y0314666D01*
X0138995Y0314728D01*
X0138759Y0314797D01*
X0138525Y0314871D01*
X0138293Y0314951D01*
X0138063Y0315036D01*
X0137835Y0315127D01*
X0137610Y0315224D01*
X0137386Y0315326D01*
X0137166Y0315434D01*
X0136948Y0315547D01*
X0136733Y0315665D01*
X0136521Y0315789D01*
X0136312Y0315917D01*
X0136106Y0316051D01*
X0135904Y0316190D01*
X0135705Y0316334D01*
X0135510Y0316483D01*
X0135318Y0316636D01*
X0135130Y0316794D01*
X0134946Y0316956D01*
X0134767Y0317124D01*
X0134591Y0317295D01*
X0134420Y0317471D01*
X0134252Y0317650D01*
X0134090Y0317834D01*
X0133932Y0318022D01*
X0133779Y0318214D01*
X0133630Y0318409D01*
X0133486Y0318608D01*
X0133347Y0318810D01*
X0133213Y0319016D01*
X0133085Y0319225D01*
X0132961Y0319437D01*
X0132843Y0319652D01*
X0132730Y0319870D01*
X0132622Y0320090D01*
X0132520Y0320314D01*
X0132423Y0320539D01*
X0132332Y0320767D01*
X0132247Y0320997D01*
X0132167Y0321229D01*
X0132093Y0321463D01*
X0132024Y0321699D01*
X0131962Y0321936D01*
X0131905Y0322175D01*
X0131854Y0322415D01*
X0131809Y0322656D01*
X0131770Y0322899D01*
X0131737Y0323142D01*
X0131710Y0323386D01*
X0131689Y0323630D01*
X0131674Y0323875D01*
X0131665Y0324121D01*
X0131662Y0324366D01*
X0125288Y0328992D02*
X0124288Y0328992D01*
X0124288Y0329992D01*
X0124288Y0328992D02*
X0123288Y0328992D01*
X0124288Y0328992D02*
X0124288Y0327992D01*
X0108788Y0323992D02*
X0108791Y0324237D01*
X0108800Y0324483D01*
X0108815Y0324728D01*
X0108836Y0324972D01*
X0108863Y0325216D01*
X0108896Y0325459D01*
X0108935Y0325702D01*
X0108980Y0325943D01*
X0109031Y0326183D01*
X0109088Y0326422D01*
X0109150Y0326659D01*
X0109219Y0326895D01*
X0109293Y0327129D01*
X0109373Y0327361D01*
X0109458Y0327591D01*
X0109549Y0327819D01*
X0109646Y0328044D01*
X0109748Y0328268D01*
X0109856Y0328488D01*
X0109969Y0328706D01*
X0110087Y0328921D01*
X0110211Y0329133D01*
X0110339Y0329342D01*
X0110473Y0329548D01*
X0110612Y0329750D01*
X0110756Y0329949D01*
X0110905Y0330144D01*
X0111058Y0330336D01*
X0111216Y0330524D01*
X0111378Y0330708D01*
X0111546Y0330887D01*
X0111717Y0331063D01*
X0111893Y0331234D01*
X0112072Y0331402D01*
X0112256Y0331564D01*
X0112444Y0331722D01*
X0112636Y0331875D01*
X0112831Y0332024D01*
X0113030Y0332168D01*
X0113232Y0332307D01*
X0113438Y0332441D01*
X0113647Y0332569D01*
X0113859Y0332693D01*
X0114074Y0332811D01*
X0114292Y0332924D01*
X0114512Y0333032D01*
X0114736Y0333134D01*
X0114961Y0333231D01*
X0115189Y0333322D01*
X0115419Y0333407D01*
X0115651Y0333487D01*
X0115885Y0333561D01*
X0116121Y0333630D01*
X0116358Y0333692D01*
X0116597Y0333749D01*
X0116837Y0333800D01*
X0117078Y0333845D01*
X0117321Y0333884D01*
X0117564Y0333917D01*
X0117808Y0333944D01*
X0118052Y0333965D01*
X0118297Y0333980D01*
X0118543Y0333989D01*
X0118788Y0333992D01*
X0119033Y0333989D01*
X0119279Y0333980D01*
X0119524Y0333965D01*
X0119768Y0333944D01*
X0120012Y0333917D01*
X0120255Y0333884D01*
X0120498Y0333845D01*
X0120739Y0333800D01*
X0120979Y0333749D01*
X0121218Y0333692D01*
X0121455Y0333630D01*
X0121691Y0333561D01*
X0121925Y0333487D01*
X0122157Y0333407D01*
X0122387Y0333322D01*
X0122615Y0333231D01*
X0122840Y0333134D01*
X0123064Y0333032D01*
X0123284Y0332924D01*
X0123502Y0332811D01*
X0123717Y0332693D01*
X0123929Y0332569D01*
X0124138Y0332441D01*
X0124344Y0332307D01*
X0124546Y0332168D01*
X0124745Y0332024D01*
X0124940Y0331875D01*
X0125132Y0331722D01*
X0125320Y0331564D01*
X0125504Y0331402D01*
X0125683Y0331234D01*
X0125859Y0331063D01*
X0126030Y0330887D01*
X0126198Y0330708D01*
X0126360Y0330524D01*
X0126518Y0330336D01*
X0126671Y0330144D01*
X0126820Y0329949D01*
X0126964Y0329750D01*
X0127103Y0329548D01*
X0127237Y0329342D01*
X0127365Y0329133D01*
X0127489Y0328921D01*
X0127607Y0328706D01*
X0127720Y0328488D01*
X0127828Y0328268D01*
X0127930Y0328044D01*
X0128027Y0327819D01*
X0128118Y0327591D01*
X0128203Y0327361D01*
X0128283Y0327129D01*
X0128357Y0326895D01*
X0128426Y0326659D01*
X0128488Y0326422D01*
X0128545Y0326183D01*
X0128596Y0325943D01*
X0128641Y0325702D01*
X0128680Y0325459D01*
X0128713Y0325216D01*
X0128740Y0324972D01*
X0128761Y0324728D01*
X0128776Y0324483D01*
X0128785Y0324237D01*
X0128788Y0323992D01*
X0128785Y0323747D01*
X0128776Y0323501D01*
X0128761Y0323256D01*
X0128740Y0323012D01*
X0128713Y0322768D01*
X0128680Y0322525D01*
X0128641Y0322282D01*
X0128596Y0322041D01*
X0128545Y0321801D01*
X0128488Y0321562D01*
X0128426Y0321325D01*
X0128357Y0321089D01*
X0128283Y0320855D01*
X0128203Y0320623D01*
X0128118Y0320393D01*
X0128027Y0320165D01*
X0127930Y0319940D01*
X0127828Y0319716D01*
X0127720Y0319496D01*
X0127607Y0319278D01*
X0127489Y0319063D01*
X0127365Y0318851D01*
X0127237Y0318642D01*
X0127103Y0318436D01*
X0126964Y0318234D01*
X0126820Y0318035D01*
X0126671Y0317840D01*
X0126518Y0317648D01*
X0126360Y0317460D01*
X0126198Y0317276D01*
X0126030Y0317097D01*
X0125859Y0316921D01*
X0125683Y0316750D01*
X0125504Y0316582D01*
X0125320Y0316420D01*
X0125132Y0316262D01*
X0124940Y0316109D01*
X0124745Y0315960D01*
X0124546Y0315816D01*
X0124344Y0315677D01*
X0124138Y0315543D01*
X0123929Y0315415D01*
X0123717Y0315291D01*
X0123502Y0315173D01*
X0123284Y0315060D01*
X0123064Y0314952D01*
X0122840Y0314850D01*
X0122615Y0314753D01*
X0122387Y0314662D01*
X0122157Y0314577D01*
X0121925Y0314497D01*
X0121691Y0314423D01*
X0121455Y0314354D01*
X0121218Y0314292D01*
X0120979Y0314235D01*
X0120739Y0314184D01*
X0120498Y0314139D01*
X0120255Y0314100D01*
X0120012Y0314067D01*
X0119768Y0314040D01*
X0119524Y0314019D01*
X0119279Y0314004D01*
X0119033Y0313995D01*
X0118788Y0313992D01*
X0118543Y0313995D01*
X0118297Y0314004D01*
X0118052Y0314019D01*
X0117808Y0314040D01*
X0117564Y0314067D01*
X0117321Y0314100D01*
X0117078Y0314139D01*
X0116837Y0314184D01*
X0116597Y0314235D01*
X0116358Y0314292D01*
X0116121Y0314354D01*
X0115885Y0314423D01*
X0115651Y0314497D01*
X0115419Y0314577D01*
X0115189Y0314662D01*
X0114961Y0314753D01*
X0114736Y0314850D01*
X0114512Y0314952D01*
X0114292Y0315060D01*
X0114074Y0315173D01*
X0113859Y0315291D01*
X0113647Y0315415D01*
X0113438Y0315543D01*
X0113232Y0315677D01*
X0113030Y0315816D01*
X0112831Y0315960D01*
X0112636Y0316109D01*
X0112444Y0316262D01*
X0112256Y0316420D01*
X0112072Y0316582D01*
X0111893Y0316750D01*
X0111717Y0316921D01*
X0111546Y0317097D01*
X0111378Y0317276D01*
X0111216Y0317460D01*
X0111058Y0317648D01*
X0110905Y0317840D01*
X0110756Y0318035D01*
X0110612Y0318234D01*
X0110473Y0318436D01*
X0110339Y0318642D01*
X0110211Y0318851D01*
X0110087Y0319063D01*
X0109969Y0319278D01*
X0109856Y0319496D01*
X0109748Y0319716D01*
X0109646Y0319940D01*
X0109549Y0320165D01*
X0109458Y0320393D01*
X0109373Y0320623D01*
X0109293Y0320855D01*
X0109219Y0321089D01*
X0109150Y0321325D01*
X0109088Y0321562D01*
X0109031Y0321801D01*
X0108980Y0322041D01*
X0108935Y0322282D01*
X0108896Y0322525D01*
X0108863Y0322768D01*
X0108836Y0323012D01*
X0108815Y0323256D01*
X0108800Y0323501D01*
X0108791Y0323747D01*
X0108788Y0323992D01*
X0121701Y0372220D02*
X0126701Y0372220D01*
X0129201Y0374720D01*
X0129201Y0389720D01*
X0131701Y0392220D01*
X0136701Y0392220D01*
X0139201Y0389720D01*
X0139201Y0374720D01*
X0141701Y0372220D01*
X0146701Y0372220D01*
X0149201Y0374720D01*
X0149201Y0389720D01*
X0151701Y0392220D01*
X0156701Y0392220D01*
X0159201Y0389720D01*
X0161701Y0392220D01*
X0166701Y0392220D01*
X0169201Y0389720D01*
X0169201Y0374720D01*
X0166701Y0372220D01*
X0161701Y0372220D01*
X0159201Y0374720D01*
X0159201Y0389720D01*
X0149201Y0389720D02*
X0146701Y0392220D01*
X0141701Y0392220D01*
X0139201Y0389720D01*
X0129201Y0389720D02*
X0126701Y0392220D01*
X0121701Y0392220D01*
X0119201Y0389720D01*
X0119201Y0374720D01*
X0121701Y0372220D01*
X0129201Y0374720D02*
X0131701Y0372220D01*
X0136701Y0372220D01*
X0139201Y0374720D01*
X0149201Y0374720D02*
X0151701Y0372220D01*
X0156701Y0372220D01*
X0159201Y0374720D01*
X0169260Y0243028D02*
X0141662Y0243028D01*
X0141662Y0215429D01*
X0167863Y0215429D01*
X0169260Y0216827D01*
X0169260Y0243028D01*
X0164847Y0218428D02*
X0164849Y0218503D01*
X0164855Y0218577D01*
X0164865Y0218651D01*
X0164878Y0218724D01*
X0164896Y0218797D01*
X0164917Y0218868D01*
X0164942Y0218939D01*
X0164971Y0219008D01*
X0165004Y0219075D01*
X0165040Y0219140D01*
X0165079Y0219204D01*
X0165121Y0219265D01*
X0165167Y0219324D01*
X0165216Y0219381D01*
X0165268Y0219434D01*
X0165322Y0219485D01*
X0165379Y0219534D01*
X0165439Y0219578D01*
X0165501Y0219620D01*
X0165565Y0219659D01*
X0165631Y0219694D01*
X0165698Y0219725D01*
X0165768Y0219753D01*
X0165838Y0219777D01*
X0165910Y0219798D01*
X0165983Y0219814D01*
X0166056Y0219827D01*
X0166131Y0219836D01*
X0166205Y0219841D01*
X0166280Y0219842D01*
X0166354Y0219839D01*
X0166429Y0219832D01*
X0166502Y0219821D01*
X0166576Y0219807D01*
X0166648Y0219788D01*
X0166719Y0219766D01*
X0166789Y0219740D01*
X0166858Y0219710D01*
X0166924Y0219677D01*
X0166989Y0219640D01*
X0167052Y0219600D01*
X0167113Y0219556D01*
X0167171Y0219510D01*
X0167227Y0219460D01*
X0167280Y0219408D01*
X0167331Y0219353D01*
X0167378Y0219295D01*
X0167422Y0219235D01*
X0167463Y0219172D01*
X0167501Y0219108D01*
X0167535Y0219042D01*
X0167566Y0218973D01*
X0167593Y0218904D01*
X0167616Y0218833D01*
X0167635Y0218761D01*
X0167651Y0218688D01*
X0167663Y0218614D01*
X0167671Y0218540D01*
X0167675Y0218465D01*
X0167675Y0218391D01*
X0167671Y0218316D01*
X0167663Y0218242D01*
X0167651Y0218168D01*
X0167635Y0218095D01*
X0167616Y0218023D01*
X0167593Y0217952D01*
X0167566Y0217883D01*
X0167535Y0217814D01*
X0167501Y0217748D01*
X0167463Y0217684D01*
X0167422Y0217621D01*
X0167378Y0217561D01*
X0167331Y0217503D01*
X0167280Y0217448D01*
X0167227Y0217396D01*
X0167171Y0217346D01*
X0167113Y0217300D01*
X0167052Y0217256D01*
X0166989Y0217216D01*
X0166924Y0217179D01*
X0166858Y0217146D01*
X0166789Y0217116D01*
X0166719Y0217090D01*
X0166648Y0217068D01*
X0166576Y0217049D01*
X0166502Y0217035D01*
X0166429Y0217024D01*
X0166354Y0217017D01*
X0166280Y0217014D01*
X0166205Y0217015D01*
X0166131Y0217020D01*
X0166056Y0217029D01*
X0165983Y0217042D01*
X0165910Y0217058D01*
X0165838Y0217079D01*
X0165768Y0217103D01*
X0165698Y0217131D01*
X0165631Y0217162D01*
X0165565Y0217197D01*
X0165501Y0217236D01*
X0165439Y0217278D01*
X0165379Y0217322D01*
X0165322Y0217371D01*
X0165268Y0217422D01*
X0165216Y0217475D01*
X0165167Y0217532D01*
X0165121Y0217591D01*
X0165079Y0217652D01*
X0165040Y0217716D01*
X0165004Y0217781D01*
X0164971Y0217848D01*
X0164942Y0217917D01*
X0164917Y0217988D01*
X0164896Y0218059D01*
X0164878Y0218132D01*
X0164865Y0218205D01*
X0164855Y0218279D01*
X0164849Y0218353D01*
X0164847Y0218428D01*
X0095459Y0156155D02*
X0083259Y0156155D01*
X0083259Y0143955D02*
X0088159Y0143955D01*
X0090559Y0143955D01*
X0095459Y0143955D01*
X0090559Y0143955D02*
X0090557Y0144024D01*
X0090551Y0144092D01*
X0090541Y0144160D01*
X0090528Y0144227D01*
X0090510Y0144293D01*
X0090489Y0144358D01*
X0090464Y0144422D01*
X0090436Y0144484D01*
X0090404Y0144545D01*
X0090369Y0144604D01*
X0090330Y0144660D01*
X0090288Y0144715D01*
X0090243Y0144766D01*
X0090195Y0144816D01*
X0090145Y0144862D01*
X0090092Y0144905D01*
X0090036Y0144946D01*
X0089979Y0144983D01*
X0089919Y0145016D01*
X0089857Y0145047D01*
X0089794Y0145073D01*
X0089730Y0145096D01*
X0089664Y0145116D01*
X0089597Y0145131D01*
X0089530Y0145143D01*
X0089462Y0145151D01*
X0089393Y0145155D01*
X0089325Y0145155D01*
X0089256Y0145151D01*
X0089188Y0145143D01*
X0089121Y0145131D01*
X0089054Y0145116D01*
X0088988Y0145096D01*
X0088924Y0145073D01*
X0088861Y0145047D01*
X0088799Y0145016D01*
X0088739Y0144983D01*
X0088682Y0144946D01*
X0088626Y0144905D01*
X0088573Y0144862D01*
X0088523Y0144816D01*
X0088475Y0144766D01*
X0088430Y0144715D01*
X0088388Y0144660D01*
X0088349Y0144604D01*
X0088314Y0144545D01*
X0088282Y0144484D01*
X0088254Y0144422D01*
X0088229Y0144358D01*
X0088208Y0144293D01*
X0088190Y0144227D01*
X0088177Y0144160D01*
X0088167Y0144092D01*
X0088161Y0144024D01*
X0088159Y0143955D01*
D18*
X0144201Y0387220D03*
D19*
X0147666Y0050803D02*
X0147666Y0050764D01*
X0112469Y0050843D02*
X0112469Y0050803D01*
X0072508Y0049898D02*
X0072508Y0049858D01*
X0189004Y0048756D02*
X0189004Y0048717D01*
D20*
X0183414Y0050685D02*
X0183414Y0056984D01*
X0194595Y0056984D02*
X0194595Y0050685D01*
X0153256Y0052732D02*
X0153256Y0059031D01*
X0142075Y0059031D02*
X0142075Y0052732D01*
X0118059Y0052772D02*
X0118059Y0059071D01*
X0106878Y0059071D02*
X0106878Y0052772D01*
X0078099Y0051827D02*
X0078099Y0058126D01*
X0066918Y0058126D02*
X0066918Y0051827D01*
D21*
X0067469Y0052378D02*
X0077508Y0052378D01*
X0077508Y0057535D01*
X0067469Y0057535D01*
X0067469Y0052378D01*
X0107430Y0053323D02*
X0117469Y0053323D01*
X0117469Y0058480D01*
X0107430Y0058480D01*
X0107430Y0053323D01*
X0142626Y0053283D02*
X0152666Y0053283D01*
X0152666Y0058441D01*
X0142626Y0058441D01*
X0142626Y0053283D01*
X0183965Y0051236D02*
X0194004Y0051236D01*
X0194004Y0056394D01*
X0183965Y0056394D01*
X0183965Y0051236D01*
D22*
X0188604Y0274342D03*
X0167513Y0299537D03*
X0164000Y0294431D03*
X0175929Y0317384D03*
X0155544Y0323198D03*
X0105927Y0274342D03*
X0080337Y0274342D03*
X0214195Y0274342D03*
D23*
X0080845Y0144121D02*
X0077709Y0140985D01*
X0079277Y0140985D02*
X0079277Y0144121D01*
X0077709Y0144121D02*
X0080845Y0140985D01*
X0080845Y0142553D02*
X0077709Y0142553D01*
D24*
X0094556Y0136315D02*
X0100855Y0136315D01*
X0100855Y0133165D02*
X0094556Y0133165D01*
D25*
X0098099Y0134740D03*
M02*
