G75*
%MOIN*%
%OFA0B0*%
%FSLAX25Y25*%
%IPPOS*%
%LPD*%
%AMOC8*
5,1,8,0,0,1.08239X$1,22.5*
%
%ADD10C,0.00000*%
%ADD11R,0.08000X0.08000*%
%ADD12OC8,0.13261*%
%ADD13OC8,0.08000*%
%ADD14C,0.07096*%
%ADD15OC8,0.06900*%
%ADD16C,0.06900*%
%ADD17OC8,0.05400*%
D10*
X0003081Y0002417D02*
X0160562Y0002417D01*
X0160837Y0001000D02*
X0160522Y0396000D01*
X0160562Y0396118D02*
X0003081Y0396118D01*
X0003081Y0002417D01*
D11*
X0017648Y0226039D03*
X0027491Y0226039D03*
X0037333Y0226039D03*
X0037333Y0348087D03*
X0027491Y0348087D03*
X0017648Y0348087D03*
X0126310Y0348087D03*
X0136152Y0348087D03*
X0145995Y0348087D03*
X0145995Y0226039D03*
X0136152Y0226039D03*
X0126310Y0226039D03*
D12*
X0118830Y0252417D03*
X0153475Y0252417D03*
X0153475Y0374465D03*
X0118830Y0374465D03*
X0044814Y0374465D03*
X0010168Y0374465D03*
X0010168Y0252417D03*
X0044814Y0252417D03*
D13*
X0052944Y0235409D03*
X0052944Y0225409D03*
X0052944Y0215409D03*
X0062944Y0215409D03*
X0062944Y0225409D03*
X0062944Y0235409D03*
X0061546Y0377220D03*
X0061546Y0387220D03*
X0071546Y0387220D03*
X0071546Y0377220D03*
X0081546Y0377220D03*
X0081546Y0387220D03*
X0091546Y0387220D03*
X0091546Y0377220D03*
X0101546Y0377220D03*
X0101546Y0387220D03*
D14*
X0136152Y0331157D03*
X0136152Y0297693D03*
X0136152Y0285882D03*
X0136152Y0209110D03*
X0136152Y0175646D03*
X0136152Y0163835D03*
X0142845Y0114622D03*
X0142845Y0102811D03*
X0142845Y0069346D03*
X0142845Y0051630D03*
X0142845Y0039819D03*
X0142845Y0006354D03*
X0102164Y0006354D03*
X0102164Y0039819D03*
X0102164Y0051630D03*
X0102164Y0069346D03*
X0102164Y0102811D03*
X0102164Y0114622D03*
X0061479Y0114622D03*
X0061479Y0102811D03*
X0061479Y0069346D03*
X0061479Y0051630D03*
X0061479Y0039819D03*
X0061479Y0006354D03*
X0020798Y0006354D03*
X0020798Y0039819D03*
X0020798Y0051630D03*
X0020798Y0069346D03*
X0020798Y0102811D03*
X0020798Y0114622D03*
X0027491Y0163835D03*
X0027491Y0175646D03*
X0027491Y0209110D03*
X0027491Y0285882D03*
X0027491Y0297693D03*
X0027491Y0331157D03*
D15*
X0051133Y0323992D03*
X0084007Y0324366D03*
D16*
X0074007Y0324366D03*
X0061133Y0323992D03*
D17*
X0056479Y0130055D03*
X0066479Y0130055D03*
X0097164Y0130055D03*
X0107164Y0130055D03*
X0137845Y0130055D03*
X0147845Y0130055D03*
X0025798Y0130055D03*
X0015798Y0130055D03*
M02*
