G75*
%MOIN*%
%OFA0B0*%
%FSLAX25Y25*%
%IPPOS*%
%LPD*%
%AMOC8*
5,1,8,0,0,1.08239X$1,22.5*
%
%ADD10C,0.00000*%
%ADD11R,0.07400X0.07400*%
%ADD12OC8,0.12661*%
%ADD13OC8,0.07400*%
%ADD14C,0.06496*%
%ADD15OC8,0.06300*%
%ADD16C,0.06300*%
%ADD17OC8,0.04800*%
%ADD18C,0.02400*%
%ADD19C,0.02581*%
%ADD20C,0.01600*%
%ADD21C,0.00600*%
%ADD22C,0.01000*%
%ADD23OC8,0.02581*%
D10*
X0003081Y0002417D02*
X0160562Y0002417D01*
X0160837Y0001000D02*
X0160522Y0396000D01*
X0160562Y0396118D02*
X0003081Y0396118D01*
X0003081Y0002417D01*
D11*
X0017648Y0226039D03*
X0027491Y0226039D03*
X0037333Y0226039D03*
X0037333Y0348087D03*
X0027491Y0348087D03*
X0017648Y0348087D03*
X0126310Y0348087D03*
X0136152Y0348087D03*
X0145995Y0348087D03*
X0145995Y0226039D03*
X0136152Y0226039D03*
X0126310Y0226039D03*
D12*
X0118830Y0252417D03*
X0153475Y0252417D03*
X0153475Y0374465D03*
X0118830Y0374465D03*
X0044814Y0374465D03*
X0010168Y0374465D03*
X0010168Y0252417D03*
X0044814Y0252417D03*
D13*
X0052944Y0235409D03*
X0052944Y0225409D03*
X0052944Y0215409D03*
X0062944Y0215409D03*
X0062944Y0225409D03*
X0062944Y0235409D03*
X0061546Y0377220D03*
X0061546Y0387220D03*
X0071546Y0387220D03*
X0071546Y0377220D03*
X0081546Y0377220D03*
X0081546Y0387220D03*
X0091546Y0387220D03*
X0091546Y0377220D03*
X0101546Y0377220D03*
X0101546Y0387220D03*
D14*
X0136152Y0331157D03*
X0136152Y0297693D03*
X0136152Y0285882D03*
X0136152Y0209110D03*
X0136152Y0175646D03*
X0136152Y0163835D03*
X0142845Y0114622D03*
X0142845Y0102811D03*
X0142845Y0069346D03*
X0142845Y0051630D03*
X0142845Y0039819D03*
X0142845Y0006354D03*
X0102164Y0006354D03*
X0102164Y0039819D03*
X0102164Y0051630D03*
X0102164Y0069346D03*
X0102164Y0102811D03*
X0102164Y0114622D03*
X0061479Y0114622D03*
X0061479Y0102811D03*
X0061479Y0069346D03*
X0061479Y0051630D03*
X0061479Y0039819D03*
X0061479Y0006354D03*
X0020798Y0006354D03*
X0020798Y0039819D03*
X0020798Y0051630D03*
X0020798Y0069346D03*
X0020798Y0102811D03*
X0020798Y0114622D03*
X0027491Y0163835D03*
X0027491Y0175646D03*
X0027491Y0209110D03*
X0027491Y0285882D03*
X0027491Y0297693D03*
X0027491Y0331157D03*
D15*
X0051133Y0323992D03*
X0084007Y0324366D03*
D16*
X0074007Y0324366D03*
X0061133Y0323992D03*
D17*
X0056479Y0130055D03*
X0066479Y0130055D03*
X0097164Y0130055D03*
X0107164Y0130055D03*
X0137845Y0130055D03*
X0147845Y0130055D03*
X0025798Y0130055D03*
X0015798Y0130055D03*
D18*
X0006231Y0114228D02*
X0006231Y0057929D01*
X0006233Y0057813D01*
X0006239Y0057697D01*
X0006248Y0057582D01*
X0006261Y0057467D01*
X0006278Y0057352D01*
X0006299Y0057238D01*
X0006324Y0057124D01*
X0006352Y0057012D01*
X0006384Y0056901D01*
X0006419Y0056790D01*
X0006458Y0056681D01*
X0006501Y0056573D01*
X0006547Y0056467D01*
X0006596Y0056362D01*
X0006649Y0056259D01*
X0006706Y0056157D01*
X0006765Y0056058D01*
X0006828Y0055961D01*
X0006894Y0055865D01*
X0006963Y0055772D01*
X0007035Y0055681D01*
X0007110Y0055593D01*
X0007188Y0055507D01*
X0007269Y0055424D01*
X0007352Y0055343D01*
X0007438Y0055265D01*
X0007526Y0055190D01*
X0007617Y0055118D01*
X0007710Y0055049D01*
X0007806Y0054983D01*
X0007903Y0054920D01*
X0008003Y0054861D01*
X0008104Y0054804D01*
X0008207Y0054751D01*
X0008312Y0054702D01*
X0008418Y0054656D01*
X0008526Y0054613D01*
X0008635Y0054574D01*
X0008746Y0054539D01*
X0008857Y0054507D01*
X0008969Y0054479D01*
X0009083Y0054454D01*
X0009197Y0054433D01*
X0009312Y0054416D01*
X0009427Y0054403D01*
X0009542Y0054394D01*
X0009658Y0054388D01*
X0009774Y0054386D01*
X0017255Y0059898D02*
X0033396Y0059898D01*
X0056625Y0059898D01*
X0056679Y0059900D01*
X0056732Y0059905D01*
X0056785Y0059914D01*
X0056837Y0059927D01*
X0056889Y0059943D01*
X0056939Y0059963D01*
X0056987Y0059986D01*
X0057034Y0060013D01*
X0057079Y0060042D01*
X0057122Y0060075D01*
X0057162Y0060110D01*
X0057200Y0060148D01*
X0057235Y0060188D01*
X0057268Y0060231D01*
X0057297Y0060276D01*
X0057324Y0060323D01*
X0057347Y0060371D01*
X0057367Y0060421D01*
X0057383Y0060473D01*
X0057396Y0060525D01*
X0057405Y0060578D01*
X0057410Y0060631D01*
X0057412Y0060685D01*
X0089696Y0060685D01*
X0089799Y0060687D01*
X0089902Y0060693D01*
X0090005Y0060702D01*
X0090107Y0060716D01*
X0090208Y0060733D01*
X0090309Y0060754D01*
X0090409Y0060779D01*
X0090508Y0060807D01*
X0090606Y0060840D01*
X0090703Y0060876D01*
X0090798Y0060915D01*
X0090892Y0060958D01*
X0090984Y0061004D01*
X0091074Y0061054D01*
X0091162Y0061107D01*
X0091249Y0061164D01*
X0091333Y0061224D01*
X0091414Y0061286D01*
X0091494Y0061352D01*
X0091571Y0061421D01*
X0091645Y0061492D01*
X0091716Y0061566D01*
X0091785Y0061643D01*
X0091851Y0061723D01*
X0091913Y0061804D01*
X0091973Y0061888D01*
X0092030Y0061975D01*
X0092083Y0062063D01*
X0092133Y0062153D01*
X0092179Y0062245D01*
X0092222Y0062339D01*
X0092261Y0062434D01*
X0092297Y0062531D01*
X0092330Y0062629D01*
X0092358Y0062728D01*
X0092383Y0062828D01*
X0092404Y0062929D01*
X0092421Y0063030D01*
X0092435Y0063132D01*
X0092444Y0063235D01*
X0092450Y0063338D01*
X0092452Y0063441D01*
X0130247Y0063441D01*
X0140483Y0053992D02*
X0104526Y0053992D01*
X0104431Y0053990D01*
X0104336Y0053984D01*
X0104241Y0053975D01*
X0104147Y0053961D01*
X0104054Y0053944D01*
X0103961Y0053923D01*
X0103869Y0053899D01*
X0103778Y0053870D01*
X0103688Y0053839D01*
X0103600Y0053803D01*
X0103513Y0053764D01*
X0103428Y0053721D01*
X0103345Y0053676D01*
X0103264Y0053626D01*
X0103184Y0053574D01*
X0103107Y0053518D01*
X0103032Y0053460D01*
X0102960Y0053398D01*
X0102890Y0053333D01*
X0102823Y0053266D01*
X0102758Y0053196D01*
X0102696Y0053124D01*
X0102638Y0053049D01*
X0102582Y0052972D01*
X0102530Y0052892D01*
X0102480Y0052811D01*
X0102435Y0052728D01*
X0102392Y0052643D01*
X0102353Y0052556D01*
X0102317Y0052468D01*
X0102286Y0052378D01*
X0102257Y0052287D01*
X0102233Y0052195D01*
X0102212Y0052102D01*
X0102195Y0052009D01*
X0102181Y0051915D01*
X0102172Y0051820D01*
X0102166Y0051725D01*
X0102164Y0051630D01*
X0102162Y0051761D01*
X0102156Y0051891D01*
X0102146Y0052022D01*
X0102132Y0052152D01*
X0102115Y0052282D01*
X0102093Y0052411D01*
X0102068Y0052539D01*
X0102038Y0052666D01*
X0102005Y0052793D01*
X0101968Y0052918D01*
X0101927Y0053043D01*
X0101883Y0053166D01*
X0101834Y0053287D01*
X0101782Y0053407D01*
X0101727Y0053526D01*
X0101668Y0053643D01*
X0101605Y0053758D01*
X0101539Y0053871D01*
X0101470Y0053982D01*
X0101397Y0054090D01*
X0101321Y0054197D01*
X0101242Y0054301D01*
X0101160Y0054403D01*
X0101075Y0054502D01*
X0100987Y0054599D01*
X0100895Y0054692D01*
X0100802Y0054784D01*
X0100705Y0054872D01*
X0100606Y0054957D01*
X0100504Y0055039D01*
X0100400Y0055118D01*
X0100293Y0055194D01*
X0100185Y0055267D01*
X0100074Y0055336D01*
X0099961Y0055402D01*
X0099846Y0055465D01*
X0099729Y0055524D01*
X0099610Y0055579D01*
X0099490Y0055631D01*
X0099369Y0055680D01*
X0099246Y0055724D01*
X0099121Y0055765D01*
X0098996Y0055802D01*
X0098869Y0055835D01*
X0098742Y0055865D01*
X0098614Y0055890D01*
X0098485Y0055912D01*
X0098355Y0055929D01*
X0098225Y0055943D01*
X0098094Y0055953D01*
X0097964Y0055959D01*
X0097833Y0055961D01*
X0065810Y0055961D01*
X0065679Y0055959D01*
X0065549Y0055953D01*
X0065418Y0055943D01*
X0065288Y0055929D01*
X0065158Y0055912D01*
X0065029Y0055890D01*
X0064901Y0055865D01*
X0064774Y0055835D01*
X0064647Y0055802D01*
X0064522Y0055765D01*
X0064397Y0055724D01*
X0064274Y0055680D01*
X0064153Y0055631D01*
X0064033Y0055579D01*
X0063914Y0055524D01*
X0063797Y0055465D01*
X0063682Y0055402D01*
X0063569Y0055336D01*
X0063458Y0055267D01*
X0063350Y0055194D01*
X0063243Y0055118D01*
X0063139Y0055039D01*
X0063037Y0054957D01*
X0062938Y0054872D01*
X0062841Y0054784D01*
X0062748Y0054692D01*
X0062656Y0054599D01*
X0062568Y0054502D01*
X0062483Y0054403D01*
X0062401Y0054301D01*
X0062322Y0054197D01*
X0062246Y0054090D01*
X0062173Y0053982D01*
X0062104Y0053871D01*
X0062038Y0053758D01*
X0061975Y0053643D01*
X0061916Y0053526D01*
X0061861Y0053407D01*
X0061809Y0053287D01*
X0061760Y0053166D01*
X0061716Y0053043D01*
X0061675Y0052918D01*
X0061638Y0052793D01*
X0061605Y0052666D01*
X0061575Y0052539D01*
X0061550Y0052411D01*
X0061528Y0052282D01*
X0061511Y0052152D01*
X0061497Y0052022D01*
X0061487Y0051891D01*
X0061481Y0051761D01*
X0061479Y0051630D01*
X0061477Y0051761D01*
X0061471Y0051891D01*
X0061461Y0052022D01*
X0061447Y0052152D01*
X0061430Y0052282D01*
X0061408Y0052411D01*
X0061383Y0052539D01*
X0061353Y0052666D01*
X0061320Y0052793D01*
X0061283Y0052918D01*
X0061242Y0053043D01*
X0061198Y0053166D01*
X0061149Y0053287D01*
X0061097Y0053407D01*
X0061042Y0053526D01*
X0060983Y0053643D01*
X0060920Y0053758D01*
X0060854Y0053871D01*
X0060785Y0053982D01*
X0060712Y0054090D01*
X0060636Y0054197D01*
X0060557Y0054301D01*
X0060475Y0054403D01*
X0060390Y0054502D01*
X0060302Y0054599D01*
X0060210Y0054692D01*
X0060117Y0054784D01*
X0060020Y0054872D01*
X0059921Y0054957D01*
X0059819Y0055039D01*
X0059715Y0055118D01*
X0059608Y0055194D01*
X0059500Y0055267D01*
X0059389Y0055336D01*
X0059276Y0055402D01*
X0059161Y0055465D01*
X0059044Y0055524D01*
X0058925Y0055579D01*
X0058805Y0055631D01*
X0058684Y0055680D01*
X0058561Y0055724D01*
X0058436Y0055765D01*
X0058311Y0055802D01*
X0058184Y0055835D01*
X0058057Y0055865D01*
X0057929Y0055890D01*
X0057800Y0055912D01*
X0057670Y0055929D01*
X0057540Y0055943D01*
X0057409Y0055953D01*
X0057279Y0055959D01*
X0057148Y0055961D01*
X0025129Y0055961D01*
X0024998Y0055959D01*
X0024868Y0055953D01*
X0024737Y0055943D01*
X0024607Y0055929D01*
X0024477Y0055912D01*
X0024348Y0055890D01*
X0024220Y0055865D01*
X0024093Y0055835D01*
X0023966Y0055802D01*
X0023841Y0055765D01*
X0023716Y0055724D01*
X0023593Y0055680D01*
X0023472Y0055631D01*
X0023352Y0055579D01*
X0023233Y0055524D01*
X0023116Y0055465D01*
X0023001Y0055402D01*
X0022888Y0055336D01*
X0022777Y0055267D01*
X0022669Y0055194D01*
X0022562Y0055118D01*
X0022458Y0055039D01*
X0022356Y0054957D01*
X0022257Y0054872D01*
X0022160Y0054784D01*
X0022067Y0054692D01*
X0021975Y0054599D01*
X0021887Y0054502D01*
X0021802Y0054403D01*
X0021720Y0054301D01*
X0021641Y0054197D01*
X0021565Y0054090D01*
X0021492Y0053982D01*
X0021423Y0053871D01*
X0021357Y0053758D01*
X0021294Y0053643D01*
X0021235Y0053526D01*
X0021180Y0053407D01*
X0021128Y0053287D01*
X0021079Y0053166D01*
X0021035Y0053043D01*
X0020994Y0052918D01*
X0020957Y0052793D01*
X0020924Y0052666D01*
X0020894Y0052539D01*
X0020869Y0052411D01*
X0020847Y0052282D01*
X0020830Y0052152D01*
X0020816Y0052022D01*
X0020806Y0051891D01*
X0020800Y0051761D01*
X0020798Y0051630D01*
X0031034Y0135882D02*
X0055444Y0135882D01*
X0060652Y0135882D01*
X0060805Y0135880D01*
X0060957Y0135874D01*
X0061109Y0135864D01*
X0061261Y0135850D01*
X0061413Y0135832D01*
X0061564Y0135810D01*
X0061714Y0135784D01*
X0061864Y0135755D01*
X0062012Y0135721D01*
X0062160Y0135683D01*
X0062307Y0135642D01*
X0062453Y0135597D01*
X0062597Y0135548D01*
X0062740Y0135495D01*
X0062882Y0135438D01*
X0063022Y0135378D01*
X0063161Y0135314D01*
X0063297Y0135247D01*
X0063432Y0135176D01*
X0063566Y0135101D01*
X0063697Y0135023D01*
X0063826Y0134942D01*
X0063952Y0134857D01*
X0064077Y0134769D01*
X0064199Y0134678D01*
X0064319Y0134583D01*
X0064436Y0134486D01*
X0064551Y0134385D01*
X0064663Y0134282D01*
X0064772Y0134175D01*
X0064879Y0134066D01*
X0064982Y0133954D01*
X0065083Y0133839D01*
X0065180Y0133722D01*
X0065275Y0133602D01*
X0065366Y0133480D01*
X0065454Y0133355D01*
X0065539Y0133229D01*
X0065620Y0133100D01*
X0065698Y0132969D01*
X0065773Y0132835D01*
X0065844Y0132700D01*
X0065911Y0132564D01*
X0065975Y0132425D01*
X0066035Y0132285D01*
X0066092Y0132143D01*
X0066145Y0132000D01*
X0066194Y0131856D01*
X0066239Y0131710D01*
X0066280Y0131563D01*
X0066318Y0131415D01*
X0066352Y0131267D01*
X0066381Y0131117D01*
X0066407Y0130967D01*
X0066429Y0130816D01*
X0066447Y0130664D01*
X0066461Y0130512D01*
X0066471Y0130360D01*
X0066477Y0130208D01*
X0066479Y0130055D01*
X0077570Y0130055D01*
X0077777Y0130058D01*
X0077985Y0130065D01*
X0078192Y0130078D01*
X0078398Y0130095D01*
X0078605Y0130118D01*
X0078810Y0130145D01*
X0079015Y0130178D01*
X0079219Y0130215D01*
X0079422Y0130257D01*
X0079624Y0130304D01*
X0079825Y0130356D01*
X0080024Y0130413D01*
X0080222Y0130475D01*
X0080419Y0130542D01*
X0080614Y0130613D01*
X0080807Y0130689D01*
X0080998Y0130769D01*
X0081187Y0130854D01*
X0081374Y0130944D01*
X0081559Y0131038D01*
X0081741Y0131137D01*
X0081921Y0131240D01*
X0082099Y0131347D01*
X0082274Y0131459D01*
X0082446Y0131574D01*
X0082615Y0131694D01*
X0082781Y0131818D01*
X0082945Y0131946D01*
X0083105Y0132078D01*
X0083262Y0132214D01*
X0083415Y0132353D01*
X0083565Y0132496D01*
X0083712Y0132643D01*
X0083855Y0132793D01*
X0083994Y0132946D01*
X0084130Y0133103D01*
X0084262Y0133263D01*
X0084390Y0133427D01*
X0084514Y0133593D01*
X0084634Y0133762D01*
X0084749Y0133934D01*
X0084861Y0134109D01*
X0084968Y0134287D01*
X0085071Y0134467D01*
X0085170Y0134649D01*
X0085264Y0134834D01*
X0085354Y0135021D01*
X0085439Y0135210D01*
X0085519Y0135401D01*
X0085595Y0135594D01*
X0085666Y0135789D01*
X0085733Y0135986D01*
X0085795Y0136184D01*
X0085852Y0136383D01*
X0085904Y0136584D01*
X0085951Y0136786D01*
X0085993Y0136989D01*
X0086030Y0137193D01*
X0086063Y0137398D01*
X0086090Y0137603D01*
X0086113Y0137810D01*
X0086130Y0138016D01*
X0086143Y0138223D01*
X0086150Y0138431D01*
X0086153Y0138638D01*
X0086152Y0138638D02*
X0086152Y0148087D01*
X0085759Y0151354D02*
X0085759Y0154780D01*
X0085759Y0151354D02*
X0098849Y0151354D01*
X0098849Y0151355D02*
X0098882Y0151357D01*
X0098915Y0151362D01*
X0098946Y0151372D01*
X0098977Y0151384D01*
X0099006Y0151400D01*
X0099033Y0151419D01*
X0099058Y0151441D01*
X0099080Y0151466D01*
X0099099Y0151493D01*
X0099115Y0151522D01*
X0099127Y0151553D01*
X0099137Y0151584D01*
X0099142Y0151617D01*
X0099144Y0151650D01*
X0099144Y0158323D01*
X0099145Y0158323D02*
X0099147Y0158345D01*
X0099151Y0158367D01*
X0099159Y0158388D01*
X0099170Y0158408D01*
X0099183Y0158426D01*
X0099199Y0158442D01*
X0099217Y0158455D01*
X0099237Y0158466D01*
X0099258Y0158474D01*
X0099280Y0158478D01*
X0099302Y0158480D01*
X0153830Y0158480D01*
X0153830Y0158481D02*
X0153840Y0158482D01*
X0153850Y0158486D01*
X0153858Y0158492D01*
X0153864Y0158501D01*
X0153868Y0158510D01*
X0153869Y0158520D01*
X0153869Y0162260D01*
X0129459Y0098087D02*
X0129459Y0089819D01*
X0129461Y0089688D01*
X0129467Y0089558D01*
X0129477Y0089427D01*
X0129491Y0089297D01*
X0129508Y0089167D01*
X0129530Y0089038D01*
X0129555Y0088910D01*
X0129585Y0088783D01*
X0129618Y0088656D01*
X0129655Y0088531D01*
X0129696Y0088406D01*
X0129740Y0088283D01*
X0129789Y0088162D01*
X0129841Y0088042D01*
X0129896Y0087923D01*
X0129955Y0087806D01*
X0130018Y0087691D01*
X0130084Y0087578D01*
X0130153Y0087467D01*
X0130226Y0087359D01*
X0130302Y0087252D01*
X0130381Y0087148D01*
X0130463Y0087046D01*
X0130548Y0086947D01*
X0130636Y0086850D01*
X0130728Y0086757D01*
X0130821Y0086665D01*
X0130918Y0086577D01*
X0131017Y0086492D01*
X0131119Y0086410D01*
X0131223Y0086331D01*
X0131330Y0086255D01*
X0131438Y0086182D01*
X0131549Y0086113D01*
X0131662Y0086047D01*
X0131777Y0085984D01*
X0131894Y0085925D01*
X0132013Y0085870D01*
X0132133Y0085818D01*
X0132254Y0085769D01*
X0132377Y0085725D01*
X0132502Y0085684D01*
X0132627Y0085647D01*
X0132754Y0085614D01*
X0132881Y0085584D01*
X0133009Y0085559D01*
X0133138Y0085537D01*
X0133268Y0085520D01*
X0133398Y0085506D01*
X0133529Y0085496D01*
X0133659Y0085490D01*
X0133790Y0085488D01*
X0144814Y0085488D01*
X0144961Y0085486D01*
X0145107Y0085480D01*
X0145254Y0085470D01*
X0145400Y0085457D01*
X0145546Y0085439D01*
X0145691Y0085418D01*
X0145835Y0085393D01*
X0145979Y0085363D01*
X0146122Y0085331D01*
X0146264Y0085294D01*
X0146405Y0085253D01*
X0146545Y0085209D01*
X0146684Y0085161D01*
X0146821Y0085110D01*
X0146957Y0085054D01*
X0147092Y0084995D01*
X0147224Y0084933D01*
X0147356Y0084867D01*
X0147485Y0084798D01*
X0147612Y0084725D01*
X0147738Y0084649D01*
X0147861Y0084569D01*
X0147982Y0084486D01*
X0148101Y0084401D01*
X0148218Y0084311D01*
X0148332Y0084219D01*
X0148444Y0084124D01*
X0148553Y0084026D01*
X0148659Y0083925D01*
X0148763Y0083821D01*
X0148864Y0083715D01*
X0148962Y0083606D01*
X0149057Y0083494D01*
X0149149Y0083380D01*
X0149239Y0083263D01*
X0149324Y0083144D01*
X0149407Y0083023D01*
X0149487Y0082900D01*
X0149563Y0082774D01*
X0149636Y0082647D01*
X0149705Y0082518D01*
X0149771Y0082386D01*
X0149833Y0082254D01*
X0149892Y0082119D01*
X0149948Y0081983D01*
X0149999Y0081846D01*
X0150047Y0081707D01*
X0150091Y0081567D01*
X0150132Y0081426D01*
X0150169Y0081284D01*
X0150201Y0081141D01*
X0150231Y0080997D01*
X0150256Y0080853D01*
X0150277Y0080708D01*
X0150295Y0080562D01*
X0150308Y0080416D01*
X0150318Y0080269D01*
X0150324Y0080123D01*
X0150326Y0079976D01*
X0150326Y0053992D01*
X0150325Y0053992D02*
X0150323Y0053897D01*
X0150317Y0053802D01*
X0150308Y0053707D01*
X0150294Y0053613D01*
X0150277Y0053520D01*
X0150256Y0053427D01*
X0150232Y0053335D01*
X0150203Y0053244D01*
X0150172Y0053154D01*
X0150136Y0053066D01*
X0150097Y0052979D01*
X0150054Y0052894D01*
X0150009Y0052811D01*
X0149959Y0052730D01*
X0149907Y0052650D01*
X0149851Y0052573D01*
X0149793Y0052498D01*
X0149731Y0052426D01*
X0149666Y0052356D01*
X0149599Y0052289D01*
X0149529Y0052224D01*
X0149457Y0052162D01*
X0149382Y0052104D01*
X0149305Y0052048D01*
X0149225Y0051996D01*
X0149144Y0051946D01*
X0149061Y0051901D01*
X0148976Y0051858D01*
X0148889Y0051819D01*
X0148801Y0051783D01*
X0148711Y0051752D01*
X0148620Y0051723D01*
X0148528Y0051699D01*
X0148435Y0051678D01*
X0148342Y0051661D01*
X0148248Y0051647D01*
X0148153Y0051638D01*
X0148058Y0051632D01*
X0147963Y0051630D01*
X0142845Y0051630D01*
X0145995Y0051630D01*
X0142845Y0051630D02*
X0142843Y0051725D01*
X0142837Y0051820D01*
X0142828Y0051915D01*
X0142814Y0052009D01*
X0142797Y0052102D01*
X0142776Y0052195D01*
X0142752Y0052287D01*
X0142723Y0052378D01*
X0142692Y0052468D01*
X0142656Y0052556D01*
X0142617Y0052643D01*
X0142574Y0052728D01*
X0142529Y0052811D01*
X0142479Y0052892D01*
X0142427Y0052972D01*
X0142371Y0053049D01*
X0142313Y0053124D01*
X0142251Y0053196D01*
X0142186Y0053266D01*
X0142119Y0053333D01*
X0142049Y0053398D01*
X0141977Y0053460D01*
X0141902Y0053518D01*
X0141825Y0053574D01*
X0141745Y0053626D01*
X0141664Y0053676D01*
X0141581Y0053721D01*
X0141496Y0053764D01*
X0141409Y0053803D01*
X0141321Y0053839D01*
X0141231Y0053870D01*
X0141140Y0053899D01*
X0141048Y0053923D01*
X0140955Y0053944D01*
X0140862Y0053961D01*
X0140768Y0053975D01*
X0140673Y0053984D01*
X0140578Y0053990D01*
X0140483Y0053992D01*
X0129460Y0098087D02*
X0129455Y0098477D01*
X0129441Y0098867D01*
X0129418Y0099256D01*
X0129385Y0099645D01*
X0129342Y0100033D01*
X0129291Y0100419D01*
X0129230Y0100805D01*
X0129159Y0101188D01*
X0129080Y0101570D01*
X0128991Y0101950D01*
X0128893Y0102328D01*
X0128786Y0102703D01*
X0128670Y0103075D01*
X0128545Y0103445D01*
X0128411Y0103811D01*
X0128268Y0104174D01*
X0128117Y0104534D01*
X0127957Y0104889D01*
X0127788Y0105241D01*
X0127611Y0105589D01*
X0127426Y0105932D01*
X0127232Y0106270D01*
X0127030Y0106604D01*
X0126820Y0106933D01*
X0126603Y0107257D01*
X0126377Y0107575D01*
X0126144Y0107888D01*
X0125904Y0108195D01*
X0125656Y0108496D01*
X0125400Y0108791D01*
X0125138Y0109080D01*
X0124869Y0109362D01*
X0124593Y0109638D01*
X0124311Y0109907D01*
X0124022Y0110169D01*
X0123727Y0110425D01*
X0123426Y0110673D01*
X0123119Y0110913D01*
X0122806Y0111146D01*
X0122488Y0111372D01*
X0122164Y0111589D01*
X0121835Y0111799D01*
X0121501Y0112001D01*
X0121163Y0112195D01*
X0120820Y0112380D01*
X0120472Y0112557D01*
X0120120Y0112726D01*
X0119765Y0112886D01*
X0119405Y0113037D01*
X0119042Y0113180D01*
X0118676Y0113314D01*
X0118306Y0113439D01*
X0117934Y0113555D01*
X0117559Y0113662D01*
X0117181Y0113760D01*
X0116801Y0113849D01*
X0116419Y0113928D01*
X0116036Y0113999D01*
X0115650Y0114060D01*
X0115264Y0114111D01*
X0114876Y0114154D01*
X0114487Y0114187D01*
X0114098Y0114210D01*
X0113708Y0114224D01*
X0113318Y0114229D01*
X0113318Y0114228D02*
X0102558Y0114228D01*
X0102519Y0114230D01*
X0102481Y0114236D01*
X0102444Y0114245D01*
X0102407Y0114258D01*
X0102372Y0114275D01*
X0102339Y0114294D01*
X0102308Y0114317D01*
X0102279Y0114343D01*
X0102253Y0114372D01*
X0102230Y0114403D01*
X0102211Y0114436D01*
X0102194Y0114471D01*
X0102181Y0114508D01*
X0102172Y0114545D01*
X0102166Y0114583D01*
X0102164Y0114622D01*
X0107164Y0130055D02*
X0107164Y0137457D01*
X0087333Y0137457D01*
X0087267Y0137459D01*
X0087201Y0137464D01*
X0087135Y0137474D01*
X0087070Y0137487D01*
X0087006Y0137503D01*
X0086943Y0137523D01*
X0086881Y0137547D01*
X0086821Y0137574D01*
X0086762Y0137604D01*
X0086705Y0137638D01*
X0086650Y0137675D01*
X0086597Y0137715D01*
X0086546Y0137757D01*
X0086498Y0137803D01*
X0086452Y0137851D01*
X0086410Y0137902D01*
X0086370Y0137955D01*
X0086333Y0138010D01*
X0086299Y0138067D01*
X0086269Y0138126D01*
X0086242Y0138186D01*
X0086218Y0138248D01*
X0086198Y0138311D01*
X0086182Y0138375D01*
X0086169Y0138440D01*
X0086159Y0138506D01*
X0086154Y0138572D01*
X0086152Y0138638D01*
X0085759Y0151354D02*
X0052353Y0151354D01*
X0052267Y0151356D01*
X0052181Y0151361D01*
X0052096Y0151371D01*
X0052011Y0151384D01*
X0051927Y0151401D01*
X0051843Y0151421D01*
X0051761Y0151445D01*
X0051680Y0151473D01*
X0051599Y0151504D01*
X0051521Y0151538D01*
X0051444Y0151576D01*
X0051369Y0151618D01*
X0051295Y0151662D01*
X0051224Y0151710D01*
X0051154Y0151761D01*
X0051087Y0151815D01*
X0051023Y0151871D01*
X0050961Y0151931D01*
X0050901Y0151993D01*
X0050845Y0152057D01*
X0050791Y0152124D01*
X0050740Y0152194D01*
X0050692Y0152265D01*
X0050648Y0152339D01*
X0050606Y0152414D01*
X0050568Y0152491D01*
X0050534Y0152569D01*
X0050503Y0152650D01*
X0050475Y0152731D01*
X0050451Y0152813D01*
X0050431Y0152897D01*
X0050414Y0152981D01*
X0050401Y0153066D01*
X0050391Y0153151D01*
X0050386Y0153237D01*
X0050384Y0153323D01*
X0050385Y0153323D02*
X0029735Y0153323D01*
X0029224Y0153329D01*
X0028714Y0153348D01*
X0028204Y0153379D01*
X0027695Y0153422D01*
X0027187Y0153477D01*
X0026680Y0153545D01*
X0026176Y0153625D01*
X0025673Y0153717D01*
X0025173Y0153821D01*
X0024675Y0153937D01*
X0024181Y0154066D01*
X0023690Y0154206D01*
X0023202Y0154358D01*
X0022718Y0154522D01*
X0022238Y0154697D01*
X0021762Y0154884D01*
X0021292Y0155082D01*
X0020826Y0155292D01*
X0020365Y0155513D01*
X0019910Y0155745D01*
X0019460Y0155988D01*
X0019017Y0156241D01*
X0018580Y0156506D01*
X0018149Y0156780D01*
X0017725Y0157065D01*
X0017308Y0157361D01*
X0016898Y0157666D01*
X0016496Y0157981D01*
X0016102Y0158306D01*
X0015715Y0158640D01*
X0015337Y0158983D01*
X0014967Y0159336D01*
X0014606Y0159697D01*
X0014253Y0160067D01*
X0013910Y0160445D01*
X0013576Y0160832D01*
X0013251Y0161226D01*
X0012936Y0161628D01*
X0012631Y0162038D01*
X0012335Y0162455D01*
X0012050Y0162879D01*
X0011776Y0163310D01*
X0011511Y0163747D01*
X0011258Y0164190D01*
X0011015Y0164640D01*
X0010783Y0165095D01*
X0010562Y0165556D01*
X0010352Y0166022D01*
X0010154Y0166492D01*
X0009967Y0166968D01*
X0009792Y0167448D01*
X0009628Y0167932D01*
X0009476Y0168420D01*
X0009336Y0168911D01*
X0009207Y0169405D01*
X0009091Y0169903D01*
X0008987Y0170403D01*
X0008895Y0170906D01*
X0008815Y0171410D01*
X0008747Y0171917D01*
X0008692Y0172425D01*
X0008649Y0172934D01*
X0008618Y0173444D01*
X0008599Y0173954D01*
X0008593Y0174465D01*
X0008593Y0235488D01*
X0008595Y0235635D01*
X0008601Y0235781D01*
X0008611Y0235928D01*
X0008624Y0236074D01*
X0008642Y0236220D01*
X0008663Y0236365D01*
X0008688Y0236509D01*
X0008718Y0236653D01*
X0008750Y0236796D01*
X0008787Y0236938D01*
X0008828Y0237079D01*
X0008872Y0237219D01*
X0008920Y0237358D01*
X0008971Y0237495D01*
X0009027Y0237631D01*
X0009086Y0237766D01*
X0009148Y0237898D01*
X0009214Y0238030D01*
X0009283Y0238159D01*
X0009356Y0238286D01*
X0009432Y0238412D01*
X0009512Y0238535D01*
X0009595Y0238656D01*
X0009680Y0238775D01*
X0009770Y0238892D01*
X0009862Y0239006D01*
X0009957Y0239118D01*
X0010055Y0239227D01*
X0010156Y0239333D01*
X0010260Y0239437D01*
X0010366Y0239538D01*
X0010475Y0239636D01*
X0010587Y0239731D01*
X0010701Y0239823D01*
X0010818Y0239913D01*
X0010937Y0239998D01*
X0011058Y0240081D01*
X0011181Y0240161D01*
X0011307Y0240237D01*
X0011434Y0240310D01*
X0011563Y0240379D01*
X0011695Y0240445D01*
X0011827Y0240507D01*
X0011962Y0240566D01*
X0012098Y0240622D01*
X0012235Y0240673D01*
X0012374Y0240721D01*
X0012514Y0240765D01*
X0012655Y0240806D01*
X0012797Y0240843D01*
X0012940Y0240875D01*
X0013084Y0240905D01*
X0013228Y0240930D01*
X0013373Y0240951D01*
X0013519Y0240969D01*
X0013665Y0240982D01*
X0013812Y0240992D01*
X0013958Y0240998D01*
X0014105Y0241000D01*
X0014305Y0241002D01*
X0014504Y0241010D01*
X0014704Y0241022D01*
X0014903Y0241039D01*
X0015102Y0241060D01*
X0015300Y0241087D01*
X0015497Y0241118D01*
X0015694Y0241154D01*
X0015889Y0241195D01*
X0016084Y0241240D01*
X0016277Y0241290D01*
X0016469Y0241345D01*
X0016660Y0241405D01*
X0016849Y0241469D01*
X0017037Y0241537D01*
X0017223Y0241610D01*
X0017407Y0241688D01*
X0017589Y0241770D01*
X0017769Y0241856D01*
X0017947Y0241947D01*
X0018123Y0242042D01*
X0018297Y0242141D01*
X0018468Y0242245D01*
X0018636Y0242352D01*
X0018802Y0242464D01*
X0018965Y0242579D01*
X0019125Y0242698D01*
X0019282Y0242822D01*
X0019437Y0242949D01*
X0019588Y0243079D01*
X0019736Y0243214D01*
X0019880Y0243351D01*
X0020022Y0243493D01*
X0020159Y0243637D01*
X0020294Y0243785D01*
X0020424Y0243936D01*
X0020551Y0244091D01*
X0020675Y0244248D01*
X0020794Y0244408D01*
X0020909Y0244571D01*
X0021021Y0244737D01*
X0021128Y0244905D01*
X0021232Y0245076D01*
X0021331Y0245250D01*
X0021426Y0245426D01*
X0021517Y0245604D01*
X0021603Y0245784D01*
X0021685Y0245966D01*
X0021763Y0246150D01*
X0021836Y0246336D01*
X0021904Y0246524D01*
X0021968Y0246713D01*
X0022028Y0246904D01*
X0022083Y0247096D01*
X0022133Y0247289D01*
X0022178Y0247484D01*
X0022219Y0247679D01*
X0022255Y0247876D01*
X0022286Y0248073D01*
X0022313Y0248271D01*
X0022334Y0248470D01*
X0022351Y0248669D01*
X0022363Y0248869D01*
X0022371Y0249068D01*
X0022373Y0249268D01*
X0022373Y0260291D01*
X0022372Y0260291D02*
X0022370Y0260426D01*
X0022364Y0260561D01*
X0022355Y0260695D01*
X0022341Y0260829D01*
X0022324Y0260963D01*
X0022303Y0261097D01*
X0022278Y0261229D01*
X0022249Y0261361D01*
X0022217Y0261492D01*
X0022181Y0261622D01*
X0022141Y0261751D01*
X0022097Y0261878D01*
X0022050Y0262005D01*
X0021999Y0262130D01*
X0021945Y0262253D01*
X0021887Y0262375D01*
X0021826Y0262496D01*
X0021761Y0262614D01*
X0021693Y0262730D01*
X0021622Y0262845D01*
X0021548Y0262957D01*
X0021470Y0263068D01*
X0021389Y0263176D01*
X0021305Y0263281D01*
X0021218Y0263385D01*
X0021128Y0263485D01*
X0021036Y0263583D01*
X0020940Y0263679D01*
X0020842Y0263771D01*
X0020742Y0263861D01*
X0020638Y0263948D01*
X0020533Y0264032D01*
X0020425Y0264113D01*
X0020314Y0264191D01*
X0020202Y0264265D01*
X0020087Y0264336D01*
X0019971Y0264404D01*
X0019853Y0264469D01*
X0019732Y0264530D01*
X0019610Y0264588D01*
X0019487Y0264642D01*
X0019362Y0264693D01*
X0019235Y0264740D01*
X0019108Y0264784D01*
X0018979Y0264824D01*
X0018849Y0264860D01*
X0018718Y0264892D01*
X0018586Y0264921D01*
X0018454Y0264946D01*
X0018320Y0264967D01*
X0018186Y0264984D01*
X0018052Y0264998D01*
X0017918Y0265007D01*
X0017783Y0265013D01*
X0017648Y0265015D01*
X0017648Y0265016D02*
X0014499Y0265016D01*
X0014375Y0265018D01*
X0014252Y0265024D01*
X0014128Y0265033D01*
X0014006Y0265047D01*
X0013883Y0265064D01*
X0013761Y0265086D01*
X0013640Y0265111D01*
X0013520Y0265140D01*
X0013401Y0265172D01*
X0013282Y0265209D01*
X0013165Y0265249D01*
X0013050Y0265292D01*
X0012935Y0265340D01*
X0012823Y0265391D01*
X0012712Y0265445D01*
X0012602Y0265503D01*
X0012495Y0265564D01*
X0012389Y0265629D01*
X0012286Y0265697D01*
X0012185Y0265768D01*
X0012086Y0265842D01*
X0011989Y0265919D01*
X0011895Y0266000D01*
X0011804Y0266083D01*
X0011715Y0266169D01*
X0011629Y0266258D01*
X0011546Y0266349D01*
X0011465Y0266443D01*
X0011388Y0266540D01*
X0011314Y0266639D01*
X0011243Y0266740D01*
X0011175Y0266843D01*
X0011110Y0266949D01*
X0011049Y0267056D01*
X0010991Y0267166D01*
X0010937Y0267277D01*
X0010886Y0267389D01*
X0010838Y0267504D01*
X0010795Y0267619D01*
X0010755Y0267736D01*
X0010718Y0267855D01*
X0010686Y0267974D01*
X0010657Y0268094D01*
X0010632Y0268215D01*
X0010610Y0268337D01*
X0010593Y0268460D01*
X0010579Y0268582D01*
X0010570Y0268706D01*
X0010564Y0268829D01*
X0010562Y0268953D01*
X0010562Y0303598D01*
X0010564Y0303798D01*
X0010572Y0303997D01*
X0010584Y0304197D01*
X0010601Y0304396D01*
X0010622Y0304595D01*
X0010649Y0304793D01*
X0010680Y0304990D01*
X0010716Y0305187D01*
X0010757Y0305382D01*
X0010802Y0305577D01*
X0010852Y0305770D01*
X0010907Y0305962D01*
X0010967Y0306153D01*
X0011031Y0306342D01*
X0011099Y0306530D01*
X0011172Y0306716D01*
X0011250Y0306900D01*
X0011332Y0307082D01*
X0011418Y0307262D01*
X0011509Y0307440D01*
X0011604Y0307616D01*
X0011703Y0307790D01*
X0011807Y0307961D01*
X0011914Y0308129D01*
X0012026Y0308295D01*
X0012141Y0308458D01*
X0012260Y0308618D01*
X0012384Y0308775D01*
X0012511Y0308930D01*
X0012641Y0309081D01*
X0012776Y0309229D01*
X0012913Y0309373D01*
X0013055Y0309515D01*
X0013199Y0309652D01*
X0013347Y0309787D01*
X0013498Y0309917D01*
X0013653Y0310044D01*
X0013810Y0310168D01*
X0013970Y0310287D01*
X0014133Y0310402D01*
X0014299Y0310514D01*
X0014467Y0310621D01*
X0014638Y0310725D01*
X0014812Y0310824D01*
X0014988Y0310919D01*
X0015166Y0311010D01*
X0015346Y0311096D01*
X0015528Y0311178D01*
X0015712Y0311256D01*
X0015898Y0311329D01*
X0016086Y0311397D01*
X0016275Y0311461D01*
X0016466Y0311521D01*
X0016658Y0311576D01*
X0016851Y0311626D01*
X0017046Y0311671D01*
X0017241Y0311712D01*
X0017438Y0311748D01*
X0017635Y0311779D01*
X0017833Y0311806D01*
X0018032Y0311827D01*
X0018231Y0311844D01*
X0018431Y0311856D01*
X0018630Y0311864D01*
X0018830Y0311866D01*
X0034184Y0311866D01*
X0034315Y0311868D01*
X0034445Y0311874D01*
X0034576Y0311884D01*
X0034706Y0311898D01*
X0034836Y0311915D01*
X0034965Y0311937D01*
X0035093Y0311962D01*
X0035220Y0311992D01*
X0035347Y0312025D01*
X0035472Y0312062D01*
X0035597Y0312103D01*
X0035720Y0312147D01*
X0035841Y0312196D01*
X0035961Y0312248D01*
X0036080Y0312303D01*
X0036197Y0312362D01*
X0036312Y0312425D01*
X0036425Y0312491D01*
X0036536Y0312560D01*
X0036644Y0312633D01*
X0036751Y0312709D01*
X0036855Y0312788D01*
X0036957Y0312870D01*
X0037056Y0312955D01*
X0037153Y0313043D01*
X0037246Y0313135D01*
X0037338Y0313228D01*
X0037426Y0313325D01*
X0037511Y0313424D01*
X0037593Y0313526D01*
X0037672Y0313630D01*
X0037748Y0313737D01*
X0037821Y0313845D01*
X0037890Y0313956D01*
X0037956Y0314069D01*
X0038019Y0314184D01*
X0038078Y0314301D01*
X0038133Y0314420D01*
X0038185Y0314540D01*
X0038234Y0314661D01*
X0038278Y0314784D01*
X0038319Y0314909D01*
X0038356Y0315034D01*
X0038389Y0315161D01*
X0038419Y0315288D01*
X0038444Y0315416D01*
X0038466Y0315545D01*
X0038483Y0315675D01*
X0038497Y0315805D01*
X0038507Y0315936D01*
X0038513Y0316066D01*
X0038515Y0316197D01*
X0038515Y0326827D01*
X0038514Y0326827D02*
X0038518Y0327150D01*
X0038530Y0327474D01*
X0038549Y0327797D01*
X0038576Y0328119D01*
X0038612Y0328441D01*
X0038654Y0328761D01*
X0038705Y0329081D01*
X0038763Y0329399D01*
X0038829Y0329715D01*
X0038903Y0330030D01*
X0038984Y0330344D01*
X0039073Y0330655D01*
X0039169Y0330964D01*
X0039273Y0331270D01*
X0039384Y0331574D01*
X0039502Y0331875D01*
X0039628Y0332173D01*
X0039761Y0332468D01*
X0039900Y0332760D01*
X0040047Y0333048D01*
X0040201Y0333332D01*
X0040362Y0333613D01*
X0040529Y0333890D01*
X0040703Y0334163D01*
X0040884Y0334431D01*
X0041070Y0334695D01*
X0041264Y0334954D01*
X0041463Y0335209D01*
X0041669Y0335459D01*
X0041880Y0335704D01*
X0042098Y0335943D01*
X0042321Y0336177D01*
X0042550Y0336406D01*
X0042784Y0336629D01*
X0043023Y0336847D01*
X0043268Y0337058D01*
X0043518Y0337264D01*
X0043773Y0337463D01*
X0044032Y0337657D01*
X0044296Y0337843D01*
X0044564Y0338024D01*
X0044837Y0338198D01*
X0045114Y0338365D01*
X0045395Y0338526D01*
X0045679Y0338680D01*
X0045967Y0338827D01*
X0046259Y0338966D01*
X0046554Y0339099D01*
X0046852Y0339225D01*
X0047153Y0339343D01*
X0047457Y0339454D01*
X0047763Y0339558D01*
X0048072Y0339654D01*
X0048383Y0339743D01*
X0048697Y0339824D01*
X0049012Y0339898D01*
X0049328Y0339964D01*
X0049646Y0340022D01*
X0049966Y0340073D01*
X0050286Y0340115D01*
X0050608Y0340151D01*
X0050930Y0340178D01*
X0051253Y0340197D01*
X0051577Y0340209D01*
X0051900Y0340213D01*
X0058692Y0331551D02*
X0076822Y0331551D01*
X0078278Y0315016D02*
X0078744Y0315022D01*
X0079210Y0315039D01*
X0079675Y0315067D01*
X0080140Y0315106D01*
X0080603Y0315157D01*
X0081065Y0315218D01*
X0081526Y0315291D01*
X0081984Y0315375D01*
X0082441Y0315470D01*
X0082895Y0315577D01*
X0083346Y0315694D01*
X0083794Y0315821D01*
X0084239Y0315960D01*
X0084681Y0316110D01*
X0085119Y0316270D01*
X0085553Y0316440D01*
X0085982Y0316621D01*
X0086407Y0316812D01*
X0086828Y0317014D01*
X0087243Y0317226D01*
X0087653Y0317447D01*
X0088058Y0317679D01*
X0088457Y0317920D01*
X0088850Y0318171D01*
X0089237Y0318431D01*
X0089617Y0318700D01*
X0089991Y0318979D01*
X0090358Y0319266D01*
X0090718Y0319563D01*
X0091070Y0319867D01*
X0091415Y0320181D01*
X0091753Y0320502D01*
X0092083Y0320832D01*
X0092404Y0321170D01*
X0092718Y0321515D01*
X0093022Y0321867D01*
X0093319Y0322227D01*
X0093606Y0322594D01*
X0093885Y0322968D01*
X0094154Y0323348D01*
X0094414Y0323735D01*
X0094665Y0324128D01*
X0094906Y0324527D01*
X0095138Y0324932D01*
X0095359Y0325342D01*
X0095571Y0325757D01*
X0095773Y0326178D01*
X0095964Y0326603D01*
X0096145Y0327032D01*
X0096315Y0327466D01*
X0096475Y0327904D01*
X0096625Y0328346D01*
X0096764Y0328791D01*
X0096891Y0329239D01*
X0097008Y0329690D01*
X0097115Y0330144D01*
X0097210Y0330601D01*
X0097294Y0331059D01*
X0097367Y0331520D01*
X0097428Y0331982D01*
X0097479Y0332445D01*
X0097518Y0332910D01*
X0097546Y0333375D01*
X0097563Y0333841D01*
X0097569Y0334307D01*
X0084007Y0324366D02*
X0084014Y0324939D01*
X0084035Y0325512D01*
X0084069Y0326084D01*
X0084118Y0326655D01*
X0084180Y0327225D01*
X0084256Y0327793D01*
X0084346Y0328359D01*
X0084449Y0328923D01*
X0084566Y0329484D01*
X0084696Y0330043D01*
X0084840Y0330597D01*
X0084997Y0331149D01*
X0085168Y0331696D01*
X0085352Y0332239D01*
X0085548Y0332777D01*
X0085758Y0333311D01*
X0085981Y0333839D01*
X0086216Y0334362D01*
X0086464Y0334879D01*
X0086724Y0335389D01*
X0086996Y0335894D01*
X0087281Y0336391D01*
X0087578Y0336882D01*
X0087886Y0337365D01*
X0088206Y0337840D01*
X0088537Y0338308D01*
X0088880Y0338768D01*
X0089233Y0339219D01*
X0089597Y0339662D01*
X0089972Y0340095D01*
X0090358Y0340520D01*
X0090753Y0340935D01*
X0091158Y0341340D01*
X0091573Y0341735D01*
X0091998Y0342121D01*
X0092431Y0342496D01*
X0092874Y0342860D01*
X0093325Y0343213D01*
X0093785Y0343556D01*
X0094253Y0343887D01*
X0094728Y0344207D01*
X0095211Y0344515D01*
X0095702Y0344812D01*
X0096199Y0345097D01*
X0096704Y0345369D01*
X0097214Y0345629D01*
X0097731Y0345877D01*
X0098254Y0346112D01*
X0098782Y0346335D01*
X0099316Y0346545D01*
X0099854Y0346741D01*
X0100397Y0346925D01*
X0100944Y0347096D01*
X0101496Y0347253D01*
X0102050Y0347397D01*
X0102609Y0347527D01*
X0103170Y0347644D01*
X0103734Y0347747D01*
X0104300Y0347837D01*
X0104868Y0347913D01*
X0105438Y0347975D01*
X0106009Y0348024D01*
X0106581Y0348058D01*
X0107154Y0348079D01*
X0107727Y0348086D01*
X0107727Y0348087D02*
X0126310Y0348087D01*
X0127885Y0297693D02*
X0136152Y0297693D01*
X0127885Y0297693D02*
X0127685Y0297691D01*
X0127486Y0297683D01*
X0127286Y0297671D01*
X0127087Y0297654D01*
X0126888Y0297633D01*
X0126690Y0297606D01*
X0126493Y0297575D01*
X0126296Y0297539D01*
X0126101Y0297498D01*
X0125906Y0297453D01*
X0125713Y0297403D01*
X0125521Y0297348D01*
X0125330Y0297288D01*
X0125141Y0297224D01*
X0124953Y0297156D01*
X0124767Y0297083D01*
X0124583Y0297005D01*
X0124401Y0296923D01*
X0124221Y0296837D01*
X0124043Y0296746D01*
X0123867Y0296651D01*
X0123693Y0296552D01*
X0123522Y0296448D01*
X0123354Y0296341D01*
X0123188Y0296229D01*
X0123025Y0296114D01*
X0122865Y0295995D01*
X0122708Y0295871D01*
X0122553Y0295744D01*
X0122402Y0295614D01*
X0122254Y0295479D01*
X0122110Y0295342D01*
X0121968Y0295200D01*
X0121831Y0295056D01*
X0121696Y0294908D01*
X0121566Y0294757D01*
X0121439Y0294602D01*
X0121315Y0294445D01*
X0121196Y0294285D01*
X0121081Y0294122D01*
X0120969Y0293956D01*
X0120862Y0293788D01*
X0120758Y0293617D01*
X0120659Y0293443D01*
X0120564Y0293267D01*
X0120473Y0293089D01*
X0120387Y0292909D01*
X0120305Y0292727D01*
X0120227Y0292543D01*
X0120154Y0292357D01*
X0120086Y0292169D01*
X0120022Y0291980D01*
X0119962Y0291789D01*
X0119907Y0291597D01*
X0119857Y0291404D01*
X0119812Y0291209D01*
X0119771Y0291014D01*
X0119735Y0290817D01*
X0119704Y0290620D01*
X0119677Y0290422D01*
X0119656Y0290223D01*
X0119639Y0290024D01*
X0119627Y0289824D01*
X0119619Y0289625D01*
X0119617Y0289425D01*
X0126310Y0226039D02*
X0126304Y0225582D01*
X0126288Y0225126D01*
X0126260Y0224670D01*
X0126222Y0224215D01*
X0126172Y0223761D01*
X0126112Y0223308D01*
X0126040Y0222857D01*
X0125958Y0222408D01*
X0125865Y0221961D01*
X0125761Y0221516D01*
X0125646Y0221074D01*
X0125521Y0220635D01*
X0125385Y0220199D01*
X0125239Y0219767D01*
X0125082Y0219338D01*
X0124915Y0218913D01*
X0124738Y0218492D01*
X0124550Y0218075D01*
X0124353Y0217664D01*
X0124145Y0217257D01*
X0123928Y0216855D01*
X0123702Y0216458D01*
X0123465Y0216068D01*
X0123220Y0215683D01*
X0122965Y0215304D01*
X0122701Y0214931D01*
X0122428Y0214565D01*
X0122146Y0214205D01*
X0121856Y0213853D01*
X0121557Y0213507D01*
X0121250Y0213169D01*
X0120935Y0212839D01*
X0120612Y0212516D01*
X0120282Y0212201D01*
X0119944Y0211894D01*
X0119598Y0211595D01*
X0119246Y0211305D01*
X0118886Y0211023D01*
X0118520Y0210750D01*
X0118147Y0210486D01*
X0117768Y0210231D01*
X0117383Y0209986D01*
X0116993Y0209749D01*
X0116596Y0209523D01*
X0116194Y0209306D01*
X0115787Y0209098D01*
X0115376Y0208901D01*
X0114959Y0208713D01*
X0114538Y0208536D01*
X0114113Y0208369D01*
X0113684Y0208212D01*
X0113252Y0208066D01*
X0112816Y0207930D01*
X0112377Y0207805D01*
X0111935Y0207690D01*
X0111490Y0207586D01*
X0111043Y0207493D01*
X0110594Y0207411D01*
X0110143Y0207339D01*
X0109690Y0207279D01*
X0109236Y0207229D01*
X0108781Y0207191D01*
X0108325Y0207163D01*
X0107869Y0207147D01*
X0107412Y0207141D01*
X0107412Y0207142D02*
X0081822Y0207142D01*
X0081822Y0204780D01*
X0081821Y0204779D02*
X0081855Y0204748D01*
X0081891Y0204720D01*
X0081930Y0204695D01*
X0081970Y0204673D01*
X0082013Y0204654D01*
X0082056Y0204639D01*
X0082101Y0204628D01*
X0082146Y0204620D01*
X0082192Y0204616D01*
X0082238Y0204616D01*
X0082284Y0204620D01*
X0082329Y0204628D01*
X0082374Y0204639D01*
X0082417Y0204654D01*
X0082460Y0204673D01*
X0082500Y0204695D01*
X0082539Y0204720D01*
X0082575Y0204748D01*
X0082609Y0204779D01*
X0081822Y0207142D02*
X0058593Y0207142D01*
X0058593Y0207141D02*
X0058445Y0207143D01*
X0058297Y0207149D01*
X0058150Y0207158D01*
X0058002Y0207172D01*
X0057856Y0207189D01*
X0057709Y0207211D01*
X0057563Y0207236D01*
X0057418Y0207264D01*
X0057274Y0207297D01*
X0057131Y0207334D01*
X0056988Y0207374D01*
X0056847Y0207418D01*
X0056707Y0207465D01*
X0056568Y0207516D01*
X0056431Y0207571D01*
X0056295Y0207629D01*
X0056161Y0207691D01*
X0056028Y0207757D01*
X0055897Y0207826D01*
X0055768Y0207898D01*
X0055641Y0207974D01*
X0055516Y0208053D01*
X0055393Y0208135D01*
X0055272Y0208220D01*
X0055153Y0208309D01*
X0055037Y0208400D01*
X0054924Y0208495D01*
X0054812Y0208592D01*
X0054704Y0208693D01*
X0054598Y0208796D01*
X0054495Y0208902D01*
X0054394Y0209010D01*
X0054297Y0209122D01*
X0054202Y0209235D01*
X0054111Y0209351D01*
X0054022Y0209470D01*
X0053937Y0209591D01*
X0053855Y0209714D01*
X0053776Y0209839D01*
X0053700Y0209966D01*
X0053628Y0210095D01*
X0053559Y0210226D01*
X0053493Y0210359D01*
X0053431Y0210493D01*
X0053373Y0210629D01*
X0053318Y0210766D01*
X0053267Y0210905D01*
X0053220Y0211045D01*
X0053176Y0211186D01*
X0053136Y0211329D01*
X0053099Y0211472D01*
X0053066Y0211616D01*
X0053038Y0211761D01*
X0053013Y0211907D01*
X0052991Y0212054D01*
X0052974Y0212200D01*
X0052960Y0212348D01*
X0052951Y0212495D01*
X0052945Y0212643D01*
X0052943Y0212791D01*
X0052944Y0212791D02*
X0052944Y0215409D01*
X0044813Y0209504D02*
X0044816Y0209238D01*
X0044826Y0208971D01*
X0044842Y0208705D01*
X0044864Y0208440D01*
X0044893Y0208175D01*
X0044929Y0207911D01*
X0044970Y0207648D01*
X0045018Y0207386D01*
X0045073Y0207125D01*
X0045133Y0206866D01*
X0045200Y0206608D01*
X0045273Y0206352D01*
X0045353Y0206097D01*
X0045438Y0205845D01*
X0045529Y0205595D01*
X0045627Y0205347D01*
X0045730Y0205101D01*
X0045840Y0204858D01*
X0045955Y0204618D01*
X0046076Y0204381D01*
X0046202Y0204147D01*
X0046335Y0203915D01*
X0046472Y0203687D01*
X0046616Y0203463D01*
X0046764Y0203242D01*
X0046918Y0203024D01*
X0047078Y0202811D01*
X0047242Y0202601D01*
X0047411Y0202395D01*
X0047585Y0202194D01*
X0047764Y0201996D01*
X0047948Y0201804D01*
X0048137Y0201615D01*
X0048329Y0201431D01*
X0048527Y0201252D01*
X0048728Y0201078D01*
X0048934Y0200909D01*
X0049144Y0200745D01*
X0049357Y0200585D01*
X0049575Y0200431D01*
X0049796Y0200283D01*
X0050020Y0200139D01*
X0050248Y0200002D01*
X0050480Y0199869D01*
X0050714Y0199743D01*
X0050951Y0199622D01*
X0051191Y0199507D01*
X0051434Y0199397D01*
X0051680Y0199294D01*
X0051928Y0199196D01*
X0052178Y0199105D01*
X0052430Y0199020D01*
X0052685Y0198940D01*
X0052941Y0198867D01*
X0053199Y0198800D01*
X0053458Y0198740D01*
X0053719Y0198685D01*
X0053981Y0198637D01*
X0054244Y0198596D01*
X0054508Y0198560D01*
X0054773Y0198531D01*
X0055038Y0198509D01*
X0055304Y0198493D01*
X0055571Y0198483D01*
X0055837Y0198480D01*
X0067255Y0198480D01*
X0071585Y0190213D02*
X0088515Y0190213D01*
X0088515Y0190212D02*
X0088715Y0190214D01*
X0088914Y0190222D01*
X0089114Y0190234D01*
X0089313Y0190251D01*
X0089512Y0190272D01*
X0089710Y0190299D01*
X0089907Y0190330D01*
X0090104Y0190366D01*
X0090299Y0190407D01*
X0090494Y0190452D01*
X0090687Y0190502D01*
X0090879Y0190557D01*
X0091070Y0190617D01*
X0091259Y0190681D01*
X0091447Y0190749D01*
X0091633Y0190822D01*
X0091817Y0190900D01*
X0091999Y0190982D01*
X0092179Y0191068D01*
X0092357Y0191159D01*
X0092533Y0191254D01*
X0092707Y0191353D01*
X0092878Y0191457D01*
X0093046Y0191564D01*
X0093212Y0191676D01*
X0093375Y0191791D01*
X0093535Y0191910D01*
X0093692Y0192034D01*
X0093847Y0192161D01*
X0093998Y0192291D01*
X0094146Y0192426D01*
X0094290Y0192563D01*
X0094432Y0192705D01*
X0094569Y0192849D01*
X0094704Y0192997D01*
X0094834Y0193148D01*
X0094961Y0193303D01*
X0095085Y0193460D01*
X0095204Y0193620D01*
X0095319Y0193783D01*
X0095431Y0193949D01*
X0095538Y0194117D01*
X0095642Y0194288D01*
X0095741Y0194462D01*
X0095836Y0194638D01*
X0095927Y0194816D01*
X0096013Y0194996D01*
X0096095Y0195178D01*
X0096173Y0195362D01*
X0096246Y0195548D01*
X0096314Y0195736D01*
X0096378Y0195925D01*
X0096438Y0196116D01*
X0096493Y0196308D01*
X0096543Y0196501D01*
X0096588Y0196696D01*
X0096629Y0196891D01*
X0096665Y0197088D01*
X0096696Y0197285D01*
X0096723Y0197483D01*
X0096744Y0197682D01*
X0096761Y0197881D01*
X0096773Y0198081D01*
X0096781Y0198280D01*
X0096783Y0198480D01*
X0103869Y0145725D02*
X0103980Y0145730D01*
X0104091Y0145731D01*
X0104201Y0145728D01*
X0104312Y0145721D01*
X0104422Y0145710D01*
X0104532Y0145696D01*
X0104642Y0145677D01*
X0104750Y0145655D01*
X0104858Y0145628D01*
X0104964Y0145598D01*
X0105070Y0145564D01*
X0105174Y0145527D01*
X0105277Y0145485D01*
X0105378Y0145440D01*
X0105478Y0145391D01*
X0105576Y0145339D01*
X0105672Y0145284D01*
X0105765Y0145225D01*
X0105857Y0145162D01*
X0105946Y0145097D01*
X0106033Y0145028D01*
X0106118Y0144956D01*
X0106200Y0144882D01*
X0106279Y0144804D01*
X0106355Y0144724D01*
X0106429Y0144641D01*
X0106499Y0144555D01*
X0106566Y0144467D01*
X0106631Y0144377D01*
X0106691Y0144284D01*
X0106749Y0144189D01*
X0106803Y0144092D01*
X0106854Y0143994D01*
X0106901Y0143893D01*
X0106944Y0143791D01*
X0106984Y0143688D01*
X0107020Y0143583D01*
X0107052Y0143477D01*
X0107081Y0143370D01*
X0107105Y0143262D01*
X0107126Y0143153D01*
X0107143Y0143043D01*
X0107156Y0142933D01*
X0107165Y0142823D01*
X0107164Y0142823D02*
X0107164Y0137457D01*
X0071585Y0190213D02*
X0035562Y0190213D01*
X0035418Y0190211D01*
X0035274Y0190205D01*
X0035131Y0190195D01*
X0034987Y0190182D01*
X0034844Y0190164D01*
X0034702Y0190143D01*
X0034560Y0190118D01*
X0034419Y0190089D01*
X0034279Y0190056D01*
X0034140Y0190019D01*
X0034002Y0189979D01*
X0033865Y0189935D01*
X0033729Y0189887D01*
X0033595Y0189836D01*
X0033462Y0189780D01*
X0033330Y0189722D01*
X0033200Y0189660D01*
X0033072Y0189594D01*
X0032946Y0189525D01*
X0032822Y0189452D01*
X0032700Y0189376D01*
X0032579Y0189297D01*
X0032461Y0189215D01*
X0032345Y0189129D01*
X0032232Y0189041D01*
X0032121Y0188949D01*
X0032013Y0188854D01*
X0031907Y0188757D01*
X0031804Y0188656D01*
X0031703Y0188553D01*
X0031606Y0188447D01*
X0031511Y0188339D01*
X0031419Y0188228D01*
X0031331Y0188115D01*
X0031245Y0187999D01*
X0031163Y0187881D01*
X0031084Y0187760D01*
X0031008Y0187638D01*
X0030935Y0187514D01*
X0030866Y0187388D01*
X0030800Y0187260D01*
X0030738Y0187130D01*
X0030680Y0186998D01*
X0030624Y0186865D01*
X0030573Y0186731D01*
X0030525Y0186595D01*
X0030481Y0186458D01*
X0030441Y0186320D01*
X0030404Y0186181D01*
X0030371Y0186041D01*
X0030342Y0185900D01*
X0030317Y0185758D01*
X0030296Y0185616D01*
X0030278Y0185473D01*
X0030265Y0185329D01*
X0030255Y0185186D01*
X0030249Y0185042D01*
X0030247Y0184898D01*
X0030247Y0178402D01*
X0030245Y0178299D01*
X0030239Y0178196D01*
X0030230Y0178093D01*
X0030216Y0177991D01*
X0030199Y0177890D01*
X0030178Y0177789D01*
X0030153Y0177689D01*
X0030125Y0177590D01*
X0030092Y0177492D01*
X0030056Y0177395D01*
X0030017Y0177300D01*
X0029974Y0177206D01*
X0029928Y0177114D01*
X0029878Y0177024D01*
X0029825Y0176936D01*
X0029768Y0176849D01*
X0029708Y0176765D01*
X0029646Y0176684D01*
X0029580Y0176604D01*
X0029511Y0176527D01*
X0029440Y0176453D01*
X0029366Y0176382D01*
X0029289Y0176313D01*
X0029209Y0176247D01*
X0029128Y0176185D01*
X0029044Y0176125D01*
X0028957Y0176068D01*
X0028869Y0176015D01*
X0028779Y0175965D01*
X0028687Y0175919D01*
X0028593Y0175876D01*
X0028498Y0175837D01*
X0028401Y0175801D01*
X0028303Y0175768D01*
X0028204Y0175740D01*
X0028104Y0175715D01*
X0028003Y0175694D01*
X0027902Y0175677D01*
X0027800Y0175663D01*
X0027697Y0175654D01*
X0027594Y0175648D01*
X0027491Y0175646D01*
X0044814Y0209504D02*
X0044814Y0241000D01*
X0044812Y0241086D01*
X0044807Y0241172D01*
X0044797Y0241257D01*
X0044784Y0241342D01*
X0044767Y0241426D01*
X0044747Y0241510D01*
X0044723Y0241592D01*
X0044695Y0241673D01*
X0044664Y0241754D01*
X0044630Y0241832D01*
X0044592Y0241909D01*
X0044550Y0241985D01*
X0044506Y0242058D01*
X0044458Y0242129D01*
X0044407Y0242199D01*
X0044353Y0242266D01*
X0044297Y0242330D01*
X0044237Y0242392D01*
X0044175Y0242452D01*
X0044111Y0242508D01*
X0044044Y0242562D01*
X0043974Y0242613D01*
X0043903Y0242661D01*
X0043830Y0242705D01*
X0043754Y0242747D01*
X0043677Y0242785D01*
X0043599Y0242819D01*
X0043518Y0242850D01*
X0043437Y0242878D01*
X0043355Y0242902D01*
X0043271Y0242922D01*
X0043187Y0242939D01*
X0043102Y0242952D01*
X0043017Y0242962D01*
X0042931Y0242967D01*
X0042845Y0242969D01*
X0037333Y0226039D02*
X0037333Y0218953D01*
X0037334Y0218953D02*
X0037331Y0218715D01*
X0037323Y0218477D01*
X0037308Y0218240D01*
X0037288Y0218003D01*
X0037262Y0217767D01*
X0037231Y0217531D01*
X0037194Y0217296D01*
X0037151Y0217062D01*
X0037102Y0216829D01*
X0037048Y0216597D01*
X0036988Y0216367D01*
X0036923Y0216138D01*
X0036852Y0215911D01*
X0036776Y0215686D01*
X0036694Y0215463D01*
X0036607Y0215241D01*
X0036515Y0215022D01*
X0036417Y0214805D01*
X0036315Y0214591D01*
X0036207Y0214379D01*
X0036093Y0214169D01*
X0035975Y0213963D01*
X0035852Y0213759D01*
X0035724Y0213559D01*
X0035592Y0213362D01*
X0035454Y0213167D01*
X0035312Y0212977D01*
X0035165Y0212789D01*
X0035014Y0212606D01*
X0034859Y0212426D01*
X0034699Y0212250D01*
X0034535Y0212078D01*
X0034366Y0211909D01*
X0034194Y0211745D01*
X0034018Y0211585D01*
X0033838Y0211430D01*
X0033655Y0211279D01*
X0033467Y0211132D01*
X0033277Y0210990D01*
X0033082Y0210852D01*
X0032885Y0210720D01*
X0032685Y0210592D01*
X0032481Y0210469D01*
X0032275Y0210351D01*
X0032065Y0210237D01*
X0031853Y0210129D01*
X0031639Y0210027D01*
X0031422Y0209929D01*
X0031203Y0209837D01*
X0030981Y0209750D01*
X0030758Y0209668D01*
X0030533Y0209592D01*
X0030306Y0209521D01*
X0030077Y0209456D01*
X0029847Y0209396D01*
X0029615Y0209342D01*
X0029382Y0209293D01*
X0029148Y0209250D01*
X0028913Y0209213D01*
X0028677Y0209182D01*
X0028441Y0209156D01*
X0028204Y0209136D01*
X0027967Y0209121D01*
X0027729Y0209113D01*
X0027491Y0209110D01*
X0050326Y0160291D02*
X0050326Y0153382D01*
X0050327Y0153369D01*
X0050332Y0153356D01*
X0050339Y0153345D01*
X0050348Y0153336D01*
X0050359Y0153329D01*
X0050372Y0153324D01*
X0050385Y0153323D01*
X0055837Y0146906D02*
X0055837Y0136276D01*
X0055838Y0136276D02*
X0055836Y0136237D01*
X0055830Y0136199D01*
X0055821Y0136162D01*
X0055808Y0136125D01*
X0055791Y0136090D01*
X0055772Y0136057D01*
X0055749Y0136026D01*
X0055723Y0135997D01*
X0055694Y0135971D01*
X0055663Y0135948D01*
X0055630Y0135929D01*
X0055595Y0135912D01*
X0055558Y0135899D01*
X0055521Y0135890D01*
X0055483Y0135884D01*
X0055444Y0135882D01*
X0071585Y0040213D02*
X0071585Y0022496D01*
X0055444Y0237909D02*
X0055444Y0267378D01*
X0055444Y0271315D01*
X0064893Y0261866D02*
X0064893Y0247693D01*
X0064893Y0261866D02*
X0064895Y0261982D01*
X0064901Y0262098D01*
X0064910Y0262213D01*
X0064923Y0262328D01*
X0064940Y0262443D01*
X0064961Y0262557D01*
X0064986Y0262671D01*
X0065014Y0262783D01*
X0065046Y0262894D01*
X0065081Y0263005D01*
X0065120Y0263114D01*
X0065163Y0263222D01*
X0065209Y0263328D01*
X0065258Y0263433D01*
X0065311Y0263536D01*
X0065368Y0263638D01*
X0065427Y0263737D01*
X0065490Y0263834D01*
X0065556Y0263930D01*
X0065625Y0264023D01*
X0065697Y0264114D01*
X0065772Y0264202D01*
X0065850Y0264288D01*
X0065931Y0264371D01*
X0066014Y0264452D01*
X0066100Y0264530D01*
X0066188Y0264605D01*
X0066279Y0264677D01*
X0066372Y0264746D01*
X0066468Y0264812D01*
X0066565Y0264875D01*
X0066665Y0264934D01*
X0066766Y0264991D01*
X0066869Y0265044D01*
X0066974Y0265093D01*
X0067080Y0265139D01*
X0067188Y0265182D01*
X0067297Y0265221D01*
X0067408Y0265256D01*
X0067519Y0265288D01*
X0067631Y0265316D01*
X0067745Y0265341D01*
X0067859Y0265362D01*
X0067974Y0265379D01*
X0068089Y0265392D01*
X0068204Y0265401D01*
X0068320Y0265407D01*
X0068436Y0265409D01*
X0068436Y0265410D02*
X0068778Y0265414D01*
X0069121Y0265427D01*
X0069463Y0265447D01*
X0069804Y0265476D01*
X0070144Y0265513D01*
X0070484Y0265559D01*
X0070822Y0265612D01*
X0071159Y0265674D01*
X0071494Y0265744D01*
X0071828Y0265822D01*
X0072159Y0265908D01*
X0072489Y0266002D01*
X0072816Y0266104D01*
X0073140Y0266213D01*
X0073462Y0266331D01*
X0073781Y0266456D01*
X0074096Y0266589D01*
X0074409Y0266730D01*
X0074717Y0266878D01*
X0075023Y0267033D01*
X0075324Y0267196D01*
X0075621Y0267366D01*
X0075914Y0267543D01*
X0076203Y0267728D01*
X0076487Y0267919D01*
X0076767Y0268117D01*
X0077041Y0268321D01*
X0077311Y0268533D01*
X0077575Y0268750D01*
X0077834Y0268974D01*
X0078088Y0269205D01*
X0078336Y0269441D01*
X0078578Y0269683D01*
X0078814Y0269931D01*
X0079045Y0270185D01*
X0079269Y0270444D01*
X0079486Y0270708D01*
X0079698Y0270978D01*
X0079902Y0271252D01*
X0080100Y0271532D01*
X0080291Y0271816D01*
X0080476Y0272105D01*
X0080653Y0272398D01*
X0080823Y0272695D01*
X0080986Y0272996D01*
X0081141Y0273302D01*
X0081289Y0273610D01*
X0081430Y0273923D01*
X0081563Y0274238D01*
X0081688Y0274557D01*
X0081806Y0274879D01*
X0081915Y0275203D01*
X0082017Y0275530D01*
X0082111Y0275860D01*
X0082197Y0276191D01*
X0082275Y0276525D01*
X0082345Y0276860D01*
X0082407Y0277197D01*
X0082460Y0277535D01*
X0082506Y0277875D01*
X0082543Y0278215D01*
X0082572Y0278556D01*
X0082592Y0278898D01*
X0082605Y0279241D01*
X0082609Y0279583D01*
X0082609Y0305961D01*
X0082609Y0305960D02*
X0082478Y0305962D01*
X0082348Y0305968D01*
X0082217Y0305978D01*
X0082087Y0305992D01*
X0081957Y0306009D01*
X0081828Y0306031D01*
X0081700Y0306056D01*
X0081573Y0306086D01*
X0081446Y0306119D01*
X0081321Y0306156D01*
X0081196Y0306197D01*
X0081073Y0306241D01*
X0080952Y0306290D01*
X0080832Y0306342D01*
X0080713Y0306397D01*
X0080596Y0306456D01*
X0080481Y0306519D01*
X0080368Y0306585D01*
X0080257Y0306654D01*
X0080149Y0306727D01*
X0080042Y0306803D01*
X0079938Y0306882D01*
X0079836Y0306964D01*
X0079737Y0307049D01*
X0079640Y0307137D01*
X0079547Y0307229D01*
X0079455Y0307322D01*
X0079367Y0307419D01*
X0079282Y0307518D01*
X0079200Y0307620D01*
X0079121Y0307724D01*
X0079045Y0307831D01*
X0078972Y0307939D01*
X0078903Y0308050D01*
X0078837Y0308163D01*
X0078774Y0308278D01*
X0078715Y0308395D01*
X0078660Y0308514D01*
X0078608Y0308634D01*
X0078559Y0308755D01*
X0078515Y0308878D01*
X0078474Y0309003D01*
X0078437Y0309128D01*
X0078404Y0309255D01*
X0078374Y0309382D01*
X0078349Y0309510D01*
X0078327Y0309639D01*
X0078310Y0309769D01*
X0078296Y0309899D01*
X0078286Y0310030D01*
X0078280Y0310160D01*
X0078278Y0310291D01*
X0078278Y0315016D01*
X0069617Y0315016D01*
X0069412Y0315018D01*
X0069207Y0315026D01*
X0069002Y0315038D01*
X0068798Y0315056D01*
X0068594Y0315078D01*
X0068391Y0315105D01*
X0068189Y0315137D01*
X0067987Y0315174D01*
X0067786Y0315216D01*
X0067587Y0315263D01*
X0067388Y0315314D01*
X0067191Y0315370D01*
X0066995Y0315431D01*
X0066801Y0315497D01*
X0066609Y0315567D01*
X0066418Y0315642D01*
X0066229Y0315722D01*
X0066042Y0315806D01*
X0065857Y0315895D01*
X0065674Y0315988D01*
X0065494Y0316085D01*
X0065316Y0316187D01*
X0065141Y0316293D01*
X0064968Y0316403D01*
X0064798Y0316518D01*
X0064630Y0316636D01*
X0064466Y0316759D01*
X0064304Y0316885D01*
X0064146Y0317016D01*
X0063991Y0317150D01*
X0063839Y0317287D01*
X0063691Y0317429D01*
X0063546Y0317574D01*
X0063404Y0317722D01*
X0063267Y0317874D01*
X0063133Y0318029D01*
X0063002Y0318187D01*
X0062876Y0318349D01*
X0062753Y0318513D01*
X0062635Y0318681D01*
X0062520Y0318851D01*
X0062410Y0319024D01*
X0062304Y0319199D01*
X0062202Y0319377D01*
X0062105Y0319557D01*
X0062012Y0319740D01*
X0061923Y0319925D01*
X0061839Y0320112D01*
X0061759Y0320301D01*
X0061684Y0320492D01*
X0061614Y0320684D01*
X0061548Y0320878D01*
X0061487Y0321074D01*
X0061431Y0321271D01*
X0061380Y0321470D01*
X0061333Y0321669D01*
X0061291Y0321870D01*
X0061254Y0322072D01*
X0061222Y0322274D01*
X0061195Y0322477D01*
X0061173Y0322681D01*
X0061155Y0322885D01*
X0061143Y0323090D01*
X0061135Y0323295D01*
X0061133Y0323500D01*
X0061133Y0323992D01*
X0058692Y0331551D02*
X0058509Y0331549D01*
X0058327Y0331542D01*
X0058144Y0331531D01*
X0057962Y0331516D01*
X0057781Y0331496D01*
X0057600Y0331472D01*
X0057419Y0331443D01*
X0057240Y0331410D01*
X0057061Y0331373D01*
X0056883Y0331331D01*
X0056706Y0331285D01*
X0056531Y0331235D01*
X0056356Y0331181D01*
X0056183Y0331122D01*
X0056012Y0331060D01*
X0055842Y0330993D01*
X0055673Y0330922D01*
X0055507Y0330847D01*
X0055342Y0330768D01*
X0055179Y0330685D01*
X0055018Y0330598D01*
X0054860Y0330508D01*
X0054704Y0330413D01*
X0054550Y0330315D01*
X0054398Y0330213D01*
X0054249Y0330107D01*
X0054102Y0329998D01*
X0053959Y0329886D01*
X0053818Y0329769D01*
X0053679Y0329650D01*
X0053544Y0329527D01*
X0053412Y0329401D01*
X0053283Y0329272D01*
X0053157Y0329140D01*
X0053034Y0329005D01*
X0052915Y0328866D01*
X0052798Y0328725D01*
X0052686Y0328582D01*
X0052577Y0328435D01*
X0052471Y0328286D01*
X0052369Y0328134D01*
X0052271Y0327980D01*
X0052176Y0327824D01*
X0052086Y0327666D01*
X0051999Y0327505D01*
X0051916Y0327342D01*
X0051837Y0327177D01*
X0051762Y0327011D01*
X0051691Y0326842D01*
X0051624Y0326672D01*
X0051562Y0326501D01*
X0051503Y0326328D01*
X0051449Y0326153D01*
X0051399Y0325978D01*
X0051353Y0325801D01*
X0051311Y0325623D01*
X0051274Y0325444D01*
X0051241Y0325265D01*
X0051212Y0325084D01*
X0051188Y0324903D01*
X0051168Y0324722D01*
X0051153Y0324540D01*
X0051142Y0324357D01*
X0051135Y0324175D01*
X0051133Y0323992D01*
X0071546Y0377220D02*
X0081546Y0377220D01*
X0091172Y0377220D01*
X0091546Y0377220D01*
X0091664Y0377220D01*
X0091664Y0386669D01*
X0091546Y0387220D02*
X0081546Y0387220D01*
X0081330Y0387220D01*
X0071546Y0387220D01*
X0071546Y0377220D01*
X0076822Y0331551D02*
X0076996Y0331549D01*
X0077169Y0331543D01*
X0077342Y0331532D01*
X0077515Y0331517D01*
X0077688Y0331499D01*
X0077860Y0331476D01*
X0078032Y0331448D01*
X0078202Y0331417D01*
X0078372Y0331382D01*
X0078541Y0331342D01*
X0078710Y0331299D01*
X0078877Y0331251D01*
X0079042Y0331199D01*
X0079207Y0331144D01*
X0079370Y0331084D01*
X0079531Y0331021D01*
X0079691Y0330953D01*
X0079850Y0330882D01*
X0080006Y0330807D01*
X0080161Y0330728D01*
X0080314Y0330645D01*
X0080465Y0330559D01*
X0080613Y0330469D01*
X0080759Y0330376D01*
X0080904Y0330279D01*
X0081045Y0330179D01*
X0081184Y0330075D01*
X0081321Y0329968D01*
X0081455Y0329858D01*
X0081587Y0329744D01*
X0081715Y0329627D01*
X0081841Y0329508D01*
X0081964Y0329385D01*
X0082083Y0329259D01*
X0082200Y0329131D01*
X0082314Y0328999D01*
X0082424Y0328865D01*
X0082531Y0328728D01*
X0082635Y0328589D01*
X0082735Y0328448D01*
X0082832Y0328303D01*
X0082925Y0328157D01*
X0083015Y0328009D01*
X0083101Y0327858D01*
X0083184Y0327705D01*
X0083263Y0327550D01*
X0083338Y0327394D01*
X0083409Y0327235D01*
X0083477Y0327075D01*
X0083540Y0326914D01*
X0083600Y0326751D01*
X0083655Y0326586D01*
X0083707Y0326421D01*
X0083755Y0326254D01*
X0083798Y0326085D01*
X0083838Y0325916D01*
X0083873Y0325746D01*
X0083904Y0325576D01*
X0083932Y0325404D01*
X0083955Y0325232D01*
X0083973Y0325059D01*
X0083988Y0324886D01*
X0083999Y0324713D01*
X0084005Y0324540D01*
X0084007Y0324366D01*
X0055444Y0237909D02*
X0055442Y0237811D01*
X0055436Y0237713D01*
X0055427Y0237615D01*
X0055413Y0237518D01*
X0055396Y0237421D01*
X0055375Y0237325D01*
X0055350Y0237230D01*
X0055322Y0237136D01*
X0055289Y0237044D01*
X0055254Y0236952D01*
X0055214Y0236862D01*
X0055172Y0236774D01*
X0055125Y0236687D01*
X0055076Y0236603D01*
X0055023Y0236520D01*
X0054967Y0236440D01*
X0054907Y0236361D01*
X0054845Y0236285D01*
X0054780Y0236212D01*
X0054712Y0236141D01*
X0054641Y0236073D01*
X0054568Y0236008D01*
X0054492Y0235946D01*
X0054413Y0235886D01*
X0054333Y0235830D01*
X0054250Y0235777D01*
X0054166Y0235728D01*
X0054079Y0235681D01*
X0053991Y0235639D01*
X0053901Y0235599D01*
X0053809Y0235564D01*
X0053717Y0235531D01*
X0053623Y0235503D01*
X0053528Y0235478D01*
X0053432Y0235457D01*
X0053335Y0235440D01*
X0053238Y0235426D01*
X0053140Y0235417D01*
X0053042Y0235411D01*
X0052944Y0235409D01*
X0055444Y0271315D02*
X0055436Y0271952D01*
X0055413Y0272589D01*
X0055375Y0273226D01*
X0055321Y0273861D01*
X0055252Y0274495D01*
X0055167Y0275126D01*
X0055067Y0275756D01*
X0054953Y0276383D01*
X0054823Y0277007D01*
X0054678Y0277628D01*
X0054517Y0278245D01*
X0054343Y0278858D01*
X0054153Y0279466D01*
X0053949Y0280070D01*
X0053730Y0280669D01*
X0053497Y0281262D01*
X0053249Y0281849D01*
X0052988Y0282431D01*
X0052712Y0283006D01*
X0052423Y0283573D01*
X0052120Y0284134D01*
X0051803Y0284688D01*
X0051473Y0285233D01*
X0051130Y0285770D01*
X0050775Y0286299D01*
X0050406Y0286820D01*
X0050025Y0287331D01*
X0049632Y0287833D01*
X0049227Y0288325D01*
X0048810Y0288807D01*
X0048382Y0289279D01*
X0047942Y0289740D01*
X0047491Y0290191D01*
X0047030Y0290631D01*
X0046558Y0291059D01*
X0046076Y0291476D01*
X0045584Y0291881D01*
X0045082Y0292274D01*
X0044571Y0292655D01*
X0044050Y0293024D01*
X0043521Y0293379D01*
X0042984Y0293722D01*
X0042439Y0294052D01*
X0041885Y0294369D01*
X0041324Y0294672D01*
X0040757Y0294961D01*
X0040182Y0295237D01*
X0039600Y0295498D01*
X0039013Y0295746D01*
X0038420Y0295979D01*
X0037821Y0296198D01*
X0037217Y0296402D01*
X0036609Y0296592D01*
X0035996Y0296766D01*
X0035379Y0296927D01*
X0034758Y0297072D01*
X0034134Y0297202D01*
X0033507Y0297316D01*
X0032877Y0297416D01*
X0032246Y0297501D01*
X0031612Y0297570D01*
X0030977Y0297624D01*
X0030340Y0297662D01*
X0029703Y0297685D01*
X0029066Y0297693D01*
X0027491Y0297693D01*
D19*
X0042845Y0242969D03*
X0040877Y0219740D03*
X0045207Y0193756D03*
X0045404Y0186472D03*
X0051113Y0185488D03*
X0055444Y0180370D03*
X0054755Y0159898D03*
X0050326Y0160291D03*
X0045207Y0157142D03*
X0041270Y0157535D03*
X0037727Y0156748D03*
X0031034Y0145724D03*
X0028672Y0149071D03*
X0024735Y0150055D03*
X0023948Y0145724D03*
X0016467Y0141394D03*
X0013318Y0151630D03*
X0010562Y0159898D03*
X0005444Y0133520D03*
X0006231Y0114228D03*
X0017255Y0059898D03*
X0009774Y0054386D03*
X0033396Y0067378D03*
X0039302Y0046512D03*
X0051113Y0069346D03*
X0056625Y0059898D03*
X0071585Y0040213D03*
X0071585Y0022496D03*
X0092452Y0063441D03*
X0089696Y0069740D03*
X0089696Y0111866D03*
X0086152Y0124071D03*
X0086152Y0148087D03*
X0085759Y0154780D03*
X0080837Y0170724D03*
X0071585Y0190213D03*
X0070995Y0186965D03*
X0067255Y0198480D03*
X0065089Y0203697D03*
X0082609Y0204780D03*
X0092452Y0177614D03*
X0099144Y0158323D03*
X0103869Y0145724D03*
X0112137Y0133913D03*
X0112137Y0126827D03*
X0116861Y0126827D03*
X0117255Y0119740D03*
X0121585Y0106748D03*
X0112137Y0102024D03*
X0112137Y0088244D03*
X0129558Y0126925D03*
X0126704Y0154386D03*
X0120404Y0165803D03*
X0110857Y0195331D03*
X0116861Y0218165D03*
X0113711Y0227614D03*
X0103869Y0250055D03*
X0100326Y0252811D03*
X0097570Y0257535D03*
X0090877Y0290213D03*
X0103869Y0322890D03*
X0097570Y0334307D03*
X0114499Y0289819D03*
X0119617Y0289425D03*
X0096782Y0198480D03*
X0079066Y0246118D03*
X0079459Y0254386D03*
X0074341Y0257535D03*
X0064893Y0247693D03*
X0055444Y0267378D03*
X0051900Y0340213D03*
X0047963Y0352417D03*
X0005050Y0187850D03*
X0025129Y0181945D03*
X0036940Y0183126D03*
X0038515Y0178795D03*
X0048948Y0147299D03*
X0055837Y0146906D03*
X0047570Y0115803D03*
X0068534Y0157929D03*
X0071979Y0146512D03*
X0071979Y0135094D03*
X0107412Y0031157D03*
X0130247Y0063441D03*
X0131034Y0072102D03*
X0153869Y0126039D03*
X0153869Y0162260D03*
X0157412Y0031157D03*
D20*
X0107412Y0031157D01*
X0089696Y0069740D02*
X0089696Y0111866D01*
X0086152Y0124071D02*
X0151900Y0124071D01*
X0151900Y0124070D02*
X0151986Y0124072D01*
X0152072Y0124077D01*
X0152157Y0124087D01*
X0152242Y0124100D01*
X0152326Y0124117D01*
X0152410Y0124137D01*
X0152492Y0124161D01*
X0152573Y0124189D01*
X0152654Y0124220D01*
X0152732Y0124254D01*
X0152809Y0124292D01*
X0152885Y0124334D01*
X0152958Y0124378D01*
X0153029Y0124426D01*
X0153099Y0124477D01*
X0153166Y0124531D01*
X0153230Y0124587D01*
X0153292Y0124647D01*
X0153352Y0124709D01*
X0153408Y0124773D01*
X0153462Y0124840D01*
X0153513Y0124910D01*
X0153561Y0124981D01*
X0153605Y0125055D01*
X0153647Y0125130D01*
X0153685Y0125207D01*
X0153719Y0125285D01*
X0153750Y0125366D01*
X0153778Y0125447D01*
X0153802Y0125529D01*
X0153822Y0125613D01*
X0153839Y0125697D01*
X0153852Y0125782D01*
X0153862Y0125867D01*
X0153867Y0125953D01*
X0153869Y0126039D01*
X0158199Y0107535D02*
X0158197Y0107481D01*
X0158192Y0107428D01*
X0158183Y0107375D01*
X0158170Y0107323D01*
X0158154Y0107271D01*
X0158134Y0107221D01*
X0158111Y0107173D01*
X0158084Y0107126D01*
X0158055Y0107081D01*
X0158022Y0107038D01*
X0157987Y0106998D01*
X0157949Y0106960D01*
X0157909Y0106925D01*
X0157866Y0106892D01*
X0157821Y0106863D01*
X0157774Y0106836D01*
X0157726Y0106813D01*
X0157676Y0106793D01*
X0157624Y0106777D01*
X0157572Y0106764D01*
X0157519Y0106755D01*
X0157466Y0106750D01*
X0157412Y0106748D01*
X0157412Y0052417D01*
X0157410Y0052255D01*
X0157404Y0052094D01*
X0157394Y0051932D01*
X0157381Y0051771D01*
X0157363Y0051610D01*
X0157342Y0051450D01*
X0157316Y0051290D01*
X0157287Y0051131D01*
X0157254Y0050973D01*
X0157218Y0050815D01*
X0157177Y0050659D01*
X0157133Y0050503D01*
X0157084Y0050349D01*
X0157033Y0050196D01*
X0156977Y0050044D01*
X0156918Y0049893D01*
X0156855Y0049744D01*
X0156789Y0049597D01*
X0156719Y0049451D01*
X0156645Y0049307D01*
X0156568Y0049164D01*
X0156488Y0049024D01*
X0156404Y0048886D01*
X0156317Y0048749D01*
X0156227Y0048615D01*
X0156134Y0048483D01*
X0156037Y0048353D01*
X0155937Y0048226D01*
X0155835Y0048101D01*
X0155729Y0047979D01*
X0155620Y0047859D01*
X0155509Y0047742D01*
X0155394Y0047627D01*
X0155277Y0047516D01*
X0155157Y0047407D01*
X0155035Y0047301D01*
X0154910Y0047199D01*
X0154783Y0047099D01*
X0154653Y0047002D01*
X0154521Y0046909D01*
X0154387Y0046819D01*
X0154250Y0046732D01*
X0154112Y0046648D01*
X0153972Y0046568D01*
X0153829Y0046491D01*
X0153685Y0046417D01*
X0153539Y0046347D01*
X0153392Y0046281D01*
X0153243Y0046218D01*
X0153092Y0046159D01*
X0152940Y0046103D01*
X0152787Y0046052D01*
X0152633Y0046003D01*
X0152477Y0045959D01*
X0152321Y0045918D01*
X0152163Y0045882D01*
X0152005Y0045849D01*
X0151846Y0045820D01*
X0151686Y0045794D01*
X0151526Y0045773D01*
X0151365Y0045755D01*
X0151204Y0045742D01*
X0151042Y0045732D01*
X0150881Y0045726D01*
X0150719Y0045724D01*
X0040089Y0045724D01*
X0040089Y0045725D02*
X0040035Y0045727D01*
X0039982Y0045732D01*
X0039929Y0045741D01*
X0039877Y0045754D01*
X0039825Y0045770D01*
X0039775Y0045790D01*
X0039727Y0045813D01*
X0039680Y0045840D01*
X0039635Y0045869D01*
X0039592Y0045902D01*
X0039552Y0045937D01*
X0039514Y0045975D01*
X0039479Y0046015D01*
X0039446Y0046058D01*
X0039417Y0046103D01*
X0039390Y0046150D01*
X0039367Y0046198D01*
X0039347Y0046248D01*
X0039331Y0046300D01*
X0039318Y0046352D01*
X0039309Y0046405D01*
X0039304Y0046458D01*
X0039302Y0046512D01*
X0033396Y0059898D02*
X0033396Y0067378D01*
X0051113Y0069346D02*
X0051113Y0112260D01*
X0051111Y0112376D01*
X0051105Y0112492D01*
X0051096Y0112607D01*
X0051083Y0112722D01*
X0051066Y0112837D01*
X0051045Y0112951D01*
X0051020Y0113065D01*
X0050992Y0113177D01*
X0050960Y0113288D01*
X0050925Y0113399D01*
X0050886Y0113508D01*
X0050843Y0113616D01*
X0050797Y0113722D01*
X0050748Y0113827D01*
X0050695Y0113930D01*
X0050638Y0114032D01*
X0050579Y0114131D01*
X0050516Y0114228D01*
X0050450Y0114324D01*
X0050381Y0114417D01*
X0050309Y0114508D01*
X0050234Y0114596D01*
X0050156Y0114682D01*
X0050075Y0114765D01*
X0049992Y0114846D01*
X0049906Y0114924D01*
X0049818Y0114999D01*
X0049727Y0115071D01*
X0049634Y0115140D01*
X0049538Y0115206D01*
X0049441Y0115269D01*
X0049342Y0115328D01*
X0049240Y0115385D01*
X0049137Y0115438D01*
X0049032Y0115487D01*
X0048926Y0115533D01*
X0048818Y0115576D01*
X0048709Y0115615D01*
X0048598Y0115650D01*
X0048487Y0115682D01*
X0048375Y0115710D01*
X0048261Y0115735D01*
X0048147Y0115756D01*
X0048032Y0115773D01*
X0047917Y0115786D01*
X0047802Y0115795D01*
X0047686Y0115801D01*
X0047570Y0115803D01*
X0031034Y0135291D02*
X0031034Y0135882D01*
X0031034Y0145724D01*
X0041270Y0157535D02*
X0041268Y0157692D01*
X0041262Y0157849D01*
X0041252Y0158006D01*
X0041239Y0158162D01*
X0041221Y0158318D01*
X0041200Y0158474D01*
X0041174Y0158629D01*
X0041145Y0158783D01*
X0041112Y0158937D01*
X0041075Y0159089D01*
X0041035Y0159241D01*
X0040990Y0159392D01*
X0040942Y0159541D01*
X0040890Y0159689D01*
X0040835Y0159836D01*
X0040775Y0159982D01*
X0040713Y0160126D01*
X0040646Y0160268D01*
X0040576Y0160409D01*
X0040503Y0160548D01*
X0040426Y0160685D01*
X0040346Y0160820D01*
X0040262Y0160952D01*
X0040175Y0161083D01*
X0040085Y0161212D01*
X0039992Y0161338D01*
X0039896Y0161462D01*
X0039796Y0161584D01*
X0039694Y0161703D01*
X0039588Y0161819D01*
X0039480Y0161933D01*
X0039369Y0162044D01*
X0039255Y0162152D01*
X0039139Y0162258D01*
X0039020Y0162360D01*
X0038898Y0162460D01*
X0038774Y0162556D01*
X0038648Y0162649D01*
X0038519Y0162739D01*
X0038388Y0162826D01*
X0038256Y0162910D01*
X0038121Y0162990D01*
X0037984Y0163067D01*
X0037845Y0163140D01*
X0037704Y0163210D01*
X0037562Y0163277D01*
X0037418Y0163339D01*
X0037272Y0163399D01*
X0037125Y0163454D01*
X0036977Y0163506D01*
X0036828Y0163554D01*
X0036677Y0163599D01*
X0036525Y0163639D01*
X0036373Y0163676D01*
X0036219Y0163709D01*
X0036065Y0163738D01*
X0035910Y0163764D01*
X0035754Y0163785D01*
X0035598Y0163803D01*
X0035442Y0163816D01*
X0035285Y0163826D01*
X0035128Y0163832D01*
X0034971Y0163834D01*
X0034971Y0163835D02*
X0032117Y0163835D01*
X0027491Y0163835D01*
X0023948Y0145724D02*
X0023948Y0139819D01*
X0023946Y0139753D01*
X0023941Y0139687D01*
X0023931Y0139621D01*
X0023918Y0139556D01*
X0023902Y0139492D01*
X0023882Y0139429D01*
X0023858Y0139367D01*
X0023831Y0139307D01*
X0023801Y0139248D01*
X0023767Y0139191D01*
X0023730Y0139136D01*
X0023690Y0139083D01*
X0023648Y0139032D01*
X0023602Y0138984D01*
X0023554Y0138938D01*
X0023503Y0138896D01*
X0023450Y0138856D01*
X0023395Y0138819D01*
X0023338Y0138785D01*
X0023279Y0138755D01*
X0023219Y0138728D01*
X0023157Y0138704D01*
X0023094Y0138684D01*
X0023030Y0138668D01*
X0022965Y0138655D01*
X0022899Y0138645D01*
X0022833Y0138640D01*
X0022767Y0138638D01*
X0022681Y0138636D01*
X0022595Y0138631D01*
X0022510Y0138621D01*
X0022425Y0138608D01*
X0022341Y0138591D01*
X0022257Y0138571D01*
X0022175Y0138547D01*
X0022094Y0138519D01*
X0022013Y0138488D01*
X0021935Y0138454D01*
X0021858Y0138416D01*
X0021783Y0138374D01*
X0021709Y0138330D01*
X0021638Y0138282D01*
X0021568Y0138231D01*
X0021501Y0138177D01*
X0021437Y0138121D01*
X0021375Y0138061D01*
X0021315Y0137999D01*
X0021259Y0137935D01*
X0021205Y0137868D01*
X0021154Y0137798D01*
X0021106Y0137727D01*
X0021062Y0137654D01*
X0021020Y0137578D01*
X0020982Y0137501D01*
X0020948Y0137423D01*
X0020917Y0137342D01*
X0020889Y0137261D01*
X0020865Y0137179D01*
X0020845Y0137095D01*
X0020828Y0137011D01*
X0020815Y0136926D01*
X0020805Y0136841D01*
X0020800Y0136755D01*
X0020798Y0136669D01*
X0020798Y0124071D01*
X0020800Y0123940D01*
X0020806Y0123810D01*
X0020816Y0123679D01*
X0020830Y0123549D01*
X0020847Y0123419D01*
X0020869Y0123290D01*
X0020894Y0123162D01*
X0020924Y0123035D01*
X0020957Y0122908D01*
X0020994Y0122783D01*
X0021035Y0122658D01*
X0021079Y0122535D01*
X0021128Y0122414D01*
X0021180Y0122294D01*
X0021235Y0122175D01*
X0021294Y0122058D01*
X0021357Y0121943D01*
X0021423Y0121830D01*
X0021492Y0121719D01*
X0021565Y0121611D01*
X0021641Y0121504D01*
X0021720Y0121400D01*
X0021802Y0121298D01*
X0021887Y0121199D01*
X0021975Y0121102D01*
X0022067Y0121009D01*
X0022160Y0120917D01*
X0022257Y0120829D01*
X0022356Y0120744D01*
X0022458Y0120662D01*
X0022562Y0120583D01*
X0022669Y0120507D01*
X0022777Y0120434D01*
X0022888Y0120365D01*
X0023001Y0120299D01*
X0023116Y0120236D01*
X0023233Y0120177D01*
X0023352Y0120122D01*
X0023472Y0120070D01*
X0023593Y0120021D01*
X0023716Y0119977D01*
X0023841Y0119936D01*
X0023966Y0119899D01*
X0024093Y0119866D01*
X0024220Y0119836D01*
X0024348Y0119811D01*
X0024477Y0119789D01*
X0024607Y0119772D01*
X0024737Y0119758D01*
X0024868Y0119748D01*
X0024998Y0119742D01*
X0025129Y0119740D01*
X0117255Y0119740D01*
X0112137Y0126827D02*
X0112137Y0133913D01*
X0116861Y0126826D02*
X0117099Y0126829D01*
X0117337Y0126837D01*
X0117574Y0126852D01*
X0117811Y0126872D01*
X0118047Y0126898D01*
X0118283Y0126929D01*
X0118518Y0126966D01*
X0118752Y0127009D01*
X0118985Y0127058D01*
X0119217Y0127112D01*
X0119447Y0127172D01*
X0119676Y0127237D01*
X0119903Y0127308D01*
X0120128Y0127384D01*
X0120351Y0127466D01*
X0120573Y0127553D01*
X0120792Y0127645D01*
X0121009Y0127743D01*
X0121223Y0127845D01*
X0121435Y0127953D01*
X0121645Y0128067D01*
X0121851Y0128185D01*
X0122055Y0128308D01*
X0122255Y0128436D01*
X0122452Y0128568D01*
X0122647Y0128706D01*
X0122837Y0128848D01*
X0123025Y0128995D01*
X0123208Y0129146D01*
X0123388Y0129301D01*
X0123564Y0129461D01*
X0123736Y0129625D01*
X0123905Y0129794D01*
X0124069Y0129966D01*
X0124229Y0130142D01*
X0124384Y0130322D01*
X0124535Y0130505D01*
X0124682Y0130693D01*
X0124824Y0130883D01*
X0124962Y0131078D01*
X0125094Y0131275D01*
X0125222Y0131475D01*
X0125345Y0131679D01*
X0125463Y0131885D01*
X0125577Y0132095D01*
X0125685Y0132307D01*
X0125787Y0132521D01*
X0125885Y0132738D01*
X0125977Y0132957D01*
X0126064Y0133179D01*
X0126146Y0133402D01*
X0126222Y0133627D01*
X0126293Y0133854D01*
X0126358Y0134083D01*
X0126418Y0134313D01*
X0126472Y0134545D01*
X0126521Y0134778D01*
X0126564Y0135012D01*
X0126601Y0135247D01*
X0126632Y0135483D01*
X0126658Y0135719D01*
X0126678Y0135956D01*
X0126693Y0136193D01*
X0126701Y0136431D01*
X0126704Y0136669D01*
X0126704Y0154386D01*
X0120404Y0165803D02*
X0120365Y0165805D01*
X0120327Y0165811D01*
X0120290Y0165820D01*
X0120253Y0165833D01*
X0120218Y0165850D01*
X0120185Y0165869D01*
X0120154Y0165892D01*
X0120125Y0165918D01*
X0120099Y0165947D01*
X0120076Y0165978D01*
X0120057Y0166011D01*
X0120040Y0166046D01*
X0120027Y0166083D01*
X0120018Y0166120D01*
X0120012Y0166158D01*
X0120010Y0166197D01*
X0120011Y0166197D02*
X0120011Y0173677D01*
X0120009Y0173801D01*
X0120003Y0173924D01*
X0119994Y0174048D01*
X0119980Y0174170D01*
X0119963Y0174293D01*
X0119941Y0174415D01*
X0119916Y0174536D01*
X0119887Y0174656D01*
X0119855Y0174775D01*
X0119818Y0174894D01*
X0119778Y0175011D01*
X0119735Y0175126D01*
X0119687Y0175241D01*
X0119636Y0175353D01*
X0119582Y0175464D01*
X0119524Y0175574D01*
X0119463Y0175681D01*
X0119398Y0175787D01*
X0119330Y0175890D01*
X0119259Y0175991D01*
X0119185Y0176090D01*
X0119108Y0176187D01*
X0119027Y0176281D01*
X0118944Y0176372D01*
X0118858Y0176461D01*
X0118769Y0176547D01*
X0118678Y0176630D01*
X0118584Y0176711D01*
X0118487Y0176788D01*
X0118388Y0176862D01*
X0118287Y0176933D01*
X0118184Y0177001D01*
X0118078Y0177066D01*
X0117971Y0177127D01*
X0117861Y0177185D01*
X0117750Y0177239D01*
X0117638Y0177290D01*
X0117523Y0177338D01*
X0117408Y0177381D01*
X0117291Y0177421D01*
X0117172Y0177458D01*
X0117053Y0177490D01*
X0116933Y0177519D01*
X0116812Y0177544D01*
X0116690Y0177566D01*
X0116567Y0177583D01*
X0116445Y0177597D01*
X0116321Y0177606D01*
X0116198Y0177612D01*
X0116074Y0177614D01*
X0092452Y0177614D01*
X0096782Y0198480D02*
X0113318Y0198480D01*
X0113318Y0198481D02*
X0113870Y0198474D01*
X0114421Y0198454D01*
X0114972Y0198421D01*
X0115522Y0198374D01*
X0116070Y0198315D01*
X0116617Y0198241D01*
X0117162Y0198155D01*
X0117705Y0198056D01*
X0118245Y0197943D01*
X0118783Y0197817D01*
X0119317Y0197679D01*
X0119848Y0197528D01*
X0120374Y0197363D01*
X0120897Y0197187D01*
X0121415Y0196997D01*
X0121929Y0196795D01*
X0122437Y0196581D01*
X0122941Y0196354D01*
X0123438Y0196116D01*
X0123930Y0195865D01*
X0124415Y0195603D01*
X0124894Y0195329D01*
X0125367Y0195044D01*
X0125832Y0194747D01*
X0126290Y0194439D01*
X0126740Y0194120D01*
X0127183Y0193790D01*
X0127617Y0193450D01*
X0128043Y0193099D01*
X0128460Y0192738D01*
X0128869Y0192367D01*
X0129269Y0191987D01*
X0129659Y0191597D01*
X0130039Y0191197D01*
X0130410Y0190788D01*
X0130771Y0190371D01*
X0131122Y0189945D01*
X0131462Y0189511D01*
X0131792Y0189068D01*
X0132111Y0188618D01*
X0132419Y0188160D01*
X0132716Y0187695D01*
X0133001Y0187222D01*
X0133275Y0186743D01*
X0133537Y0186258D01*
X0133788Y0185766D01*
X0134026Y0185269D01*
X0134253Y0184765D01*
X0134467Y0184257D01*
X0134669Y0183743D01*
X0134859Y0183225D01*
X0135035Y0182702D01*
X0135200Y0182176D01*
X0135351Y0181645D01*
X0135489Y0181111D01*
X0135615Y0180573D01*
X0135728Y0180033D01*
X0135827Y0179490D01*
X0135913Y0178945D01*
X0135987Y0178398D01*
X0136046Y0177850D01*
X0136093Y0177300D01*
X0136126Y0176749D01*
X0136146Y0176198D01*
X0136153Y0175646D01*
X0118436Y0219740D02*
X0118436Y0230370D01*
X0118435Y0230370D02*
X0118437Y0230480D01*
X0118443Y0230590D01*
X0118452Y0230699D01*
X0118466Y0230808D01*
X0118483Y0230917D01*
X0118504Y0231025D01*
X0118529Y0231132D01*
X0118557Y0231238D01*
X0118589Y0231343D01*
X0118625Y0231447D01*
X0118664Y0231550D01*
X0118707Y0231651D01*
X0118754Y0231751D01*
X0118804Y0231849D01*
X0118857Y0231945D01*
X0118914Y0232039D01*
X0118974Y0232131D01*
X0119037Y0232222D01*
X0119103Y0232309D01*
X0119172Y0232395D01*
X0119244Y0232478D01*
X0119319Y0232558D01*
X0119397Y0232636D01*
X0119477Y0232711D01*
X0119560Y0232783D01*
X0119646Y0232852D01*
X0119733Y0232918D01*
X0119824Y0232981D01*
X0119916Y0233041D01*
X0120010Y0233098D01*
X0120106Y0233151D01*
X0120204Y0233201D01*
X0120304Y0233248D01*
X0120405Y0233291D01*
X0120508Y0233330D01*
X0120612Y0233366D01*
X0120717Y0233398D01*
X0120823Y0233426D01*
X0120930Y0233451D01*
X0121038Y0233472D01*
X0121147Y0233489D01*
X0121256Y0233503D01*
X0121365Y0233512D01*
X0121475Y0233518D01*
X0121585Y0233520D01*
X0150326Y0233520D01*
X0150516Y0233518D01*
X0150706Y0233511D01*
X0150896Y0233499D01*
X0151086Y0233483D01*
X0151275Y0233463D01*
X0151464Y0233437D01*
X0151652Y0233408D01*
X0151839Y0233373D01*
X0152025Y0233334D01*
X0152210Y0233291D01*
X0152395Y0233243D01*
X0152578Y0233191D01*
X0152759Y0233135D01*
X0152939Y0233074D01*
X0153118Y0233008D01*
X0153295Y0232939D01*
X0153471Y0232865D01*
X0153644Y0232787D01*
X0153816Y0232704D01*
X0153985Y0232618D01*
X0154153Y0232528D01*
X0154318Y0232433D01*
X0154481Y0232335D01*
X0154641Y0232232D01*
X0154799Y0232126D01*
X0154954Y0232016D01*
X0155107Y0231903D01*
X0155257Y0231785D01*
X0155403Y0231664D01*
X0155547Y0231540D01*
X0155688Y0231412D01*
X0155826Y0231281D01*
X0155961Y0231146D01*
X0156092Y0231008D01*
X0156220Y0230867D01*
X0156344Y0230723D01*
X0156465Y0230577D01*
X0156583Y0230427D01*
X0156696Y0230274D01*
X0156806Y0230119D01*
X0156912Y0229961D01*
X0157015Y0229801D01*
X0157113Y0229638D01*
X0157208Y0229473D01*
X0157298Y0229305D01*
X0157384Y0229136D01*
X0157467Y0228964D01*
X0157545Y0228791D01*
X0157619Y0228615D01*
X0157688Y0228438D01*
X0157754Y0228259D01*
X0157815Y0228079D01*
X0157871Y0227898D01*
X0157923Y0227715D01*
X0157971Y0227530D01*
X0158014Y0227345D01*
X0158053Y0227159D01*
X0158088Y0226972D01*
X0158117Y0226784D01*
X0158143Y0226595D01*
X0158163Y0226406D01*
X0158179Y0226216D01*
X0158191Y0226026D01*
X0158198Y0225836D01*
X0158200Y0225646D01*
X0158200Y0107535D01*
X0131034Y0075252D02*
X0131034Y0072102D01*
X0131034Y0075252D02*
X0131031Y0075480D01*
X0131023Y0075709D01*
X0131009Y0075936D01*
X0130990Y0076164D01*
X0130965Y0076391D01*
X0130935Y0076617D01*
X0130899Y0076843D01*
X0130858Y0077067D01*
X0130811Y0077291D01*
X0130759Y0077513D01*
X0130702Y0077734D01*
X0130639Y0077954D01*
X0130572Y0078172D01*
X0130498Y0078388D01*
X0130420Y0078603D01*
X0130336Y0078815D01*
X0130248Y0079026D01*
X0130154Y0079234D01*
X0130055Y0079440D01*
X0129952Y0079643D01*
X0129843Y0079844D01*
X0129730Y0080042D01*
X0129612Y0080238D01*
X0129489Y0080430D01*
X0129361Y0080620D01*
X0129229Y0080806D01*
X0129093Y0080989D01*
X0128952Y0081169D01*
X0128807Y0081345D01*
X0128658Y0081518D01*
X0128504Y0081687D01*
X0128347Y0081852D01*
X0128185Y0082014D01*
X0128020Y0082171D01*
X0127851Y0082325D01*
X0127678Y0082474D01*
X0127502Y0082619D01*
X0127322Y0082760D01*
X0127139Y0082896D01*
X0126953Y0083028D01*
X0126763Y0083156D01*
X0126571Y0083279D01*
X0126375Y0083397D01*
X0126177Y0083510D01*
X0125976Y0083619D01*
X0125773Y0083722D01*
X0125567Y0083821D01*
X0125359Y0083915D01*
X0125148Y0084003D01*
X0124936Y0084087D01*
X0124721Y0084165D01*
X0124505Y0084239D01*
X0124287Y0084306D01*
X0124067Y0084369D01*
X0123846Y0084426D01*
X0123624Y0084478D01*
X0123400Y0084525D01*
X0123176Y0084566D01*
X0122950Y0084602D01*
X0122724Y0084632D01*
X0122497Y0084657D01*
X0122269Y0084676D01*
X0122042Y0084690D01*
X0121813Y0084698D01*
X0121585Y0084701D01*
X0121585Y0106748D01*
X0112137Y0102024D02*
X0112137Y0088244D01*
X0071979Y0135094D02*
X0071979Y0146512D01*
X0045208Y0170134D02*
X0045211Y0170381D01*
X0045220Y0170629D01*
X0045235Y0170875D01*
X0045256Y0171122D01*
X0045283Y0171368D01*
X0045315Y0171613D01*
X0045354Y0171857D01*
X0045399Y0172101D01*
X0045449Y0172343D01*
X0045505Y0172584D01*
X0045568Y0172823D01*
X0045635Y0173061D01*
X0045709Y0173297D01*
X0045788Y0173531D01*
X0045873Y0173764D01*
X0045964Y0173994D01*
X0046060Y0174222D01*
X0046161Y0174447D01*
X0046268Y0174671D01*
X0046380Y0174891D01*
X0046498Y0175109D01*
X0046621Y0175323D01*
X0046749Y0175535D01*
X0046882Y0175743D01*
X0047020Y0175949D01*
X0047163Y0176151D01*
X0047311Y0176349D01*
X0047463Y0176544D01*
X0047620Y0176735D01*
X0047782Y0176922D01*
X0047948Y0177105D01*
X0048119Y0177284D01*
X0048294Y0177459D01*
X0048473Y0177630D01*
X0048656Y0177796D01*
X0048843Y0177958D01*
X0049034Y0178115D01*
X0049229Y0178267D01*
X0049427Y0178415D01*
X0049629Y0178558D01*
X0049835Y0178696D01*
X0050043Y0178829D01*
X0050255Y0178957D01*
X0050469Y0179080D01*
X0050687Y0179198D01*
X0050907Y0179310D01*
X0051131Y0179417D01*
X0051356Y0179518D01*
X0051584Y0179614D01*
X0051814Y0179705D01*
X0052047Y0179790D01*
X0052281Y0179869D01*
X0052517Y0179943D01*
X0052755Y0180010D01*
X0052994Y0180073D01*
X0053235Y0180129D01*
X0053477Y0180179D01*
X0053721Y0180224D01*
X0053965Y0180263D01*
X0054210Y0180295D01*
X0054456Y0180322D01*
X0054703Y0180343D01*
X0054949Y0180358D01*
X0055197Y0180367D01*
X0055444Y0180370D01*
X0048751Y0183126D02*
X0036940Y0183126D01*
X0045207Y0170134D02*
X0045207Y0157142D01*
X0048751Y0183126D02*
X0048846Y0183128D01*
X0048941Y0183134D01*
X0049036Y0183143D01*
X0049130Y0183157D01*
X0049223Y0183174D01*
X0049316Y0183195D01*
X0049408Y0183219D01*
X0049499Y0183248D01*
X0049589Y0183279D01*
X0049677Y0183315D01*
X0049764Y0183354D01*
X0049849Y0183397D01*
X0049932Y0183442D01*
X0050013Y0183492D01*
X0050093Y0183544D01*
X0050170Y0183600D01*
X0050245Y0183658D01*
X0050317Y0183720D01*
X0050387Y0183785D01*
X0050454Y0183852D01*
X0050519Y0183922D01*
X0050581Y0183994D01*
X0050639Y0184069D01*
X0050695Y0184146D01*
X0050747Y0184226D01*
X0050797Y0184307D01*
X0050842Y0184390D01*
X0050885Y0184475D01*
X0050924Y0184562D01*
X0050960Y0184650D01*
X0050991Y0184740D01*
X0051020Y0184831D01*
X0051044Y0184923D01*
X0051065Y0185016D01*
X0051082Y0185109D01*
X0051096Y0185203D01*
X0051105Y0185298D01*
X0051111Y0185393D01*
X0051113Y0185488D01*
X0062944Y0215409D02*
X0073315Y0225781D01*
X0077837Y0227654D02*
X0109706Y0227654D01*
X0109745Y0227614D01*
X0113711Y0227614D01*
X0113711Y0243045D01*
X0113712Y0243045D02*
X0113710Y0243124D01*
X0113705Y0243203D01*
X0113696Y0243282D01*
X0113683Y0243360D01*
X0113666Y0243438D01*
X0113646Y0243515D01*
X0113623Y0243591D01*
X0113596Y0243665D01*
X0113566Y0243739D01*
X0113532Y0243810D01*
X0113495Y0243880D01*
X0113455Y0243949D01*
X0113412Y0244015D01*
X0113365Y0244080D01*
X0113316Y0244142D01*
X0113264Y0244202D01*
X0113209Y0244259D01*
X0108720Y0246118D02*
X0090045Y0246118D01*
X0089899Y0246120D01*
X0089752Y0246126D01*
X0089606Y0246135D01*
X0089460Y0246149D01*
X0089315Y0246166D01*
X0089170Y0246187D01*
X0089025Y0246212D01*
X0088882Y0246240D01*
X0088739Y0246273D01*
X0088597Y0246309D01*
X0088456Y0246348D01*
X0088316Y0246392D01*
X0088177Y0246439D01*
X0088040Y0246490D01*
X0087904Y0246544D01*
X0087769Y0246602D01*
X0087636Y0246663D01*
X0087504Y0246728D01*
X0087375Y0246796D01*
X0087247Y0246868D01*
X0087121Y0246943D01*
X0086997Y0247021D01*
X0086875Y0247102D01*
X0086756Y0247187D01*
X0086638Y0247274D01*
X0086523Y0247365D01*
X0086411Y0247459D01*
X0086301Y0247555D01*
X0086193Y0247655D01*
X0086088Y0247757D01*
X0079459Y0254386D01*
X0079066Y0246118D02*
X0073948Y0246118D01*
X0073824Y0246116D01*
X0073701Y0246110D01*
X0073577Y0246101D01*
X0073455Y0246087D01*
X0073332Y0246070D01*
X0073210Y0246048D01*
X0073089Y0246023D01*
X0072969Y0245994D01*
X0072850Y0245962D01*
X0072731Y0245925D01*
X0072614Y0245885D01*
X0072499Y0245842D01*
X0072384Y0245794D01*
X0072272Y0245743D01*
X0072161Y0245689D01*
X0072051Y0245631D01*
X0071944Y0245570D01*
X0071838Y0245505D01*
X0071735Y0245437D01*
X0071634Y0245366D01*
X0071535Y0245292D01*
X0071438Y0245215D01*
X0071344Y0245134D01*
X0071253Y0245051D01*
X0071164Y0244965D01*
X0071078Y0244876D01*
X0070995Y0244785D01*
X0070914Y0244691D01*
X0070837Y0244594D01*
X0070763Y0244495D01*
X0070692Y0244394D01*
X0070624Y0244291D01*
X0070559Y0244185D01*
X0070498Y0244078D01*
X0070440Y0243968D01*
X0070386Y0243857D01*
X0070335Y0243745D01*
X0070287Y0243630D01*
X0070244Y0243515D01*
X0070204Y0243398D01*
X0070167Y0243279D01*
X0070135Y0243160D01*
X0070106Y0243040D01*
X0070081Y0242919D01*
X0070059Y0242797D01*
X0070042Y0242674D01*
X0070028Y0242552D01*
X0070019Y0242428D01*
X0070013Y0242305D01*
X0070011Y0242181D01*
X0070011Y0229976D01*
X0070009Y0229843D01*
X0070003Y0229710D01*
X0069994Y0229578D01*
X0069980Y0229446D01*
X0069963Y0229314D01*
X0069942Y0229183D01*
X0069917Y0229052D01*
X0069888Y0228923D01*
X0069855Y0228794D01*
X0069819Y0228666D01*
X0069779Y0228539D01*
X0069736Y0228414D01*
X0069688Y0228290D01*
X0069637Y0228167D01*
X0069583Y0228046D01*
X0069525Y0227926D01*
X0069464Y0227809D01*
X0069399Y0227692D01*
X0069331Y0227578D01*
X0069260Y0227466D01*
X0069185Y0227356D01*
X0069107Y0227249D01*
X0069026Y0227143D01*
X0068943Y0227040D01*
X0068856Y0226940D01*
X0068766Y0226842D01*
X0068673Y0226747D01*
X0068578Y0226654D01*
X0068480Y0226564D01*
X0068380Y0226477D01*
X0068277Y0226394D01*
X0068171Y0226313D01*
X0068064Y0226235D01*
X0067954Y0226160D01*
X0067842Y0226089D01*
X0067727Y0226021D01*
X0067611Y0225956D01*
X0067494Y0225895D01*
X0067374Y0225837D01*
X0067253Y0225783D01*
X0067130Y0225732D01*
X0067006Y0225684D01*
X0066881Y0225641D01*
X0066754Y0225601D01*
X0066626Y0225565D01*
X0066497Y0225532D01*
X0066368Y0225503D01*
X0066237Y0225478D01*
X0066106Y0225457D01*
X0065974Y0225440D01*
X0065842Y0225426D01*
X0065710Y0225417D01*
X0065577Y0225411D01*
X0065444Y0225409D01*
X0062944Y0225409D01*
X0074341Y0257535D02*
X0097570Y0257535D01*
X0100326Y0252811D02*
X0100326Y0280764D01*
X0100323Y0280992D01*
X0100315Y0281221D01*
X0100301Y0281448D01*
X0100282Y0281676D01*
X0100257Y0281903D01*
X0100227Y0282129D01*
X0100191Y0282355D01*
X0100150Y0282579D01*
X0100103Y0282803D01*
X0100051Y0283025D01*
X0099994Y0283246D01*
X0099931Y0283466D01*
X0099864Y0283684D01*
X0099790Y0283900D01*
X0099712Y0284115D01*
X0099628Y0284327D01*
X0099540Y0284538D01*
X0099446Y0284746D01*
X0099347Y0284952D01*
X0099244Y0285155D01*
X0099135Y0285356D01*
X0099022Y0285554D01*
X0098904Y0285750D01*
X0098781Y0285942D01*
X0098653Y0286132D01*
X0098521Y0286318D01*
X0098385Y0286501D01*
X0098244Y0286681D01*
X0098099Y0286857D01*
X0097950Y0287030D01*
X0097796Y0287199D01*
X0097639Y0287364D01*
X0097477Y0287526D01*
X0097312Y0287683D01*
X0097143Y0287837D01*
X0096970Y0287986D01*
X0096794Y0288131D01*
X0096614Y0288272D01*
X0096431Y0288408D01*
X0096245Y0288540D01*
X0096055Y0288668D01*
X0095863Y0288791D01*
X0095667Y0288909D01*
X0095469Y0289022D01*
X0095268Y0289131D01*
X0095065Y0289234D01*
X0094859Y0289333D01*
X0094651Y0289427D01*
X0094440Y0289515D01*
X0094228Y0289599D01*
X0094013Y0289677D01*
X0093797Y0289751D01*
X0093579Y0289818D01*
X0093359Y0289881D01*
X0093138Y0289938D01*
X0092916Y0289990D01*
X0092692Y0290037D01*
X0092468Y0290078D01*
X0092242Y0290114D01*
X0092016Y0290144D01*
X0091789Y0290169D01*
X0091561Y0290188D01*
X0091334Y0290202D01*
X0091105Y0290210D01*
X0090877Y0290213D01*
X0103869Y0322890D02*
X0103869Y0250055D01*
X0108720Y0246118D02*
X0108876Y0246116D01*
X0109031Y0246110D01*
X0109187Y0246101D01*
X0109342Y0246087D01*
X0109497Y0246070D01*
X0109651Y0246049D01*
X0109805Y0246025D01*
X0109958Y0245996D01*
X0110111Y0245964D01*
X0110262Y0245928D01*
X0110413Y0245888D01*
X0110563Y0245845D01*
X0110711Y0245798D01*
X0110859Y0245747D01*
X0111005Y0245693D01*
X0111149Y0245635D01*
X0111292Y0245573D01*
X0111434Y0245509D01*
X0111574Y0245440D01*
X0111712Y0245368D01*
X0111849Y0245293D01*
X0111984Y0245215D01*
X0112116Y0245133D01*
X0112247Y0245048D01*
X0112375Y0244960D01*
X0112501Y0244869D01*
X0112625Y0244774D01*
X0112747Y0244677D01*
X0112866Y0244577D01*
X0112983Y0244474D01*
X0113097Y0244368D01*
X0113209Y0244259D01*
X0118436Y0219740D02*
X0118434Y0219663D01*
X0118428Y0219586D01*
X0118419Y0219509D01*
X0118406Y0219433D01*
X0118389Y0219357D01*
X0118368Y0219283D01*
X0118344Y0219209D01*
X0118316Y0219137D01*
X0118285Y0219067D01*
X0118250Y0218998D01*
X0118212Y0218930D01*
X0118171Y0218865D01*
X0118126Y0218802D01*
X0118078Y0218741D01*
X0118028Y0218682D01*
X0117975Y0218626D01*
X0117919Y0218573D01*
X0117860Y0218523D01*
X0117799Y0218475D01*
X0117736Y0218430D01*
X0117671Y0218389D01*
X0117603Y0218351D01*
X0117534Y0218316D01*
X0117464Y0218285D01*
X0117392Y0218257D01*
X0117318Y0218233D01*
X0117244Y0218212D01*
X0117168Y0218195D01*
X0117092Y0218182D01*
X0117015Y0218173D01*
X0116938Y0218167D01*
X0116861Y0218165D01*
X0116074Y0278402D02*
X0148751Y0278402D01*
X0148751Y0278401D02*
X0148951Y0278403D01*
X0149150Y0278411D01*
X0149350Y0278423D01*
X0149549Y0278440D01*
X0149748Y0278461D01*
X0149946Y0278488D01*
X0150143Y0278519D01*
X0150340Y0278555D01*
X0150535Y0278596D01*
X0150730Y0278641D01*
X0150923Y0278691D01*
X0151115Y0278746D01*
X0151306Y0278806D01*
X0151495Y0278870D01*
X0151683Y0278938D01*
X0151869Y0279011D01*
X0152053Y0279089D01*
X0152235Y0279171D01*
X0152415Y0279257D01*
X0152593Y0279348D01*
X0152769Y0279443D01*
X0152943Y0279542D01*
X0153114Y0279646D01*
X0153282Y0279753D01*
X0153448Y0279865D01*
X0153611Y0279980D01*
X0153771Y0280099D01*
X0153928Y0280223D01*
X0154083Y0280350D01*
X0154234Y0280480D01*
X0154382Y0280615D01*
X0154526Y0280752D01*
X0154668Y0280894D01*
X0154805Y0281038D01*
X0154940Y0281186D01*
X0155070Y0281337D01*
X0155197Y0281492D01*
X0155321Y0281649D01*
X0155440Y0281809D01*
X0155555Y0281972D01*
X0155667Y0282138D01*
X0155774Y0282306D01*
X0155878Y0282477D01*
X0155977Y0282651D01*
X0156072Y0282827D01*
X0156163Y0283005D01*
X0156249Y0283185D01*
X0156331Y0283367D01*
X0156409Y0283551D01*
X0156482Y0283737D01*
X0156550Y0283925D01*
X0156614Y0284114D01*
X0156674Y0284305D01*
X0156729Y0284497D01*
X0156779Y0284690D01*
X0156824Y0284885D01*
X0156865Y0285080D01*
X0156901Y0285277D01*
X0156932Y0285474D01*
X0156959Y0285672D01*
X0156980Y0285871D01*
X0156997Y0286070D01*
X0157009Y0286270D01*
X0157017Y0286469D01*
X0157019Y0286669D01*
X0157019Y0356748D01*
X0157017Y0356825D01*
X0157011Y0356902D01*
X0157002Y0356979D01*
X0156989Y0357055D01*
X0156972Y0357131D01*
X0156951Y0357205D01*
X0156927Y0357279D01*
X0156899Y0357351D01*
X0156868Y0357421D01*
X0156833Y0357490D01*
X0156795Y0357558D01*
X0156754Y0357623D01*
X0156709Y0357686D01*
X0156661Y0357747D01*
X0156611Y0357806D01*
X0156558Y0357862D01*
X0156502Y0357915D01*
X0156443Y0357965D01*
X0156382Y0358013D01*
X0156319Y0358058D01*
X0156254Y0358099D01*
X0156186Y0358137D01*
X0156117Y0358172D01*
X0156047Y0358203D01*
X0155975Y0358231D01*
X0155901Y0358255D01*
X0155827Y0358276D01*
X0155751Y0358293D01*
X0155675Y0358306D01*
X0155598Y0358315D01*
X0155521Y0358321D01*
X0155444Y0358323D01*
X0112137Y0358323D01*
X0112051Y0358321D01*
X0111965Y0358316D01*
X0111880Y0358306D01*
X0111795Y0358293D01*
X0111711Y0358276D01*
X0111627Y0358256D01*
X0111545Y0358232D01*
X0111464Y0358204D01*
X0111383Y0358173D01*
X0111305Y0358139D01*
X0111228Y0358101D01*
X0111153Y0358059D01*
X0111079Y0358015D01*
X0111008Y0357967D01*
X0110938Y0357916D01*
X0110871Y0357862D01*
X0110807Y0357806D01*
X0110745Y0357746D01*
X0110685Y0357684D01*
X0110629Y0357620D01*
X0110575Y0357553D01*
X0110524Y0357483D01*
X0110476Y0357412D01*
X0110432Y0357339D01*
X0110390Y0357263D01*
X0110352Y0357186D01*
X0110318Y0357108D01*
X0110287Y0357027D01*
X0110259Y0356946D01*
X0110235Y0356864D01*
X0110215Y0356780D01*
X0110198Y0356696D01*
X0110185Y0356611D01*
X0110175Y0356526D01*
X0110170Y0356440D01*
X0110168Y0356354D01*
X0110166Y0356230D01*
X0110160Y0356107D01*
X0110151Y0355983D01*
X0110137Y0355861D01*
X0110120Y0355738D01*
X0110098Y0355616D01*
X0110073Y0355495D01*
X0110044Y0355375D01*
X0110012Y0355256D01*
X0109975Y0355137D01*
X0109935Y0355020D01*
X0109892Y0354905D01*
X0109844Y0354790D01*
X0109793Y0354678D01*
X0109739Y0354567D01*
X0109681Y0354457D01*
X0109620Y0354350D01*
X0109555Y0354244D01*
X0109487Y0354141D01*
X0109416Y0354040D01*
X0109342Y0353941D01*
X0109265Y0353844D01*
X0109184Y0353750D01*
X0109101Y0353659D01*
X0109015Y0353570D01*
X0108926Y0353484D01*
X0108835Y0353401D01*
X0108741Y0353320D01*
X0108644Y0353243D01*
X0108545Y0353169D01*
X0108444Y0353098D01*
X0108341Y0353030D01*
X0108235Y0352965D01*
X0108128Y0352904D01*
X0108018Y0352846D01*
X0107907Y0352792D01*
X0107795Y0352741D01*
X0107680Y0352693D01*
X0107565Y0352650D01*
X0107448Y0352610D01*
X0107329Y0352573D01*
X0107210Y0352541D01*
X0107090Y0352512D01*
X0106969Y0352487D01*
X0106847Y0352465D01*
X0106724Y0352448D01*
X0106602Y0352434D01*
X0106478Y0352425D01*
X0106355Y0352419D01*
X0106231Y0352417D01*
X0047963Y0352417D01*
X0037333Y0348087D02*
X0037333Y0341000D01*
X0037334Y0341000D02*
X0037331Y0340762D01*
X0037323Y0340524D01*
X0037308Y0340287D01*
X0037288Y0340050D01*
X0037262Y0339814D01*
X0037231Y0339578D01*
X0037194Y0339343D01*
X0037151Y0339109D01*
X0037102Y0338876D01*
X0037048Y0338644D01*
X0036988Y0338414D01*
X0036923Y0338185D01*
X0036852Y0337958D01*
X0036776Y0337733D01*
X0036694Y0337510D01*
X0036607Y0337288D01*
X0036515Y0337069D01*
X0036417Y0336852D01*
X0036315Y0336638D01*
X0036207Y0336426D01*
X0036093Y0336216D01*
X0035975Y0336010D01*
X0035852Y0335806D01*
X0035724Y0335606D01*
X0035592Y0335409D01*
X0035454Y0335214D01*
X0035312Y0335024D01*
X0035165Y0334836D01*
X0035014Y0334653D01*
X0034859Y0334473D01*
X0034699Y0334297D01*
X0034535Y0334125D01*
X0034366Y0333956D01*
X0034194Y0333792D01*
X0034018Y0333632D01*
X0033838Y0333477D01*
X0033655Y0333326D01*
X0033467Y0333179D01*
X0033277Y0333037D01*
X0033082Y0332899D01*
X0032885Y0332767D01*
X0032685Y0332639D01*
X0032481Y0332516D01*
X0032275Y0332398D01*
X0032065Y0332284D01*
X0031853Y0332176D01*
X0031639Y0332074D01*
X0031422Y0331976D01*
X0031203Y0331884D01*
X0030981Y0331797D01*
X0030758Y0331715D01*
X0030533Y0331639D01*
X0030306Y0331568D01*
X0030077Y0331503D01*
X0029847Y0331443D01*
X0029615Y0331389D01*
X0029382Y0331340D01*
X0029148Y0331297D01*
X0028913Y0331260D01*
X0028677Y0331229D01*
X0028441Y0331203D01*
X0028204Y0331183D01*
X0027967Y0331168D01*
X0027729Y0331160D01*
X0027491Y0331157D01*
X0073315Y0225781D02*
X0073427Y0225891D01*
X0073542Y0225997D01*
X0073660Y0226101D01*
X0073780Y0226202D01*
X0073903Y0226300D01*
X0074028Y0226396D01*
X0074155Y0226487D01*
X0074284Y0226576D01*
X0074416Y0226662D01*
X0074549Y0226744D01*
X0074685Y0226823D01*
X0074822Y0226899D01*
X0074962Y0226971D01*
X0075103Y0227040D01*
X0075245Y0227105D01*
X0075390Y0227167D01*
X0075535Y0227225D01*
X0075683Y0227280D01*
X0075831Y0227331D01*
X0075981Y0227379D01*
X0076131Y0227422D01*
X0076283Y0227462D01*
X0076436Y0227499D01*
X0076589Y0227531D01*
X0076744Y0227560D01*
X0076899Y0227585D01*
X0077054Y0227606D01*
X0077210Y0227623D01*
X0077367Y0227637D01*
X0077523Y0227646D01*
X0077680Y0227652D01*
X0077837Y0227654D01*
X0114499Y0279976D02*
X0114499Y0289819D01*
X0114499Y0279976D02*
X0114501Y0279899D01*
X0114507Y0279822D01*
X0114516Y0279745D01*
X0114529Y0279669D01*
X0114546Y0279593D01*
X0114567Y0279519D01*
X0114591Y0279445D01*
X0114619Y0279373D01*
X0114650Y0279303D01*
X0114685Y0279234D01*
X0114723Y0279166D01*
X0114764Y0279101D01*
X0114809Y0279038D01*
X0114857Y0278977D01*
X0114907Y0278918D01*
X0114960Y0278862D01*
X0115016Y0278809D01*
X0115075Y0278759D01*
X0115136Y0278711D01*
X0115199Y0278666D01*
X0115264Y0278625D01*
X0115332Y0278587D01*
X0115401Y0278552D01*
X0115471Y0278521D01*
X0115543Y0278493D01*
X0115617Y0278469D01*
X0115691Y0278448D01*
X0115767Y0278431D01*
X0115843Y0278418D01*
X0115920Y0278409D01*
X0115997Y0278403D01*
X0116074Y0278401D01*
X0081546Y0377220D02*
X0081546Y0386669D01*
X0091664Y0386669D01*
X0092058Y0386669D01*
X0005050Y0187850D02*
X0005050Y0159898D01*
X0005052Y0159698D01*
X0005060Y0159499D01*
X0005072Y0159299D01*
X0005089Y0159100D01*
X0005110Y0158901D01*
X0005137Y0158703D01*
X0005168Y0158506D01*
X0005204Y0158309D01*
X0005245Y0158114D01*
X0005290Y0157919D01*
X0005340Y0157726D01*
X0005395Y0157534D01*
X0005455Y0157343D01*
X0005519Y0157154D01*
X0005587Y0156966D01*
X0005660Y0156780D01*
X0005738Y0156596D01*
X0005820Y0156414D01*
X0005906Y0156234D01*
X0005997Y0156056D01*
X0006092Y0155880D01*
X0006191Y0155706D01*
X0006295Y0155535D01*
X0006402Y0155367D01*
X0006514Y0155201D01*
X0006629Y0155038D01*
X0006748Y0154878D01*
X0006872Y0154721D01*
X0006999Y0154566D01*
X0007129Y0154415D01*
X0007264Y0154267D01*
X0007401Y0154123D01*
X0007543Y0153981D01*
X0007687Y0153844D01*
X0007835Y0153709D01*
X0007986Y0153579D01*
X0008141Y0153452D01*
X0008298Y0153328D01*
X0008458Y0153209D01*
X0008621Y0153094D01*
X0008787Y0152982D01*
X0008955Y0152875D01*
X0009126Y0152771D01*
X0009300Y0152672D01*
X0009476Y0152577D01*
X0009654Y0152486D01*
X0009834Y0152400D01*
X0010016Y0152318D01*
X0010200Y0152240D01*
X0010386Y0152167D01*
X0010574Y0152099D01*
X0010763Y0152035D01*
X0010954Y0151975D01*
X0011146Y0151920D01*
X0011339Y0151870D01*
X0011534Y0151825D01*
X0011729Y0151784D01*
X0011926Y0151748D01*
X0012123Y0151717D01*
X0012321Y0151690D01*
X0012520Y0151669D01*
X0012719Y0151652D01*
X0012919Y0151640D01*
X0013118Y0151632D01*
X0013318Y0151630D01*
X0016467Y0141394D02*
X0016465Y0141204D01*
X0016458Y0141014D01*
X0016446Y0140824D01*
X0016430Y0140634D01*
X0016410Y0140445D01*
X0016384Y0140256D01*
X0016355Y0140068D01*
X0016320Y0139881D01*
X0016281Y0139695D01*
X0016238Y0139510D01*
X0016190Y0139325D01*
X0016138Y0139142D01*
X0016082Y0138961D01*
X0016021Y0138781D01*
X0015955Y0138602D01*
X0015886Y0138425D01*
X0015812Y0138249D01*
X0015734Y0138076D01*
X0015651Y0137904D01*
X0015565Y0137735D01*
X0015475Y0137567D01*
X0015380Y0137402D01*
X0015282Y0137239D01*
X0015179Y0137079D01*
X0015073Y0136921D01*
X0014963Y0136766D01*
X0014850Y0136613D01*
X0014732Y0136463D01*
X0014611Y0136317D01*
X0014487Y0136173D01*
X0014359Y0136032D01*
X0014228Y0135894D01*
X0014093Y0135759D01*
X0013955Y0135628D01*
X0013814Y0135500D01*
X0013670Y0135376D01*
X0013524Y0135255D01*
X0013374Y0135137D01*
X0013221Y0135024D01*
X0013066Y0134914D01*
X0012908Y0134808D01*
X0012748Y0134705D01*
X0012585Y0134607D01*
X0012420Y0134512D01*
X0012252Y0134422D01*
X0012083Y0134336D01*
X0011911Y0134253D01*
X0011738Y0134175D01*
X0011562Y0134101D01*
X0011385Y0134032D01*
X0011206Y0133966D01*
X0011026Y0133905D01*
X0010845Y0133849D01*
X0010662Y0133797D01*
X0010477Y0133749D01*
X0010292Y0133706D01*
X0010106Y0133667D01*
X0009919Y0133632D01*
X0009731Y0133603D01*
X0009542Y0133577D01*
X0009353Y0133557D01*
X0009163Y0133541D01*
X0008973Y0133529D01*
X0008783Y0133522D01*
X0008593Y0133520D01*
X0005444Y0133520D01*
X0025798Y0130055D02*
X0025940Y0130057D01*
X0026081Y0130063D01*
X0026223Y0130072D01*
X0026364Y0130086D01*
X0026505Y0130103D01*
X0026645Y0130124D01*
X0026785Y0130149D01*
X0026924Y0130177D01*
X0027062Y0130210D01*
X0027199Y0130246D01*
X0027335Y0130286D01*
X0027470Y0130329D01*
X0027604Y0130376D01*
X0027736Y0130427D01*
X0027867Y0130481D01*
X0027997Y0130539D01*
X0028124Y0130600D01*
X0028251Y0130665D01*
X0028375Y0130733D01*
X0028497Y0130804D01*
X0028618Y0130879D01*
X0028736Y0130957D01*
X0028853Y0131038D01*
X0028967Y0131123D01*
X0029078Y0131210D01*
X0029188Y0131300D01*
X0029295Y0131394D01*
X0029399Y0131490D01*
X0029500Y0131589D01*
X0029599Y0131690D01*
X0029695Y0131794D01*
X0029789Y0131901D01*
X0029879Y0132011D01*
X0029966Y0132122D01*
X0030051Y0132236D01*
X0030132Y0132353D01*
X0030210Y0132471D01*
X0030285Y0132592D01*
X0030356Y0132714D01*
X0030424Y0132838D01*
X0030489Y0132965D01*
X0030550Y0133092D01*
X0030608Y0133222D01*
X0030662Y0133353D01*
X0030713Y0133485D01*
X0030760Y0133619D01*
X0030803Y0133754D01*
X0030843Y0133890D01*
X0030879Y0134027D01*
X0030912Y0134165D01*
X0030940Y0134304D01*
X0030965Y0134444D01*
X0030986Y0134584D01*
X0031003Y0134725D01*
X0031017Y0134866D01*
X0031026Y0135008D01*
X0031032Y0135149D01*
X0031034Y0135291D01*
D21*
X0032117Y0163835D02*
X0032117Y0164327D01*
X0048416Y0180626D01*
X0049462Y0181059D02*
X0049633Y0181059D01*
X0050816Y0181549D02*
X0051631Y0182365D01*
X0053232Y0183028D02*
X0055218Y0183028D01*
X0055314Y0183026D01*
X0055410Y0183020D01*
X0055505Y0183011D01*
X0055600Y0182998D01*
X0055695Y0182981D01*
X0055789Y0182960D01*
X0055882Y0182936D01*
X0055974Y0182908D01*
X0056064Y0182877D01*
X0056154Y0182842D01*
X0056242Y0182803D01*
X0056328Y0182762D01*
X0056413Y0182716D01*
X0056496Y0182668D01*
X0056576Y0182616D01*
X0056655Y0182561D01*
X0056732Y0182503D01*
X0056806Y0182442D01*
X0056878Y0182378D01*
X0056947Y0182312D01*
X0056947Y0182311D02*
X0067154Y0172105D01*
X0070486Y0170724D02*
X0080837Y0170724D01*
X0082520Y0168962D02*
X0082589Y0169034D01*
X0082655Y0169108D01*
X0082718Y0169184D01*
X0082779Y0169263D01*
X0082836Y0169344D01*
X0082891Y0169427D01*
X0082942Y0169512D01*
X0082990Y0169599D01*
X0083035Y0169688D01*
X0083076Y0169778D01*
X0083114Y0169870D01*
X0083149Y0169963D01*
X0083180Y0170058D01*
X0083207Y0170153D01*
X0083231Y0170250D01*
X0083252Y0170347D01*
X0083268Y0170445D01*
X0083281Y0170544D01*
X0083291Y0170642D01*
X0083296Y0170742D01*
X0083298Y0170841D01*
X0084774Y0170370D02*
X0084772Y0170269D01*
X0084766Y0170168D01*
X0084757Y0170067D01*
X0084744Y0169966D01*
X0084727Y0169867D01*
X0084706Y0169767D01*
X0084682Y0169669D01*
X0084654Y0169572D01*
X0084622Y0169476D01*
X0084587Y0169381D01*
X0084548Y0169287D01*
X0084506Y0169195D01*
X0084460Y0169105D01*
X0084411Y0169016D01*
X0084359Y0168929D01*
X0084303Y0168845D01*
X0084245Y0168762D01*
X0084183Y0168682D01*
X0084119Y0168604D01*
X0084051Y0168528D01*
X0083981Y0168455D01*
X0070995Y0155469D01*
X0059184Y0155469D01*
X0054755Y0159898D01*
X0048415Y0180626D02*
X0048468Y0180676D01*
X0048523Y0180723D01*
X0048580Y0180768D01*
X0048640Y0180810D01*
X0048701Y0180848D01*
X0048764Y0180884D01*
X0048829Y0180917D01*
X0048896Y0180946D01*
X0048963Y0180972D01*
X0049032Y0180995D01*
X0049102Y0181015D01*
X0049173Y0181031D01*
X0049245Y0181043D01*
X0049317Y0181052D01*
X0049389Y0181057D01*
X0049462Y0181059D01*
X0049633Y0181059D02*
X0049710Y0181061D01*
X0049787Y0181066D01*
X0049864Y0181075D01*
X0049940Y0181087D01*
X0050016Y0181103D01*
X0050091Y0181123D01*
X0050165Y0181146D01*
X0050237Y0181172D01*
X0050309Y0181202D01*
X0050379Y0181234D01*
X0050447Y0181270D01*
X0050514Y0181310D01*
X0050578Y0181352D01*
X0050641Y0181397D01*
X0050702Y0181445D01*
X0050760Y0181496D01*
X0050816Y0181549D01*
X0051631Y0182365D02*
X0051699Y0182430D01*
X0051769Y0182492D01*
X0051841Y0182551D01*
X0051916Y0182607D01*
X0051994Y0182659D01*
X0052073Y0182709D01*
X0052154Y0182755D01*
X0052238Y0182798D01*
X0052323Y0182837D01*
X0052409Y0182873D01*
X0052497Y0182905D01*
X0052586Y0182934D01*
X0052676Y0182959D01*
X0052767Y0182980D01*
X0052859Y0182997D01*
X0052952Y0183011D01*
X0053045Y0183020D01*
X0053138Y0183026D01*
X0053232Y0183028D01*
X0065089Y0203697D02*
X0078331Y0203697D01*
X0078451Y0203695D01*
X0078571Y0203689D01*
X0078691Y0203679D01*
X0078811Y0203666D01*
X0078930Y0203648D01*
X0079048Y0203626D01*
X0079166Y0203601D01*
X0079282Y0203572D01*
X0079398Y0203539D01*
X0079513Y0203502D01*
X0079626Y0203461D01*
X0079738Y0203417D01*
X0079848Y0203369D01*
X0079957Y0203318D01*
X0080064Y0203263D01*
X0080169Y0203205D01*
X0080272Y0203143D01*
X0080373Y0203077D01*
X0080472Y0203009D01*
X0080569Y0202937D01*
X0080663Y0202863D01*
X0080755Y0202785D01*
X0080844Y0202704D01*
X0080930Y0202620D01*
X0084271Y0201236D02*
X0144339Y0201236D01*
X0144508Y0201234D01*
X0144676Y0201228D01*
X0144845Y0201218D01*
X0145013Y0201204D01*
X0145180Y0201186D01*
X0145348Y0201164D01*
X0145514Y0201138D01*
X0145680Y0201108D01*
X0145845Y0201074D01*
X0146010Y0201036D01*
X0146173Y0200995D01*
X0146336Y0200949D01*
X0146497Y0200899D01*
X0146657Y0200846D01*
X0146816Y0200789D01*
X0146973Y0200728D01*
X0147129Y0200664D01*
X0147283Y0200596D01*
X0147436Y0200524D01*
X0147586Y0200448D01*
X0147735Y0200369D01*
X0147883Y0200287D01*
X0148028Y0200200D01*
X0148171Y0200111D01*
X0148311Y0200018D01*
X0148450Y0199922D01*
X0148586Y0199822D01*
X0148720Y0199720D01*
X0148851Y0199614D01*
X0148980Y0199505D01*
X0149106Y0199393D01*
X0149230Y0199278D01*
X0149350Y0199160D01*
X0154478Y0194032D01*
X0156133Y0190038D02*
X0156133Y0157715D01*
X0153152Y0150519D02*
X0129558Y0126925D01*
X0153152Y0150519D02*
X0153326Y0150698D01*
X0153496Y0150881D01*
X0153661Y0151068D01*
X0153822Y0151259D01*
X0153978Y0151454D01*
X0154129Y0151653D01*
X0154276Y0151856D01*
X0154417Y0152062D01*
X0154553Y0152271D01*
X0154684Y0152483D01*
X0154810Y0152699D01*
X0154930Y0152918D01*
X0155045Y0153140D01*
X0155155Y0153364D01*
X0155259Y0153591D01*
X0155357Y0153821D01*
X0155450Y0154053D01*
X0155537Y0154287D01*
X0155618Y0154523D01*
X0155694Y0154761D01*
X0155763Y0155001D01*
X0155827Y0155242D01*
X0155885Y0155485D01*
X0155936Y0155730D01*
X0155982Y0155975D01*
X0156022Y0156222D01*
X0156055Y0156469D01*
X0156083Y0156718D01*
X0156104Y0156966D01*
X0156120Y0157216D01*
X0156129Y0157465D01*
X0156132Y0157715D01*
X0156133Y0190038D02*
X0156131Y0190186D01*
X0156125Y0190334D01*
X0156116Y0190481D01*
X0156102Y0190628D01*
X0156085Y0190775D01*
X0156063Y0190922D01*
X0156038Y0191067D01*
X0156010Y0191212D01*
X0155977Y0191357D01*
X0155941Y0191500D01*
X0155900Y0191642D01*
X0155857Y0191783D01*
X0155809Y0191923D01*
X0155758Y0192062D01*
X0155703Y0192199D01*
X0155645Y0192335D01*
X0155583Y0192470D01*
X0155517Y0192602D01*
X0155449Y0192733D01*
X0155376Y0192862D01*
X0155301Y0192989D01*
X0155222Y0193114D01*
X0155140Y0193237D01*
X0155054Y0193358D01*
X0154966Y0193476D01*
X0154874Y0193592D01*
X0154780Y0193706D01*
X0154682Y0193817D01*
X0154582Y0193926D01*
X0154479Y0194032D01*
X0110857Y0195331D02*
X0109555Y0195331D01*
X0109399Y0195329D01*
X0109243Y0195323D01*
X0109087Y0195314D01*
X0108932Y0195300D01*
X0108776Y0195283D01*
X0108622Y0195262D01*
X0108468Y0195237D01*
X0108314Y0195209D01*
X0108161Y0195176D01*
X0108009Y0195140D01*
X0107858Y0195101D01*
X0107708Y0195057D01*
X0107560Y0195010D01*
X0107412Y0194959D01*
X0107266Y0194905D01*
X0107121Y0194847D01*
X0106977Y0194785D01*
X0106835Y0194720D01*
X0106695Y0194652D01*
X0106556Y0194580D01*
X0106420Y0194505D01*
X0106285Y0194426D01*
X0106152Y0194344D01*
X0106021Y0194259D01*
X0105892Y0194171D01*
X0105766Y0194079D01*
X0105642Y0193985D01*
X0105520Y0193887D01*
X0105400Y0193787D01*
X0105283Y0193683D01*
X0105169Y0193577D01*
X0105057Y0193468D01*
X0086466Y0174877D01*
X0084774Y0170792D02*
X0084774Y0170370D01*
X0082520Y0168962D02*
X0071487Y0157929D01*
X0068534Y0157929D01*
X0070486Y0170725D02*
X0070354Y0170727D01*
X0070222Y0170732D01*
X0070090Y0170742D01*
X0069958Y0170755D01*
X0069827Y0170771D01*
X0069697Y0170792D01*
X0069567Y0170816D01*
X0069437Y0170843D01*
X0069309Y0170874D01*
X0069181Y0170909D01*
X0069055Y0170948D01*
X0068929Y0170989D01*
X0068805Y0171035D01*
X0068682Y0171084D01*
X0068561Y0171136D01*
X0068441Y0171192D01*
X0068323Y0171251D01*
X0068206Y0171313D01*
X0068091Y0171379D01*
X0067979Y0171447D01*
X0067868Y0171519D01*
X0067759Y0171594D01*
X0067652Y0171672D01*
X0067547Y0171753D01*
X0067445Y0171837D01*
X0067346Y0171924D01*
X0067248Y0172013D01*
X0067153Y0172105D01*
X0071660Y0183346D02*
X0082684Y0172322D01*
X0082748Y0172256D01*
X0082808Y0172188D01*
X0082865Y0172116D01*
X0082919Y0172043D01*
X0082970Y0171967D01*
X0083017Y0171888D01*
X0083061Y0171808D01*
X0083102Y0171726D01*
X0083139Y0171643D01*
X0083172Y0171558D01*
X0083201Y0171471D01*
X0083227Y0171383D01*
X0083248Y0171294D01*
X0083266Y0171205D01*
X0083280Y0171114D01*
X0083290Y0171024D01*
X0083296Y0170932D01*
X0083298Y0170841D01*
X0084774Y0170792D02*
X0084776Y0170943D01*
X0084782Y0171094D01*
X0084792Y0171245D01*
X0084806Y0171396D01*
X0084823Y0171546D01*
X0084845Y0171696D01*
X0084871Y0171845D01*
X0084900Y0171993D01*
X0084934Y0172141D01*
X0084971Y0172287D01*
X0085012Y0172433D01*
X0085057Y0172577D01*
X0085105Y0172720D01*
X0085158Y0172862D01*
X0085214Y0173003D01*
X0085273Y0173142D01*
X0085337Y0173279D01*
X0085404Y0173415D01*
X0085474Y0173549D01*
X0085548Y0173681D01*
X0085625Y0173810D01*
X0085706Y0173938D01*
X0085790Y0174064D01*
X0085877Y0174188D01*
X0085968Y0174309D01*
X0086061Y0174428D01*
X0086158Y0174544D01*
X0086258Y0174658D01*
X0086361Y0174769D01*
X0086466Y0174877D01*
X0071660Y0183346D02*
X0071595Y0183414D01*
X0071533Y0183485D01*
X0071474Y0183558D01*
X0071418Y0183633D01*
X0071365Y0183710D01*
X0071315Y0183790D01*
X0071269Y0183872D01*
X0071226Y0183955D01*
X0071186Y0184040D01*
X0071150Y0184127D01*
X0071118Y0184215D01*
X0071089Y0184305D01*
X0071065Y0184395D01*
X0071043Y0184487D01*
X0071026Y0184579D01*
X0071012Y0184672D01*
X0071003Y0184765D01*
X0070997Y0184859D01*
X0070995Y0184953D01*
X0070995Y0186965D01*
X0080930Y0202621D02*
X0081029Y0202525D01*
X0081130Y0202432D01*
X0081234Y0202342D01*
X0081340Y0202256D01*
X0081449Y0202172D01*
X0081561Y0202092D01*
X0081675Y0202014D01*
X0081790Y0201940D01*
X0081909Y0201870D01*
X0082029Y0201803D01*
X0082150Y0201740D01*
X0082274Y0201680D01*
X0082400Y0201623D01*
X0082527Y0201571D01*
X0082655Y0201522D01*
X0082785Y0201477D01*
X0082916Y0201435D01*
X0083048Y0201398D01*
X0083181Y0201364D01*
X0083316Y0201335D01*
X0083451Y0201309D01*
X0083586Y0201287D01*
X0083722Y0201269D01*
X0083859Y0201255D01*
X0083996Y0201245D01*
X0084134Y0201239D01*
X0084271Y0201237D01*
X0091172Y0377220D02*
X0091172Y0377417D01*
X0091546Y0377220D01*
X0081546Y0387220D02*
X0081330Y0387260D01*
X0081330Y0387220D01*
D22*
X0058593Y0275252D02*
X0060956Y0272890D01*
X0060956Y0245331D01*
X0062530Y0243756D01*
X0066074Y0243756D01*
X0068830Y0246512D01*
X0068830Y0249661D01*
X0069223Y0250055D01*
X0079459Y0250055D01*
X0083003Y0246512D01*
X0083003Y0233520D01*
X0070404Y0201236D02*
X0071192Y0200449D01*
X0071192Y0194543D01*
X0070404Y0193756D01*
X0045207Y0193756D01*
X0045404Y0186472D02*
X0044617Y0185685D01*
X0034971Y0185685D01*
X0033593Y0184307D01*
X0033593Y0180173D01*
X0034971Y0178795D01*
X0038515Y0178795D01*
X0036152Y0158717D02*
X0025522Y0158717D01*
X0020798Y0163441D01*
X0020798Y0215803D01*
X0018436Y0218165D01*
X0014105Y0218165D01*
X0011743Y0220528D01*
X0011743Y0231945D01*
X0014893Y0235094D01*
X0021585Y0235094D01*
X0028278Y0241787D01*
X0028278Y0269740D01*
X0036152Y0277614D01*
X0048751Y0277614D01*
X0052944Y0225409D02*
X0047767Y0220232D01*
X0047767Y0208717D01*
X0055247Y0201236D01*
X0070404Y0201236D01*
X0048948Y0147299D02*
X0047963Y0147299D01*
X0045995Y0149268D01*
X0028869Y0149268D01*
X0028672Y0149071D01*
X0024735Y0150055D02*
X0019223Y0150055D01*
X0010562Y0158717D01*
X0010562Y0159898D01*
X0025129Y0181945D02*
X0022767Y0184307D01*
X0022767Y0198480D01*
X0027885Y0203598D01*
X0030641Y0203598D01*
X0040877Y0213835D01*
X0040877Y0219740D01*
X0036152Y0158717D02*
X0037727Y0157142D01*
X0037727Y0156748D01*
D23*
X0083003Y0233520D03*
X0058593Y0275252D03*
X0048751Y0277614D03*
M02*
