G75*
%MOIN*%
%OFA0B0*%
%FSLAX25Y25*%
%IPPOS*%
%LPD*%
%AMOC8*
5,1,8,0,0,1.08239X$1,22.5*
%
%ADD10C,0.00000*%
%ADD11R,0.07400X0.07400*%
%ADD12OC8,0.12661*%
%ADD13OC8,0.07400*%
%ADD14C,0.06496*%
%ADD15OC8,0.06300*%
%ADD16C,0.06300*%
%ADD17OC8,0.04800*%
%ADD18C,0.02400*%
%ADD19C,0.02581*%
%ADD20C,0.01600*%
%ADD21C,0.00600*%
%ADD22C,0.01000*%
%ADD23OC8,0.02581*%
D10*
X0065737Y0002417D02*
X0223217Y0002417D01*
X0223493Y0001000D02*
X0223178Y0396000D01*
X0223217Y0396118D02*
X0065737Y0396118D01*
X0065737Y0002417D01*
X0001150Y0123520D02*
X0001152Y0123678D01*
X0001158Y0123836D01*
X0001168Y0123994D01*
X0001182Y0124152D01*
X0001200Y0124309D01*
X0001221Y0124466D01*
X0001247Y0124622D01*
X0001277Y0124778D01*
X0001310Y0124933D01*
X0001348Y0125086D01*
X0001389Y0125239D01*
X0001434Y0125391D01*
X0001483Y0125542D01*
X0001536Y0125691D01*
X0001592Y0125839D01*
X0001652Y0125985D01*
X0001716Y0126130D01*
X0001784Y0126273D01*
X0001855Y0126415D01*
X0001929Y0126555D01*
X0002007Y0126692D01*
X0002089Y0126828D01*
X0002173Y0126962D01*
X0002262Y0127093D01*
X0002353Y0127222D01*
X0002448Y0127349D01*
X0002545Y0127474D01*
X0002646Y0127596D01*
X0002750Y0127715D01*
X0002857Y0127832D01*
X0002967Y0127946D01*
X0003080Y0128057D01*
X0003195Y0128166D01*
X0003313Y0128271D01*
X0003434Y0128373D01*
X0003557Y0128473D01*
X0003683Y0128569D01*
X0003811Y0128662D01*
X0003941Y0128752D01*
X0004074Y0128838D01*
X0004209Y0128922D01*
X0004345Y0129001D01*
X0004484Y0129078D01*
X0004625Y0129150D01*
X0004767Y0129220D01*
X0004911Y0129285D01*
X0005057Y0129347D01*
X0005204Y0129405D01*
X0005353Y0129460D01*
X0005503Y0129511D01*
X0005654Y0129558D01*
X0005806Y0129601D01*
X0005959Y0129640D01*
X0006114Y0129676D01*
X0006269Y0129707D01*
X0006425Y0129735D01*
X0006581Y0129759D01*
X0006738Y0129779D01*
X0006896Y0129795D01*
X0007053Y0129807D01*
X0007212Y0129815D01*
X0007370Y0129819D01*
X0007528Y0129819D01*
X0007686Y0129815D01*
X0007845Y0129807D01*
X0008002Y0129795D01*
X0008160Y0129779D01*
X0008317Y0129759D01*
X0008473Y0129735D01*
X0008629Y0129707D01*
X0008784Y0129676D01*
X0008939Y0129640D01*
X0009092Y0129601D01*
X0009244Y0129558D01*
X0009395Y0129511D01*
X0009545Y0129460D01*
X0009694Y0129405D01*
X0009841Y0129347D01*
X0009987Y0129285D01*
X0010131Y0129220D01*
X0010273Y0129150D01*
X0010414Y0129078D01*
X0010553Y0129001D01*
X0010689Y0128922D01*
X0010824Y0128838D01*
X0010957Y0128752D01*
X0011087Y0128662D01*
X0011215Y0128569D01*
X0011341Y0128473D01*
X0011464Y0128373D01*
X0011585Y0128271D01*
X0011703Y0128166D01*
X0011818Y0128057D01*
X0011931Y0127946D01*
X0012041Y0127832D01*
X0012148Y0127715D01*
X0012252Y0127596D01*
X0012353Y0127474D01*
X0012450Y0127349D01*
X0012545Y0127222D01*
X0012636Y0127093D01*
X0012725Y0126962D01*
X0012809Y0126828D01*
X0012891Y0126692D01*
X0012969Y0126555D01*
X0013043Y0126415D01*
X0013114Y0126273D01*
X0013182Y0126130D01*
X0013246Y0125985D01*
X0013306Y0125839D01*
X0013362Y0125691D01*
X0013415Y0125542D01*
X0013464Y0125391D01*
X0013509Y0125239D01*
X0013550Y0125086D01*
X0013588Y0124933D01*
X0013621Y0124778D01*
X0013651Y0124622D01*
X0013677Y0124466D01*
X0013698Y0124309D01*
X0013716Y0124152D01*
X0013730Y0123994D01*
X0013740Y0123836D01*
X0013746Y0123678D01*
X0013748Y0123520D01*
X0013746Y0123362D01*
X0013740Y0123204D01*
X0013730Y0123046D01*
X0013716Y0122888D01*
X0013698Y0122731D01*
X0013677Y0122574D01*
X0013651Y0122418D01*
X0013621Y0122262D01*
X0013588Y0122107D01*
X0013550Y0121954D01*
X0013509Y0121801D01*
X0013464Y0121649D01*
X0013415Y0121498D01*
X0013362Y0121349D01*
X0013306Y0121201D01*
X0013246Y0121055D01*
X0013182Y0120910D01*
X0013114Y0120767D01*
X0013043Y0120625D01*
X0012969Y0120485D01*
X0012891Y0120348D01*
X0012809Y0120212D01*
X0012725Y0120078D01*
X0012636Y0119947D01*
X0012545Y0119818D01*
X0012450Y0119691D01*
X0012353Y0119566D01*
X0012252Y0119444D01*
X0012148Y0119325D01*
X0012041Y0119208D01*
X0011931Y0119094D01*
X0011818Y0118983D01*
X0011703Y0118874D01*
X0011585Y0118769D01*
X0011464Y0118667D01*
X0011341Y0118567D01*
X0011215Y0118471D01*
X0011087Y0118378D01*
X0010957Y0118288D01*
X0010824Y0118202D01*
X0010689Y0118118D01*
X0010553Y0118039D01*
X0010414Y0117962D01*
X0010273Y0117890D01*
X0010131Y0117820D01*
X0009987Y0117755D01*
X0009841Y0117693D01*
X0009694Y0117635D01*
X0009545Y0117580D01*
X0009395Y0117529D01*
X0009244Y0117482D01*
X0009092Y0117439D01*
X0008939Y0117400D01*
X0008784Y0117364D01*
X0008629Y0117333D01*
X0008473Y0117305D01*
X0008317Y0117281D01*
X0008160Y0117261D01*
X0008002Y0117245D01*
X0007845Y0117233D01*
X0007686Y0117225D01*
X0007528Y0117221D01*
X0007370Y0117221D01*
X0007212Y0117225D01*
X0007053Y0117233D01*
X0006896Y0117245D01*
X0006738Y0117261D01*
X0006581Y0117281D01*
X0006425Y0117305D01*
X0006269Y0117333D01*
X0006114Y0117364D01*
X0005959Y0117400D01*
X0005806Y0117439D01*
X0005654Y0117482D01*
X0005503Y0117529D01*
X0005353Y0117580D01*
X0005204Y0117635D01*
X0005057Y0117693D01*
X0004911Y0117755D01*
X0004767Y0117820D01*
X0004625Y0117890D01*
X0004484Y0117962D01*
X0004345Y0118039D01*
X0004209Y0118118D01*
X0004074Y0118202D01*
X0003941Y0118288D01*
X0003811Y0118378D01*
X0003683Y0118471D01*
X0003557Y0118567D01*
X0003434Y0118667D01*
X0003313Y0118769D01*
X0003195Y0118874D01*
X0003080Y0118983D01*
X0002967Y0119094D01*
X0002857Y0119208D01*
X0002750Y0119325D01*
X0002646Y0119444D01*
X0002545Y0119566D01*
X0002448Y0119691D01*
X0002353Y0119818D01*
X0002262Y0119947D01*
X0002173Y0120078D01*
X0002089Y0120212D01*
X0002007Y0120348D01*
X0001929Y0120485D01*
X0001855Y0120625D01*
X0001784Y0120767D01*
X0001716Y0120910D01*
X0001652Y0121055D01*
X0001592Y0121201D01*
X0001536Y0121349D01*
X0001483Y0121498D01*
X0001434Y0121649D01*
X0001389Y0121801D01*
X0001348Y0121954D01*
X0001310Y0122107D01*
X0001277Y0122262D01*
X0001247Y0122418D01*
X0001221Y0122574D01*
X0001200Y0122731D01*
X0001182Y0122888D01*
X0001168Y0123046D01*
X0001158Y0123204D01*
X0001152Y0123362D01*
X0001150Y0123520D01*
D11*
X0080304Y0226039D03*
X0090146Y0226039D03*
X0099989Y0226039D03*
X0099989Y0348087D03*
X0090146Y0348087D03*
X0080304Y0348087D03*
X0188965Y0348087D03*
X0198807Y0348087D03*
X0208650Y0348087D03*
X0208650Y0226039D03*
X0198807Y0226039D03*
X0188965Y0226039D03*
D12*
X0181485Y0252417D03*
X0216130Y0252417D03*
X0216130Y0374465D03*
X0181485Y0374465D03*
X0107469Y0374465D03*
X0072823Y0374465D03*
X0072823Y0252417D03*
X0107469Y0252417D03*
D13*
X0115599Y0235409D03*
X0115599Y0225409D03*
X0115599Y0215409D03*
X0125599Y0215409D03*
X0125599Y0225409D03*
X0125599Y0235409D03*
X0124201Y0377220D03*
X0124201Y0387220D03*
X0134201Y0387220D03*
X0134201Y0377220D03*
X0144201Y0377220D03*
X0144201Y0387220D03*
X0154201Y0387220D03*
X0154201Y0377220D03*
X0164201Y0377220D03*
X0164201Y0387220D03*
D14*
X0198807Y0331157D03*
X0198807Y0297693D03*
X0198807Y0285882D03*
X0198807Y0209110D03*
X0198807Y0175646D03*
X0198807Y0163835D03*
X0205500Y0114622D03*
X0205500Y0102811D03*
X0205500Y0069346D03*
X0205500Y0051630D03*
X0205500Y0039819D03*
X0205500Y0006354D03*
X0164819Y0006354D03*
X0164819Y0039819D03*
X0164819Y0051630D03*
X0164819Y0069346D03*
X0164819Y0102811D03*
X0164819Y0114622D03*
X0124134Y0114622D03*
X0124134Y0102811D03*
X0124134Y0069346D03*
X0124134Y0051630D03*
X0124134Y0039819D03*
X0124134Y0006354D03*
X0083453Y0006354D03*
X0083453Y0039819D03*
X0083453Y0051630D03*
X0083453Y0069346D03*
X0083453Y0102811D03*
X0083453Y0114622D03*
X0090146Y0163835D03*
X0090146Y0175646D03*
X0090146Y0209110D03*
X0090146Y0285882D03*
X0090146Y0297693D03*
X0090146Y0331157D03*
D15*
X0113788Y0323992D03*
X0146662Y0324366D03*
D16*
X0136662Y0324366D03*
X0123788Y0323992D03*
D17*
X0119134Y0130055D03*
X0129134Y0130055D03*
X0159819Y0130055D03*
X0169819Y0130055D03*
X0200500Y0130055D03*
X0210500Y0130055D03*
X0088453Y0130055D03*
X0078453Y0130055D03*
D18*
X0068886Y0114228D02*
X0068886Y0057929D01*
X0068887Y0057929D02*
X0068889Y0057813D01*
X0068895Y0057697D01*
X0068904Y0057582D01*
X0068917Y0057467D01*
X0068934Y0057352D01*
X0068955Y0057238D01*
X0068980Y0057124D01*
X0069008Y0057012D01*
X0069040Y0056901D01*
X0069075Y0056790D01*
X0069114Y0056681D01*
X0069157Y0056573D01*
X0069203Y0056467D01*
X0069252Y0056362D01*
X0069305Y0056259D01*
X0069362Y0056157D01*
X0069421Y0056058D01*
X0069484Y0055961D01*
X0069550Y0055865D01*
X0069619Y0055772D01*
X0069691Y0055681D01*
X0069766Y0055593D01*
X0069844Y0055507D01*
X0069925Y0055424D01*
X0070008Y0055343D01*
X0070094Y0055265D01*
X0070182Y0055190D01*
X0070273Y0055118D01*
X0070366Y0055049D01*
X0070462Y0054983D01*
X0070559Y0054920D01*
X0070659Y0054861D01*
X0070760Y0054804D01*
X0070863Y0054751D01*
X0070968Y0054702D01*
X0071074Y0054656D01*
X0071182Y0054613D01*
X0071291Y0054574D01*
X0071402Y0054539D01*
X0071513Y0054507D01*
X0071625Y0054479D01*
X0071739Y0054454D01*
X0071853Y0054433D01*
X0071968Y0054416D01*
X0072083Y0054403D01*
X0072198Y0054394D01*
X0072314Y0054388D01*
X0072430Y0054386D01*
X0079910Y0059898D02*
X0096052Y0059898D01*
X0119280Y0059898D01*
X0119334Y0059900D01*
X0119387Y0059905D01*
X0119440Y0059914D01*
X0119492Y0059927D01*
X0119544Y0059943D01*
X0119594Y0059963D01*
X0119642Y0059986D01*
X0119689Y0060013D01*
X0119734Y0060042D01*
X0119777Y0060075D01*
X0119817Y0060110D01*
X0119855Y0060148D01*
X0119890Y0060188D01*
X0119923Y0060231D01*
X0119952Y0060276D01*
X0119979Y0060323D01*
X0120002Y0060371D01*
X0120022Y0060421D01*
X0120038Y0060473D01*
X0120051Y0060525D01*
X0120060Y0060578D01*
X0120065Y0060631D01*
X0120067Y0060685D01*
X0152351Y0060685D01*
X0152454Y0060687D01*
X0152557Y0060693D01*
X0152660Y0060702D01*
X0152762Y0060716D01*
X0152863Y0060733D01*
X0152964Y0060754D01*
X0153064Y0060779D01*
X0153163Y0060807D01*
X0153261Y0060840D01*
X0153358Y0060876D01*
X0153453Y0060915D01*
X0153547Y0060958D01*
X0153639Y0061004D01*
X0153729Y0061054D01*
X0153817Y0061107D01*
X0153904Y0061164D01*
X0153988Y0061224D01*
X0154069Y0061286D01*
X0154149Y0061352D01*
X0154226Y0061421D01*
X0154300Y0061492D01*
X0154371Y0061566D01*
X0154440Y0061643D01*
X0154506Y0061723D01*
X0154568Y0061804D01*
X0154628Y0061888D01*
X0154685Y0061975D01*
X0154738Y0062063D01*
X0154788Y0062153D01*
X0154834Y0062245D01*
X0154877Y0062339D01*
X0154916Y0062434D01*
X0154952Y0062531D01*
X0154985Y0062629D01*
X0155013Y0062728D01*
X0155038Y0062828D01*
X0155059Y0062929D01*
X0155076Y0063030D01*
X0155090Y0063132D01*
X0155099Y0063235D01*
X0155105Y0063338D01*
X0155107Y0063441D01*
X0192902Y0063441D01*
X0203138Y0053992D02*
X0167181Y0053992D01*
X0167086Y0053990D01*
X0166991Y0053984D01*
X0166896Y0053975D01*
X0166802Y0053961D01*
X0166709Y0053944D01*
X0166616Y0053923D01*
X0166524Y0053899D01*
X0166433Y0053870D01*
X0166343Y0053839D01*
X0166255Y0053803D01*
X0166168Y0053764D01*
X0166083Y0053721D01*
X0166000Y0053676D01*
X0165919Y0053626D01*
X0165839Y0053574D01*
X0165762Y0053518D01*
X0165687Y0053460D01*
X0165615Y0053398D01*
X0165545Y0053333D01*
X0165478Y0053266D01*
X0165413Y0053196D01*
X0165351Y0053124D01*
X0165293Y0053049D01*
X0165237Y0052972D01*
X0165185Y0052892D01*
X0165135Y0052811D01*
X0165090Y0052728D01*
X0165047Y0052643D01*
X0165008Y0052556D01*
X0164972Y0052468D01*
X0164941Y0052378D01*
X0164912Y0052287D01*
X0164888Y0052195D01*
X0164867Y0052102D01*
X0164850Y0052009D01*
X0164836Y0051915D01*
X0164827Y0051820D01*
X0164821Y0051725D01*
X0164819Y0051630D01*
X0164820Y0051630D02*
X0164818Y0051761D01*
X0164812Y0051891D01*
X0164802Y0052022D01*
X0164788Y0052152D01*
X0164771Y0052282D01*
X0164749Y0052411D01*
X0164724Y0052539D01*
X0164694Y0052666D01*
X0164661Y0052793D01*
X0164624Y0052918D01*
X0164583Y0053043D01*
X0164539Y0053166D01*
X0164490Y0053287D01*
X0164438Y0053407D01*
X0164383Y0053526D01*
X0164324Y0053643D01*
X0164261Y0053758D01*
X0164195Y0053871D01*
X0164126Y0053982D01*
X0164053Y0054090D01*
X0163977Y0054197D01*
X0163898Y0054301D01*
X0163816Y0054403D01*
X0163731Y0054502D01*
X0163643Y0054599D01*
X0163551Y0054692D01*
X0163458Y0054784D01*
X0163361Y0054872D01*
X0163262Y0054957D01*
X0163160Y0055039D01*
X0163056Y0055118D01*
X0162949Y0055194D01*
X0162841Y0055267D01*
X0162730Y0055336D01*
X0162617Y0055402D01*
X0162502Y0055465D01*
X0162385Y0055524D01*
X0162266Y0055579D01*
X0162146Y0055631D01*
X0162025Y0055680D01*
X0161902Y0055724D01*
X0161777Y0055765D01*
X0161652Y0055802D01*
X0161525Y0055835D01*
X0161398Y0055865D01*
X0161270Y0055890D01*
X0161141Y0055912D01*
X0161011Y0055929D01*
X0160881Y0055943D01*
X0160750Y0055953D01*
X0160620Y0055959D01*
X0160489Y0055961D01*
X0128465Y0055961D01*
X0128334Y0055959D01*
X0128204Y0055953D01*
X0128073Y0055943D01*
X0127943Y0055929D01*
X0127813Y0055912D01*
X0127684Y0055890D01*
X0127556Y0055865D01*
X0127429Y0055835D01*
X0127302Y0055802D01*
X0127177Y0055765D01*
X0127052Y0055724D01*
X0126929Y0055680D01*
X0126808Y0055631D01*
X0126688Y0055579D01*
X0126569Y0055524D01*
X0126452Y0055465D01*
X0126337Y0055402D01*
X0126224Y0055336D01*
X0126113Y0055267D01*
X0126005Y0055194D01*
X0125898Y0055118D01*
X0125794Y0055039D01*
X0125692Y0054957D01*
X0125593Y0054872D01*
X0125496Y0054784D01*
X0125403Y0054692D01*
X0125311Y0054599D01*
X0125223Y0054502D01*
X0125138Y0054403D01*
X0125056Y0054301D01*
X0124977Y0054197D01*
X0124901Y0054090D01*
X0124828Y0053982D01*
X0124759Y0053871D01*
X0124693Y0053758D01*
X0124630Y0053643D01*
X0124571Y0053526D01*
X0124516Y0053407D01*
X0124464Y0053287D01*
X0124415Y0053166D01*
X0124371Y0053043D01*
X0124330Y0052918D01*
X0124293Y0052793D01*
X0124260Y0052666D01*
X0124230Y0052539D01*
X0124205Y0052411D01*
X0124183Y0052282D01*
X0124166Y0052152D01*
X0124152Y0052022D01*
X0124142Y0051891D01*
X0124136Y0051761D01*
X0124134Y0051630D01*
X0124135Y0051630D02*
X0124133Y0051761D01*
X0124127Y0051891D01*
X0124117Y0052022D01*
X0124103Y0052152D01*
X0124086Y0052282D01*
X0124064Y0052411D01*
X0124039Y0052539D01*
X0124009Y0052666D01*
X0123976Y0052793D01*
X0123939Y0052918D01*
X0123898Y0053043D01*
X0123854Y0053166D01*
X0123805Y0053287D01*
X0123753Y0053407D01*
X0123698Y0053526D01*
X0123639Y0053643D01*
X0123576Y0053758D01*
X0123510Y0053871D01*
X0123441Y0053982D01*
X0123368Y0054090D01*
X0123292Y0054197D01*
X0123213Y0054301D01*
X0123131Y0054403D01*
X0123046Y0054502D01*
X0122958Y0054599D01*
X0122866Y0054692D01*
X0122773Y0054784D01*
X0122676Y0054872D01*
X0122577Y0054957D01*
X0122475Y0055039D01*
X0122371Y0055118D01*
X0122264Y0055194D01*
X0122156Y0055267D01*
X0122045Y0055336D01*
X0121932Y0055402D01*
X0121817Y0055465D01*
X0121700Y0055524D01*
X0121581Y0055579D01*
X0121461Y0055631D01*
X0121340Y0055680D01*
X0121217Y0055724D01*
X0121092Y0055765D01*
X0120967Y0055802D01*
X0120840Y0055835D01*
X0120713Y0055865D01*
X0120585Y0055890D01*
X0120456Y0055912D01*
X0120326Y0055929D01*
X0120196Y0055943D01*
X0120065Y0055953D01*
X0119935Y0055959D01*
X0119804Y0055961D01*
X0087784Y0055961D01*
X0087653Y0055959D01*
X0087523Y0055953D01*
X0087392Y0055943D01*
X0087262Y0055929D01*
X0087132Y0055912D01*
X0087003Y0055890D01*
X0086875Y0055865D01*
X0086748Y0055835D01*
X0086621Y0055802D01*
X0086496Y0055765D01*
X0086371Y0055724D01*
X0086248Y0055680D01*
X0086127Y0055631D01*
X0086007Y0055579D01*
X0085888Y0055524D01*
X0085771Y0055465D01*
X0085656Y0055402D01*
X0085543Y0055336D01*
X0085432Y0055267D01*
X0085324Y0055194D01*
X0085217Y0055118D01*
X0085113Y0055039D01*
X0085011Y0054957D01*
X0084912Y0054872D01*
X0084815Y0054784D01*
X0084722Y0054692D01*
X0084630Y0054599D01*
X0084542Y0054502D01*
X0084457Y0054403D01*
X0084375Y0054301D01*
X0084296Y0054197D01*
X0084220Y0054090D01*
X0084147Y0053982D01*
X0084078Y0053871D01*
X0084012Y0053758D01*
X0083949Y0053643D01*
X0083890Y0053526D01*
X0083835Y0053407D01*
X0083783Y0053287D01*
X0083734Y0053166D01*
X0083690Y0053043D01*
X0083649Y0052918D01*
X0083612Y0052793D01*
X0083579Y0052666D01*
X0083549Y0052539D01*
X0083524Y0052411D01*
X0083502Y0052282D01*
X0083485Y0052152D01*
X0083471Y0052022D01*
X0083461Y0051891D01*
X0083455Y0051761D01*
X0083453Y0051630D01*
X0129134Y0130055D02*
X0129132Y0130208D01*
X0129126Y0130360D01*
X0129116Y0130512D01*
X0129102Y0130664D01*
X0129084Y0130816D01*
X0129062Y0130967D01*
X0129036Y0131117D01*
X0129007Y0131267D01*
X0128973Y0131415D01*
X0128935Y0131563D01*
X0128894Y0131710D01*
X0128849Y0131856D01*
X0128800Y0132000D01*
X0128747Y0132143D01*
X0128690Y0132285D01*
X0128630Y0132425D01*
X0128566Y0132564D01*
X0128499Y0132700D01*
X0128428Y0132835D01*
X0128353Y0132969D01*
X0128275Y0133100D01*
X0128194Y0133229D01*
X0128109Y0133355D01*
X0128021Y0133480D01*
X0127930Y0133602D01*
X0127835Y0133722D01*
X0127738Y0133839D01*
X0127637Y0133954D01*
X0127534Y0134066D01*
X0127427Y0134175D01*
X0127318Y0134282D01*
X0127206Y0134385D01*
X0127091Y0134486D01*
X0126974Y0134583D01*
X0126854Y0134678D01*
X0126732Y0134769D01*
X0126607Y0134857D01*
X0126481Y0134942D01*
X0126352Y0135023D01*
X0126221Y0135101D01*
X0126087Y0135176D01*
X0125952Y0135247D01*
X0125816Y0135314D01*
X0125677Y0135378D01*
X0125537Y0135438D01*
X0125395Y0135495D01*
X0125252Y0135548D01*
X0125108Y0135597D01*
X0124962Y0135642D01*
X0124815Y0135683D01*
X0124667Y0135721D01*
X0124519Y0135755D01*
X0124369Y0135784D01*
X0124219Y0135810D01*
X0124068Y0135832D01*
X0123916Y0135850D01*
X0123764Y0135864D01*
X0123612Y0135874D01*
X0123460Y0135880D01*
X0123307Y0135882D01*
X0118099Y0135882D01*
X0093689Y0135882D01*
X0092390Y0153323D02*
X0113040Y0153323D01*
X0113027Y0153324D01*
X0113014Y0153329D01*
X0113003Y0153336D01*
X0112994Y0153345D01*
X0112987Y0153356D01*
X0112982Y0153369D01*
X0112981Y0153382D01*
X0112981Y0160291D01*
X0113039Y0153323D02*
X0113041Y0153237D01*
X0113046Y0153151D01*
X0113056Y0153066D01*
X0113069Y0152981D01*
X0113086Y0152897D01*
X0113106Y0152813D01*
X0113130Y0152731D01*
X0113158Y0152650D01*
X0113189Y0152569D01*
X0113223Y0152491D01*
X0113261Y0152414D01*
X0113303Y0152339D01*
X0113347Y0152265D01*
X0113395Y0152194D01*
X0113446Y0152124D01*
X0113500Y0152057D01*
X0113556Y0151993D01*
X0113616Y0151931D01*
X0113678Y0151871D01*
X0113742Y0151815D01*
X0113809Y0151761D01*
X0113879Y0151710D01*
X0113950Y0151662D01*
X0114024Y0151618D01*
X0114099Y0151576D01*
X0114176Y0151538D01*
X0114254Y0151504D01*
X0114335Y0151473D01*
X0114416Y0151445D01*
X0114498Y0151421D01*
X0114582Y0151401D01*
X0114666Y0151384D01*
X0114751Y0151371D01*
X0114836Y0151361D01*
X0114922Y0151356D01*
X0115008Y0151354D01*
X0148414Y0151354D01*
X0148414Y0154780D01*
X0148414Y0151354D02*
X0161504Y0151354D01*
X0161504Y0151355D02*
X0161537Y0151357D01*
X0161570Y0151362D01*
X0161601Y0151372D01*
X0161632Y0151384D01*
X0161661Y0151400D01*
X0161688Y0151419D01*
X0161713Y0151441D01*
X0161735Y0151466D01*
X0161754Y0151493D01*
X0161770Y0151522D01*
X0161782Y0151553D01*
X0161792Y0151584D01*
X0161797Y0151617D01*
X0161799Y0151650D01*
X0161800Y0151650D02*
X0161800Y0158323D01*
X0161802Y0158345D01*
X0161806Y0158367D01*
X0161814Y0158388D01*
X0161825Y0158408D01*
X0161838Y0158426D01*
X0161854Y0158442D01*
X0161872Y0158455D01*
X0161892Y0158466D01*
X0161913Y0158474D01*
X0161935Y0158478D01*
X0161957Y0158480D01*
X0216485Y0158480D01*
X0216485Y0158481D02*
X0216495Y0158482D01*
X0216505Y0158486D01*
X0216513Y0158492D01*
X0216519Y0158501D01*
X0216523Y0158510D01*
X0216524Y0158520D01*
X0216524Y0162260D01*
X0192115Y0098087D02*
X0192115Y0089819D01*
X0192114Y0089819D02*
X0192116Y0089688D01*
X0192122Y0089558D01*
X0192132Y0089427D01*
X0192146Y0089297D01*
X0192163Y0089167D01*
X0192185Y0089038D01*
X0192210Y0088910D01*
X0192240Y0088783D01*
X0192273Y0088656D01*
X0192310Y0088531D01*
X0192351Y0088406D01*
X0192395Y0088283D01*
X0192444Y0088162D01*
X0192496Y0088042D01*
X0192551Y0087923D01*
X0192610Y0087806D01*
X0192673Y0087691D01*
X0192739Y0087578D01*
X0192808Y0087467D01*
X0192881Y0087359D01*
X0192957Y0087252D01*
X0193036Y0087148D01*
X0193118Y0087046D01*
X0193203Y0086947D01*
X0193291Y0086850D01*
X0193383Y0086757D01*
X0193476Y0086665D01*
X0193573Y0086577D01*
X0193672Y0086492D01*
X0193774Y0086410D01*
X0193878Y0086331D01*
X0193985Y0086255D01*
X0194093Y0086182D01*
X0194204Y0086113D01*
X0194317Y0086047D01*
X0194432Y0085984D01*
X0194549Y0085925D01*
X0194668Y0085870D01*
X0194788Y0085818D01*
X0194909Y0085769D01*
X0195032Y0085725D01*
X0195157Y0085684D01*
X0195282Y0085647D01*
X0195409Y0085614D01*
X0195536Y0085584D01*
X0195664Y0085559D01*
X0195793Y0085537D01*
X0195923Y0085520D01*
X0196053Y0085506D01*
X0196184Y0085496D01*
X0196314Y0085490D01*
X0196445Y0085488D01*
X0207469Y0085488D01*
X0207616Y0085486D01*
X0207762Y0085480D01*
X0207909Y0085470D01*
X0208055Y0085457D01*
X0208201Y0085439D01*
X0208346Y0085418D01*
X0208490Y0085393D01*
X0208634Y0085363D01*
X0208777Y0085331D01*
X0208919Y0085294D01*
X0209060Y0085253D01*
X0209200Y0085209D01*
X0209339Y0085161D01*
X0209476Y0085110D01*
X0209612Y0085054D01*
X0209747Y0084995D01*
X0209879Y0084933D01*
X0210011Y0084867D01*
X0210140Y0084798D01*
X0210267Y0084725D01*
X0210393Y0084649D01*
X0210516Y0084569D01*
X0210637Y0084486D01*
X0210756Y0084401D01*
X0210873Y0084311D01*
X0210987Y0084219D01*
X0211099Y0084124D01*
X0211208Y0084026D01*
X0211314Y0083925D01*
X0211418Y0083821D01*
X0211519Y0083715D01*
X0211617Y0083606D01*
X0211712Y0083494D01*
X0211804Y0083380D01*
X0211894Y0083263D01*
X0211979Y0083144D01*
X0212062Y0083023D01*
X0212142Y0082900D01*
X0212218Y0082774D01*
X0212291Y0082647D01*
X0212360Y0082518D01*
X0212426Y0082386D01*
X0212488Y0082254D01*
X0212547Y0082119D01*
X0212603Y0081983D01*
X0212654Y0081846D01*
X0212702Y0081707D01*
X0212746Y0081567D01*
X0212787Y0081426D01*
X0212824Y0081284D01*
X0212856Y0081141D01*
X0212886Y0080997D01*
X0212911Y0080853D01*
X0212932Y0080708D01*
X0212950Y0080562D01*
X0212963Y0080416D01*
X0212973Y0080269D01*
X0212979Y0080123D01*
X0212981Y0079976D01*
X0212981Y0053992D01*
X0212979Y0053897D01*
X0212973Y0053802D01*
X0212964Y0053707D01*
X0212950Y0053613D01*
X0212933Y0053520D01*
X0212912Y0053427D01*
X0212888Y0053335D01*
X0212859Y0053244D01*
X0212828Y0053154D01*
X0212792Y0053066D01*
X0212753Y0052979D01*
X0212710Y0052894D01*
X0212665Y0052811D01*
X0212615Y0052730D01*
X0212563Y0052650D01*
X0212507Y0052573D01*
X0212449Y0052498D01*
X0212387Y0052426D01*
X0212322Y0052356D01*
X0212255Y0052289D01*
X0212185Y0052224D01*
X0212113Y0052162D01*
X0212038Y0052104D01*
X0211961Y0052048D01*
X0211881Y0051996D01*
X0211800Y0051946D01*
X0211717Y0051901D01*
X0211632Y0051858D01*
X0211545Y0051819D01*
X0211457Y0051783D01*
X0211367Y0051752D01*
X0211276Y0051723D01*
X0211184Y0051699D01*
X0211091Y0051678D01*
X0210998Y0051661D01*
X0210904Y0051647D01*
X0210809Y0051638D01*
X0210714Y0051632D01*
X0210619Y0051630D01*
X0205500Y0051630D01*
X0208650Y0051630D01*
X0205500Y0051630D02*
X0205498Y0051725D01*
X0205492Y0051820D01*
X0205483Y0051915D01*
X0205469Y0052009D01*
X0205452Y0052102D01*
X0205431Y0052195D01*
X0205407Y0052287D01*
X0205378Y0052378D01*
X0205347Y0052468D01*
X0205311Y0052556D01*
X0205272Y0052643D01*
X0205229Y0052728D01*
X0205184Y0052811D01*
X0205134Y0052892D01*
X0205082Y0052972D01*
X0205026Y0053049D01*
X0204968Y0053124D01*
X0204906Y0053196D01*
X0204841Y0053266D01*
X0204774Y0053333D01*
X0204704Y0053398D01*
X0204632Y0053460D01*
X0204557Y0053518D01*
X0204480Y0053574D01*
X0204400Y0053626D01*
X0204319Y0053676D01*
X0204236Y0053721D01*
X0204151Y0053764D01*
X0204064Y0053803D01*
X0203976Y0053839D01*
X0203886Y0053870D01*
X0203795Y0053899D01*
X0203703Y0053923D01*
X0203610Y0053944D01*
X0203517Y0053961D01*
X0203423Y0053975D01*
X0203328Y0053984D01*
X0203233Y0053990D01*
X0203138Y0053992D01*
X0192115Y0098087D02*
X0192110Y0098477D01*
X0192096Y0098867D01*
X0192073Y0099256D01*
X0192040Y0099645D01*
X0191997Y0100033D01*
X0191946Y0100419D01*
X0191885Y0100805D01*
X0191814Y0101188D01*
X0191735Y0101570D01*
X0191646Y0101950D01*
X0191548Y0102328D01*
X0191441Y0102703D01*
X0191325Y0103075D01*
X0191200Y0103445D01*
X0191066Y0103811D01*
X0190923Y0104174D01*
X0190772Y0104534D01*
X0190612Y0104889D01*
X0190443Y0105241D01*
X0190266Y0105589D01*
X0190081Y0105932D01*
X0189887Y0106270D01*
X0189685Y0106604D01*
X0189475Y0106933D01*
X0189258Y0107257D01*
X0189032Y0107575D01*
X0188799Y0107888D01*
X0188559Y0108195D01*
X0188311Y0108496D01*
X0188055Y0108791D01*
X0187793Y0109080D01*
X0187524Y0109362D01*
X0187248Y0109638D01*
X0186966Y0109907D01*
X0186677Y0110169D01*
X0186382Y0110425D01*
X0186081Y0110673D01*
X0185774Y0110913D01*
X0185461Y0111146D01*
X0185143Y0111372D01*
X0184819Y0111589D01*
X0184490Y0111799D01*
X0184156Y0112001D01*
X0183818Y0112195D01*
X0183475Y0112380D01*
X0183127Y0112557D01*
X0182775Y0112726D01*
X0182420Y0112886D01*
X0182060Y0113037D01*
X0181697Y0113180D01*
X0181331Y0113314D01*
X0180961Y0113439D01*
X0180589Y0113555D01*
X0180214Y0113662D01*
X0179836Y0113760D01*
X0179456Y0113849D01*
X0179074Y0113928D01*
X0178691Y0113999D01*
X0178305Y0114060D01*
X0177919Y0114111D01*
X0177531Y0114154D01*
X0177142Y0114187D01*
X0176753Y0114210D01*
X0176363Y0114224D01*
X0175973Y0114229D01*
X0175973Y0114228D02*
X0165213Y0114228D01*
X0165174Y0114230D01*
X0165136Y0114236D01*
X0165099Y0114245D01*
X0165062Y0114258D01*
X0165027Y0114275D01*
X0164994Y0114294D01*
X0164963Y0114317D01*
X0164934Y0114343D01*
X0164908Y0114372D01*
X0164885Y0114403D01*
X0164866Y0114436D01*
X0164849Y0114471D01*
X0164836Y0114508D01*
X0164827Y0114545D01*
X0164821Y0114583D01*
X0164819Y0114622D01*
X0169819Y0130055D02*
X0169819Y0137457D01*
X0149989Y0137457D01*
X0149923Y0137459D01*
X0149857Y0137464D01*
X0149791Y0137474D01*
X0149726Y0137487D01*
X0149662Y0137503D01*
X0149599Y0137523D01*
X0149537Y0137547D01*
X0149477Y0137574D01*
X0149418Y0137604D01*
X0149361Y0137638D01*
X0149306Y0137675D01*
X0149253Y0137715D01*
X0149202Y0137757D01*
X0149154Y0137803D01*
X0149108Y0137851D01*
X0149066Y0137902D01*
X0149026Y0137955D01*
X0148989Y0138010D01*
X0148955Y0138067D01*
X0148925Y0138126D01*
X0148898Y0138186D01*
X0148874Y0138248D01*
X0148854Y0138311D01*
X0148838Y0138375D01*
X0148825Y0138440D01*
X0148815Y0138506D01*
X0148810Y0138572D01*
X0148808Y0138638D01*
X0148807Y0138638D02*
X0148807Y0148087D01*
X0148808Y0138638D02*
X0148805Y0138431D01*
X0148798Y0138223D01*
X0148785Y0138016D01*
X0148768Y0137810D01*
X0148745Y0137603D01*
X0148718Y0137398D01*
X0148685Y0137193D01*
X0148648Y0136989D01*
X0148606Y0136786D01*
X0148559Y0136584D01*
X0148507Y0136383D01*
X0148450Y0136184D01*
X0148388Y0135986D01*
X0148321Y0135789D01*
X0148250Y0135594D01*
X0148174Y0135401D01*
X0148094Y0135210D01*
X0148009Y0135021D01*
X0147919Y0134834D01*
X0147825Y0134649D01*
X0147726Y0134467D01*
X0147623Y0134287D01*
X0147516Y0134109D01*
X0147404Y0133934D01*
X0147289Y0133762D01*
X0147169Y0133593D01*
X0147045Y0133427D01*
X0146917Y0133263D01*
X0146785Y0133103D01*
X0146649Y0132946D01*
X0146510Y0132793D01*
X0146367Y0132643D01*
X0146220Y0132496D01*
X0146070Y0132353D01*
X0145917Y0132214D01*
X0145760Y0132078D01*
X0145600Y0131946D01*
X0145436Y0131818D01*
X0145270Y0131694D01*
X0145101Y0131574D01*
X0144929Y0131459D01*
X0144754Y0131347D01*
X0144576Y0131240D01*
X0144396Y0131137D01*
X0144214Y0131038D01*
X0144029Y0130944D01*
X0143842Y0130854D01*
X0143653Y0130769D01*
X0143462Y0130689D01*
X0143269Y0130613D01*
X0143074Y0130542D01*
X0142877Y0130475D01*
X0142679Y0130413D01*
X0142480Y0130356D01*
X0142279Y0130304D01*
X0142077Y0130257D01*
X0141874Y0130215D01*
X0141670Y0130178D01*
X0141465Y0130145D01*
X0141260Y0130118D01*
X0141053Y0130095D01*
X0140847Y0130078D01*
X0140640Y0130065D01*
X0140432Y0130058D01*
X0140225Y0130055D01*
X0129134Y0130055D01*
X0118493Y0136276D02*
X0118493Y0146906D01*
X0118493Y0136276D02*
X0118491Y0136237D01*
X0118485Y0136199D01*
X0118476Y0136162D01*
X0118463Y0136125D01*
X0118446Y0136090D01*
X0118427Y0136057D01*
X0118404Y0136026D01*
X0118378Y0135997D01*
X0118349Y0135971D01*
X0118318Y0135948D01*
X0118285Y0135929D01*
X0118250Y0135912D01*
X0118213Y0135899D01*
X0118176Y0135890D01*
X0118138Y0135884D01*
X0118099Y0135882D01*
X0092390Y0153323D02*
X0091879Y0153329D01*
X0091369Y0153348D01*
X0090859Y0153379D01*
X0090350Y0153422D01*
X0089842Y0153477D01*
X0089335Y0153545D01*
X0088831Y0153625D01*
X0088328Y0153717D01*
X0087828Y0153821D01*
X0087330Y0153937D01*
X0086836Y0154066D01*
X0086345Y0154206D01*
X0085857Y0154358D01*
X0085373Y0154522D01*
X0084893Y0154697D01*
X0084417Y0154884D01*
X0083947Y0155082D01*
X0083481Y0155292D01*
X0083020Y0155513D01*
X0082565Y0155745D01*
X0082115Y0155988D01*
X0081672Y0156241D01*
X0081235Y0156506D01*
X0080804Y0156780D01*
X0080380Y0157065D01*
X0079963Y0157361D01*
X0079553Y0157666D01*
X0079151Y0157981D01*
X0078757Y0158306D01*
X0078370Y0158640D01*
X0077992Y0158983D01*
X0077622Y0159336D01*
X0077261Y0159697D01*
X0076908Y0160067D01*
X0076565Y0160445D01*
X0076231Y0160832D01*
X0075906Y0161226D01*
X0075591Y0161628D01*
X0075286Y0162038D01*
X0074990Y0162455D01*
X0074705Y0162879D01*
X0074431Y0163310D01*
X0074166Y0163747D01*
X0073913Y0164190D01*
X0073670Y0164640D01*
X0073438Y0165095D01*
X0073217Y0165556D01*
X0073007Y0166022D01*
X0072809Y0166492D01*
X0072622Y0166968D01*
X0072447Y0167448D01*
X0072283Y0167932D01*
X0072131Y0168420D01*
X0071991Y0168911D01*
X0071862Y0169405D01*
X0071746Y0169903D01*
X0071642Y0170403D01*
X0071550Y0170906D01*
X0071470Y0171410D01*
X0071402Y0171917D01*
X0071347Y0172425D01*
X0071304Y0172934D01*
X0071273Y0173444D01*
X0071254Y0173954D01*
X0071248Y0174465D01*
X0071248Y0235488D01*
X0071250Y0235635D01*
X0071256Y0235781D01*
X0071266Y0235928D01*
X0071279Y0236074D01*
X0071297Y0236220D01*
X0071318Y0236365D01*
X0071343Y0236509D01*
X0071373Y0236653D01*
X0071405Y0236796D01*
X0071442Y0236938D01*
X0071483Y0237079D01*
X0071527Y0237219D01*
X0071575Y0237358D01*
X0071626Y0237495D01*
X0071682Y0237631D01*
X0071741Y0237766D01*
X0071803Y0237898D01*
X0071869Y0238030D01*
X0071938Y0238159D01*
X0072011Y0238286D01*
X0072087Y0238412D01*
X0072167Y0238535D01*
X0072250Y0238656D01*
X0072335Y0238775D01*
X0072425Y0238892D01*
X0072517Y0239006D01*
X0072612Y0239118D01*
X0072710Y0239227D01*
X0072811Y0239333D01*
X0072915Y0239437D01*
X0073021Y0239538D01*
X0073130Y0239636D01*
X0073242Y0239731D01*
X0073356Y0239823D01*
X0073473Y0239913D01*
X0073592Y0239998D01*
X0073713Y0240081D01*
X0073836Y0240161D01*
X0073962Y0240237D01*
X0074089Y0240310D01*
X0074218Y0240379D01*
X0074350Y0240445D01*
X0074482Y0240507D01*
X0074617Y0240566D01*
X0074753Y0240622D01*
X0074890Y0240673D01*
X0075029Y0240721D01*
X0075169Y0240765D01*
X0075310Y0240806D01*
X0075452Y0240843D01*
X0075595Y0240875D01*
X0075739Y0240905D01*
X0075883Y0240930D01*
X0076028Y0240951D01*
X0076174Y0240969D01*
X0076320Y0240982D01*
X0076467Y0240992D01*
X0076613Y0240998D01*
X0076760Y0241000D01*
X0076960Y0241002D01*
X0077159Y0241010D01*
X0077359Y0241022D01*
X0077558Y0241039D01*
X0077757Y0241060D01*
X0077955Y0241087D01*
X0078152Y0241118D01*
X0078349Y0241154D01*
X0078544Y0241195D01*
X0078739Y0241240D01*
X0078932Y0241290D01*
X0079124Y0241345D01*
X0079315Y0241405D01*
X0079504Y0241469D01*
X0079692Y0241537D01*
X0079878Y0241610D01*
X0080062Y0241688D01*
X0080244Y0241770D01*
X0080424Y0241856D01*
X0080602Y0241947D01*
X0080778Y0242042D01*
X0080952Y0242141D01*
X0081123Y0242245D01*
X0081291Y0242352D01*
X0081457Y0242464D01*
X0081620Y0242579D01*
X0081780Y0242698D01*
X0081937Y0242822D01*
X0082092Y0242949D01*
X0082243Y0243079D01*
X0082391Y0243214D01*
X0082535Y0243351D01*
X0082677Y0243493D01*
X0082814Y0243637D01*
X0082949Y0243785D01*
X0083079Y0243936D01*
X0083206Y0244091D01*
X0083330Y0244248D01*
X0083449Y0244408D01*
X0083564Y0244571D01*
X0083676Y0244737D01*
X0083783Y0244905D01*
X0083887Y0245076D01*
X0083986Y0245250D01*
X0084081Y0245426D01*
X0084172Y0245604D01*
X0084258Y0245784D01*
X0084340Y0245966D01*
X0084418Y0246150D01*
X0084491Y0246336D01*
X0084559Y0246524D01*
X0084623Y0246713D01*
X0084683Y0246904D01*
X0084738Y0247096D01*
X0084788Y0247289D01*
X0084833Y0247484D01*
X0084874Y0247679D01*
X0084910Y0247876D01*
X0084941Y0248073D01*
X0084968Y0248271D01*
X0084989Y0248470D01*
X0085006Y0248669D01*
X0085018Y0248869D01*
X0085026Y0249068D01*
X0085028Y0249268D01*
X0085028Y0260291D01*
X0085026Y0260426D01*
X0085020Y0260561D01*
X0085011Y0260695D01*
X0084997Y0260829D01*
X0084980Y0260963D01*
X0084959Y0261097D01*
X0084934Y0261229D01*
X0084905Y0261361D01*
X0084873Y0261492D01*
X0084837Y0261622D01*
X0084797Y0261751D01*
X0084753Y0261878D01*
X0084706Y0262005D01*
X0084655Y0262130D01*
X0084601Y0262253D01*
X0084543Y0262375D01*
X0084482Y0262496D01*
X0084417Y0262614D01*
X0084349Y0262730D01*
X0084278Y0262845D01*
X0084204Y0262957D01*
X0084126Y0263068D01*
X0084045Y0263176D01*
X0083961Y0263281D01*
X0083874Y0263385D01*
X0083784Y0263485D01*
X0083692Y0263583D01*
X0083596Y0263679D01*
X0083498Y0263771D01*
X0083398Y0263861D01*
X0083294Y0263948D01*
X0083189Y0264032D01*
X0083081Y0264113D01*
X0082970Y0264191D01*
X0082858Y0264265D01*
X0082743Y0264336D01*
X0082627Y0264404D01*
X0082509Y0264469D01*
X0082388Y0264530D01*
X0082266Y0264588D01*
X0082143Y0264642D01*
X0082018Y0264693D01*
X0081891Y0264740D01*
X0081764Y0264784D01*
X0081635Y0264824D01*
X0081505Y0264860D01*
X0081374Y0264892D01*
X0081242Y0264921D01*
X0081110Y0264946D01*
X0080976Y0264967D01*
X0080842Y0264984D01*
X0080708Y0264998D01*
X0080574Y0265007D01*
X0080439Y0265013D01*
X0080304Y0265015D01*
X0080304Y0265016D02*
X0077154Y0265016D01*
X0077030Y0265018D01*
X0076907Y0265024D01*
X0076783Y0265033D01*
X0076661Y0265047D01*
X0076538Y0265064D01*
X0076416Y0265086D01*
X0076295Y0265111D01*
X0076175Y0265140D01*
X0076056Y0265172D01*
X0075937Y0265209D01*
X0075820Y0265249D01*
X0075705Y0265292D01*
X0075590Y0265340D01*
X0075478Y0265391D01*
X0075367Y0265445D01*
X0075257Y0265503D01*
X0075150Y0265564D01*
X0075044Y0265629D01*
X0074941Y0265697D01*
X0074840Y0265768D01*
X0074741Y0265842D01*
X0074644Y0265919D01*
X0074550Y0266000D01*
X0074459Y0266083D01*
X0074370Y0266169D01*
X0074284Y0266258D01*
X0074201Y0266349D01*
X0074120Y0266443D01*
X0074043Y0266540D01*
X0073969Y0266639D01*
X0073898Y0266740D01*
X0073830Y0266843D01*
X0073765Y0266949D01*
X0073704Y0267056D01*
X0073646Y0267166D01*
X0073592Y0267277D01*
X0073541Y0267389D01*
X0073493Y0267504D01*
X0073450Y0267619D01*
X0073410Y0267736D01*
X0073373Y0267855D01*
X0073341Y0267974D01*
X0073312Y0268094D01*
X0073287Y0268215D01*
X0073265Y0268337D01*
X0073248Y0268460D01*
X0073234Y0268582D01*
X0073225Y0268706D01*
X0073219Y0268829D01*
X0073217Y0268953D01*
X0073217Y0303598D01*
X0073219Y0303798D01*
X0073227Y0303997D01*
X0073239Y0304197D01*
X0073256Y0304396D01*
X0073277Y0304595D01*
X0073304Y0304793D01*
X0073335Y0304990D01*
X0073371Y0305187D01*
X0073412Y0305382D01*
X0073457Y0305577D01*
X0073507Y0305770D01*
X0073562Y0305962D01*
X0073622Y0306153D01*
X0073686Y0306342D01*
X0073754Y0306530D01*
X0073827Y0306716D01*
X0073905Y0306900D01*
X0073987Y0307082D01*
X0074073Y0307262D01*
X0074164Y0307440D01*
X0074259Y0307616D01*
X0074358Y0307790D01*
X0074462Y0307961D01*
X0074569Y0308129D01*
X0074681Y0308295D01*
X0074796Y0308458D01*
X0074915Y0308618D01*
X0075039Y0308775D01*
X0075166Y0308930D01*
X0075296Y0309081D01*
X0075431Y0309229D01*
X0075568Y0309373D01*
X0075710Y0309515D01*
X0075854Y0309652D01*
X0076002Y0309787D01*
X0076153Y0309917D01*
X0076308Y0310044D01*
X0076465Y0310168D01*
X0076625Y0310287D01*
X0076788Y0310402D01*
X0076954Y0310514D01*
X0077122Y0310621D01*
X0077293Y0310725D01*
X0077467Y0310824D01*
X0077643Y0310919D01*
X0077821Y0311010D01*
X0078001Y0311096D01*
X0078183Y0311178D01*
X0078367Y0311256D01*
X0078553Y0311329D01*
X0078741Y0311397D01*
X0078930Y0311461D01*
X0079121Y0311521D01*
X0079313Y0311576D01*
X0079506Y0311626D01*
X0079701Y0311671D01*
X0079896Y0311712D01*
X0080093Y0311748D01*
X0080290Y0311779D01*
X0080488Y0311806D01*
X0080687Y0311827D01*
X0080886Y0311844D01*
X0081086Y0311856D01*
X0081285Y0311864D01*
X0081485Y0311866D01*
X0096839Y0311866D01*
X0096970Y0311868D01*
X0097100Y0311874D01*
X0097231Y0311884D01*
X0097361Y0311898D01*
X0097491Y0311915D01*
X0097620Y0311937D01*
X0097748Y0311962D01*
X0097875Y0311992D01*
X0098002Y0312025D01*
X0098127Y0312062D01*
X0098252Y0312103D01*
X0098375Y0312147D01*
X0098496Y0312196D01*
X0098616Y0312248D01*
X0098735Y0312303D01*
X0098852Y0312362D01*
X0098967Y0312425D01*
X0099080Y0312491D01*
X0099191Y0312560D01*
X0099299Y0312633D01*
X0099406Y0312709D01*
X0099510Y0312788D01*
X0099612Y0312870D01*
X0099711Y0312955D01*
X0099808Y0313043D01*
X0099901Y0313135D01*
X0099993Y0313228D01*
X0100081Y0313325D01*
X0100166Y0313424D01*
X0100248Y0313526D01*
X0100327Y0313630D01*
X0100403Y0313737D01*
X0100476Y0313845D01*
X0100545Y0313956D01*
X0100611Y0314069D01*
X0100674Y0314184D01*
X0100733Y0314301D01*
X0100788Y0314420D01*
X0100840Y0314540D01*
X0100889Y0314661D01*
X0100933Y0314784D01*
X0100974Y0314909D01*
X0101011Y0315034D01*
X0101044Y0315161D01*
X0101074Y0315288D01*
X0101099Y0315416D01*
X0101121Y0315545D01*
X0101138Y0315675D01*
X0101152Y0315805D01*
X0101162Y0315936D01*
X0101168Y0316066D01*
X0101170Y0316197D01*
X0101170Y0326827D01*
X0101174Y0327150D01*
X0101186Y0327474D01*
X0101205Y0327797D01*
X0101232Y0328119D01*
X0101268Y0328441D01*
X0101310Y0328761D01*
X0101361Y0329081D01*
X0101419Y0329399D01*
X0101485Y0329715D01*
X0101559Y0330030D01*
X0101640Y0330344D01*
X0101729Y0330655D01*
X0101825Y0330964D01*
X0101929Y0331270D01*
X0102040Y0331574D01*
X0102158Y0331875D01*
X0102284Y0332173D01*
X0102417Y0332468D01*
X0102556Y0332760D01*
X0102703Y0333048D01*
X0102857Y0333332D01*
X0103018Y0333613D01*
X0103185Y0333890D01*
X0103359Y0334163D01*
X0103540Y0334431D01*
X0103726Y0334695D01*
X0103920Y0334954D01*
X0104119Y0335209D01*
X0104325Y0335459D01*
X0104536Y0335704D01*
X0104754Y0335943D01*
X0104977Y0336177D01*
X0105206Y0336406D01*
X0105440Y0336629D01*
X0105679Y0336847D01*
X0105924Y0337058D01*
X0106174Y0337264D01*
X0106429Y0337463D01*
X0106688Y0337657D01*
X0106952Y0337843D01*
X0107220Y0338024D01*
X0107493Y0338198D01*
X0107770Y0338365D01*
X0108051Y0338526D01*
X0108335Y0338680D01*
X0108623Y0338827D01*
X0108915Y0338966D01*
X0109210Y0339099D01*
X0109508Y0339225D01*
X0109809Y0339343D01*
X0110113Y0339454D01*
X0110419Y0339558D01*
X0110728Y0339654D01*
X0111039Y0339743D01*
X0111353Y0339824D01*
X0111668Y0339898D01*
X0111984Y0339964D01*
X0112302Y0340022D01*
X0112622Y0340073D01*
X0112942Y0340115D01*
X0113264Y0340151D01*
X0113586Y0340178D01*
X0113909Y0340197D01*
X0114233Y0340209D01*
X0114556Y0340213D01*
X0121347Y0331551D02*
X0139477Y0331551D01*
X0140933Y0315016D02*
X0141399Y0315022D01*
X0141865Y0315039D01*
X0142330Y0315067D01*
X0142795Y0315106D01*
X0143258Y0315157D01*
X0143720Y0315218D01*
X0144181Y0315291D01*
X0144639Y0315375D01*
X0145096Y0315470D01*
X0145550Y0315577D01*
X0146001Y0315694D01*
X0146449Y0315821D01*
X0146894Y0315960D01*
X0147336Y0316110D01*
X0147774Y0316270D01*
X0148208Y0316440D01*
X0148637Y0316621D01*
X0149062Y0316812D01*
X0149483Y0317014D01*
X0149898Y0317226D01*
X0150308Y0317447D01*
X0150713Y0317679D01*
X0151112Y0317920D01*
X0151505Y0318171D01*
X0151892Y0318431D01*
X0152272Y0318700D01*
X0152646Y0318979D01*
X0153013Y0319266D01*
X0153373Y0319563D01*
X0153725Y0319867D01*
X0154070Y0320181D01*
X0154408Y0320502D01*
X0154738Y0320832D01*
X0155059Y0321170D01*
X0155373Y0321515D01*
X0155677Y0321867D01*
X0155974Y0322227D01*
X0156261Y0322594D01*
X0156540Y0322968D01*
X0156809Y0323348D01*
X0157069Y0323735D01*
X0157320Y0324128D01*
X0157561Y0324527D01*
X0157793Y0324932D01*
X0158014Y0325342D01*
X0158226Y0325757D01*
X0158428Y0326178D01*
X0158619Y0326603D01*
X0158800Y0327032D01*
X0158970Y0327466D01*
X0159130Y0327904D01*
X0159280Y0328346D01*
X0159419Y0328791D01*
X0159546Y0329239D01*
X0159663Y0329690D01*
X0159770Y0330144D01*
X0159865Y0330601D01*
X0159949Y0331059D01*
X0160022Y0331520D01*
X0160083Y0331982D01*
X0160134Y0332445D01*
X0160173Y0332910D01*
X0160201Y0333375D01*
X0160218Y0333841D01*
X0160224Y0334307D01*
X0146662Y0324366D02*
X0146669Y0324939D01*
X0146690Y0325512D01*
X0146724Y0326084D01*
X0146773Y0326655D01*
X0146835Y0327225D01*
X0146911Y0327793D01*
X0147001Y0328359D01*
X0147104Y0328923D01*
X0147221Y0329484D01*
X0147351Y0330043D01*
X0147495Y0330597D01*
X0147652Y0331149D01*
X0147823Y0331696D01*
X0148007Y0332239D01*
X0148203Y0332777D01*
X0148413Y0333311D01*
X0148636Y0333839D01*
X0148871Y0334362D01*
X0149119Y0334879D01*
X0149379Y0335389D01*
X0149651Y0335894D01*
X0149936Y0336391D01*
X0150233Y0336882D01*
X0150541Y0337365D01*
X0150861Y0337840D01*
X0151192Y0338308D01*
X0151535Y0338768D01*
X0151888Y0339219D01*
X0152252Y0339662D01*
X0152627Y0340095D01*
X0153013Y0340520D01*
X0153408Y0340935D01*
X0153813Y0341340D01*
X0154228Y0341735D01*
X0154653Y0342121D01*
X0155086Y0342496D01*
X0155529Y0342860D01*
X0155980Y0343213D01*
X0156440Y0343556D01*
X0156908Y0343887D01*
X0157383Y0344207D01*
X0157866Y0344515D01*
X0158357Y0344812D01*
X0158854Y0345097D01*
X0159359Y0345369D01*
X0159869Y0345629D01*
X0160386Y0345877D01*
X0160909Y0346112D01*
X0161437Y0346335D01*
X0161971Y0346545D01*
X0162509Y0346741D01*
X0163052Y0346925D01*
X0163599Y0347096D01*
X0164151Y0347253D01*
X0164705Y0347397D01*
X0165264Y0347527D01*
X0165825Y0347644D01*
X0166389Y0347747D01*
X0166955Y0347837D01*
X0167523Y0347913D01*
X0168093Y0347975D01*
X0168664Y0348024D01*
X0169236Y0348058D01*
X0169809Y0348079D01*
X0170382Y0348086D01*
X0170382Y0348087D02*
X0188965Y0348087D01*
X0190540Y0297693D02*
X0198807Y0297693D01*
X0190540Y0297693D02*
X0190340Y0297691D01*
X0190141Y0297683D01*
X0189941Y0297671D01*
X0189742Y0297654D01*
X0189543Y0297633D01*
X0189345Y0297606D01*
X0189148Y0297575D01*
X0188951Y0297539D01*
X0188756Y0297498D01*
X0188561Y0297453D01*
X0188368Y0297403D01*
X0188176Y0297348D01*
X0187985Y0297288D01*
X0187796Y0297224D01*
X0187608Y0297156D01*
X0187422Y0297083D01*
X0187238Y0297005D01*
X0187056Y0296923D01*
X0186876Y0296837D01*
X0186698Y0296746D01*
X0186522Y0296651D01*
X0186348Y0296552D01*
X0186177Y0296448D01*
X0186009Y0296341D01*
X0185843Y0296229D01*
X0185680Y0296114D01*
X0185520Y0295995D01*
X0185363Y0295871D01*
X0185208Y0295744D01*
X0185057Y0295614D01*
X0184909Y0295479D01*
X0184765Y0295342D01*
X0184623Y0295200D01*
X0184486Y0295056D01*
X0184351Y0294908D01*
X0184221Y0294757D01*
X0184094Y0294602D01*
X0183970Y0294445D01*
X0183851Y0294285D01*
X0183736Y0294122D01*
X0183624Y0293956D01*
X0183517Y0293788D01*
X0183413Y0293617D01*
X0183314Y0293443D01*
X0183219Y0293267D01*
X0183128Y0293089D01*
X0183042Y0292909D01*
X0182960Y0292727D01*
X0182882Y0292543D01*
X0182809Y0292357D01*
X0182741Y0292169D01*
X0182677Y0291980D01*
X0182617Y0291789D01*
X0182562Y0291597D01*
X0182512Y0291404D01*
X0182467Y0291209D01*
X0182426Y0291014D01*
X0182390Y0290817D01*
X0182359Y0290620D01*
X0182332Y0290422D01*
X0182311Y0290223D01*
X0182294Y0290024D01*
X0182282Y0289824D01*
X0182274Y0289625D01*
X0182272Y0289425D01*
X0145264Y0279583D02*
X0145264Y0305961D01*
X0145264Y0305960D02*
X0145133Y0305962D01*
X0145003Y0305968D01*
X0144872Y0305978D01*
X0144742Y0305992D01*
X0144612Y0306009D01*
X0144483Y0306031D01*
X0144355Y0306056D01*
X0144228Y0306086D01*
X0144101Y0306119D01*
X0143976Y0306156D01*
X0143851Y0306197D01*
X0143728Y0306241D01*
X0143607Y0306290D01*
X0143487Y0306342D01*
X0143368Y0306397D01*
X0143251Y0306456D01*
X0143136Y0306519D01*
X0143023Y0306585D01*
X0142912Y0306654D01*
X0142804Y0306727D01*
X0142697Y0306803D01*
X0142593Y0306882D01*
X0142491Y0306964D01*
X0142392Y0307049D01*
X0142295Y0307137D01*
X0142202Y0307229D01*
X0142110Y0307322D01*
X0142022Y0307419D01*
X0141937Y0307518D01*
X0141855Y0307620D01*
X0141776Y0307724D01*
X0141700Y0307831D01*
X0141627Y0307939D01*
X0141558Y0308050D01*
X0141492Y0308163D01*
X0141429Y0308278D01*
X0141370Y0308395D01*
X0141315Y0308514D01*
X0141263Y0308634D01*
X0141214Y0308755D01*
X0141170Y0308878D01*
X0141129Y0309003D01*
X0141092Y0309128D01*
X0141059Y0309255D01*
X0141029Y0309382D01*
X0141004Y0309510D01*
X0140982Y0309639D01*
X0140965Y0309769D01*
X0140951Y0309899D01*
X0140941Y0310030D01*
X0140935Y0310160D01*
X0140933Y0310291D01*
X0140933Y0315016D01*
X0132272Y0315016D01*
X0132067Y0315018D01*
X0131862Y0315026D01*
X0131657Y0315038D01*
X0131453Y0315056D01*
X0131249Y0315078D01*
X0131046Y0315105D01*
X0130844Y0315137D01*
X0130642Y0315174D01*
X0130441Y0315216D01*
X0130242Y0315263D01*
X0130043Y0315314D01*
X0129846Y0315370D01*
X0129650Y0315431D01*
X0129456Y0315497D01*
X0129264Y0315567D01*
X0129073Y0315642D01*
X0128884Y0315722D01*
X0128697Y0315806D01*
X0128512Y0315895D01*
X0128329Y0315988D01*
X0128149Y0316085D01*
X0127971Y0316187D01*
X0127796Y0316293D01*
X0127623Y0316403D01*
X0127453Y0316518D01*
X0127285Y0316636D01*
X0127121Y0316759D01*
X0126959Y0316885D01*
X0126801Y0317016D01*
X0126646Y0317150D01*
X0126494Y0317287D01*
X0126346Y0317429D01*
X0126201Y0317574D01*
X0126059Y0317722D01*
X0125922Y0317874D01*
X0125788Y0318029D01*
X0125657Y0318187D01*
X0125531Y0318349D01*
X0125408Y0318513D01*
X0125290Y0318681D01*
X0125175Y0318851D01*
X0125065Y0319024D01*
X0124959Y0319199D01*
X0124857Y0319377D01*
X0124760Y0319557D01*
X0124667Y0319740D01*
X0124578Y0319925D01*
X0124494Y0320112D01*
X0124414Y0320301D01*
X0124339Y0320492D01*
X0124269Y0320684D01*
X0124203Y0320878D01*
X0124142Y0321074D01*
X0124086Y0321271D01*
X0124035Y0321470D01*
X0123988Y0321669D01*
X0123946Y0321870D01*
X0123909Y0322072D01*
X0123877Y0322274D01*
X0123850Y0322477D01*
X0123828Y0322681D01*
X0123810Y0322885D01*
X0123798Y0323090D01*
X0123790Y0323295D01*
X0123788Y0323500D01*
X0123788Y0323992D01*
X0121347Y0331551D02*
X0121164Y0331549D01*
X0120982Y0331542D01*
X0120799Y0331531D01*
X0120617Y0331516D01*
X0120436Y0331496D01*
X0120255Y0331472D01*
X0120074Y0331443D01*
X0119895Y0331410D01*
X0119716Y0331373D01*
X0119538Y0331331D01*
X0119361Y0331285D01*
X0119186Y0331235D01*
X0119011Y0331181D01*
X0118838Y0331122D01*
X0118667Y0331060D01*
X0118497Y0330993D01*
X0118328Y0330922D01*
X0118162Y0330847D01*
X0117997Y0330768D01*
X0117834Y0330685D01*
X0117673Y0330598D01*
X0117515Y0330508D01*
X0117359Y0330413D01*
X0117205Y0330315D01*
X0117053Y0330213D01*
X0116904Y0330107D01*
X0116757Y0329998D01*
X0116614Y0329886D01*
X0116473Y0329769D01*
X0116334Y0329650D01*
X0116199Y0329527D01*
X0116067Y0329401D01*
X0115938Y0329272D01*
X0115812Y0329140D01*
X0115689Y0329005D01*
X0115570Y0328866D01*
X0115453Y0328725D01*
X0115341Y0328582D01*
X0115232Y0328435D01*
X0115126Y0328286D01*
X0115024Y0328134D01*
X0114926Y0327980D01*
X0114831Y0327824D01*
X0114741Y0327666D01*
X0114654Y0327505D01*
X0114571Y0327342D01*
X0114492Y0327177D01*
X0114417Y0327011D01*
X0114346Y0326842D01*
X0114279Y0326672D01*
X0114217Y0326501D01*
X0114158Y0326328D01*
X0114104Y0326153D01*
X0114054Y0325978D01*
X0114008Y0325801D01*
X0113966Y0325623D01*
X0113929Y0325444D01*
X0113896Y0325265D01*
X0113867Y0325084D01*
X0113843Y0324903D01*
X0113823Y0324722D01*
X0113808Y0324540D01*
X0113797Y0324357D01*
X0113790Y0324175D01*
X0113788Y0323992D01*
X0091721Y0297693D02*
X0090146Y0297693D01*
X0091721Y0297693D02*
X0092358Y0297685D01*
X0092995Y0297662D01*
X0093632Y0297624D01*
X0094267Y0297570D01*
X0094901Y0297501D01*
X0095532Y0297416D01*
X0096162Y0297316D01*
X0096789Y0297202D01*
X0097413Y0297072D01*
X0098034Y0296927D01*
X0098651Y0296766D01*
X0099264Y0296592D01*
X0099872Y0296402D01*
X0100476Y0296198D01*
X0101075Y0295979D01*
X0101668Y0295746D01*
X0102255Y0295498D01*
X0102837Y0295237D01*
X0103412Y0294961D01*
X0103979Y0294672D01*
X0104540Y0294369D01*
X0105094Y0294052D01*
X0105639Y0293722D01*
X0106176Y0293379D01*
X0106705Y0293024D01*
X0107226Y0292655D01*
X0107737Y0292274D01*
X0108239Y0291881D01*
X0108731Y0291476D01*
X0109213Y0291059D01*
X0109685Y0290631D01*
X0110146Y0290191D01*
X0110597Y0289740D01*
X0111037Y0289279D01*
X0111465Y0288807D01*
X0111882Y0288325D01*
X0112287Y0287833D01*
X0112680Y0287331D01*
X0113061Y0286820D01*
X0113430Y0286299D01*
X0113785Y0285770D01*
X0114128Y0285233D01*
X0114458Y0284688D01*
X0114775Y0284134D01*
X0115078Y0283573D01*
X0115367Y0283006D01*
X0115643Y0282431D01*
X0115904Y0281849D01*
X0116152Y0281262D01*
X0116385Y0280669D01*
X0116604Y0280070D01*
X0116808Y0279466D01*
X0116998Y0278858D01*
X0117172Y0278245D01*
X0117333Y0277628D01*
X0117478Y0277007D01*
X0117608Y0276383D01*
X0117722Y0275756D01*
X0117822Y0275126D01*
X0117907Y0274495D01*
X0117976Y0273861D01*
X0118030Y0273226D01*
X0118068Y0272589D01*
X0118091Y0271952D01*
X0118099Y0271315D01*
X0118099Y0267378D01*
X0118099Y0237909D01*
X0118097Y0237811D01*
X0118091Y0237713D01*
X0118082Y0237615D01*
X0118068Y0237518D01*
X0118051Y0237421D01*
X0118030Y0237325D01*
X0118005Y0237230D01*
X0117977Y0237136D01*
X0117944Y0237044D01*
X0117909Y0236952D01*
X0117869Y0236862D01*
X0117827Y0236774D01*
X0117780Y0236687D01*
X0117731Y0236603D01*
X0117678Y0236520D01*
X0117622Y0236440D01*
X0117562Y0236361D01*
X0117500Y0236285D01*
X0117435Y0236212D01*
X0117367Y0236141D01*
X0117296Y0236073D01*
X0117223Y0236008D01*
X0117147Y0235946D01*
X0117068Y0235886D01*
X0116988Y0235830D01*
X0116905Y0235777D01*
X0116821Y0235728D01*
X0116734Y0235681D01*
X0116646Y0235639D01*
X0116556Y0235599D01*
X0116464Y0235564D01*
X0116372Y0235531D01*
X0116278Y0235503D01*
X0116183Y0235478D01*
X0116087Y0235457D01*
X0115990Y0235440D01*
X0115893Y0235426D01*
X0115795Y0235417D01*
X0115697Y0235411D01*
X0115599Y0235409D01*
X0107469Y0241000D02*
X0107469Y0209504D01*
X0099989Y0218953D02*
X0099989Y0226039D01*
X0099989Y0218953D02*
X0099986Y0218715D01*
X0099978Y0218477D01*
X0099963Y0218240D01*
X0099943Y0218003D01*
X0099917Y0217767D01*
X0099886Y0217531D01*
X0099849Y0217296D01*
X0099806Y0217062D01*
X0099757Y0216829D01*
X0099703Y0216597D01*
X0099643Y0216367D01*
X0099578Y0216138D01*
X0099507Y0215911D01*
X0099431Y0215686D01*
X0099349Y0215463D01*
X0099262Y0215241D01*
X0099170Y0215022D01*
X0099072Y0214805D01*
X0098970Y0214591D01*
X0098862Y0214379D01*
X0098748Y0214169D01*
X0098630Y0213963D01*
X0098507Y0213759D01*
X0098379Y0213559D01*
X0098247Y0213362D01*
X0098109Y0213167D01*
X0097967Y0212977D01*
X0097820Y0212789D01*
X0097669Y0212606D01*
X0097514Y0212426D01*
X0097354Y0212250D01*
X0097190Y0212078D01*
X0097021Y0211909D01*
X0096849Y0211745D01*
X0096673Y0211585D01*
X0096493Y0211430D01*
X0096310Y0211279D01*
X0096122Y0211132D01*
X0095932Y0210990D01*
X0095737Y0210852D01*
X0095540Y0210720D01*
X0095340Y0210592D01*
X0095136Y0210469D01*
X0094930Y0210351D01*
X0094720Y0210237D01*
X0094508Y0210129D01*
X0094294Y0210027D01*
X0094077Y0209929D01*
X0093858Y0209837D01*
X0093636Y0209750D01*
X0093413Y0209668D01*
X0093188Y0209592D01*
X0092961Y0209521D01*
X0092732Y0209456D01*
X0092502Y0209396D01*
X0092270Y0209342D01*
X0092037Y0209293D01*
X0091803Y0209250D01*
X0091568Y0209213D01*
X0091332Y0209182D01*
X0091096Y0209156D01*
X0090859Y0209136D01*
X0090622Y0209121D01*
X0090384Y0209113D01*
X0090146Y0209110D01*
X0098217Y0190213D02*
X0134241Y0190213D01*
X0151170Y0190213D01*
X0151170Y0190212D02*
X0151370Y0190214D01*
X0151569Y0190222D01*
X0151769Y0190234D01*
X0151968Y0190251D01*
X0152167Y0190272D01*
X0152365Y0190299D01*
X0152562Y0190330D01*
X0152759Y0190366D01*
X0152954Y0190407D01*
X0153149Y0190452D01*
X0153342Y0190502D01*
X0153534Y0190557D01*
X0153725Y0190617D01*
X0153914Y0190681D01*
X0154102Y0190749D01*
X0154288Y0190822D01*
X0154472Y0190900D01*
X0154654Y0190982D01*
X0154834Y0191068D01*
X0155012Y0191159D01*
X0155188Y0191254D01*
X0155362Y0191353D01*
X0155533Y0191457D01*
X0155701Y0191564D01*
X0155867Y0191676D01*
X0156030Y0191791D01*
X0156190Y0191910D01*
X0156347Y0192034D01*
X0156502Y0192161D01*
X0156653Y0192291D01*
X0156801Y0192426D01*
X0156945Y0192563D01*
X0157087Y0192705D01*
X0157224Y0192849D01*
X0157359Y0192997D01*
X0157489Y0193148D01*
X0157616Y0193303D01*
X0157740Y0193460D01*
X0157859Y0193620D01*
X0157974Y0193783D01*
X0158086Y0193949D01*
X0158193Y0194117D01*
X0158297Y0194288D01*
X0158396Y0194462D01*
X0158491Y0194638D01*
X0158582Y0194816D01*
X0158668Y0194996D01*
X0158750Y0195178D01*
X0158828Y0195362D01*
X0158901Y0195548D01*
X0158969Y0195736D01*
X0159033Y0195925D01*
X0159093Y0196116D01*
X0159148Y0196308D01*
X0159198Y0196501D01*
X0159243Y0196696D01*
X0159284Y0196891D01*
X0159320Y0197088D01*
X0159351Y0197285D01*
X0159378Y0197483D01*
X0159399Y0197682D01*
X0159416Y0197881D01*
X0159428Y0198081D01*
X0159436Y0198280D01*
X0159438Y0198480D01*
X0170067Y0207142D02*
X0144477Y0207142D01*
X0144477Y0204780D01*
X0144476Y0204779D02*
X0144510Y0204748D01*
X0144546Y0204720D01*
X0144585Y0204695D01*
X0144625Y0204673D01*
X0144668Y0204654D01*
X0144711Y0204639D01*
X0144756Y0204628D01*
X0144801Y0204620D01*
X0144847Y0204616D01*
X0144893Y0204616D01*
X0144939Y0204620D01*
X0144984Y0204628D01*
X0145029Y0204639D01*
X0145072Y0204654D01*
X0145115Y0204673D01*
X0145155Y0204695D01*
X0145194Y0204720D01*
X0145230Y0204748D01*
X0145264Y0204779D01*
X0144477Y0207142D02*
X0121248Y0207142D01*
X0118493Y0198480D02*
X0118227Y0198483D01*
X0117960Y0198493D01*
X0117694Y0198509D01*
X0117429Y0198531D01*
X0117164Y0198560D01*
X0116900Y0198596D01*
X0116637Y0198637D01*
X0116375Y0198685D01*
X0116114Y0198740D01*
X0115855Y0198800D01*
X0115597Y0198867D01*
X0115341Y0198940D01*
X0115086Y0199020D01*
X0114834Y0199105D01*
X0114584Y0199196D01*
X0114336Y0199294D01*
X0114090Y0199397D01*
X0113847Y0199507D01*
X0113607Y0199622D01*
X0113370Y0199743D01*
X0113136Y0199869D01*
X0112904Y0200002D01*
X0112676Y0200139D01*
X0112452Y0200283D01*
X0112231Y0200431D01*
X0112013Y0200585D01*
X0111800Y0200745D01*
X0111590Y0200909D01*
X0111384Y0201078D01*
X0111183Y0201252D01*
X0110985Y0201431D01*
X0110793Y0201615D01*
X0110604Y0201804D01*
X0110420Y0201996D01*
X0110241Y0202194D01*
X0110067Y0202395D01*
X0109898Y0202601D01*
X0109734Y0202811D01*
X0109574Y0203024D01*
X0109420Y0203242D01*
X0109272Y0203463D01*
X0109128Y0203687D01*
X0108991Y0203915D01*
X0108858Y0204147D01*
X0108732Y0204381D01*
X0108611Y0204618D01*
X0108496Y0204858D01*
X0108386Y0205101D01*
X0108283Y0205347D01*
X0108185Y0205595D01*
X0108094Y0205845D01*
X0108009Y0206097D01*
X0107929Y0206352D01*
X0107856Y0206608D01*
X0107789Y0206866D01*
X0107729Y0207125D01*
X0107674Y0207386D01*
X0107626Y0207648D01*
X0107585Y0207911D01*
X0107549Y0208175D01*
X0107520Y0208440D01*
X0107498Y0208705D01*
X0107482Y0208971D01*
X0107472Y0209238D01*
X0107469Y0209504D01*
X0115599Y0212791D02*
X0115599Y0215409D01*
X0115598Y0212791D02*
X0115600Y0212643D01*
X0115606Y0212495D01*
X0115615Y0212348D01*
X0115629Y0212200D01*
X0115646Y0212054D01*
X0115668Y0211907D01*
X0115693Y0211761D01*
X0115721Y0211616D01*
X0115754Y0211472D01*
X0115791Y0211329D01*
X0115831Y0211186D01*
X0115875Y0211045D01*
X0115922Y0210905D01*
X0115973Y0210766D01*
X0116028Y0210629D01*
X0116086Y0210493D01*
X0116148Y0210359D01*
X0116214Y0210226D01*
X0116283Y0210095D01*
X0116355Y0209966D01*
X0116431Y0209839D01*
X0116510Y0209714D01*
X0116592Y0209591D01*
X0116677Y0209470D01*
X0116766Y0209351D01*
X0116857Y0209235D01*
X0116952Y0209122D01*
X0117049Y0209010D01*
X0117150Y0208902D01*
X0117253Y0208796D01*
X0117359Y0208693D01*
X0117467Y0208592D01*
X0117579Y0208495D01*
X0117692Y0208400D01*
X0117808Y0208309D01*
X0117927Y0208220D01*
X0118048Y0208135D01*
X0118171Y0208053D01*
X0118296Y0207974D01*
X0118423Y0207898D01*
X0118552Y0207826D01*
X0118683Y0207757D01*
X0118816Y0207691D01*
X0118950Y0207629D01*
X0119086Y0207571D01*
X0119223Y0207516D01*
X0119362Y0207465D01*
X0119502Y0207418D01*
X0119643Y0207374D01*
X0119786Y0207334D01*
X0119929Y0207297D01*
X0120073Y0207264D01*
X0120218Y0207236D01*
X0120364Y0207211D01*
X0120511Y0207189D01*
X0120657Y0207172D01*
X0120805Y0207158D01*
X0120952Y0207149D01*
X0121100Y0207143D01*
X0121248Y0207141D01*
X0118493Y0198480D02*
X0129910Y0198480D01*
X0107469Y0241000D02*
X0107467Y0241086D01*
X0107462Y0241172D01*
X0107452Y0241257D01*
X0107439Y0241342D01*
X0107422Y0241426D01*
X0107402Y0241510D01*
X0107378Y0241592D01*
X0107350Y0241673D01*
X0107319Y0241754D01*
X0107285Y0241832D01*
X0107247Y0241909D01*
X0107205Y0241985D01*
X0107161Y0242058D01*
X0107113Y0242129D01*
X0107062Y0242199D01*
X0107008Y0242266D01*
X0106952Y0242330D01*
X0106892Y0242392D01*
X0106830Y0242452D01*
X0106766Y0242508D01*
X0106699Y0242562D01*
X0106629Y0242613D01*
X0106558Y0242661D01*
X0106485Y0242705D01*
X0106409Y0242747D01*
X0106332Y0242785D01*
X0106254Y0242819D01*
X0106173Y0242850D01*
X0106092Y0242878D01*
X0106010Y0242902D01*
X0105926Y0242922D01*
X0105842Y0242939D01*
X0105757Y0242952D01*
X0105672Y0242962D01*
X0105586Y0242967D01*
X0105500Y0242969D01*
X0127548Y0247693D02*
X0127548Y0261866D01*
X0127550Y0261982D01*
X0127556Y0262098D01*
X0127565Y0262213D01*
X0127578Y0262328D01*
X0127595Y0262443D01*
X0127616Y0262557D01*
X0127641Y0262671D01*
X0127669Y0262783D01*
X0127701Y0262894D01*
X0127736Y0263005D01*
X0127775Y0263114D01*
X0127818Y0263222D01*
X0127864Y0263328D01*
X0127913Y0263433D01*
X0127966Y0263536D01*
X0128023Y0263638D01*
X0128082Y0263737D01*
X0128145Y0263834D01*
X0128211Y0263930D01*
X0128280Y0264023D01*
X0128352Y0264114D01*
X0128427Y0264202D01*
X0128505Y0264288D01*
X0128586Y0264371D01*
X0128669Y0264452D01*
X0128755Y0264530D01*
X0128843Y0264605D01*
X0128934Y0264677D01*
X0129027Y0264746D01*
X0129123Y0264812D01*
X0129220Y0264875D01*
X0129320Y0264934D01*
X0129421Y0264991D01*
X0129524Y0265044D01*
X0129629Y0265093D01*
X0129735Y0265139D01*
X0129843Y0265182D01*
X0129952Y0265221D01*
X0130063Y0265256D01*
X0130174Y0265288D01*
X0130286Y0265316D01*
X0130400Y0265341D01*
X0130514Y0265362D01*
X0130629Y0265379D01*
X0130744Y0265392D01*
X0130859Y0265401D01*
X0130975Y0265407D01*
X0131091Y0265409D01*
X0131091Y0265410D02*
X0131433Y0265414D01*
X0131776Y0265427D01*
X0132118Y0265447D01*
X0132459Y0265476D01*
X0132799Y0265513D01*
X0133139Y0265559D01*
X0133477Y0265612D01*
X0133814Y0265674D01*
X0134149Y0265744D01*
X0134483Y0265822D01*
X0134814Y0265908D01*
X0135144Y0266002D01*
X0135471Y0266104D01*
X0135795Y0266213D01*
X0136117Y0266331D01*
X0136436Y0266456D01*
X0136751Y0266589D01*
X0137064Y0266730D01*
X0137372Y0266878D01*
X0137678Y0267033D01*
X0137979Y0267196D01*
X0138276Y0267366D01*
X0138569Y0267543D01*
X0138858Y0267728D01*
X0139142Y0267919D01*
X0139422Y0268117D01*
X0139696Y0268321D01*
X0139966Y0268533D01*
X0140230Y0268750D01*
X0140489Y0268974D01*
X0140743Y0269205D01*
X0140991Y0269441D01*
X0141233Y0269683D01*
X0141469Y0269931D01*
X0141700Y0270185D01*
X0141924Y0270444D01*
X0142141Y0270708D01*
X0142353Y0270978D01*
X0142557Y0271252D01*
X0142755Y0271532D01*
X0142946Y0271816D01*
X0143131Y0272105D01*
X0143308Y0272398D01*
X0143478Y0272695D01*
X0143641Y0272996D01*
X0143796Y0273302D01*
X0143944Y0273610D01*
X0144085Y0273923D01*
X0144218Y0274238D01*
X0144343Y0274557D01*
X0144461Y0274879D01*
X0144570Y0275203D01*
X0144672Y0275530D01*
X0144766Y0275860D01*
X0144852Y0276191D01*
X0144930Y0276525D01*
X0145000Y0276860D01*
X0145062Y0277197D01*
X0145115Y0277535D01*
X0145161Y0277875D01*
X0145198Y0278215D01*
X0145227Y0278556D01*
X0145247Y0278898D01*
X0145260Y0279241D01*
X0145264Y0279583D01*
X0146662Y0324366D02*
X0146660Y0324540D01*
X0146654Y0324713D01*
X0146643Y0324886D01*
X0146628Y0325059D01*
X0146610Y0325232D01*
X0146587Y0325404D01*
X0146559Y0325576D01*
X0146528Y0325746D01*
X0146493Y0325916D01*
X0146453Y0326085D01*
X0146410Y0326254D01*
X0146362Y0326421D01*
X0146310Y0326586D01*
X0146255Y0326751D01*
X0146195Y0326914D01*
X0146132Y0327075D01*
X0146064Y0327235D01*
X0145993Y0327394D01*
X0145918Y0327550D01*
X0145839Y0327705D01*
X0145756Y0327858D01*
X0145670Y0328009D01*
X0145580Y0328157D01*
X0145487Y0328303D01*
X0145390Y0328448D01*
X0145290Y0328589D01*
X0145186Y0328728D01*
X0145079Y0328865D01*
X0144969Y0328999D01*
X0144855Y0329131D01*
X0144738Y0329259D01*
X0144619Y0329385D01*
X0144496Y0329508D01*
X0144370Y0329627D01*
X0144242Y0329744D01*
X0144110Y0329858D01*
X0143976Y0329968D01*
X0143839Y0330075D01*
X0143700Y0330179D01*
X0143559Y0330279D01*
X0143414Y0330376D01*
X0143268Y0330469D01*
X0143120Y0330559D01*
X0142969Y0330645D01*
X0142816Y0330728D01*
X0142661Y0330807D01*
X0142505Y0330882D01*
X0142346Y0330953D01*
X0142186Y0331021D01*
X0142025Y0331084D01*
X0141862Y0331144D01*
X0141697Y0331199D01*
X0141532Y0331251D01*
X0141365Y0331299D01*
X0141196Y0331342D01*
X0141027Y0331382D01*
X0140857Y0331417D01*
X0140687Y0331448D01*
X0140515Y0331476D01*
X0140343Y0331499D01*
X0140170Y0331517D01*
X0139997Y0331532D01*
X0139824Y0331543D01*
X0139651Y0331549D01*
X0139477Y0331551D01*
X0144201Y0377220D02*
X0134201Y0377220D01*
X0134201Y0387220D01*
X0143985Y0387220D01*
X0144201Y0387220D01*
X0154201Y0387220D01*
X0154319Y0386669D02*
X0154319Y0377220D01*
X0154201Y0377220D01*
X0153827Y0377220D01*
X0144201Y0377220D01*
X0188965Y0226039D02*
X0188959Y0225582D01*
X0188943Y0225126D01*
X0188915Y0224670D01*
X0188877Y0224215D01*
X0188827Y0223761D01*
X0188767Y0223308D01*
X0188695Y0222857D01*
X0188613Y0222408D01*
X0188520Y0221961D01*
X0188416Y0221516D01*
X0188301Y0221074D01*
X0188176Y0220635D01*
X0188040Y0220199D01*
X0187894Y0219767D01*
X0187737Y0219338D01*
X0187570Y0218913D01*
X0187393Y0218492D01*
X0187205Y0218075D01*
X0187008Y0217664D01*
X0186800Y0217257D01*
X0186583Y0216855D01*
X0186357Y0216458D01*
X0186120Y0216068D01*
X0185875Y0215683D01*
X0185620Y0215304D01*
X0185356Y0214931D01*
X0185083Y0214565D01*
X0184801Y0214205D01*
X0184511Y0213853D01*
X0184212Y0213507D01*
X0183905Y0213169D01*
X0183590Y0212839D01*
X0183267Y0212516D01*
X0182937Y0212201D01*
X0182599Y0211894D01*
X0182253Y0211595D01*
X0181901Y0211305D01*
X0181541Y0211023D01*
X0181175Y0210750D01*
X0180802Y0210486D01*
X0180423Y0210231D01*
X0180038Y0209986D01*
X0179648Y0209749D01*
X0179251Y0209523D01*
X0178849Y0209306D01*
X0178442Y0209098D01*
X0178031Y0208901D01*
X0177614Y0208713D01*
X0177193Y0208536D01*
X0176768Y0208369D01*
X0176339Y0208212D01*
X0175907Y0208066D01*
X0175471Y0207930D01*
X0175032Y0207805D01*
X0174590Y0207690D01*
X0174145Y0207586D01*
X0173698Y0207493D01*
X0173249Y0207411D01*
X0172798Y0207339D01*
X0172345Y0207279D01*
X0171891Y0207229D01*
X0171436Y0207191D01*
X0170980Y0207163D01*
X0170524Y0207147D01*
X0170067Y0207141D01*
X0169819Y0142823D02*
X0169819Y0137457D01*
X0169820Y0142823D02*
X0169811Y0142933D01*
X0169798Y0143043D01*
X0169781Y0143153D01*
X0169760Y0143262D01*
X0169736Y0143370D01*
X0169707Y0143477D01*
X0169675Y0143583D01*
X0169639Y0143688D01*
X0169599Y0143791D01*
X0169556Y0143893D01*
X0169509Y0143994D01*
X0169458Y0144092D01*
X0169404Y0144189D01*
X0169346Y0144284D01*
X0169286Y0144377D01*
X0169221Y0144467D01*
X0169154Y0144555D01*
X0169084Y0144641D01*
X0169010Y0144724D01*
X0168934Y0144804D01*
X0168855Y0144882D01*
X0168773Y0144956D01*
X0168688Y0145028D01*
X0168601Y0145097D01*
X0168512Y0145162D01*
X0168420Y0145225D01*
X0168327Y0145284D01*
X0168231Y0145339D01*
X0168133Y0145391D01*
X0168033Y0145440D01*
X0167932Y0145485D01*
X0167829Y0145527D01*
X0167725Y0145564D01*
X0167619Y0145598D01*
X0167513Y0145628D01*
X0167405Y0145655D01*
X0167297Y0145677D01*
X0167187Y0145696D01*
X0167077Y0145710D01*
X0166967Y0145721D01*
X0166856Y0145728D01*
X0166746Y0145731D01*
X0166635Y0145730D01*
X0166524Y0145725D01*
X0134241Y0040213D02*
X0134241Y0022496D01*
X0092902Y0178402D02*
X0092902Y0184898D01*
X0092904Y0185042D01*
X0092910Y0185186D01*
X0092920Y0185329D01*
X0092933Y0185473D01*
X0092951Y0185616D01*
X0092972Y0185758D01*
X0092997Y0185900D01*
X0093026Y0186041D01*
X0093059Y0186181D01*
X0093096Y0186320D01*
X0093136Y0186458D01*
X0093180Y0186595D01*
X0093228Y0186731D01*
X0093279Y0186865D01*
X0093335Y0186998D01*
X0093393Y0187130D01*
X0093455Y0187260D01*
X0093521Y0187388D01*
X0093590Y0187514D01*
X0093663Y0187638D01*
X0093739Y0187760D01*
X0093818Y0187881D01*
X0093900Y0187999D01*
X0093986Y0188115D01*
X0094074Y0188228D01*
X0094166Y0188339D01*
X0094261Y0188447D01*
X0094358Y0188553D01*
X0094459Y0188656D01*
X0094562Y0188757D01*
X0094668Y0188854D01*
X0094776Y0188949D01*
X0094887Y0189041D01*
X0095000Y0189129D01*
X0095116Y0189215D01*
X0095234Y0189297D01*
X0095355Y0189376D01*
X0095477Y0189452D01*
X0095601Y0189525D01*
X0095727Y0189594D01*
X0095855Y0189660D01*
X0095985Y0189722D01*
X0096117Y0189780D01*
X0096250Y0189836D01*
X0096384Y0189887D01*
X0096520Y0189935D01*
X0096657Y0189979D01*
X0096795Y0190019D01*
X0096934Y0190056D01*
X0097074Y0190089D01*
X0097215Y0190118D01*
X0097357Y0190143D01*
X0097499Y0190164D01*
X0097642Y0190182D01*
X0097786Y0190195D01*
X0097929Y0190205D01*
X0098073Y0190211D01*
X0098217Y0190213D01*
X0092902Y0178402D02*
X0092900Y0178299D01*
X0092894Y0178196D01*
X0092885Y0178093D01*
X0092871Y0177991D01*
X0092854Y0177890D01*
X0092833Y0177789D01*
X0092808Y0177689D01*
X0092780Y0177590D01*
X0092747Y0177492D01*
X0092711Y0177395D01*
X0092672Y0177300D01*
X0092629Y0177206D01*
X0092583Y0177114D01*
X0092533Y0177024D01*
X0092480Y0176936D01*
X0092423Y0176849D01*
X0092363Y0176765D01*
X0092301Y0176684D01*
X0092235Y0176604D01*
X0092166Y0176527D01*
X0092095Y0176453D01*
X0092021Y0176382D01*
X0091944Y0176313D01*
X0091864Y0176247D01*
X0091783Y0176185D01*
X0091699Y0176125D01*
X0091612Y0176068D01*
X0091524Y0176015D01*
X0091434Y0175965D01*
X0091342Y0175919D01*
X0091248Y0175876D01*
X0091153Y0175837D01*
X0091056Y0175801D01*
X0090958Y0175768D01*
X0090859Y0175740D01*
X0090759Y0175715D01*
X0090658Y0175694D01*
X0090557Y0175677D01*
X0090455Y0175663D01*
X0090352Y0175654D01*
X0090249Y0175648D01*
X0090146Y0175646D01*
D19*
X0087784Y0181945D03*
X0099595Y0183126D03*
X0101170Y0178795D03*
X0108059Y0186472D03*
X0113768Y0185488D03*
X0118099Y0180370D03*
X0107863Y0193756D03*
X0103532Y0219740D03*
X0105500Y0242969D03*
X0118099Y0267378D03*
X0127548Y0247693D03*
X0136996Y0257535D03*
X0142115Y0254386D03*
X0141721Y0246118D03*
X0160225Y0257535D03*
X0162981Y0252811D03*
X0166524Y0250055D03*
X0176367Y0227614D03*
X0179516Y0218165D03*
X0173512Y0195331D03*
X0159437Y0198480D03*
X0155107Y0177614D03*
X0143493Y0170724D03*
X0148414Y0154780D03*
X0148807Y0148087D03*
X0161800Y0158323D03*
X0166524Y0145724D03*
X0174792Y0133913D03*
X0174792Y0126827D03*
X0179516Y0126827D03*
X0179910Y0119740D03*
X0184241Y0106748D03*
X0174792Y0102024D03*
X0174792Y0088244D03*
X0192902Y0063441D03*
X0193689Y0072102D03*
X0170067Y0031157D03*
X0155107Y0063441D03*
X0152351Y0069740D03*
X0134241Y0040213D03*
X0134241Y0022496D03*
X0119280Y0059898D03*
X0113768Y0069346D03*
X0101957Y0046512D03*
X0096052Y0067378D03*
X0079910Y0059898D03*
X0072430Y0054386D03*
X0068886Y0114228D03*
X0068099Y0133520D03*
X0079122Y0141394D03*
X0086603Y0145724D03*
X0087390Y0150055D03*
X0091327Y0149071D03*
X0093689Y0145724D03*
X0100382Y0156748D03*
X0103926Y0157535D03*
X0107863Y0157142D03*
X0111603Y0147299D03*
X0118493Y0146906D03*
X0117410Y0159898D03*
X0112981Y0160291D03*
X0131189Y0157929D03*
X0134634Y0146512D03*
X0134634Y0135094D03*
X0148807Y0124071D03*
X0152351Y0111866D03*
X0183059Y0165803D03*
X0189359Y0154386D03*
X0192213Y0126925D03*
X0216524Y0126039D03*
X0216524Y0162260D03*
X0145264Y0204780D03*
X0134241Y0190213D03*
X0133650Y0186965D03*
X0129910Y0198480D03*
X0127744Y0203697D03*
X0153532Y0290213D03*
X0166524Y0322890D03*
X0160225Y0334307D03*
X0177154Y0289819D03*
X0182272Y0289425D03*
X0114556Y0340213D03*
X0110619Y0352417D03*
X0067705Y0187850D03*
X0073217Y0159898D03*
X0075973Y0151630D03*
X0110225Y0115803D03*
X0220067Y0031157D03*
D20*
X0170067Y0031157D01*
X0152351Y0069740D02*
X0152351Y0111866D01*
X0148807Y0124071D02*
X0214556Y0124071D01*
X0214556Y0124070D02*
X0214642Y0124072D01*
X0214728Y0124077D01*
X0214813Y0124087D01*
X0214898Y0124100D01*
X0214982Y0124117D01*
X0215066Y0124137D01*
X0215148Y0124161D01*
X0215229Y0124189D01*
X0215310Y0124220D01*
X0215388Y0124254D01*
X0215465Y0124292D01*
X0215541Y0124334D01*
X0215614Y0124378D01*
X0215685Y0124426D01*
X0215755Y0124477D01*
X0215822Y0124531D01*
X0215886Y0124587D01*
X0215948Y0124647D01*
X0216008Y0124709D01*
X0216064Y0124773D01*
X0216118Y0124840D01*
X0216169Y0124910D01*
X0216217Y0124981D01*
X0216261Y0125055D01*
X0216303Y0125130D01*
X0216341Y0125207D01*
X0216375Y0125285D01*
X0216406Y0125366D01*
X0216434Y0125447D01*
X0216458Y0125529D01*
X0216478Y0125613D01*
X0216495Y0125697D01*
X0216508Y0125782D01*
X0216518Y0125867D01*
X0216523Y0125953D01*
X0216525Y0126039D01*
X0220854Y0107535D02*
X0220852Y0107481D01*
X0220847Y0107428D01*
X0220838Y0107375D01*
X0220825Y0107323D01*
X0220809Y0107271D01*
X0220789Y0107221D01*
X0220766Y0107173D01*
X0220739Y0107126D01*
X0220710Y0107081D01*
X0220677Y0107038D01*
X0220642Y0106998D01*
X0220604Y0106960D01*
X0220564Y0106925D01*
X0220521Y0106892D01*
X0220476Y0106863D01*
X0220429Y0106836D01*
X0220381Y0106813D01*
X0220331Y0106793D01*
X0220279Y0106777D01*
X0220227Y0106764D01*
X0220174Y0106755D01*
X0220121Y0106750D01*
X0220067Y0106748D01*
X0220067Y0052417D01*
X0220065Y0052255D01*
X0220059Y0052094D01*
X0220049Y0051932D01*
X0220036Y0051771D01*
X0220018Y0051610D01*
X0219997Y0051450D01*
X0219971Y0051290D01*
X0219942Y0051131D01*
X0219909Y0050973D01*
X0219873Y0050815D01*
X0219832Y0050659D01*
X0219788Y0050503D01*
X0219739Y0050349D01*
X0219688Y0050196D01*
X0219632Y0050044D01*
X0219573Y0049893D01*
X0219510Y0049744D01*
X0219444Y0049597D01*
X0219374Y0049451D01*
X0219300Y0049307D01*
X0219223Y0049164D01*
X0219143Y0049024D01*
X0219059Y0048886D01*
X0218972Y0048749D01*
X0218882Y0048615D01*
X0218789Y0048483D01*
X0218692Y0048353D01*
X0218592Y0048226D01*
X0218490Y0048101D01*
X0218384Y0047979D01*
X0218275Y0047859D01*
X0218164Y0047742D01*
X0218049Y0047627D01*
X0217932Y0047516D01*
X0217812Y0047407D01*
X0217690Y0047301D01*
X0217565Y0047199D01*
X0217438Y0047099D01*
X0217308Y0047002D01*
X0217176Y0046909D01*
X0217042Y0046819D01*
X0216905Y0046732D01*
X0216767Y0046648D01*
X0216627Y0046568D01*
X0216484Y0046491D01*
X0216340Y0046417D01*
X0216194Y0046347D01*
X0216047Y0046281D01*
X0215898Y0046218D01*
X0215747Y0046159D01*
X0215595Y0046103D01*
X0215442Y0046052D01*
X0215288Y0046003D01*
X0215132Y0045959D01*
X0214976Y0045918D01*
X0214818Y0045882D01*
X0214660Y0045849D01*
X0214501Y0045820D01*
X0214341Y0045794D01*
X0214181Y0045773D01*
X0214020Y0045755D01*
X0213859Y0045742D01*
X0213697Y0045732D01*
X0213536Y0045726D01*
X0213374Y0045724D01*
X0102744Y0045724D01*
X0102744Y0045725D02*
X0102690Y0045727D01*
X0102637Y0045732D01*
X0102584Y0045741D01*
X0102532Y0045754D01*
X0102480Y0045770D01*
X0102430Y0045790D01*
X0102382Y0045813D01*
X0102335Y0045840D01*
X0102290Y0045869D01*
X0102247Y0045902D01*
X0102207Y0045937D01*
X0102169Y0045975D01*
X0102134Y0046015D01*
X0102101Y0046058D01*
X0102072Y0046103D01*
X0102045Y0046150D01*
X0102022Y0046198D01*
X0102002Y0046248D01*
X0101986Y0046300D01*
X0101973Y0046352D01*
X0101964Y0046405D01*
X0101959Y0046458D01*
X0101957Y0046512D01*
X0096052Y0059898D02*
X0096052Y0067378D01*
X0113768Y0069346D02*
X0113768Y0112260D01*
X0113766Y0112376D01*
X0113760Y0112492D01*
X0113751Y0112607D01*
X0113738Y0112722D01*
X0113721Y0112837D01*
X0113700Y0112951D01*
X0113675Y0113065D01*
X0113647Y0113177D01*
X0113615Y0113288D01*
X0113580Y0113399D01*
X0113541Y0113508D01*
X0113498Y0113616D01*
X0113452Y0113722D01*
X0113403Y0113827D01*
X0113350Y0113930D01*
X0113293Y0114032D01*
X0113234Y0114131D01*
X0113171Y0114228D01*
X0113105Y0114324D01*
X0113036Y0114417D01*
X0112964Y0114508D01*
X0112889Y0114596D01*
X0112811Y0114682D01*
X0112730Y0114765D01*
X0112647Y0114846D01*
X0112561Y0114924D01*
X0112473Y0114999D01*
X0112382Y0115071D01*
X0112289Y0115140D01*
X0112193Y0115206D01*
X0112096Y0115269D01*
X0111997Y0115328D01*
X0111895Y0115385D01*
X0111792Y0115438D01*
X0111687Y0115487D01*
X0111581Y0115533D01*
X0111473Y0115576D01*
X0111364Y0115615D01*
X0111253Y0115650D01*
X0111142Y0115682D01*
X0111030Y0115710D01*
X0110916Y0115735D01*
X0110802Y0115756D01*
X0110687Y0115773D01*
X0110572Y0115786D01*
X0110457Y0115795D01*
X0110341Y0115801D01*
X0110225Y0115803D01*
X0093689Y0135291D02*
X0093689Y0135882D01*
X0093689Y0145724D01*
X0093689Y0135291D02*
X0093687Y0135149D01*
X0093681Y0135008D01*
X0093672Y0134866D01*
X0093658Y0134725D01*
X0093641Y0134584D01*
X0093620Y0134444D01*
X0093595Y0134304D01*
X0093567Y0134165D01*
X0093534Y0134027D01*
X0093498Y0133890D01*
X0093458Y0133754D01*
X0093415Y0133619D01*
X0093368Y0133485D01*
X0093317Y0133353D01*
X0093263Y0133222D01*
X0093205Y0133092D01*
X0093144Y0132965D01*
X0093079Y0132838D01*
X0093011Y0132714D01*
X0092940Y0132592D01*
X0092865Y0132471D01*
X0092787Y0132353D01*
X0092706Y0132236D01*
X0092621Y0132122D01*
X0092534Y0132011D01*
X0092444Y0131901D01*
X0092350Y0131794D01*
X0092254Y0131690D01*
X0092155Y0131589D01*
X0092054Y0131490D01*
X0091950Y0131394D01*
X0091843Y0131300D01*
X0091733Y0131210D01*
X0091622Y0131123D01*
X0091508Y0131038D01*
X0091391Y0130957D01*
X0091273Y0130879D01*
X0091152Y0130804D01*
X0091030Y0130733D01*
X0090906Y0130665D01*
X0090779Y0130600D01*
X0090652Y0130539D01*
X0090522Y0130481D01*
X0090391Y0130427D01*
X0090259Y0130376D01*
X0090125Y0130329D01*
X0089990Y0130286D01*
X0089854Y0130246D01*
X0089717Y0130210D01*
X0089579Y0130177D01*
X0089440Y0130149D01*
X0089300Y0130124D01*
X0089160Y0130103D01*
X0089019Y0130086D01*
X0088878Y0130072D01*
X0088736Y0130063D01*
X0088595Y0130057D01*
X0088453Y0130055D01*
X0083453Y0124071D02*
X0083455Y0123940D01*
X0083461Y0123810D01*
X0083471Y0123679D01*
X0083485Y0123549D01*
X0083502Y0123419D01*
X0083524Y0123290D01*
X0083549Y0123162D01*
X0083579Y0123035D01*
X0083612Y0122908D01*
X0083649Y0122783D01*
X0083690Y0122658D01*
X0083734Y0122535D01*
X0083783Y0122414D01*
X0083835Y0122294D01*
X0083890Y0122175D01*
X0083949Y0122058D01*
X0084012Y0121943D01*
X0084078Y0121830D01*
X0084147Y0121719D01*
X0084220Y0121611D01*
X0084296Y0121504D01*
X0084375Y0121400D01*
X0084457Y0121298D01*
X0084542Y0121199D01*
X0084630Y0121102D01*
X0084722Y0121009D01*
X0084815Y0120917D01*
X0084912Y0120829D01*
X0085011Y0120744D01*
X0085113Y0120662D01*
X0085217Y0120583D01*
X0085324Y0120507D01*
X0085432Y0120434D01*
X0085543Y0120365D01*
X0085656Y0120299D01*
X0085771Y0120236D01*
X0085888Y0120177D01*
X0086007Y0120122D01*
X0086127Y0120070D01*
X0086248Y0120021D01*
X0086371Y0119977D01*
X0086496Y0119936D01*
X0086621Y0119899D01*
X0086748Y0119866D01*
X0086875Y0119836D01*
X0087003Y0119811D01*
X0087132Y0119789D01*
X0087262Y0119772D01*
X0087392Y0119758D01*
X0087523Y0119748D01*
X0087653Y0119742D01*
X0087784Y0119740D01*
X0179910Y0119740D01*
X0174792Y0126827D02*
X0174792Y0133913D01*
X0179516Y0126826D02*
X0179754Y0126829D01*
X0179992Y0126837D01*
X0180229Y0126852D01*
X0180466Y0126872D01*
X0180702Y0126898D01*
X0180938Y0126929D01*
X0181173Y0126966D01*
X0181407Y0127009D01*
X0181640Y0127058D01*
X0181872Y0127112D01*
X0182102Y0127172D01*
X0182331Y0127237D01*
X0182558Y0127308D01*
X0182783Y0127384D01*
X0183006Y0127466D01*
X0183228Y0127553D01*
X0183447Y0127645D01*
X0183664Y0127743D01*
X0183878Y0127845D01*
X0184090Y0127953D01*
X0184300Y0128067D01*
X0184506Y0128185D01*
X0184710Y0128308D01*
X0184910Y0128436D01*
X0185107Y0128568D01*
X0185302Y0128706D01*
X0185492Y0128848D01*
X0185680Y0128995D01*
X0185863Y0129146D01*
X0186043Y0129301D01*
X0186219Y0129461D01*
X0186391Y0129625D01*
X0186560Y0129794D01*
X0186724Y0129966D01*
X0186884Y0130142D01*
X0187039Y0130322D01*
X0187190Y0130505D01*
X0187337Y0130693D01*
X0187479Y0130883D01*
X0187617Y0131078D01*
X0187749Y0131275D01*
X0187877Y0131475D01*
X0188000Y0131679D01*
X0188118Y0131885D01*
X0188232Y0132095D01*
X0188340Y0132307D01*
X0188442Y0132521D01*
X0188540Y0132738D01*
X0188632Y0132957D01*
X0188719Y0133179D01*
X0188801Y0133402D01*
X0188877Y0133627D01*
X0188948Y0133854D01*
X0189013Y0134083D01*
X0189073Y0134313D01*
X0189127Y0134545D01*
X0189176Y0134778D01*
X0189219Y0135012D01*
X0189256Y0135247D01*
X0189287Y0135483D01*
X0189313Y0135719D01*
X0189333Y0135956D01*
X0189348Y0136193D01*
X0189356Y0136431D01*
X0189359Y0136669D01*
X0189359Y0154386D01*
X0183059Y0165803D02*
X0183020Y0165805D01*
X0182982Y0165811D01*
X0182945Y0165820D01*
X0182908Y0165833D01*
X0182873Y0165850D01*
X0182840Y0165869D01*
X0182809Y0165892D01*
X0182780Y0165918D01*
X0182754Y0165947D01*
X0182731Y0165978D01*
X0182712Y0166011D01*
X0182695Y0166046D01*
X0182682Y0166083D01*
X0182673Y0166120D01*
X0182667Y0166158D01*
X0182665Y0166197D01*
X0182666Y0166197D02*
X0182666Y0173677D01*
X0182664Y0173801D01*
X0182658Y0173924D01*
X0182649Y0174048D01*
X0182635Y0174170D01*
X0182618Y0174293D01*
X0182596Y0174415D01*
X0182571Y0174536D01*
X0182542Y0174656D01*
X0182510Y0174775D01*
X0182473Y0174894D01*
X0182433Y0175011D01*
X0182390Y0175126D01*
X0182342Y0175241D01*
X0182291Y0175353D01*
X0182237Y0175464D01*
X0182179Y0175574D01*
X0182118Y0175681D01*
X0182053Y0175787D01*
X0181985Y0175890D01*
X0181914Y0175991D01*
X0181840Y0176090D01*
X0181763Y0176187D01*
X0181682Y0176281D01*
X0181599Y0176372D01*
X0181513Y0176461D01*
X0181424Y0176547D01*
X0181333Y0176630D01*
X0181239Y0176711D01*
X0181142Y0176788D01*
X0181043Y0176862D01*
X0180942Y0176933D01*
X0180839Y0177001D01*
X0180733Y0177066D01*
X0180626Y0177127D01*
X0180516Y0177185D01*
X0180405Y0177239D01*
X0180293Y0177290D01*
X0180178Y0177338D01*
X0180063Y0177381D01*
X0179946Y0177421D01*
X0179827Y0177458D01*
X0179708Y0177490D01*
X0179588Y0177519D01*
X0179467Y0177544D01*
X0179345Y0177566D01*
X0179222Y0177583D01*
X0179100Y0177597D01*
X0178976Y0177606D01*
X0178853Y0177612D01*
X0178729Y0177614D01*
X0155107Y0177614D01*
X0159437Y0198480D02*
X0175973Y0198480D01*
X0175973Y0198481D02*
X0176525Y0198474D01*
X0177076Y0198454D01*
X0177627Y0198421D01*
X0178177Y0198374D01*
X0178725Y0198315D01*
X0179272Y0198241D01*
X0179817Y0198155D01*
X0180360Y0198056D01*
X0180900Y0197943D01*
X0181438Y0197817D01*
X0181972Y0197679D01*
X0182503Y0197528D01*
X0183029Y0197363D01*
X0183552Y0197187D01*
X0184070Y0196997D01*
X0184584Y0196795D01*
X0185092Y0196581D01*
X0185596Y0196354D01*
X0186093Y0196116D01*
X0186585Y0195865D01*
X0187070Y0195603D01*
X0187549Y0195329D01*
X0188022Y0195044D01*
X0188487Y0194747D01*
X0188945Y0194439D01*
X0189395Y0194120D01*
X0189838Y0193790D01*
X0190272Y0193450D01*
X0190698Y0193099D01*
X0191115Y0192738D01*
X0191524Y0192367D01*
X0191924Y0191987D01*
X0192314Y0191597D01*
X0192694Y0191197D01*
X0193065Y0190788D01*
X0193426Y0190371D01*
X0193777Y0189945D01*
X0194117Y0189511D01*
X0194447Y0189068D01*
X0194766Y0188618D01*
X0195074Y0188160D01*
X0195371Y0187695D01*
X0195656Y0187222D01*
X0195930Y0186743D01*
X0196192Y0186258D01*
X0196443Y0185766D01*
X0196681Y0185269D01*
X0196908Y0184765D01*
X0197122Y0184257D01*
X0197324Y0183743D01*
X0197514Y0183225D01*
X0197690Y0182702D01*
X0197855Y0182176D01*
X0198006Y0181645D01*
X0198144Y0181111D01*
X0198270Y0180573D01*
X0198383Y0180033D01*
X0198482Y0179490D01*
X0198568Y0178945D01*
X0198642Y0178398D01*
X0198701Y0177850D01*
X0198748Y0177300D01*
X0198781Y0176749D01*
X0198801Y0176198D01*
X0198808Y0175646D01*
X0181091Y0219740D02*
X0181091Y0230370D01*
X0181093Y0230480D01*
X0181099Y0230590D01*
X0181108Y0230699D01*
X0181122Y0230808D01*
X0181139Y0230917D01*
X0181160Y0231025D01*
X0181185Y0231132D01*
X0181213Y0231238D01*
X0181245Y0231343D01*
X0181281Y0231447D01*
X0181320Y0231550D01*
X0181363Y0231651D01*
X0181410Y0231751D01*
X0181460Y0231849D01*
X0181513Y0231945D01*
X0181570Y0232039D01*
X0181630Y0232131D01*
X0181693Y0232222D01*
X0181759Y0232309D01*
X0181828Y0232395D01*
X0181900Y0232478D01*
X0181975Y0232558D01*
X0182053Y0232636D01*
X0182133Y0232711D01*
X0182216Y0232783D01*
X0182302Y0232852D01*
X0182389Y0232918D01*
X0182480Y0232981D01*
X0182572Y0233041D01*
X0182666Y0233098D01*
X0182762Y0233151D01*
X0182860Y0233201D01*
X0182960Y0233248D01*
X0183061Y0233291D01*
X0183164Y0233330D01*
X0183268Y0233366D01*
X0183373Y0233398D01*
X0183479Y0233426D01*
X0183586Y0233451D01*
X0183694Y0233472D01*
X0183803Y0233489D01*
X0183912Y0233503D01*
X0184021Y0233512D01*
X0184131Y0233518D01*
X0184241Y0233520D01*
X0212981Y0233520D01*
X0213171Y0233518D01*
X0213361Y0233511D01*
X0213551Y0233499D01*
X0213741Y0233483D01*
X0213930Y0233463D01*
X0214119Y0233437D01*
X0214307Y0233408D01*
X0214494Y0233373D01*
X0214680Y0233334D01*
X0214865Y0233291D01*
X0215050Y0233243D01*
X0215233Y0233191D01*
X0215414Y0233135D01*
X0215594Y0233074D01*
X0215773Y0233008D01*
X0215950Y0232939D01*
X0216126Y0232865D01*
X0216299Y0232787D01*
X0216471Y0232704D01*
X0216640Y0232618D01*
X0216808Y0232528D01*
X0216973Y0232433D01*
X0217136Y0232335D01*
X0217296Y0232232D01*
X0217454Y0232126D01*
X0217609Y0232016D01*
X0217762Y0231903D01*
X0217912Y0231785D01*
X0218058Y0231664D01*
X0218202Y0231540D01*
X0218343Y0231412D01*
X0218481Y0231281D01*
X0218616Y0231146D01*
X0218747Y0231008D01*
X0218875Y0230867D01*
X0218999Y0230723D01*
X0219120Y0230577D01*
X0219238Y0230427D01*
X0219351Y0230274D01*
X0219461Y0230119D01*
X0219567Y0229961D01*
X0219670Y0229801D01*
X0219768Y0229638D01*
X0219863Y0229473D01*
X0219953Y0229305D01*
X0220039Y0229136D01*
X0220122Y0228964D01*
X0220200Y0228791D01*
X0220274Y0228615D01*
X0220343Y0228438D01*
X0220409Y0228259D01*
X0220470Y0228079D01*
X0220526Y0227898D01*
X0220578Y0227715D01*
X0220626Y0227530D01*
X0220669Y0227345D01*
X0220708Y0227159D01*
X0220743Y0226972D01*
X0220772Y0226784D01*
X0220798Y0226595D01*
X0220818Y0226406D01*
X0220834Y0226216D01*
X0220846Y0226026D01*
X0220853Y0225836D01*
X0220855Y0225646D01*
X0220855Y0107535D01*
X0193689Y0075252D02*
X0193689Y0072102D01*
X0193690Y0075252D02*
X0193687Y0075480D01*
X0193679Y0075709D01*
X0193665Y0075936D01*
X0193646Y0076164D01*
X0193621Y0076391D01*
X0193591Y0076617D01*
X0193555Y0076843D01*
X0193514Y0077067D01*
X0193467Y0077291D01*
X0193415Y0077513D01*
X0193358Y0077734D01*
X0193295Y0077954D01*
X0193228Y0078172D01*
X0193154Y0078388D01*
X0193076Y0078603D01*
X0192992Y0078815D01*
X0192904Y0079026D01*
X0192810Y0079234D01*
X0192711Y0079440D01*
X0192608Y0079643D01*
X0192499Y0079844D01*
X0192386Y0080042D01*
X0192268Y0080238D01*
X0192145Y0080430D01*
X0192017Y0080620D01*
X0191885Y0080806D01*
X0191749Y0080989D01*
X0191608Y0081169D01*
X0191463Y0081345D01*
X0191314Y0081518D01*
X0191160Y0081687D01*
X0191003Y0081852D01*
X0190841Y0082014D01*
X0190676Y0082171D01*
X0190507Y0082325D01*
X0190334Y0082474D01*
X0190158Y0082619D01*
X0189978Y0082760D01*
X0189795Y0082896D01*
X0189609Y0083028D01*
X0189419Y0083156D01*
X0189227Y0083279D01*
X0189031Y0083397D01*
X0188833Y0083510D01*
X0188632Y0083619D01*
X0188429Y0083722D01*
X0188223Y0083821D01*
X0188015Y0083915D01*
X0187804Y0084003D01*
X0187592Y0084087D01*
X0187377Y0084165D01*
X0187161Y0084239D01*
X0186943Y0084306D01*
X0186723Y0084369D01*
X0186502Y0084426D01*
X0186280Y0084478D01*
X0186056Y0084525D01*
X0185832Y0084566D01*
X0185606Y0084602D01*
X0185380Y0084632D01*
X0185153Y0084657D01*
X0184925Y0084676D01*
X0184698Y0084690D01*
X0184469Y0084698D01*
X0184241Y0084701D01*
X0184241Y0106748D01*
X0174792Y0102024D02*
X0174792Y0088244D01*
X0134634Y0135094D02*
X0134634Y0146512D01*
X0107863Y0170134D02*
X0107866Y0170381D01*
X0107875Y0170629D01*
X0107890Y0170875D01*
X0107911Y0171122D01*
X0107938Y0171368D01*
X0107970Y0171613D01*
X0108009Y0171857D01*
X0108054Y0172101D01*
X0108104Y0172343D01*
X0108160Y0172584D01*
X0108223Y0172823D01*
X0108290Y0173061D01*
X0108364Y0173297D01*
X0108443Y0173531D01*
X0108528Y0173764D01*
X0108619Y0173994D01*
X0108715Y0174222D01*
X0108816Y0174447D01*
X0108923Y0174671D01*
X0109035Y0174891D01*
X0109153Y0175109D01*
X0109276Y0175323D01*
X0109404Y0175535D01*
X0109537Y0175743D01*
X0109675Y0175949D01*
X0109818Y0176151D01*
X0109966Y0176349D01*
X0110118Y0176544D01*
X0110275Y0176735D01*
X0110437Y0176922D01*
X0110603Y0177105D01*
X0110774Y0177284D01*
X0110949Y0177459D01*
X0111128Y0177630D01*
X0111311Y0177796D01*
X0111498Y0177958D01*
X0111689Y0178115D01*
X0111884Y0178267D01*
X0112082Y0178415D01*
X0112284Y0178558D01*
X0112490Y0178696D01*
X0112698Y0178829D01*
X0112910Y0178957D01*
X0113124Y0179080D01*
X0113342Y0179198D01*
X0113562Y0179310D01*
X0113786Y0179417D01*
X0114011Y0179518D01*
X0114239Y0179614D01*
X0114469Y0179705D01*
X0114702Y0179790D01*
X0114936Y0179869D01*
X0115172Y0179943D01*
X0115410Y0180010D01*
X0115649Y0180073D01*
X0115890Y0180129D01*
X0116132Y0180179D01*
X0116376Y0180224D01*
X0116620Y0180263D01*
X0116865Y0180295D01*
X0117111Y0180322D01*
X0117358Y0180343D01*
X0117604Y0180358D01*
X0117852Y0180367D01*
X0118099Y0180370D01*
X0111406Y0183126D02*
X0099595Y0183126D01*
X0107863Y0170134D02*
X0107863Y0157142D01*
X0103925Y0157535D02*
X0103923Y0157692D01*
X0103917Y0157849D01*
X0103907Y0158006D01*
X0103894Y0158162D01*
X0103876Y0158318D01*
X0103855Y0158474D01*
X0103829Y0158629D01*
X0103800Y0158783D01*
X0103767Y0158937D01*
X0103730Y0159089D01*
X0103690Y0159241D01*
X0103645Y0159392D01*
X0103597Y0159541D01*
X0103545Y0159689D01*
X0103490Y0159836D01*
X0103430Y0159982D01*
X0103368Y0160126D01*
X0103301Y0160268D01*
X0103231Y0160409D01*
X0103158Y0160548D01*
X0103081Y0160685D01*
X0103001Y0160820D01*
X0102917Y0160952D01*
X0102830Y0161083D01*
X0102740Y0161212D01*
X0102647Y0161338D01*
X0102551Y0161462D01*
X0102451Y0161584D01*
X0102349Y0161703D01*
X0102243Y0161819D01*
X0102135Y0161933D01*
X0102024Y0162044D01*
X0101910Y0162152D01*
X0101794Y0162258D01*
X0101675Y0162360D01*
X0101553Y0162460D01*
X0101429Y0162556D01*
X0101303Y0162649D01*
X0101174Y0162739D01*
X0101043Y0162826D01*
X0100911Y0162910D01*
X0100776Y0162990D01*
X0100639Y0163067D01*
X0100500Y0163140D01*
X0100359Y0163210D01*
X0100217Y0163277D01*
X0100073Y0163339D01*
X0099927Y0163399D01*
X0099780Y0163454D01*
X0099632Y0163506D01*
X0099483Y0163554D01*
X0099332Y0163599D01*
X0099180Y0163639D01*
X0099028Y0163676D01*
X0098874Y0163709D01*
X0098720Y0163738D01*
X0098565Y0163764D01*
X0098409Y0163785D01*
X0098253Y0163803D01*
X0098097Y0163816D01*
X0097940Y0163826D01*
X0097783Y0163832D01*
X0097626Y0163834D01*
X0097626Y0163835D02*
X0094772Y0163835D01*
X0090146Y0163835D01*
X0086603Y0145724D02*
X0086603Y0139819D01*
X0086601Y0139753D01*
X0086596Y0139687D01*
X0086586Y0139621D01*
X0086573Y0139556D01*
X0086557Y0139492D01*
X0086537Y0139429D01*
X0086513Y0139367D01*
X0086486Y0139307D01*
X0086456Y0139248D01*
X0086422Y0139191D01*
X0086385Y0139136D01*
X0086345Y0139083D01*
X0086303Y0139032D01*
X0086257Y0138984D01*
X0086209Y0138938D01*
X0086158Y0138896D01*
X0086105Y0138856D01*
X0086050Y0138819D01*
X0085993Y0138785D01*
X0085934Y0138755D01*
X0085874Y0138728D01*
X0085812Y0138704D01*
X0085749Y0138684D01*
X0085685Y0138668D01*
X0085620Y0138655D01*
X0085554Y0138645D01*
X0085488Y0138640D01*
X0085422Y0138638D01*
X0085336Y0138636D01*
X0085250Y0138631D01*
X0085165Y0138621D01*
X0085080Y0138608D01*
X0084996Y0138591D01*
X0084912Y0138571D01*
X0084830Y0138547D01*
X0084749Y0138519D01*
X0084668Y0138488D01*
X0084590Y0138454D01*
X0084513Y0138416D01*
X0084438Y0138374D01*
X0084364Y0138330D01*
X0084293Y0138282D01*
X0084223Y0138231D01*
X0084156Y0138177D01*
X0084092Y0138121D01*
X0084030Y0138061D01*
X0083970Y0137999D01*
X0083914Y0137935D01*
X0083860Y0137868D01*
X0083809Y0137798D01*
X0083761Y0137727D01*
X0083717Y0137654D01*
X0083675Y0137578D01*
X0083637Y0137501D01*
X0083603Y0137423D01*
X0083572Y0137342D01*
X0083544Y0137261D01*
X0083520Y0137179D01*
X0083500Y0137095D01*
X0083483Y0137011D01*
X0083470Y0136926D01*
X0083460Y0136841D01*
X0083455Y0136755D01*
X0083453Y0136669D01*
X0083453Y0124071D01*
X0071248Y0133520D02*
X0068099Y0133520D01*
X0071248Y0133520D02*
X0071438Y0133522D01*
X0071628Y0133529D01*
X0071818Y0133541D01*
X0072008Y0133557D01*
X0072197Y0133577D01*
X0072386Y0133603D01*
X0072574Y0133632D01*
X0072761Y0133667D01*
X0072947Y0133706D01*
X0073132Y0133749D01*
X0073317Y0133797D01*
X0073500Y0133849D01*
X0073681Y0133905D01*
X0073861Y0133966D01*
X0074040Y0134032D01*
X0074217Y0134101D01*
X0074393Y0134175D01*
X0074566Y0134253D01*
X0074738Y0134336D01*
X0074907Y0134422D01*
X0075075Y0134512D01*
X0075240Y0134607D01*
X0075403Y0134705D01*
X0075563Y0134808D01*
X0075721Y0134914D01*
X0075876Y0135024D01*
X0076029Y0135137D01*
X0076179Y0135255D01*
X0076325Y0135376D01*
X0076469Y0135500D01*
X0076610Y0135628D01*
X0076748Y0135759D01*
X0076883Y0135894D01*
X0077014Y0136032D01*
X0077142Y0136173D01*
X0077266Y0136317D01*
X0077387Y0136463D01*
X0077505Y0136613D01*
X0077618Y0136766D01*
X0077728Y0136921D01*
X0077834Y0137079D01*
X0077937Y0137239D01*
X0078035Y0137402D01*
X0078130Y0137567D01*
X0078220Y0137735D01*
X0078306Y0137904D01*
X0078389Y0138076D01*
X0078467Y0138249D01*
X0078541Y0138425D01*
X0078610Y0138602D01*
X0078676Y0138781D01*
X0078737Y0138961D01*
X0078793Y0139142D01*
X0078845Y0139325D01*
X0078893Y0139510D01*
X0078936Y0139695D01*
X0078975Y0139881D01*
X0079010Y0140068D01*
X0079039Y0140256D01*
X0079065Y0140445D01*
X0079085Y0140634D01*
X0079101Y0140824D01*
X0079113Y0141014D01*
X0079120Y0141204D01*
X0079122Y0141394D01*
X0075973Y0151630D02*
X0075773Y0151632D01*
X0075574Y0151640D01*
X0075374Y0151652D01*
X0075175Y0151669D01*
X0074976Y0151690D01*
X0074778Y0151717D01*
X0074581Y0151748D01*
X0074384Y0151784D01*
X0074189Y0151825D01*
X0073994Y0151870D01*
X0073801Y0151920D01*
X0073609Y0151975D01*
X0073418Y0152035D01*
X0073229Y0152099D01*
X0073041Y0152167D01*
X0072855Y0152240D01*
X0072671Y0152318D01*
X0072489Y0152400D01*
X0072309Y0152486D01*
X0072131Y0152577D01*
X0071955Y0152672D01*
X0071781Y0152771D01*
X0071610Y0152875D01*
X0071442Y0152982D01*
X0071276Y0153094D01*
X0071113Y0153209D01*
X0070953Y0153328D01*
X0070796Y0153452D01*
X0070641Y0153579D01*
X0070490Y0153709D01*
X0070342Y0153844D01*
X0070198Y0153981D01*
X0070056Y0154123D01*
X0069919Y0154267D01*
X0069784Y0154415D01*
X0069654Y0154566D01*
X0069527Y0154721D01*
X0069403Y0154878D01*
X0069284Y0155038D01*
X0069169Y0155201D01*
X0069057Y0155367D01*
X0068950Y0155535D01*
X0068846Y0155706D01*
X0068747Y0155880D01*
X0068652Y0156056D01*
X0068561Y0156234D01*
X0068475Y0156414D01*
X0068393Y0156596D01*
X0068315Y0156780D01*
X0068242Y0156966D01*
X0068174Y0157154D01*
X0068110Y0157343D01*
X0068050Y0157534D01*
X0067995Y0157726D01*
X0067945Y0157919D01*
X0067900Y0158114D01*
X0067859Y0158309D01*
X0067823Y0158506D01*
X0067792Y0158703D01*
X0067765Y0158901D01*
X0067744Y0159100D01*
X0067727Y0159299D01*
X0067715Y0159499D01*
X0067707Y0159698D01*
X0067705Y0159898D01*
X0067705Y0187850D01*
X0111406Y0183126D02*
X0111501Y0183128D01*
X0111596Y0183134D01*
X0111691Y0183143D01*
X0111785Y0183157D01*
X0111878Y0183174D01*
X0111971Y0183195D01*
X0112063Y0183219D01*
X0112154Y0183248D01*
X0112244Y0183279D01*
X0112332Y0183315D01*
X0112419Y0183354D01*
X0112504Y0183397D01*
X0112587Y0183442D01*
X0112668Y0183492D01*
X0112748Y0183544D01*
X0112825Y0183600D01*
X0112900Y0183658D01*
X0112972Y0183720D01*
X0113042Y0183785D01*
X0113109Y0183852D01*
X0113174Y0183922D01*
X0113236Y0183994D01*
X0113294Y0184069D01*
X0113350Y0184146D01*
X0113402Y0184226D01*
X0113452Y0184307D01*
X0113497Y0184390D01*
X0113540Y0184475D01*
X0113579Y0184562D01*
X0113615Y0184650D01*
X0113646Y0184740D01*
X0113675Y0184831D01*
X0113699Y0184923D01*
X0113720Y0185016D01*
X0113737Y0185109D01*
X0113751Y0185203D01*
X0113760Y0185298D01*
X0113766Y0185393D01*
X0113768Y0185488D01*
X0125599Y0215409D02*
X0135970Y0225781D01*
X0140492Y0227654D02*
X0172361Y0227654D01*
X0172400Y0227614D01*
X0176367Y0227614D01*
X0176367Y0243045D01*
X0176365Y0243124D01*
X0176360Y0243203D01*
X0176351Y0243282D01*
X0176338Y0243360D01*
X0176321Y0243438D01*
X0176301Y0243515D01*
X0176278Y0243591D01*
X0176251Y0243665D01*
X0176221Y0243739D01*
X0176187Y0243810D01*
X0176150Y0243880D01*
X0176110Y0243949D01*
X0176067Y0244015D01*
X0176020Y0244080D01*
X0175971Y0244142D01*
X0175919Y0244202D01*
X0175864Y0244259D01*
X0171375Y0246118D02*
X0152700Y0246118D01*
X0148743Y0247757D02*
X0142115Y0254386D01*
X0141721Y0246118D02*
X0136603Y0246118D01*
X0136479Y0246116D01*
X0136356Y0246110D01*
X0136232Y0246101D01*
X0136110Y0246087D01*
X0135987Y0246070D01*
X0135865Y0246048D01*
X0135744Y0246023D01*
X0135624Y0245994D01*
X0135505Y0245962D01*
X0135386Y0245925D01*
X0135269Y0245885D01*
X0135154Y0245842D01*
X0135039Y0245794D01*
X0134927Y0245743D01*
X0134816Y0245689D01*
X0134706Y0245631D01*
X0134599Y0245570D01*
X0134493Y0245505D01*
X0134390Y0245437D01*
X0134289Y0245366D01*
X0134190Y0245292D01*
X0134093Y0245215D01*
X0133999Y0245134D01*
X0133908Y0245051D01*
X0133819Y0244965D01*
X0133733Y0244876D01*
X0133650Y0244785D01*
X0133569Y0244691D01*
X0133492Y0244594D01*
X0133418Y0244495D01*
X0133347Y0244394D01*
X0133279Y0244291D01*
X0133214Y0244185D01*
X0133153Y0244078D01*
X0133095Y0243968D01*
X0133041Y0243857D01*
X0132990Y0243745D01*
X0132942Y0243630D01*
X0132899Y0243515D01*
X0132859Y0243398D01*
X0132822Y0243279D01*
X0132790Y0243160D01*
X0132761Y0243040D01*
X0132736Y0242919D01*
X0132714Y0242797D01*
X0132697Y0242674D01*
X0132683Y0242552D01*
X0132674Y0242428D01*
X0132668Y0242305D01*
X0132666Y0242181D01*
X0132666Y0229976D01*
X0132664Y0229843D01*
X0132658Y0229710D01*
X0132649Y0229578D01*
X0132635Y0229446D01*
X0132618Y0229314D01*
X0132597Y0229183D01*
X0132572Y0229052D01*
X0132543Y0228923D01*
X0132510Y0228794D01*
X0132474Y0228666D01*
X0132434Y0228539D01*
X0132391Y0228414D01*
X0132343Y0228290D01*
X0132292Y0228167D01*
X0132238Y0228046D01*
X0132180Y0227926D01*
X0132119Y0227809D01*
X0132054Y0227692D01*
X0131986Y0227578D01*
X0131915Y0227466D01*
X0131840Y0227356D01*
X0131762Y0227249D01*
X0131681Y0227143D01*
X0131598Y0227040D01*
X0131511Y0226940D01*
X0131421Y0226842D01*
X0131328Y0226747D01*
X0131233Y0226654D01*
X0131135Y0226564D01*
X0131035Y0226477D01*
X0130932Y0226394D01*
X0130826Y0226313D01*
X0130719Y0226235D01*
X0130609Y0226160D01*
X0130497Y0226089D01*
X0130382Y0226021D01*
X0130266Y0225956D01*
X0130149Y0225895D01*
X0130029Y0225837D01*
X0129908Y0225783D01*
X0129785Y0225732D01*
X0129661Y0225684D01*
X0129536Y0225641D01*
X0129409Y0225601D01*
X0129281Y0225565D01*
X0129152Y0225532D01*
X0129023Y0225503D01*
X0128892Y0225478D01*
X0128761Y0225457D01*
X0128629Y0225440D01*
X0128497Y0225426D01*
X0128365Y0225417D01*
X0128232Y0225411D01*
X0128099Y0225409D01*
X0125599Y0225409D01*
X0135970Y0225781D02*
X0136082Y0225891D01*
X0136197Y0225997D01*
X0136315Y0226101D01*
X0136435Y0226202D01*
X0136558Y0226300D01*
X0136683Y0226396D01*
X0136810Y0226487D01*
X0136939Y0226576D01*
X0137071Y0226662D01*
X0137204Y0226744D01*
X0137340Y0226823D01*
X0137477Y0226899D01*
X0137617Y0226971D01*
X0137758Y0227040D01*
X0137900Y0227105D01*
X0138045Y0227167D01*
X0138190Y0227225D01*
X0138338Y0227280D01*
X0138486Y0227331D01*
X0138636Y0227379D01*
X0138786Y0227422D01*
X0138938Y0227462D01*
X0139091Y0227499D01*
X0139244Y0227531D01*
X0139399Y0227560D01*
X0139554Y0227585D01*
X0139709Y0227606D01*
X0139865Y0227623D01*
X0140022Y0227637D01*
X0140178Y0227646D01*
X0140335Y0227652D01*
X0140492Y0227654D01*
X0148743Y0247757D02*
X0148848Y0247655D01*
X0148956Y0247555D01*
X0149066Y0247459D01*
X0149178Y0247365D01*
X0149293Y0247274D01*
X0149411Y0247187D01*
X0149530Y0247102D01*
X0149652Y0247021D01*
X0149776Y0246943D01*
X0149902Y0246868D01*
X0150030Y0246796D01*
X0150159Y0246728D01*
X0150291Y0246663D01*
X0150424Y0246602D01*
X0150559Y0246544D01*
X0150695Y0246490D01*
X0150832Y0246439D01*
X0150971Y0246392D01*
X0151111Y0246348D01*
X0151252Y0246309D01*
X0151394Y0246273D01*
X0151537Y0246240D01*
X0151680Y0246212D01*
X0151825Y0246187D01*
X0151970Y0246166D01*
X0152115Y0246149D01*
X0152261Y0246135D01*
X0152407Y0246126D01*
X0152554Y0246120D01*
X0152700Y0246118D01*
X0160225Y0257535D02*
X0136996Y0257535D01*
X0162981Y0280764D02*
X0162978Y0280992D01*
X0162970Y0281221D01*
X0162956Y0281448D01*
X0162937Y0281676D01*
X0162912Y0281903D01*
X0162882Y0282129D01*
X0162846Y0282355D01*
X0162805Y0282579D01*
X0162758Y0282803D01*
X0162706Y0283025D01*
X0162649Y0283246D01*
X0162586Y0283466D01*
X0162519Y0283684D01*
X0162445Y0283900D01*
X0162367Y0284115D01*
X0162283Y0284327D01*
X0162195Y0284538D01*
X0162101Y0284746D01*
X0162002Y0284952D01*
X0161899Y0285155D01*
X0161790Y0285356D01*
X0161677Y0285554D01*
X0161559Y0285750D01*
X0161436Y0285942D01*
X0161308Y0286132D01*
X0161176Y0286318D01*
X0161040Y0286501D01*
X0160899Y0286681D01*
X0160754Y0286857D01*
X0160605Y0287030D01*
X0160451Y0287199D01*
X0160294Y0287364D01*
X0160132Y0287526D01*
X0159967Y0287683D01*
X0159798Y0287837D01*
X0159625Y0287986D01*
X0159449Y0288131D01*
X0159269Y0288272D01*
X0159086Y0288408D01*
X0158900Y0288540D01*
X0158710Y0288668D01*
X0158518Y0288791D01*
X0158322Y0288909D01*
X0158124Y0289022D01*
X0157923Y0289131D01*
X0157720Y0289234D01*
X0157514Y0289333D01*
X0157306Y0289427D01*
X0157095Y0289515D01*
X0156883Y0289599D01*
X0156668Y0289677D01*
X0156452Y0289751D01*
X0156234Y0289818D01*
X0156014Y0289881D01*
X0155793Y0289938D01*
X0155571Y0289990D01*
X0155347Y0290037D01*
X0155123Y0290078D01*
X0154897Y0290114D01*
X0154671Y0290144D01*
X0154444Y0290169D01*
X0154216Y0290188D01*
X0153989Y0290202D01*
X0153760Y0290210D01*
X0153532Y0290213D01*
X0162981Y0280764D02*
X0162981Y0252811D01*
X0166524Y0250055D02*
X0166524Y0322890D01*
X0168886Y0352417D02*
X0110619Y0352417D01*
X0099989Y0348087D02*
X0099989Y0341000D01*
X0099986Y0340762D01*
X0099978Y0340524D01*
X0099963Y0340287D01*
X0099943Y0340050D01*
X0099917Y0339814D01*
X0099886Y0339578D01*
X0099849Y0339343D01*
X0099806Y0339109D01*
X0099757Y0338876D01*
X0099703Y0338644D01*
X0099643Y0338414D01*
X0099578Y0338185D01*
X0099507Y0337958D01*
X0099431Y0337733D01*
X0099349Y0337510D01*
X0099262Y0337288D01*
X0099170Y0337069D01*
X0099072Y0336852D01*
X0098970Y0336638D01*
X0098862Y0336426D01*
X0098748Y0336216D01*
X0098630Y0336010D01*
X0098507Y0335806D01*
X0098379Y0335606D01*
X0098247Y0335409D01*
X0098109Y0335214D01*
X0097967Y0335024D01*
X0097820Y0334836D01*
X0097669Y0334653D01*
X0097514Y0334473D01*
X0097354Y0334297D01*
X0097190Y0334125D01*
X0097021Y0333956D01*
X0096849Y0333792D01*
X0096673Y0333632D01*
X0096493Y0333477D01*
X0096310Y0333326D01*
X0096122Y0333179D01*
X0095932Y0333037D01*
X0095737Y0332899D01*
X0095540Y0332767D01*
X0095340Y0332639D01*
X0095136Y0332516D01*
X0094930Y0332398D01*
X0094720Y0332284D01*
X0094508Y0332176D01*
X0094294Y0332074D01*
X0094077Y0331976D01*
X0093858Y0331884D01*
X0093636Y0331797D01*
X0093413Y0331715D01*
X0093188Y0331639D01*
X0092961Y0331568D01*
X0092732Y0331503D01*
X0092502Y0331443D01*
X0092270Y0331389D01*
X0092037Y0331340D01*
X0091803Y0331297D01*
X0091568Y0331260D01*
X0091332Y0331229D01*
X0091096Y0331203D01*
X0090859Y0331183D01*
X0090622Y0331168D01*
X0090384Y0331160D01*
X0090146Y0331157D01*
X0144201Y0377220D02*
X0144201Y0386669D01*
X0154319Y0386669D01*
X0154713Y0386669D01*
X0172823Y0356354D02*
X0172821Y0356230D01*
X0172815Y0356107D01*
X0172806Y0355983D01*
X0172792Y0355861D01*
X0172775Y0355738D01*
X0172753Y0355616D01*
X0172728Y0355495D01*
X0172699Y0355375D01*
X0172667Y0355256D01*
X0172630Y0355137D01*
X0172590Y0355020D01*
X0172547Y0354905D01*
X0172499Y0354790D01*
X0172448Y0354678D01*
X0172394Y0354567D01*
X0172336Y0354457D01*
X0172275Y0354350D01*
X0172210Y0354244D01*
X0172142Y0354141D01*
X0172071Y0354040D01*
X0171997Y0353941D01*
X0171920Y0353844D01*
X0171839Y0353750D01*
X0171756Y0353659D01*
X0171670Y0353570D01*
X0171581Y0353484D01*
X0171490Y0353401D01*
X0171396Y0353320D01*
X0171299Y0353243D01*
X0171200Y0353169D01*
X0171099Y0353098D01*
X0170996Y0353030D01*
X0170890Y0352965D01*
X0170783Y0352904D01*
X0170673Y0352846D01*
X0170562Y0352792D01*
X0170450Y0352741D01*
X0170335Y0352693D01*
X0170220Y0352650D01*
X0170103Y0352610D01*
X0169984Y0352573D01*
X0169865Y0352541D01*
X0169745Y0352512D01*
X0169624Y0352487D01*
X0169502Y0352465D01*
X0169379Y0352448D01*
X0169257Y0352434D01*
X0169133Y0352425D01*
X0169010Y0352419D01*
X0168886Y0352417D01*
X0172823Y0356354D02*
X0172825Y0356440D01*
X0172830Y0356526D01*
X0172840Y0356611D01*
X0172853Y0356696D01*
X0172870Y0356780D01*
X0172890Y0356864D01*
X0172914Y0356946D01*
X0172942Y0357027D01*
X0172973Y0357108D01*
X0173007Y0357186D01*
X0173045Y0357263D01*
X0173087Y0357339D01*
X0173131Y0357412D01*
X0173179Y0357483D01*
X0173230Y0357553D01*
X0173284Y0357620D01*
X0173340Y0357684D01*
X0173400Y0357746D01*
X0173462Y0357806D01*
X0173526Y0357862D01*
X0173593Y0357916D01*
X0173663Y0357967D01*
X0173734Y0358015D01*
X0173808Y0358059D01*
X0173883Y0358101D01*
X0173960Y0358139D01*
X0174038Y0358173D01*
X0174119Y0358204D01*
X0174200Y0358232D01*
X0174282Y0358256D01*
X0174366Y0358276D01*
X0174450Y0358293D01*
X0174535Y0358306D01*
X0174620Y0358316D01*
X0174706Y0358321D01*
X0174792Y0358323D01*
X0218099Y0358323D01*
X0218176Y0358321D01*
X0218253Y0358315D01*
X0218330Y0358306D01*
X0218406Y0358293D01*
X0218482Y0358276D01*
X0218556Y0358255D01*
X0218630Y0358231D01*
X0218702Y0358203D01*
X0218772Y0358172D01*
X0218841Y0358137D01*
X0218909Y0358099D01*
X0218974Y0358058D01*
X0219037Y0358013D01*
X0219098Y0357965D01*
X0219157Y0357915D01*
X0219213Y0357862D01*
X0219266Y0357806D01*
X0219316Y0357747D01*
X0219364Y0357686D01*
X0219409Y0357623D01*
X0219450Y0357558D01*
X0219488Y0357490D01*
X0219523Y0357421D01*
X0219554Y0357351D01*
X0219582Y0357279D01*
X0219606Y0357205D01*
X0219627Y0357131D01*
X0219644Y0357055D01*
X0219657Y0356979D01*
X0219666Y0356902D01*
X0219672Y0356825D01*
X0219674Y0356748D01*
X0219674Y0286669D01*
X0219672Y0286469D01*
X0219664Y0286270D01*
X0219652Y0286070D01*
X0219635Y0285871D01*
X0219614Y0285672D01*
X0219587Y0285474D01*
X0219556Y0285277D01*
X0219520Y0285080D01*
X0219479Y0284885D01*
X0219434Y0284690D01*
X0219384Y0284497D01*
X0219329Y0284305D01*
X0219269Y0284114D01*
X0219205Y0283925D01*
X0219137Y0283737D01*
X0219064Y0283551D01*
X0218986Y0283367D01*
X0218904Y0283185D01*
X0218818Y0283005D01*
X0218727Y0282827D01*
X0218632Y0282651D01*
X0218533Y0282477D01*
X0218429Y0282306D01*
X0218322Y0282138D01*
X0218210Y0281972D01*
X0218095Y0281809D01*
X0217976Y0281649D01*
X0217852Y0281492D01*
X0217725Y0281337D01*
X0217595Y0281186D01*
X0217460Y0281038D01*
X0217323Y0280894D01*
X0217181Y0280752D01*
X0217037Y0280615D01*
X0216889Y0280480D01*
X0216738Y0280350D01*
X0216583Y0280223D01*
X0216426Y0280099D01*
X0216266Y0279980D01*
X0216103Y0279865D01*
X0215937Y0279753D01*
X0215769Y0279646D01*
X0215598Y0279542D01*
X0215424Y0279443D01*
X0215248Y0279348D01*
X0215070Y0279257D01*
X0214890Y0279171D01*
X0214708Y0279089D01*
X0214524Y0279011D01*
X0214338Y0278938D01*
X0214150Y0278870D01*
X0213961Y0278806D01*
X0213770Y0278746D01*
X0213578Y0278691D01*
X0213385Y0278641D01*
X0213190Y0278596D01*
X0212995Y0278555D01*
X0212798Y0278519D01*
X0212601Y0278488D01*
X0212403Y0278461D01*
X0212204Y0278440D01*
X0212005Y0278423D01*
X0211805Y0278411D01*
X0211606Y0278403D01*
X0211406Y0278401D01*
X0211406Y0278402D02*
X0178729Y0278402D01*
X0178729Y0278401D02*
X0178652Y0278403D01*
X0178575Y0278409D01*
X0178498Y0278418D01*
X0178422Y0278431D01*
X0178346Y0278448D01*
X0178272Y0278469D01*
X0178198Y0278493D01*
X0178126Y0278521D01*
X0178056Y0278552D01*
X0177987Y0278587D01*
X0177919Y0278625D01*
X0177854Y0278666D01*
X0177791Y0278711D01*
X0177730Y0278759D01*
X0177671Y0278809D01*
X0177615Y0278862D01*
X0177562Y0278918D01*
X0177512Y0278977D01*
X0177464Y0279038D01*
X0177419Y0279101D01*
X0177378Y0279166D01*
X0177340Y0279234D01*
X0177305Y0279303D01*
X0177274Y0279373D01*
X0177246Y0279445D01*
X0177222Y0279519D01*
X0177201Y0279593D01*
X0177184Y0279669D01*
X0177171Y0279745D01*
X0177162Y0279822D01*
X0177156Y0279899D01*
X0177154Y0279976D01*
X0177154Y0289819D01*
X0171375Y0246118D02*
X0171531Y0246116D01*
X0171686Y0246110D01*
X0171842Y0246101D01*
X0171997Y0246087D01*
X0172152Y0246070D01*
X0172306Y0246049D01*
X0172460Y0246025D01*
X0172613Y0245996D01*
X0172766Y0245964D01*
X0172917Y0245928D01*
X0173068Y0245888D01*
X0173218Y0245845D01*
X0173366Y0245798D01*
X0173514Y0245747D01*
X0173660Y0245693D01*
X0173804Y0245635D01*
X0173947Y0245573D01*
X0174089Y0245509D01*
X0174229Y0245440D01*
X0174367Y0245368D01*
X0174504Y0245293D01*
X0174639Y0245215D01*
X0174771Y0245133D01*
X0174902Y0245048D01*
X0175030Y0244960D01*
X0175156Y0244869D01*
X0175280Y0244774D01*
X0175402Y0244677D01*
X0175521Y0244577D01*
X0175638Y0244474D01*
X0175752Y0244368D01*
X0175864Y0244259D01*
X0181091Y0219740D02*
X0181089Y0219663D01*
X0181083Y0219586D01*
X0181074Y0219509D01*
X0181061Y0219433D01*
X0181044Y0219357D01*
X0181023Y0219283D01*
X0180999Y0219209D01*
X0180971Y0219137D01*
X0180940Y0219067D01*
X0180905Y0218998D01*
X0180867Y0218930D01*
X0180826Y0218865D01*
X0180781Y0218802D01*
X0180733Y0218741D01*
X0180683Y0218682D01*
X0180630Y0218626D01*
X0180574Y0218573D01*
X0180515Y0218523D01*
X0180454Y0218475D01*
X0180391Y0218430D01*
X0180326Y0218389D01*
X0180258Y0218351D01*
X0180189Y0218316D01*
X0180119Y0218285D01*
X0180047Y0218257D01*
X0179973Y0218233D01*
X0179899Y0218212D01*
X0179823Y0218195D01*
X0179747Y0218182D01*
X0179670Y0218173D01*
X0179593Y0218167D01*
X0179516Y0218165D01*
D21*
X0173512Y0195331D02*
X0172210Y0195331D01*
X0167712Y0193468D02*
X0149122Y0174877D01*
X0147430Y0170792D02*
X0147430Y0170370D01*
X0146636Y0168455D02*
X0133650Y0155469D01*
X0121839Y0155469D01*
X0117410Y0159898D01*
X0129809Y0172105D02*
X0119602Y0182311D01*
X0117874Y0183028D02*
X0115887Y0183028D01*
X0114286Y0182365D02*
X0113471Y0181549D01*
X0112288Y0181059D02*
X0112117Y0181059D01*
X0111071Y0180626D02*
X0094772Y0164327D01*
X0094772Y0163835D01*
X0111070Y0180626D02*
X0111123Y0180676D01*
X0111178Y0180723D01*
X0111235Y0180768D01*
X0111295Y0180810D01*
X0111356Y0180848D01*
X0111419Y0180884D01*
X0111484Y0180917D01*
X0111551Y0180946D01*
X0111618Y0180972D01*
X0111687Y0180995D01*
X0111757Y0181015D01*
X0111828Y0181031D01*
X0111900Y0181043D01*
X0111972Y0181052D01*
X0112044Y0181057D01*
X0112117Y0181059D01*
X0112288Y0181059D02*
X0112365Y0181061D01*
X0112442Y0181066D01*
X0112519Y0181075D01*
X0112595Y0181087D01*
X0112671Y0181103D01*
X0112746Y0181123D01*
X0112820Y0181146D01*
X0112892Y0181172D01*
X0112964Y0181202D01*
X0113034Y0181234D01*
X0113102Y0181270D01*
X0113169Y0181310D01*
X0113233Y0181352D01*
X0113296Y0181397D01*
X0113357Y0181445D01*
X0113415Y0181496D01*
X0113471Y0181549D01*
X0114286Y0182365D02*
X0114354Y0182430D01*
X0114424Y0182492D01*
X0114496Y0182551D01*
X0114571Y0182607D01*
X0114649Y0182659D01*
X0114728Y0182709D01*
X0114809Y0182755D01*
X0114893Y0182798D01*
X0114978Y0182837D01*
X0115064Y0182873D01*
X0115152Y0182905D01*
X0115241Y0182934D01*
X0115331Y0182959D01*
X0115422Y0182980D01*
X0115514Y0182997D01*
X0115607Y0183011D01*
X0115700Y0183020D01*
X0115793Y0183026D01*
X0115887Y0183028D01*
X0117874Y0183028D02*
X0117970Y0183026D01*
X0118066Y0183020D01*
X0118161Y0183011D01*
X0118256Y0182998D01*
X0118351Y0182981D01*
X0118445Y0182960D01*
X0118538Y0182936D01*
X0118630Y0182908D01*
X0118720Y0182877D01*
X0118810Y0182842D01*
X0118898Y0182803D01*
X0118984Y0182762D01*
X0119069Y0182716D01*
X0119152Y0182668D01*
X0119232Y0182616D01*
X0119311Y0182561D01*
X0119388Y0182503D01*
X0119462Y0182442D01*
X0119534Y0182378D01*
X0119603Y0182312D01*
X0133650Y0184953D02*
X0133650Y0186965D01*
X0133650Y0184953D02*
X0133652Y0184859D01*
X0133658Y0184765D01*
X0133667Y0184672D01*
X0133681Y0184579D01*
X0133698Y0184487D01*
X0133720Y0184395D01*
X0133744Y0184305D01*
X0133773Y0184215D01*
X0133805Y0184127D01*
X0133841Y0184040D01*
X0133881Y0183955D01*
X0133924Y0183872D01*
X0133970Y0183790D01*
X0134020Y0183710D01*
X0134073Y0183633D01*
X0134129Y0183558D01*
X0134188Y0183485D01*
X0134250Y0183414D01*
X0134315Y0183346D01*
X0134316Y0183346D02*
X0145340Y0172322D01*
X0147429Y0170370D02*
X0147427Y0170269D01*
X0147421Y0170168D01*
X0147412Y0170067D01*
X0147399Y0169966D01*
X0147382Y0169867D01*
X0147361Y0169767D01*
X0147337Y0169669D01*
X0147309Y0169572D01*
X0147277Y0169476D01*
X0147242Y0169381D01*
X0147203Y0169287D01*
X0147161Y0169195D01*
X0147115Y0169105D01*
X0147066Y0169016D01*
X0147014Y0168929D01*
X0146958Y0168845D01*
X0146900Y0168762D01*
X0146838Y0168682D01*
X0146774Y0168604D01*
X0146706Y0168528D01*
X0146636Y0168455D01*
X0145175Y0168962D02*
X0134142Y0157929D01*
X0131189Y0157929D01*
X0133142Y0170724D02*
X0143493Y0170724D01*
X0145175Y0168962D02*
X0145244Y0169034D01*
X0145310Y0169108D01*
X0145373Y0169184D01*
X0145434Y0169263D01*
X0145491Y0169344D01*
X0145546Y0169427D01*
X0145597Y0169512D01*
X0145645Y0169599D01*
X0145690Y0169688D01*
X0145731Y0169778D01*
X0145769Y0169870D01*
X0145804Y0169963D01*
X0145835Y0170058D01*
X0145862Y0170153D01*
X0145886Y0170250D01*
X0145907Y0170347D01*
X0145923Y0170445D01*
X0145936Y0170544D01*
X0145946Y0170642D01*
X0145951Y0170742D01*
X0145953Y0170841D01*
X0145951Y0170932D01*
X0145945Y0171024D01*
X0145935Y0171114D01*
X0145921Y0171205D01*
X0145903Y0171294D01*
X0145882Y0171383D01*
X0145856Y0171471D01*
X0145827Y0171558D01*
X0145794Y0171643D01*
X0145757Y0171726D01*
X0145716Y0171808D01*
X0145672Y0171888D01*
X0145625Y0171967D01*
X0145574Y0172043D01*
X0145520Y0172116D01*
X0145463Y0172188D01*
X0145403Y0172256D01*
X0145339Y0172322D01*
X0147429Y0170792D02*
X0147431Y0170943D01*
X0147437Y0171094D01*
X0147447Y0171245D01*
X0147461Y0171396D01*
X0147478Y0171546D01*
X0147500Y0171696D01*
X0147526Y0171845D01*
X0147555Y0171993D01*
X0147589Y0172141D01*
X0147626Y0172287D01*
X0147667Y0172433D01*
X0147712Y0172577D01*
X0147760Y0172720D01*
X0147813Y0172862D01*
X0147869Y0173003D01*
X0147928Y0173142D01*
X0147992Y0173279D01*
X0148059Y0173415D01*
X0148129Y0173549D01*
X0148203Y0173681D01*
X0148280Y0173810D01*
X0148361Y0173938D01*
X0148445Y0174064D01*
X0148532Y0174188D01*
X0148623Y0174309D01*
X0148716Y0174428D01*
X0148813Y0174544D01*
X0148913Y0174658D01*
X0149016Y0174769D01*
X0149121Y0174877D01*
X0133142Y0170725D02*
X0133010Y0170727D01*
X0132878Y0170732D01*
X0132746Y0170742D01*
X0132614Y0170755D01*
X0132483Y0170771D01*
X0132353Y0170792D01*
X0132223Y0170816D01*
X0132093Y0170843D01*
X0131965Y0170874D01*
X0131837Y0170909D01*
X0131711Y0170948D01*
X0131585Y0170989D01*
X0131461Y0171035D01*
X0131338Y0171084D01*
X0131217Y0171136D01*
X0131097Y0171192D01*
X0130979Y0171251D01*
X0130862Y0171313D01*
X0130747Y0171379D01*
X0130635Y0171447D01*
X0130524Y0171519D01*
X0130415Y0171594D01*
X0130308Y0171672D01*
X0130203Y0171753D01*
X0130101Y0171837D01*
X0130002Y0171924D01*
X0129904Y0172013D01*
X0129809Y0172105D01*
X0143585Y0202620D02*
X0143499Y0202704D01*
X0143410Y0202785D01*
X0143318Y0202863D01*
X0143224Y0202937D01*
X0143127Y0203009D01*
X0143028Y0203077D01*
X0142927Y0203143D01*
X0142824Y0203205D01*
X0142719Y0203263D01*
X0142612Y0203318D01*
X0142503Y0203369D01*
X0142393Y0203417D01*
X0142281Y0203461D01*
X0142168Y0203502D01*
X0142053Y0203539D01*
X0141937Y0203572D01*
X0141821Y0203601D01*
X0141703Y0203626D01*
X0141585Y0203648D01*
X0141466Y0203666D01*
X0141346Y0203679D01*
X0141226Y0203689D01*
X0141106Y0203695D01*
X0140986Y0203697D01*
X0127744Y0203697D01*
X0143585Y0202621D02*
X0143684Y0202525D01*
X0143785Y0202432D01*
X0143889Y0202342D01*
X0143995Y0202256D01*
X0144104Y0202172D01*
X0144216Y0202092D01*
X0144330Y0202014D01*
X0144445Y0201940D01*
X0144564Y0201870D01*
X0144684Y0201803D01*
X0144805Y0201740D01*
X0144929Y0201680D01*
X0145055Y0201623D01*
X0145182Y0201571D01*
X0145310Y0201522D01*
X0145440Y0201477D01*
X0145571Y0201435D01*
X0145703Y0201398D01*
X0145836Y0201364D01*
X0145971Y0201335D01*
X0146106Y0201309D01*
X0146241Y0201287D01*
X0146377Y0201269D01*
X0146514Y0201255D01*
X0146651Y0201245D01*
X0146789Y0201239D01*
X0146926Y0201237D01*
X0146926Y0201236D02*
X0206994Y0201236D01*
X0207163Y0201234D01*
X0207331Y0201228D01*
X0207500Y0201218D01*
X0207668Y0201204D01*
X0207835Y0201186D01*
X0208003Y0201164D01*
X0208169Y0201138D01*
X0208335Y0201108D01*
X0208500Y0201074D01*
X0208665Y0201036D01*
X0208828Y0200995D01*
X0208991Y0200949D01*
X0209152Y0200899D01*
X0209312Y0200846D01*
X0209471Y0200789D01*
X0209628Y0200728D01*
X0209784Y0200664D01*
X0209938Y0200596D01*
X0210091Y0200524D01*
X0210241Y0200448D01*
X0210390Y0200369D01*
X0210538Y0200287D01*
X0210683Y0200200D01*
X0210826Y0200111D01*
X0210966Y0200018D01*
X0211105Y0199922D01*
X0211241Y0199822D01*
X0211375Y0199720D01*
X0211506Y0199614D01*
X0211635Y0199505D01*
X0211761Y0199393D01*
X0211885Y0199278D01*
X0212005Y0199160D01*
X0217134Y0194032D01*
X0218788Y0190038D02*
X0218788Y0157715D01*
X0215807Y0150519D02*
X0192213Y0126925D01*
X0215807Y0150519D02*
X0215981Y0150698D01*
X0216151Y0150881D01*
X0216316Y0151068D01*
X0216477Y0151259D01*
X0216633Y0151454D01*
X0216784Y0151653D01*
X0216931Y0151856D01*
X0217072Y0152062D01*
X0217208Y0152271D01*
X0217339Y0152483D01*
X0217465Y0152699D01*
X0217585Y0152918D01*
X0217700Y0153140D01*
X0217810Y0153364D01*
X0217914Y0153591D01*
X0218012Y0153821D01*
X0218105Y0154053D01*
X0218192Y0154287D01*
X0218273Y0154523D01*
X0218349Y0154761D01*
X0218418Y0155001D01*
X0218482Y0155242D01*
X0218540Y0155485D01*
X0218591Y0155730D01*
X0218637Y0155975D01*
X0218677Y0156222D01*
X0218710Y0156469D01*
X0218738Y0156718D01*
X0218759Y0156966D01*
X0218775Y0157216D01*
X0218784Y0157465D01*
X0218787Y0157715D01*
X0218788Y0190038D02*
X0218786Y0190186D01*
X0218780Y0190334D01*
X0218771Y0190481D01*
X0218757Y0190628D01*
X0218740Y0190775D01*
X0218718Y0190922D01*
X0218693Y0191067D01*
X0218665Y0191212D01*
X0218632Y0191357D01*
X0218596Y0191500D01*
X0218555Y0191642D01*
X0218512Y0191783D01*
X0218464Y0191923D01*
X0218413Y0192062D01*
X0218358Y0192199D01*
X0218300Y0192335D01*
X0218238Y0192470D01*
X0218172Y0192602D01*
X0218104Y0192733D01*
X0218031Y0192862D01*
X0217956Y0192989D01*
X0217877Y0193114D01*
X0217795Y0193237D01*
X0217709Y0193358D01*
X0217621Y0193476D01*
X0217529Y0193592D01*
X0217435Y0193706D01*
X0217337Y0193817D01*
X0217237Y0193926D01*
X0217134Y0194032D01*
X0172210Y0195331D02*
X0172054Y0195329D01*
X0171898Y0195323D01*
X0171742Y0195314D01*
X0171587Y0195300D01*
X0171431Y0195283D01*
X0171277Y0195262D01*
X0171123Y0195237D01*
X0170969Y0195209D01*
X0170816Y0195176D01*
X0170664Y0195140D01*
X0170513Y0195101D01*
X0170363Y0195057D01*
X0170215Y0195010D01*
X0170067Y0194959D01*
X0169921Y0194905D01*
X0169776Y0194847D01*
X0169632Y0194785D01*
X0169490Y0194720D01*
X0169350Y0194652D01*
X0169211Y0194580D01*
X0169075Y0194505D01*
X0168940Y0194426D01*
X0168807Y0194344D01*
X0168676Y0194259D01*
X0168547Y0194171D01*
X0168421Y0194079D01*
X0168297Y0193985D01*
X0168175Y0193887D01*
X0168055Y0193787D01*
X0167938Y0193683D01*
X0167824Y0193577D01*
X0167712Y0193468D01*
X0154201Y0377220D02*
X0153827Y0377417D01*
X0153827Y0377220D01*
X0144201Y0387220D02*
X0143985Y0387260D01*
X0143985Y0387220D01*
D22*
X0121248Y0275252D02*
X0123611Y0272890D01*
X0123611Y0245331D01*
X0125185Y0243756D01*
X0128729Y0243756D01*
X0131485Y0246512D01*
X0131485Y0249661D01*
X0131878Y0250055D01*
X0142115Y0250055D01*
X0145658Y0246512D01*
X0145658Y0233520D01*
X0133059Y0201236D02*
X0133847Y0200449D01*
X0133847Y0194543D01*
X0133059Y0193756D01*
X0107863Y0193756D01*
X0108059Y0186472D02*
X0107272Y0185685D01*
X0097626Y0185685D01*
X0096248Y0184307D01*
X0096248Y0180173D01*
X0097626Y0178795D01*
X0101170Y0178795D01*
X0098807Y0158717D02*
X0088178Y0158717D01*
X0083453Y0163441D01*
X0083453Y0215803D01*
X0081091Y0218165D01*
X0076760Y0218165D01*
X0074398Y0220528D01*
X0074398Y0231945D01*
X0077548Y0235094D01*
X0084241Y0235094D01*
X0090933Y0241787D01*
X0090933Y0269740D01*
X0098807Y0277614D01*
X0111406Y0277614D01*
X0115599Y0225409D02*
X0110422Y0220232D01*
X0110422Y0208717D01*
X0117902Y0201236D01*
X0133059Y0201236D01*
X0108650Y0149268D02*
X0110619Y0147299D01*
X0111603Y0147299D01*
X0108650Y0149268D02*
X0091524Y0149268D01*
X0091327Y0149071D01*
X0087390Y0150055D02*
X0081878Y0150055D01*
X0073217Y0158717D01*
X0073217Y0159898D01*
X0087784Y0181945D02*
X0085422Y0184307D01*
X0085422Y0198480D01*
X0090540Y0203598D01*
X0093296Y0203598D01*
X0103532Y0213835D01*
X0103532Y0219740D01*
X0098807Y0158717D02*
X0100382Y0157142D01*
X0100382Y0156748D01*
D23*
X0145658Y0233520D03*
X0121248Y0275252D03*
X0111406Y0277614D03*
M02*
