G75*
%MOIN*%
%OFA0B0*%
%FSLAX25Y25*%
%IPPOS*%
%LPD*%
%AMOC8*
5,1,8,0,0,1.08239X$1,22.5*
%
%ADD10C,0.00000*%
%ADD11R,0.03937X0.04331*%
%ADD12R,0.04331X0.03937*%
%ADD13R,0.05512X0.03937*%
%ADD14R,0.24409X0.21260*%
%ADD15R,0.06299X0.03937*%
%ADD16R,0.05906X0.05118*%
%ADD17R,0.02200X0.05000*%
%ADD18R,0.05000X0.02200*%
%ADD19R,0.05512X0.11811*%
%ADD20R,0.05512X0.05512*%
%ADD21R,0.02717X0.03898*%
%ADD22R,0.02756X0.06693*%
%ADD23R,0.07087X0.05512*%
%ADD24R,0.05512X0.07087*%
%ADD25R,0.05600X0.01700*%
%ADD26R,0.02362X0.08661*%
%ADD27R,0.03346X0.02756*%
%ADD28R,0.02756X0.03937*%
D10*
X0003081Y0002417D02*
X0160562Y0002417D01*
X0160837Y0001000D02*
X0160522Y0396000D01*
X0160562Y0396118D02*
X0003081Y0396118D01*
X0003081Y0002417D01*
D11*
X0039263Y0042378D03*
X0045956Y0042378D03*
X0075444Y0040764D03*
X0082137Y0040764D03*
X0086782Y0117772D03*
X0093475Y0117772D03*
X0087294Y0136551D03*
X0082097Y0148047D03*
X0082097Y0154740D03*
X0085641Y0162142D03*
X0092333Y0162142D03*
X0088908Y0177890D03*
X0082215Y0177890D03*
X0073554Y0176315D03*
X0073554Y0169622D03*
X0062137Y0188047D03*
X0062137Y0194740D03*
X0043830Y0163835D03*
X0037137Y0163835D03*
X0045247Y0142457D03*
X0051940Y0142457D03*
X0052294Y0121000D03*
X0045601Y0121000D03*
X0060995Y0142457D03*
X0067688Y0142457D03*
X0080601Y0136551D03*
X0113515Y0137339D03*
X0120207Y0137339D03*
X0127491Y0119898D03*
X0134184Y0119898D03*
X0136152Y0236551D03*
X0129459Y0236551D03*
X0095503Y0267358D03*
X0095503Y0274051D03*
X0120207Y0337850D03*
X0126900Y0337850D03*
X0034381Y0358323D03*
X0027688Y0358323D03*
X0027452Y0240921D03*
X0020759Y0240921D03*
X0026074Y0192654D03*
X0032767Y0192654D03*
X0012767Y0120528D03*
X0006074Y0120528D03*
D12*
X0008987Y0138835D03*
X0008987Y0145528D03*
X0035404Y0174937D03*
X0042097Y0174937D03*
X0054263Y0188047D03*
X0054263Y0194740D03*
X0074263Y0160567D03*
X0074263Y0153874D03*
X0085326Y0169031D03*
X0092019Y0169031D03*
X0101034Y0189937D03*
X0100857Y0199583D03*
X0107550Y0199583D03*
X0107727Y0189937D03*
X0126625Y0150213D03*
X0133318Y0150213D03*
X0145680Y0171866D03*
X0152373Y0171866D03*
X0153830Y0158480D03*
X0153830Y0151787D03*
X0122530Y0079031D03*
X0122530Y0072339D03*
X0141979Y0023756D03*
X0141979Y0017063D03*
X0101743Y0016079D03*
X0101743Y0022772D03*
X0081704Y0071591D03*
X0081704Y0078283D03*
X0078081Y0119031D03*
X0071389Y0119031D03*
X0045995Y0077811D03*
X0045995Y0071118D03*
X0038751Y0015764D03*
X0038751Y0009071D03*
X0007727Y0070921D03*
X0007727Y0077614D03*
X0075365Y0013205D03*
X0075365Y0006512D03*
X0098672Y0137535D03*
X0105365Y0137535D03*
X0082747Y0190606D03*
X0076054Y0190606D03*
X0079440Y0261236D03*
X0079440Y0267929D03*
D13*
X0033908Y0032969D03*
X0033908Y0025488D03*
X0042570Y0029228D03*
X0056704Y0025980D03*
X0065365Y0022240D03*
X0065365Y0029720D03*
D14*
X0053967Y0291689D03*
D15*
X0082707Y0300665D03*
X0082707Y0282713D03*
D16*
X0063613Y0271118D03*
X0063613Y0263638D03*
D17*
X0081782Y0246128D03*
X0084932Y0246128D03*
X0088081Y0246128D03*
X0091231Y0246128D03*
X0094381Y0246128D03*
X0097530Y0246128D03*
X0100680Y0246128D03*
X0103830Y0246128D03*
X0103830Y0212328D03*
X0100680Y0212328D03*
X0097530Y0212328D03*
X0094381Y0212328D03*
X0091231Y0212328D03*
X0088081Y0212328D03*
X0084932Y0212328D03*
X0081782Y0212328D03*
D18*
X0075906Y0218205D03*
X0075906Y0221354D03*
X0075906Y0224504D03*
X0075906Y0227654D03*
X0075906Y0230803D03*
X0075906Y0233953D03*
X0075906Y0237102D03*
X0075906Y0240252D03*
X0109706Y0240252D03*
X0109706Y0237102D03*
X0109706Y0233953D03*
X0109706Y0230803D03*
X0109706Y0227654D03*
X0109706Y0224504D03*
X0109706Y0221354D03*
X0109706Y0218205D03*
D19*
X0067373Y0341866D03*
X0067373Y0360764D03*
X0097688Y0361906D03*
X0097688Y0343008D03*
D20*
X0129459Y0388244D03*
X0144420Y0388244D03*
X0034184Y0388244D03*
X0019223Y0388244D03*
D21*
X0013593Y0060094D03*
X0013593Y0049898D03*
X0009853Y0049898D03*
X0006113Y0049898D03*
X0006113Y0060094D03*
X0046074Y0061039D03*
X0046074Y0050843D03*
X0049814Y0050843D03*
X0053554Y0050843D03*
X0053554Y0061039D03*
X0081270Y0061000D03*
X0081270Y0050803D03*
X0085011Y0050803D03*
X0088751Y0050803D03*
X0088751Y0061000D03*
X0122609Y0058953D03*
X0122609Y0048756D03*
X0126349Y0048756D03*
X0130089Y0048756D03*
X0130089Y0058953D03*
D22*
X0087333Y0199937D03*
X0082609Y0199937D03*
X0077885Y0199937D03*
D23*
X0109066Y0290055D03*
X0109066Y0303441D03*
X0109066Y0313480D03*
X0109066Y0326866D03*
X0097097Y0327102D03*
X0097097Y0313717D03*
X0097137Y0303913D03*
X0097137Y0290528D03*
D24*
X0116467Y0270134D03*
X0129853Y0270134D03*
X0142058Y0270134D03*
X0155444Y0270134D03*
X0047176Y0270134D03*
X0033790Y0270134D03*
X0021585Y0270134D03*
X0008200Y0270134D03*
D25*
X0018104Y0153855D03*
X0018104Y0151355D03*
X0018104Y0148755D03*
X0018104Y0146255D03*
X0035304Y0146255D03*
X0035304Y0148755D03*
X0035304Y0151355D03*
X0035304Y0153855D03*
D26*
X0050385Y0153323D03*
X0055385Y0153323D03*
X0060385Y0153323D03*
X0065385Y0153323D03*
X0065385Y0173795D03*
X0060385Y0173795D03*
X0055385Y0173795D03*
X0050385Y0173795D03*
X0098849Y0171827D03*
X0103849Y0171827D03*
X0108849Y0171827D03*
X0113849Y0171827D03*
X0113849Y0151354D03*
X0108849Y0151354D03*
X0103849Y0151354D03*
X0098849Y0151354D03*
D27*
X0038593Y0134740D03*
X0032294Y0134740D03*
D28*
X0015522Y0164465D03*
X0011782Y0155803D03*
X0008042Y0164465D03*
X0140916Y0154622D03*
X0144656Y0145961D03*
X0148396Y0154622D03*
M02*
