%
M48
M72
T01C0.01181
T02C0.03200
T03C0.03937
T04C0.04000
T05C0.04331
T06C0.08661
%
T01
X157412Y31157
X130247Y63441
X131034Y72102
X121585Y106748
X117255Y119740
X116861Y126827
X112137Y126827
X112137Y133913
X103869Y145724
X99144Y158323
X92452Y177614
X96782Y198480
X110857Y195331
X116861Y218165
X113711Y227614
X103869Y250055
X100326Y252811
X97570Y257535
X90877Y290213
X103869Y322890
X97570Y334307
X114499Y289819
X119617Y289425
X83003Y233520
X79066Y246118
X79459Y254386
X74341Y257535
X64893Y247693
X55444Y267378
X58593Y275252
X48751Y277614
X42845Y242969
X40877Y219740
X45207Y193756
X45404Y186472
X51113Y185488
X55444Y180370
X54755Y159898
X50326Y160291
X45207Y157142
X41270Y157535
X37727Y156748
X31034Y145724
X28672Y149071
X24735Y150055
X23948Y145724
X16467Y141394
X13318Y151630
X10562Y159898
X5444Y133520
X6231Y114228
X17255Y59898
X9774Y54386
X33396Y67378
X39302Y46512
X51113Y69346
X56625Y59898
X71585Y40213
X71585Y22496
X92452Y63441
X89696Y69740
X89696Y111866
X86152Y124071
X86152Y148087
X85759Y154780
X80837Y170724
X71585Y190213
X70995Y186965
X67255Y198480
X65089Y203697
X82609Y204780
X68534Y157929
X71979Y146512
X71979Y135094
X55837Y146906
X48948Y147299
X38515Y178795
X36940Y183126
X25129Y181945
X5050Y187850
X47570Y115803
X107412Y31157
X112137Y88244
X112137Y102024
X129558Y126925
X126704Y154386
X120404Y165803
X153869Y162260
X153869Y126039
X51900Y340213
X47963Y352417
T02
X15798Y130055
X25798Y130055
X56479Y130055
X66479Y130055
X97164Y130055
X107164Y130055
X137845Y130055
X147845Y130055
X84007Y324366
X74007Y324366
X61133Y323992
X51133Y323992
T03
X17648Y226039
X27491Y226039
X37333Y226039
X37333Y348087
X27491Y348087
X17648Y348087
X126310Y348087
X136152Y348087
X145995Y348087
X145995Y226039
X136152Y226039
X126310Y226039
T04
X62944Y215409
X62944Y225409
X62944Y235409
X52944Y235409
X52944Y225409
X52944Y215409
X61546Y377220
X61546Y387220
X71546Y387220
X71546Y377220
X81546Y377220
X81546Y387220
X91546Y387220
X91546Y377220
X101546Y377220
X101546Y387220
T05
X142845Y6354
X142845Y39819
X142845Y51630
X142845Y69346
X142845Y102811
X142845Y114622
X136152Y163835
X136152Y175646
X136152Y209110
X136152Y285882
X136152Y297693
X136152Y331157
X102164Y114622
X102164Y102811
X102164Y69346
X102164Y51630
X102164Y39819
X102164Y6354
X61479Y6354
X61479Y39819
X61479Y51630
X61479Y69346
X61479Y102811
X61479Y114622
X27491Y163835
X27491Y175646
X27491Y209110
X27491Y285882
X27491Y297693
X27491Y331157
X20798Y114622
X20798Y102811
X20798Y69346
X20798Y51630
X20798Y39819
X20798Y6354
T06
X10168Y252417
X44814Y252417
X44814Y374465
X10168Y374465
X118830Y374465
X153475Y374465
X153475Y252417
X118830Y252417
M30
