%
M48
M72
T01C0.01181
T02C0.03200
T03C0.03937
T04C0.04000
T05C0.04331
T06C0.08661
T07C0.12598
%
T01
X220067Y31157
X193689Y72102
X192902Y63441
X174792Y88244
X174792Y102024
X184241Y106748
X179910Y119740
X179516Y126827
X174792Y126827
X174792Y133913
X166524Y145724
X161800Y158323
X148807Y148087
X148414Y154780
X143493Y170724
X155107Y177614
X159437Y198480
X145264Y204780
X134241Y190213
X133650Y186965
X129910Y198480
X127744Y203697
X113768Y185488
X108059Y186472
X107863Y193756
X99595Y183126
X101170Y178795
X103926Y157535
X107863Y157142
X111603Y147299
X118493Y146906
X117410Y159898
X112981Y160291
X118099Y180370
X131189Y157929
X134634Y146512
X134634Y135094
X148807Y124071
X152351Y111866
X152351Y69740
X155107Y63441
X170067Y31157
X134241Y22496
X134241Y40213
X119280Y59898
X113768Y69346
X101957Y46512
X96052Y67378
X79910Y59898
X72430Y54386
X68886Y114228
X68099Y133520
X79122Y141394
X86603Y145724
X87390Y150055
X91327Y149071
X93689Y145724
X100382Y156748
X87784Y181945
X73217Y159898
X75973Y151630
X67705Y187850
X103532Y219740
X105500Y242969
X118099Y267378
X121248Y275252
X111406Y277614
X127548Y247693
X136996Y257535
X142115Y254386
X141721Y246118
X145658Y233520
X160225Y257535
X162981Y252811
X166524Y250055
X176367Y227614
X179516Y218165
X173512Y195331
X183059Y165803
X189359Y154386
X192213Y126925
X216524Y126039
X216524Y162260
X182272Y289425
X177154Y289819
X166524Y322890
X160225Y334307
X153532Y290213
X114556Y340213
X110619Y352417
X110225Y115803
T02
X78453Y130055
X88453Y130055
X119134Y130055
X129134Y130055
X159819Y130055
X169819Y130055
X200500Y130055
X210500Y130055
X146662Y324366
X136662Y324366
X123788Y323992
X113788Y323992
T03
X80304Y226039
X90146Y226039
X99989Y226039
X99989Y348087
X90146Y348087
X80304Y348087
X188965Y348087
X198807Y348087
X208650Y348087
X208650Y226039
X198807Y226039
X188965Y226039
T04
X125599Y215409
X125599Y225409
X125599Y235409
X115599Y235409
X115599Y225409
X115599Y215409
X124201Y377220
X124201Y387220
X134201Y387220
X134201Y377220
X144201Y377220
X144201Y387220
X154201Y387220
X154201Y377220
X164201Y377220
X164201Y387220
T05
X83453Y6354
X83453Y39819
X83453Y51630
X83453Y69346
X83453Y102811
X83453Y114622
X90146Y163835
X90146Y175646
X90146Y209110
X90146Y285882
X90146Y297693
X90146Y331157
X198807Y331157
X198807Y297693
X198807Y285882
X198807Y209110
X198807Y175646
X198807Y163835
X205500Y114622
X205500Y102811
X205500Y69346
X205500Y51630
X205500Y39819
X205500Y6354
X164819Y6354
X164819Y39819
X164819Y51630
X164819Y69346
X164819Y102811
X164819Y114622
X124134Y114622
X124134Y102811
X124134Y69346
X124134Y51630
X124134Y39819
X124134Y6354
T06
X72823Y252417
X107469Y252417
X107469Y374465
X72823Y374465
X181485Y374465
X216130Y374465
X216130Y252417
X181485Y252417
T07
X7449Y123520
M30
